<svg xmlns="http://www.w3.org/2000/svg" viewBox="0 0 515.11 310.04"><defs><style>.cls-1{fill:#fce8ff;}.cls-2{fill:#ffb119;}.cls-3{fill:#ffc044;}.cls-4{fill:#ab485a;}.cls-5{fill:#ffdd19;}.cls-6{fill:#ffe834;}.cls-7{fill:#bf525a;}.cls-8{fill:#46ded5;}.cls-9{fill:#5c99fc;}.cls-10{fill:#a370e4;}.cls-11{fill:#ffad2d;}.cls-12{fill:#af2c4f;}.cls-13{fill:#ff4073;}.cls-14{fill:#fe4875;}.cls-15{fill:#2a3ca2;}.cls-16{fill:#1d296f;}.cls-17{fill:#ff7d79;}.cls-18{fill:#3b4fc0;}.cls-19{fill:#80ccff;}.cls-20{fill:#bff8fc;}.cls-21{fill:#35a1ad;}.cls-22{fill:#ffae12;}.cls-23{fill:#ff6f4f;}.cls-24{fill:#503a8a;}.cls-25{fill:#fdbc9d;}.cls-26{fill:#ffea4f;}.cls-27{fill:#efd24a;}.cls-28{fill:#33205c;}.cls-29{fill:#c08f77;}.cls-30{fill:#3c2c68;}.cls-31{fill:#e87329;}.cls-32{fill:#db3454;}.cls-33{fill:#dea58a;}.cls-34{fill:#ed3c65;}.cls-35{fill:#d23559;}.cls-36{fill:#c19078;}.cls-37{fill:#e8667a;}.cls-38{fill:#f16a7f;}.cls-39{fill:#d75f71;}.cls-40{fill:#eb6076;}.cls-41{fill:#c9596a;}.cls-42{fill:#e68829;}</style></defs><g id="Layer_2" data-name="Layer 2"><g id="Layer_1-2" data-name="Layer 1"><path class="cls-1" d="M464.93,164c-7.74-27.59,7.94-52.1-16.49-84.37C420,42,383.26,53.12,352.92,35.53,328,21.09,305-4.27,242.37.62c-59.81,4.66-76.8,47.34-101.82,63-23.44,14.7-56.9,18.37-71.76,41.7-16.4,25.73-.05,61.77-8.25,91.15-5.84,21-25.61,37.12-28.6,58.67C28.63,279,42.06,310,68.3,310H467.35c25.17,0,50.51-27.29,47.52-58.66C509.93,199.49,471.29,186.7,464.93,164Z"/><path class="cls-2" d="M76,232.59c-4.8.07-7.71,7.71-8.37,14.72C65.72,267.39,80.5,302,84,310H95.1c.32-6.4,2.12-50.28-9.36-68.9C81.94,234.89,78.65,232.55,76,232.59Z"/><path class="cls-2" d="M31.48,262.9a83.52,83.52,0,0,0-16-6.66,25.93,25.93,0,0,0-6.59-1.05c-10.13-.13-11.11,8.57-5.25,14.37,9.19,9.09,27.3,21.18,41.54,30.13,6.79,4.27,11.41,7.07,15,9.18.38.1.77.22,1.16.31.75.17,1.5.32,2.27.43s1.55.21,2.35.27,1.6.09,2.42.09h9.3L77,295.8S54.28,274.89,31.48,262.9Z"/><path class="cls-3" d="M3.6,269.56l.3.29,3-14.57C-1.38,256.23-1.86,264.16,3.6,269.56Z"/><path class="cls-3" d="M11.9,255.46l-.77-.11-3.7,17.74c2.45,2.13,5.25,4.36,8.27,6.65l4.57-21.93c-1.63-.6-3.25-1.13-4.83-1.57A29,29,0,0,0,11.9,255.46Z"/><path class="cls-4" d="M12.22,263.41l-.12,0a.31.31,0,0,0-.19.58c18.53,10.72,36.05,22.38,52.26,36a.32.32,0,0,0,.45,0,.31.31,0,0,0-.05-.44C48.32,285.82,30.77,274.15,12.22,263.41Z"/><path class="cls-4" d="M51.16,288.9h0l-11.27-.59a.31.31,0,1,0,0,.62l11.27.59A.31.31,0,0,0,51.16,288.9Z"/><path class="cls-4" d="M44,275.76a.31.31,0,0,0-.34.41l3.63,10.39a.3.3,0,0,0,.4.19.31.31,0,0,0,.19-.39L44.24,276A.3.3,0,0,0,44,275.76Z"/><path class="cls-5" d="M43.25,228.68c-4-3.15-8-5.09-11.25-5-5.36.14-8.56,5.9-6.27,21.09.64,4.28,2.78,9.58,5.78,15.32,9.63,18.45,27.2,40.21,35.25,49.83.51,0,1,.06,1.54.06H84.67c-2.51-10.45-12.06-46.21-31.06-70.71A60.59,60.59,0,0,0,43.25,228.68Z"/><path class="cls-6" d="M32,223.67c-4.65.14-7.66,4.53-6.86,15.67l11.62-14.63A11.73,11.73,0,0,0,32,223.67Z"/><path class="cls-6" d="M25.78,245.11a44.37,44.37,0,0,0,3.6,10.67l18.38-23.13a45.78,45.78,0,0,0-7.33-6Z"/><path class="cls-4" d="M34.8,234.24a.31.31,0,1,0-.53.32C49.14,259,62.14,282.11,74.9,305.06a.32.32,0,0,0,.43.13.32.32,0,0,0,.12-.43C62.68,281.8,49.68,258.68,34.8,234.24Z"/><path class="cls-3" d="M76,232.59c-4.49.06-7.33,6.77-8.21,13.37l10.29-13A5.4,5.4,0,0,0,76,232.59Z"/><path class="cls-3" d="M81.42,235.4,67.49,252.93a81.47,81.47,0,0,0,1.74,13l17.85-22.45c-.43-.84-.87-1.65-1.34-2.41A29.91,29.91,0,0,0,81.42,235.4Z"/><path class="cls-4" d="M77.8,242.34a.31.31,0,1,0-.61.14c4.27,17.4,7.37,34.46,10.27,51.48a.31.31,0,1,0,.61-.1C85.17,276.83,82.08,259.75,77.8,242.34Z"/><path class="cls-4" d="M18.31,261.93a.32.32,0,0,0-.33.41l1.88,6.2a.3.3,0,0,0,.38.21.31.31,0,0,0,.21-.39l-1.87-6.2A.31.31,0,0,0,18.31,261.93Z"/><path class="cls-4" d="M25.31,271.48h0l-11.32.19a.31.31,0,0,0,0,.62l11.32-.18A.31.31,0,0,0,25.31,271.48Z"/><path class="cls-4" d="M36.1,278.33h-.05l-9.95.31a.32.32,0,0,0,0,.63l10-.32A.31.31,0,0,0,36.1,278.33Z"/><path class="cls-4" d="M31.33,270.76a.33.33,0,0,0-.23-.18.32.32,0,0,0-.34.44l2.75,6.16a.3.3,0,0,0,.42.17.31.31,0,0,0,.15-.42Z"/><path class="cls-4" d="M42.16,247l-9.38-4.08a.4.4,0,0,0-.15,0,.31.31,0,0,0-.1.6l9.38,4.09A.32.32,0,0,0,42.16,247Z"/><path class="cls-4" d="M50.84,251.27a.31.31,0,0,0-.3.29l-.77,8.79a.32.32,0,0,0,.63.06l.76-8.79A.32.32,0,0,0,50.84,251.27Z"/><path class="cls-4" d="M40.92,264.42a.4.4,0,0,0-.15,0,.31.31,0,0,0-.11.6l15.72,7.21a.31.31,0,0,0,.42-.15.32.32,0,0,0-.16-.42Z"/><path class="cls-4" d="M60.11,262.35a.31.31,0,0,0-.29.29l-.77,13.86a.31.31,0,1,0,.62,0l.77-13.85A.3.3,0,0,0,60.11,262.35Z"/><path class="cls-4" d="M53.79,282.69a.37.37,0,0,0-.15,0,.31.31,0,0,0-.09.6l11.92,5.16a.3.3,0,0,0,.42-.16.31.31,0,0,0-.17-.41Z"/><path class="cls-4" d="M69.57,279.86a.31.31,0,0,0-.29.27l-1.65,11.75a.33.33,0,0,0,.27.36.31.31,0,0,0,.35-.27l1.65-11.75A.31.31,0,0,0,69.57,279.86Z"/><path class="cls-4" d="M82.67,251.84a.31.31,0,0,0-.28.25L81,258.76a.3.3,0,0,0,.24.37.31.31,0,0,0,.37-.24L83,252.21A.31.31,0,0,0,82.67,251.84Z"/><path class="cls-4" d="M73.89,257a.29.29,0,0,0-.23-.08.31.31,0,0,0-.18.55l8.7,7.55a.31.31,0,1,0,.41-.47Z"/><path class="cls-4" d="M87.63,265.28a.31.31,0,0,0-.27.21L84,274.66a.31.31,0,0,0,.18.4.3.3,0,0,0,.4-.19L88,265.7A.31.31,0,0,0,87.63,265.28Z"/><path class="cls-4" d="M75,270.26a.35.35,0,0,0-.24-.06h0a.31.31,0,0,0-.13.56l10.06,7.4a.32.32,0,0,0,.37-.51Z"/><path class="cls-5" d="M512.43,211.32c-5.74-2-16.22,7.62-16.22,7.62s10.8,2.17,17-2.73C515.06,214.75,514.9,212.19,512.43,211.32Z"/><path class="cls-5" d="M491.78,202.38c-3.25,5.15,3.83,17.52,3.83,17.52s4.51-10.05,1.11-17.18C495.71,200.59,493.18,200.17,491.78,202.38Z"/><path class="cls-5" d="M479.76,213.23c-1.27,6.53,10.87,16.3,10.87,16.3s.59-12-5.71-17.93C483,209.83,480.3,210.42,479.76,213.23Z"/><path class="cls-5" d="M510.86,223.67c-6.5-3.31-20.46,6.51-20.46,6.51s12.49,4.26,20.61-.58C513.44,228.15,513.66,225.09,510.86,223.67Z"/><path class="cls-5" d="M504.91,243.22c-5.61-4.65-21.39,1.87-21.39,1.87s11.25,6.9,20.24,3.95C506.45,248.16,507.33,245.22,504.91,243.22Z"/><path class="cls-5" d="M498.67,256.88c-5.86-4.34-21.27,3-21.27,3s11.6,6.29,20.43,2.87C500.46,261.74,501.18,258.75,498.67,256.88Z"/><path class="cls-5" d="M494.83,267.77C488,264,472.69,274,472.69,274s13.21,5,22.09.12C497.43,272.66,497.77,269.39,494.83,267.77Z"/><path class="cls-5" d="M475.65,226.17c-2.15-1.62-4.93-.71-5.18,2.26-.6,6.92,13.06,15.74,13.06,15.74S482.83,231.62,475.65,226.17Z"/><path class="cls-5" d="M467.67,242c-2.33-1.36-5-.13-4.88,2.85.22,7,14.84,14.08,14.84,14.08S475.44,246.58,467.67,242Z"/><path class="cls-5" d="M458.6,260.32c-2.6-.7-4.83,1.19-4,4,2.06,6.64,18,9.64,18,9.64S467.3,262.64,458.6,260.32Z"/><path class="cls-5" d="M509.93,194.58c-5.83,1.76-8.55,15.75-8.55,15.75s10-4.66,12.07-12.27C514.07,195.78,512.43,193.81,509.93,194.58Z"/><path class="cls-7" d="M501.54,209.72h0l-.05,0a.58.58,0,0,0-.2.18q-1.78,2.83-3.46,5.65c-15,25.12-23.83,50.51-30.83,76l1.09-.31c7-25.22,15.8-50.33,30.58-75.17,1.12-1.87,2.26-3.73,3.44-5.6A.49.49,0,0,0,501.54,209.72Z"/><path class="cls-7" d="M488.5,271.06h0a97.09,97.09,0,0,1-14.84,2.51.26.26,0,0,0-.22.27.24.24,0,0,0,.27.21,97.4,97.4,0,0,0,14.91-2.53A.24.24,0,0,0,488.5,271.06Z"/><path class="cls-7" d="M461.51,265.5a.29.29,0,0,0-.18-.07.24.24,0,0,0-.15.42c3.83,3.65,7.1,5.41,10.51,7.72a.24.24,0,1,0,.27-.4C468.53,270.85,465.29,269.12,461.51,265.5Z"/><path class="cls-7" d="M492.31,259.24h0a94.48,94.48,0,0,1-13.89.43.24.24,0,1,0,0,.48,95.49,95.49,0,0,0,14-.43A.24.24,0,1,0,492.31,259.24Z"/><path class="cls-7" d="M469.48,248.45a.25.25,0,0,0-.22-.12.24.24,0,0,0-.18.37c2.68,4.31,5.26,6.75,7.84,9.73a.24.24,0,0,0,.35,0,.24.24,0,0,0,0-.34C474.68,255.11,472.14,252.71,469.48,248.45Z"/><path class="cls-7" d="M498.1,245.25c-4.59.55-9-.09-13.54-.31h0a.24.24,0,0,0,0,.48c4.49.22,8.95.87,13.62.3a.22.22,0,0,0,.21-.26A.23.23,0,0,0,498.1,245.25Z"/><path class="cls-7" d="M476.11,231.85a.25.25,0,0,0-.22-.13.24.24,0,0,0-.21.36,126.83,126.83,0,0,0,7.2,11.48.25.25,0,0,0,.35.08.24.24,0,0,0,0-.35A124.23,124.23,0,0,1,476.11,231.85Z"/><path class="cls-7" d="M484.68,216.56a.25.25,0,0,0-.25-.16.24.24,0,0,0-.2.33A132.53,132.53,0,0,0,490,228.86a.24.24,0,0,0,.33.12.25.25,0,0,0,.1-.34A129.82,129.82,0,0,1,484.68,216.56Z"/><path class="cls-7" d="M494.52,206.75a.24.24,0,0,0-.23.25,98.49,98.49,0,0,0,1,12.2.24.24,0,0,0,.26.22.25.25,0,0,0,.22-.27,100.41,100.41,0,0,1-1-12.15A.23.23,0,0,0,494.52,206.75Z"/><path class="cls-7" d="M509.34,198.69a.24.24,0,0,0-.22.14c-2,4.53-4.71,7.11-7.21,10.46a.25.25,0,0,0,0,.35.24.24,0,0,0,.34-.06c2.47-3.31,5.27-5.94,7.27-10.56A.23.23,0,0,0,509.34,198.69Z"/><path class="cls-7" d="M508.31,214.7l-.09,0a107.63,107.63,0,0,1-11,3.63.23.23,0,0,0-.17.29.24.24,0,0,0,.3.17,108.8,108.8,0,0,0,11.07-3.64A.24.24,0,0,0,508.31,214.7Z"/><path class="cls-7" d="M504.67,227.38h-.06a111.34,111.34,0,0,1-13.56,2.44.24.24,0,0,0-.21.27.23.23,0,0,0,.28.2,108.39,108.39,0,0,0,13.62-2.45A.24.24,0,0,0,504.67,227.38Z"/><rect class="cls-5" x="297.4" y="43.28" width="61.82" height="43.4"/><rect class="cls-8" x="368.2" y="115.77" width="67.15" height="44.61"/><polygon class="cls-9" points="378.38 122.61 390.56 130.8 401.77 137.82 412.97 130.81 425.17 122.61 425.17 98.8 378.38 98.8 378.38 122.61"/><path class="cls-10" d="M284.07,98.08H220.55a5.56,5.56,0,0,0-5.58,5.57v36.61a5.57,5.57,0,0,0,5.58,5.58H271c8.47,11.45,9.82,13.45,9.82,13.45l1.37-13.45h1.9a5.56,5.56,0,0,0,5.57-5.58V103.65A5.55,5.55,0,0,0,284.07,98.08Z"/><path class="cls-11" d="M262.39,124.07a1.67,1.67,0,0,0-1.63,1.56l-1,11.79a1.68,1.68,0,0,0,1.52,1.86,1.7,1.7,0,0,0,1.83-1.57l1-11.79A1.68,1.68,0,0,0,262.39,124.07Z"/><polygon class="cls-12" points="225.53 46.97 234.18 41.91 226.75 34.35 225.53 46.97"/><polygon class="cls-13" points="239.69 50.8 274.57 21.66 217.5 25.72 239.69 50.8"/><polygon class="cls-12" points="226.25 35.6 226.92 36.37 241.05 31.76 240.76 30.87 226.25 35.6"/><rect class="cls-12" x="245.27" y="28.89" width="4.91" height="0.93" transform="translate(1.51 69.48) rotate(-16.02)"/><path class="cls-14" d="M315.55,215.85a17.18,17.18,0,0,1-3-3.22l-6.09,2.94s.17,2.44-.45,3.41a45.28,45.28,0,0,1-5.83,6.62c-1.2,1.22-.34,2.19.67,1.85,3.2-1.07,9.63-4.38,14.83-7.27C317.49,219.17,316.37,216.39,315.55,215.85Z"/><path class="cls-14" d="M298.22,221.09l-6.72-.81s-1.17,2.15-2.22,2.63a45.08,45.08,0,0,1-8.48,2.43c-1.67.38-1.46,1.65-.43,1.91,3.27.83,10.47,1.51,16.4,1.88,2.07.13,2.62-2.82,2.22-3.72A17.67,17.67,0,0,1,298.22,221.09Z"/><path class="cls-15" d="M324.8,160.75s-14.91,2.82-22.43,3.88c-8.46,1.19-10.36,9.9-9.57,13.21,1,4.27,4.24,12.48,4.24,12.48s-3,16.47-5,24.58c-.5,2-2.86,4.23-1.76,6,1.53,2.46,5.82,2.4,8.57,1.5a2.3,2.3,0,0,0,1.12-1.16,14.25,14.25,0,0,0,.47-2.1,71.93,71.93,0,0,1,3.73-7.8s.72,1.74,1,2.62,0,2.64.94,3.09c2.73,1.26,8.37-.57,8.27-3.57C314,199.66,318,176.56,318,176.56s13.11.4,20.85,0c3.84-.19,6.42-1.68,7.45-5.15,1.13-3.79-1.09-8.18-1.09-8.18Z"/><path class="cls-16" d="M311.38,188.26a.24.24,0,0,0-.2.17c-2.9,8.83-4.51,15-7.11,22.52a.23.23,0,0,0,.14.3.24.24,0,0,0,.31-.15c2.61-7.5,4.22-13.7,7.11-22.52A.24.24,0,0,0,311.38,188.26Z"/><rect class="cls-8" x="310.23" y="176.67" width="134.74" height="99.77" rx="6.17"/><rect class="cls-17" x="273.2" y="236.67" width="7.88" height="50.06"/><rect class="cls-17" x="259.83" y="248.55" width="7.89" height="38.18"/><rect class="cls-17" x="246.45" y="267.7" width="7.89" height="19.03"/><rect class="cls-17" x="233.08" y="257.28" width="7.88" height="29.45"/><rect class="cls-17" x="219.71" y="263.58" width="7.89" height="23.15"/><rect class="cls-18" x="83.6" y="102.07" width="115.88" height="207.77" rx="13.58"/><path class="cls-9" d="M185,109.87H166c-1.76,0-3,.46-3.23,1.7-.46,2.19-1.8,4-4,4H124.35c-2.23,0-3.63-1.83-4-4-.2-1.06-1.38-1.7-3.23-1.7h-19A10.17,10.17,0,0,0,88,120.06V294.77A10.17,10.17,0,0,0,98.13,305H185a10.17,10.17,0,0,0,10.19-10.19V120.06A10.17,10.17,0,0,0,185,109.87Z"/><path class="cls-9" d="M157.12,106.74a2.09,2.09,0,0,0-1.47,3.57,2.09,2.09,0,0,0,2.95-3A2.06,2.06,0,0,0,157.12,106.74Z"/><rect class="cls-19" x="92.69" y="258.1" width="98.57" height="39.26"/><rect class="cls-18" x="101.43" y="264.44" width="26.4" height="26.57"/><rect class="cls-19" x="92.69" y="213.36" width="98.57" height="39.26"/><rect class="cls-18" x="101.43" y="220.73" width="56.74" height="3.43"/><rect class="cls-18" x="101.43" y="240.61" width="36.34" height="3.43"/><rect class="cls-18" x="101.43" y="230.67" width="76.12" height="3.43"/><rect class="cls-18" x="137.91" y="267.7" width="16.7" height="3.6"/><rect class="cls-18" x="137.91" y="276.01" width="22.18" height="3.6"/><rect class="cls-18" x="137.91" y="284.33" width="30.93" height="3.6"/><rect class="cls-19" x="113.64" y="128.38" width="56" height="56" transform="translate(-52.31 73.31) rotate(-24.65)"/><polygon class="cls-18" points="140.42 168.22 152.28 151.5 131.87 149.58 140.42 168.22"/><rect class="cls-20" x="319.49" y="262.04" width="114" height="3.77"/><path class="cls-21" d="M400.57,254.84A9.08,9.08,0,1,0,407,257.5,9.08,9.08,0,0,0,400.57,254.84Z"/><polygon class="cls-20" points="398.44 267.83 405.19 263.93 398.44 260.03 398.44 267.83"/><path class="cls-20" d="M393.83,205.09a6.22,6.22,0,0,0-6.23-6.23H350.82a6.22,6.22,0,0,0-6.23,6.23v26.73a6.22,6.22,0,0,0,6.23,6.23H387.6a6.22,6.22,0,0,0,6.23-6.23v-8l16.75,13.75V198.79l-16.75,13.75Z"/><path class="cls-21" d="M369,213.53a4.92,4.92,0,1,0,3.48,1.44A4.92,4.92,0,0,0,369,213.53Z"/><path class="cls-22" d="M332.54,55.56a2.76,2.76,0,0,1-.25-1.14l-2.21,1.26-9.47,5.43-2.11,1.21.1.08a4.51,4.51,0,0,1,.44.54,3.34,3.34,0,0,1,.33.62,3.37,3.37,0,0,1,.22.68,1.48,1.48,0,0,1,0,.21l2.16-1.24,9.4-5.38,2.09-1.2a2.6,2.6,0,0,1-.37-.45A3.38,3.38,0,0,1,332.54,55.56Z"/><path class="cls-22" d="M321.76,66.76l-2.16-1.24a1.27,1.27,0,0,1,0,.2,3.26,3.26,0,0,1-.22.69A3.69,3.69,0,0,1,319,67a3.75,3.75,0,0,1-.44.53l-.1.09,2.11,1.21,9.47,5.42,2.21,1.27a3.42,3.42,0,0,1,0-.46,3.94,3.94,0,0,1,.21-.69,3.74,3.74,0,0,1,.34-.62,3,3,0,0,1,.36-.44l-2.09-1.2Z"/><path class="cls-22" d="M335.9,57.78a3.64,3.64,0,0,1-.74-.07,2.22,2.22,0,0,1-.31-.1V72.35l.31-.09a3.46,3.46,0,0,1,1.48,0,3.51,3.51,0,0,1,.63.19V57.52a3.51,3.51,0,0,1-.63.19A3.64,3.64,0,0,1,335.9,57.78Z"/><path class="cls-22" d="M316,58.94a6,6,0,1,0,6.05,6A6.06,6.06,0,0,0,316,58.94Zm0,9.69A3.65,3.65,0,1,1,319.66,65,3.63,3.63,0,0,1,316,68.63Z"/><path class="cls-22" d="M335.9,48.1a6,6,0,1,0,6,6A6.06,6.06,0,0,0,335.9,48.1Zm0,9.68a3.64,3.64,0,1,1,3.64-3.64A3.62,3.62,0,0,1,335.9,57.78Z"/><path class="cls-22" d="M335.9,69.78a6,6,0,1,0,6,6A6.06,6.06,0,0,0,335.9,69.78Zm0,9.69a3.65,3.65,0,1,1,3.64-3.65A3.63,3.63,0,0,1,335.9,79.47Z"/><rect class="cls-19" x="385.65" y="105.77" width="32.24" height="0.85"/><rect class="cls-19" x="385.65" y="110.99" width="32.24" height="0.85"/><rect class="cls-19" x="389.1" y="117.05" width="25.33" height="0.85"/><rect class="cls-19" x="391.17" y="122.38" width="21.21" height="0.85"/><rect class="cls-19" x="394.92" y="126.93" width="13.7" height="0.85"/><path class="cls-18" d="M277.22,226.79a.43.43,0,0,0-.22.09L262.77,239a.27.27,0,0,0-.07.08L250.13,259l-13.06-9.54a.35.35,0,0,0-.37,0l-13.29,6.39L213,255.68a.36.36,0,0,0,0,.72l10.54.09a.29.29,0,0,0,.16,0l13.18-6.33,13.2,9.64a.35.35,0,0,0,.51-.1l12.74-20.18,14.19-12A.36.36,0,0,0,277.22,226.79Z"/><path class="cls-18" d="M247.34,191.77A5.26,5.26,0,1,0,252.6,197,5.26,5.26,0,0,0,247.34,191.77Z"/><path class="cls-18" d="M256.44,187.15a16.79,16.79,0,0,0-9.39-2.85h0a.71.71,0,0,0-.2,0h0a16.94,16.94,0,0,0-8.64,2.82,2,2,0,0,0-.9,1.31,1.94,1.94,0,0,0,.31,1.38,2,2,0,0,0,1.13.86,2,2,0,0,0,1.57-.27c4.61-3,8.8-3.34,14,0h0a1.93,1.93,0,0,0,1.59.29,2,2,0,0,0,1.15-.86,2,2,0,0,0,.3-1.41A2,2,0,0,0,256.44,187.15Z"/><path class="cls-18" d="M260.38,179.8A24.5,24.5,0,0,0,247,175.89a25.13,25.13,0,0,0-12.65,3.9h0a1.89,1.89,0,0,0-.71,2.71,2,2,0,0,0,1.13.89,2,2,0,0,0,1.6-.26c7.15-4.33,14-4.85,21.95,0h0a2,2,0,1,0,2-3.33Z"/><path class="cls-18" d="M266.6,173.25c-7.1-4.58-13.68-6.55-19.78-6.51-.41,0-.81,0-1.22,0-6.43.33-12.23,2.87-17.55,6.51a1.89,1.89,0,0,0-.52,2.72,1.9,1.9,0,0,0,2.72.5h0c4.94-3.37,10-5.55,15.56-5.83s11.62,1.31,18.67,5.86a1.92,1.92,0,0,0,1.57.27,2,2,0,0,0,.55-3.55Z"/><path class="cls-23" d="M180.57,301.6l-6.77,0s-.92,2.26-1.9,2.86a44.84,44.84,0,0,1-8.15,3.38c-1.62.57-1.27,1.81-.22,1.95,3.35.45,10.58.31,16.52,0,2.06-.11,2.28-3.1,1.77-3.95A17.75,17.75,0,0,1,180.57,301.6Z"/><path class="cls-23" d="M212.45,301.6l-6.76,0s-.93,2.26-1.91,2.86a44.55,44.55,0,0,1-8.15,3.38c-1.62.57-1.27,1.81-.21,1.95,3.34.45,10.58.31,16.51,0,2.06-.11,2.28-3.1,1.78-3.95A17.43,17.43,0,0,1,212.45,301.6Z"/><path class="cls-24" d="M206.37,225.84a37.2,37.2,0,0,0-2.43-9.94l-20.12,3.27s-2.28,2.78-2.42,4.73c-.05.7.46,1.36.48,2.06.08,2.25-1,4.42-1.09,6.67a23.87,23.87,0,0,1,.24,2.79c-.5,3.42-1.21,7.25-1.45,10.91,0,.52,0,1,0,1.57-.34,4.45-1.59,8.78-2.06,13.22-.08.72-.06,1.45-.12,2.18-1.12,13.12-4.52,39.24-4.52,39.24,2.24,1.26,4.93,1.42,8.31-.06-.1.12,5.91-21.86,7.48-36,.07-.62-.39-1.2-.36-1.82.05-1.1.78-2.07,1-3.15.15-.92-.1-1.87.09-2.78.83-3.94,4.46-11.23,4.46-11.23L204,302.93c3.17,2.16,6.34.83,9.51-.09,0,0-4.33-43.73-6.44-65.61C206.79,234.05,206.9,230.37,206.37,225.84Z"/><path class="cls-25" d="M181.94,167.66a8.06,8.06,0,0,0-6.3-4.31l3.12,6.81a22,22,0,0,1-5.27,1.37c-1.15.11-1.22,1.77,0,2.19,1.35.46,2.84.38,4.21.78.43.13,1,.14,1.24.52,3.37,5.42,6.7,15.67,6.7,15.67l5.61-5.94s-6.76-9.51-8.55-13.16C182.08,170.39,182.52,168.86,181.94,167.66Z"/><polygon class="cls-25" points="193.82 168.32 193.16 181.78 203.16 180.44 202.25 168.56 193.82 168.32"/><path class="cls-26" d="M207.82,186.32c-.5-5.07-5.21-8.36-5.21-8.36l-8.85,1.88s-3.25,1.63-4.18,3.09c-6.7,10.54-5.87,22.19-7.39,36.73-.08.77,1.45,1.33,1.75,1.51s19-2.42,19.28-2.54a6.16,6.16,0,0,0,2.42-1.76c.56-1.05.23-2.39.12-3.58-.06-.63-.38-1.23-.42-1.87C204.82,203,208.65,194.69,207.82,186.32Z"/><path class="cls-27" d="M207.82,186.32c0-.21,0-.42-.08-.63.24,7.5-3.77,17.41-3.32,24.66,0,.58.33,1.13.38,1.71.1,1.08.4,2.3-.11,3.26a5.67,5.67,0,0,1-2.21,1.6c-.22.11-17.26,2.48-17.54,2.31s-1.67-.68-1.6-1.38c1.39-13.23.52-25.61,6.62-35.2a10.52,10.52,0,0,1,3.33-2.56,11.8,11.8,0,0,0-3.71,2.84c-6.7,10.54-5.87,22.19-7.39,36.73-.09.77,1.45,1.33,1.75,1.51s19-2.42,19.28-2.54a6.16,6.16,0,0,0,2.42-1.76c.56-1.05.23-2.39.12-3.58-.06-.63-.38-1.23-.42-1.87C204.82,203,208.65,194.69,207.82,186.32Z"/><path class="cls-27" d="M190.09,184.26H190s-1.19,1.18-2.61,2.79c-2.94,6.48-3.65,13.45-4.24,21.27a20.26,20.26,0,0,0,2.14-2.74l.21.11s7.94-5.32,9.9-9.43C200.94,184.63,191.31,184.26,190.09,184.26Z"/><path class="cls-25" d="M161.88,184.93c-1.46-1.52-1.92-5.09-2.12-7.76-.11-1.48-2-.53-2.18.79-.17,1.08-.43,3.27-.43,3.27l-2.3-.12-6.79,3.09s5.54,1.72,7.58,3.64c6.19,5.82,11.62,13.61,18.55,19.21,2.11,1.71,3.81,2.2,6.66,1.09,2.27-.88,4.91-5.39,4.91-5.39L179,198.26S165.2,188.38,161.88,184.93Z"/><path class="cls-26" d="M189.76,182.54a55.84,55.84,0,0,0-4.93,5.62c-2.29,3.07-6.51,9.47-6.51,9.47a15.57,15.57,0,0,0,6.94,6.34s7.93-5.32,9.9-9.43C201.1,182.14,189.76,182.54,189.76,182.54Z"/><path class="cls-28" d="M204.43,155.11s.35-2.71-4.12-3.4c-6.44-1-9.43,1.67-14.18,1.52-.94,0-1.22-1.15-1.22-1.15a5.63,5.63,0,0,0,1.52,8.18,2.83,2.83,0,0,0,2.42.37l9.4,8.78a17.86,17.86,0,0,1,.78,4.67,8.13,8.13,0,0,0,3.94.24,20.68,20.68,0,0,1,1.22-4c1.3-2.68,3.38-4,4-8C209.2,155.83,204.43,155.11,204.43,155.11Z"/><path class="cls-29" d="M193.34,178c3.8-2.23,4.52-5.36,4.91-8.59l-4.64,3.21Z"/><path class="cls-25" d="M198.5,164.52c-1,.15-1.34,1.59-1.34,1.59-.17.78-.64.39-.88-.27-.47-1.26.33-3.17-.64-4.21-1.93-2.08-6.79-1-6.79-1a15.46,15.46,0,0,0-.36,10.21c.54,1.84,1.87,3.7,3.82,3.79a5.63,5.63,0,0,0,5.51-4.7c.07-.3.33.91.89.58C200.38,169.55,201.49,164,198.5,164.52Z"/><path class="cls-29" d="M199.2,166.09a.61.61,0,0,0-.5,0,1.59,1.59,0,0,0-.59.36.18.18,0,1,0,.23.27,1.63,1.63,0,0,1,.46-.29.29.29,0,0,1,.23,0,.74.74,0,0,1,.18.57,2.21,2.21,0,0,1-.22,1,1,1,0,0,1-.55.55.18.18,0,0,0-.14.22.18.18,0,0,0,.22.13,1.26,1.26,0,0,0,.79-.74,2.39,2.39,0,0,0,.26-1.12A.93.93,0,0,0,199.2,166.09Z"/><path class="cls-30" d="M202.31,230.51a.25.25,0,0,0-.17.08h0l0,0a2.53,2.53,0,0,1-.35.22c-.4.22-1.16.6-2.62,1.24-.86.38-1.54,1.54-2.19,3a37.86,37.86,0,0,0-1.73,5.18c-1,3.65-1.62,7.13-1.62,7.13a.24.24,0,1,0,.48.08s.62-3.46,1.6-7.08a38.36,38.36,0,0,1,1.71-5.12,5.63,5.63,0,0,1,2-2.79c1.46-.64,2.23-1,2.65-1.26a4.69,4.69,0,0,0,.4-.25l.09-.06a.29.29,0,0,0,0-.06A.24.24,0,0,0,202.31,230.51Z"/><path class="cls-30" d="M198.41,232.14a.26.26,0,0,0-.12.05s-4.14,3-8,3.72a5.67,5.67,0,0,1-3.3-.28.24.24,0,0,0-.33.1.24.24,0,0,0,.12.33,6.23,6.23,0,0,0,3.6.32,24.44,24.44,0,0,0,8.22-3.8A.24.24,0,0,0,198.41,232.14Z"/><path class="cls-11" d="M251.43,110.07v19l17.95-5.3c1.51-1.64,1.58-6.67,0-8.44Z"/><path class="cls-26" d="M240,105.8v27.59l26-7.68c2.19-2.38,2.3-9.67,0-12.23Z"/><path class="cls-26" d="M239.73,105.8c-3,0-5.42,6.17-5.42,13.79s2.43,13.8,5.42,13.8c1.44,0,2.82-1.46,3.84-4a30.72,30.72,0,0,0,0-19.51C242.55,107.25,241.17,105.8,239.73,105.8Z"/><path class="cls-11" d="M238.73,106.9c-1.17,0-2.29,1.33-3.12,3.71a31.67,31.67,0,0,0,0,18c.83,2.38,1.95,3.72,3.12,3.72s2.3-1.34,3.13-3.72a31.67,31.67,0,0,0,0-18C241,108.23,239.91,106.9,238.73,106.9Z"/><polygon class="cls-31" points="267.7 116.52 269.15 116.75 269.19 116.51 267.74 116.28 267.7 116.52"/><polygon class="cls-31" points="268.01 119.09 269.69 119.11 269.69 118.87 268.02 118.85 268.01 119.09"/><rect class="cls-31" x="267.99" y="121.29" width="1.49" height="0.24" transform="translate(-11.68 30.16) rotate(-6.29)"/><path class="cls-16" d="M319.89,162.87h-.05s-2.3.45-5.12,1.17a41,41,0,0,0-8.22,2.8,12,12,0,0,0-6.12,7.54c-.73,2.84-1.56,6.66-2.21,9.81S297,189.83,297,190a.23.23,0,0,0,.19.28.24.24,0,0,0,.28-.19c0-.15.5-2.61,1.15-5.75s1.48-7,2.21-9.79a11.52,11.52,0,0,1,5.88-7.24,41.28,41.28,0,0,1,8.11-2.76c2.8-.71,5.09-1.16,5.09-1.16A.24.24,0,0,0,319.89,162.87Z"/><path class="cls-10" d="M321.62,160.71l-15.78,4.13L299,149.71a1.2,1.2,0,1,0-2.19,1l7.22,16.06a1.19,1.19,0,0,0,1.4.67L322.22,163a1.2,1.2,0,1,0-.6-2.32Z"/><path class="cls-25" d="M313,162.63l5.24-2.31,9.7-5,.24-8.85c-11.51,11-14.67,12.55-14.67,12.55Z"/><polygon class="cls-25" points="331.1 125.29 331.89 129.84 340.5 126.74 335.28 118.56 331.1 125.29"/><polygon class="cls-32" points="329.65 129.71 330.07 132.32 342.68 128.32 340.57 125.54 329.65 129.71"/><path class="cls-33" d="M315.05,158.05a13,13,0,0,1-1.53,1l-.47,3.31.75-.08,4.45-2,9.7-5,.08-2.89c-3.7,2.27-8.52,4.92-11.93,5.62A2.87,2.87,0,0,1,315.05,158.05Z"/><path class="cls-14" d="M342.68,128.32c-5.38-.23-9.15,1.68-12.61,4a17.89,17.89,0,0,0-2.12,7.82,30.4,30.4,0,0,1-.36,3.57c-1,5.53-1.42,10.31-4,16.33-.31.71-.42,1.94.25,2.32,6.13,3.39,14.53,4.24,20.83,3.55a2.85,2.85,0,0,0,2.19-1.45c.4-.83-.34-1.84-.21-2.75.08-.6.6-1.1.64-1.71.65-9.37,2.47-15.26,1.24-22.76C347.71,132.44,342.68,128.32,342.68,128.32Z"/><path class="cls-34" d="M341.69,128.3c-4.86,0-8.38,1.84-11.62,4,3.07-2.06,7.84-4.21,12.61-4C342.34,128.3,342,128.3,341.69,128.3Z"/><path class="cls-34" d="M342.88,128.49c.86.76,4.35,4,5,7.74,1.09,6.64-1.73,14.73-2.3,23,0,.54-.5,1-.57,1.52-.12.81.54,1.7.19,2.43a2.58,2.58,0,0,1-1.94,1.3,30.13,30.13,0,0,1-17.49-3.34c-.6-.33-.5-1.42-.23-2.05,2.31-5.33,1.52-11.81,2.37-16.71a26,26,0,0,0,.32-3.17,16,16,0,0,1,1.81-6.8,18.29,18.29,0,0,0-2.05,7.69,30.4,30.4,0,0,1-.36,3.57c-1,5.53-1.42,10.31-4,16.33-.31.71-.42,1.94.25,2.32,6.13,3.39,14.53,4.24,20.83,3.55a2.85,2.85,0,0,0,2.19-1.45c.4-.83-.34-1.84-.21-2.75.08-.6.6-1.1.64-1.71.65-9.37,2.47-15.26,1.24-22.76C347.8,133,343.78,129.28,342.88,128.49Z"/><path class="cls-35" d="M339.61,132.43c-.1,0-.2,0-.31,0-1.54,0-3,1-3.89,3.31-1.35,3.64-1.52,11.52-1.52,11.52a8.28,8.28,0,0,0,.83.53l-.53,3.05a104.9,104.9,0,0,1-9.34,5.83c-.36,1.09-.79,2.21-1.29,3.37a2.84,2.84,0,0,0-.19,1.68,130.5,130.5,0,0,0,14-4.16,7.14,7.14,0,0,0,3.94-2.85c.86-1.51,1.24-4.42,1.4-6.28l.47-.08s.43-7.25,1-10.82C344.58,135.24,342.35,132.56,339.61,132.43Z"/><path class="cls-35" d="M334.25,134.71c-1.35,3.63-1.52,11.52-1.52,11.52,2.69,2,5.95,1.67,9.27,1.09,0,0,1-7.16,1.58-10.73S336.72,128,334.25,134.71Z"/><path class="cls-25" d="M333.47,149.47s-11.09,7.91-17.37,9.19c-1.21.24-2.57-.75-3.7-.25-2.6,1.17-4.26,6-2.48,5.22,2-.83,3.1-.54,4.54-.9.93-.24,1.62-.68,2.55-.92,6.47-1.69,13.35-3.25,19.61-5.61a7.11,7.11,0,0,0,3.94-2.85c1.33-2.32,1.51-8,1.51-8l-7.82-.42Z"/><path class="cls-14" d="M334.68,134.38c-1.35,3.63-1.52,11.52-1.52,11.52,2.69,2,5.95,1.66,9.28,1.09,0,0,1-7.17,1.57-10.73S337.16,127.69,334.68,134.38Z"/><path class="cls-28" d="M335.86,108.79a4.59,4.59,0,0,0-4-3.86c-4.65-.64-8.91,3.28-13.59,3.68-1.83.16-3.3-1.75-3.3-1.75s-1.55,6.66,2.36,9a6.06,6.06,0,0,0,5.7.69l13,4.07a13.67,13.67,0,0,1,2.23,2.83,15.88,15.88,0,0,1,.3-2.83c.5-2.15,1.56-3.54,1.37-6.47C339.61,109.33,335.86,108.79,335.86,108.79Z"/><path class="cls-36" d="M332.47,123.08l-1.37,2.21.58,3.35c3.61-1,4.34-7,4.15-8.41Z"/><path class="cls-25" d="M334.92,116.18c-.95.42-.61,1.78-.61,1.78s-.55.7-.89.6c-1.09-.33-.7-1.61-1.23-2.62-.64-1.23-2-1.42-3.19-1.58-1.88-.26-6,2.23-6,2.23s-.27,5.42,2.31,8.78c2.05,2.66,4.29,2.45,6.37,1.52s3.1-3.18,3.49-5.85c.06-.38.52.67,1.16,0C337.52,119.86,337.25,115.14,334.92,116.18Z"/><path class="cls-36" d="M335.93,117.34a.69.69,0,0,0-.47,0,1.43,1.43,0,0,0-.5.34.17.17,0,1,0,.23.24,1.11,1.11,0,0,1,.38-.26.28.28,0,0,1,.22,0,.62.62,0,0,1,.27.48,1.61,1.61,0,0,1-.07.84.9.9,0,0,1-.49.55.17.17,0,0,0-.1.22.17.17,0,0,0,.22.1,1.2,1.2,0,0,0,.68-.75,2,2,0,0,0,.1-1A1,1,0,0,0,335.93,117.34Z"/><path class="cls-37" d="M459.49,308.24A5.54,5.54,0,0,0,460,310h7.36A39.36,39.36,0,0,0,484,306.09l3.69-24H455.48Z"/><path class="cls-38" d="M458.52,301.9c13.79,4.1,21-3.87,28.3-14.06l.88-5.72H455.48Z"/><path class="cls-39" d="M481.25,294.92l-.6.62c-1.11,4.83-4.11,9.18-8,14A41.15,41.15,0,0,0,484,306.09l2.81-18.25c-.92,1.28-1.83,2.52-2.76,3.7S482.21,293.86,481.25,294.92Z"/><path class="cls-40" d="M480.65,295.54l.6-.62c1-1.06,1.89-2.19,2.81-3.38s1.84-2.42,2.76-3.7l.88-5.72h-8.59C481.24,287.29,481.57,291.57,480.65,295.54Z"/><rect class="cls-37" x="454.34" y="278.14" width="34.49" height="3.98" rx="1.31"/><path class="cls-41" d="M488.2,281.46c-.64.52-32.18-.18-32.64-.33s-.36-1.5-.38-2.2a1.37,1.37,0,0,1,.22-.77,1.31,1.31,0,0,0-1.06,1.29v1.36a1.31,1.31,0,0,0,1.32,1.31h31.86a1.31,1.31,0,0,0,1.32-1.31v-.08A3.89,3.89,0,0,1,488.2,281.46Z"/><polygon class="cls-13" points="172.35 65.91 172.34 65.93 171.9 66.48 172.46 66.93 172.89 66.39 172.9 66.38 172.9 66.38 174.33 64.76 173.79 64.28 172.35 65.91"/><polygon class="cls-13" points="179.97 58.31 179.96 58.32 177.91 60.14 177.9 60.15 177.87 60.18 178.36 60.7 178.38 60.67 178.4 60.67 180.43 58.87 180.44 58.86 180.5 58.81 180.04 58.25 179.97 58.31"/><polygon class="cls-13" points="167.79 72.14 167.78 72.16 166.92 73.59 167.54 73.96 168.39 72.54 169.05 71.53 168.45 71.13 167.79 72.14"/><polygon class="cls-13" points="161.35 88.33 161.35 88.35 161.1 89.89 161.81 90.01 162.06 88.48 162.06 88.48 162.06 88.47 162.34 87.2 161.63 87.04 161.35 88.33"/><polygon class="cls-13" points="161.28 95.7 160.56 95.66 160.54 95.94 160.54 95.96 160.55 98.56 161.27 98.56 161.26 95.98 161.26 95.97 161.28 95.7"/><polygon class="cls-13" points="164.28 78.8 164.27 78.82 163.35 81.11 163.35 81.13 163.23 81.47 163.91 81.7 164.02 81.38 164.03 81.38 164.94 79.09 164.94 79.08 164.95 79.06 164.3 78.76 164.28 78.8"/><polygon class="cls-13" points="186.76 53.15 186.75 53.16 184.6 54.68 185.01 55.27 187.17 53.75 187.17 53.75 187.36 53.63 186.97 53.02 186.76 53.15"/><rect class="cls-13" x="215.61" y="38.95" width="2.88" height="0.72" transform="translate(-1.65 68.07) rotate(-17.76)"/><polygon class="cls-13" points="208.91 41.78 208.91 41.78 207.43 42.37 207.69 43.04 209.16 42.45 209.17 42.45 210.37 42.01 210.12 41.33 208.91 41.78"/><polygon class="cls-13" points="199.96 45.63 199.95 45.63 199.49 45.86 199.81 46.51 200.27 46.28 200.28 46.28 202.41 45.29 202.11 44.64 199.96 45.63"/><rect class="cls-13" x="191.84" y="49.17" width="2.88" height="0.72" transform="translate(0.81 102.13) rotate(-29.66)"/><path class="cls-42" d="M239.78,107.27c-2,1.38-3.38,6.47-3.38,12.32s1.4,10.94,3.38,12.32c2-1.38,3.38-6.47,3.38-12.32S241.76,108.65,239.78,107.27Z"/><polygon class="cls-21" points="401.77 137.83 368.95 115.77 368.2 115.77 368.2 116.28 401.02 138.33 368.2 160.38 369.71 160.38 401.77 138.84 433.83 160.38 435.34 160.38 402.52 138.33 435.35 116.28 435.35 115.77 434.6 115.77 401.77 137.83"/><path class="cls-18" d="M278.6,225.74h0L275,226a.36.36,0,1,0,0,.72l3.06-.21-.85,2.76a.37.37,0,0,0,.24.45.36.36,0,0,0,.45-.24l1-3.26A.36.36,0,0,0,278.6,225.74Z"/></g></g></svg>