<svg id="Layer_2" data-name="Layer 2" xmlns="http://www.w3.org/2000/svg" xmlns:xlink="http://www.w3.org/1999/xlink" viewBox="0 0 482 210"><defs><style>.cls-1{fill:url(#linear-gradient);}</style><linearGradient id="linear-gradient" x1="81.26" y1="125.73" x2="81.26" y2="97.47" gradientUnits="userSpaceOnUse"><stop offset="0" stop-color="#b63edf"/><stop offset="0.49" stop-color="#f567aa"/><stop offset="1" stop-color="#fda17b"/></linearGradient></defs><title>logo</title><path d="M128.43,126.05a19.06,19.06,0,0,1-14.28,5.86c-10.75,0-19.69-6.46-19.69-19.61s8.94-19.61,19.69-19.61a17.6,17.6,0,0,1,13.38,5.49l-5.79,6.09a11.25,11.25,0,0,0-7.44-2.93c-6.16,0-10.67,4.51-10.67,11,0,7.06,4.81,10.82,10.52,10.82a11.14,11.14,0,0,0,8.12-3.08Z"/><path d="M169.15,112.3c0,10.67-7.29,19.31-19.31,19.31S130.6,123,130.6,112.3,138,93,149.77,93,169.15,101.7,169.15,112.3Zm-29.38,0c0,5.64,3.38,10.9,10.07,10.9s10.07-5.26,10.07-10.9-3.91-11-10.07-11C143.23,101.33,139.77,106.74,139.77,112.3Z"/><path d="M213,78.26v52.53h-8.57l-.6-5.11c-2.86,4.43-7.44,5.94-11.95,5.94-10.9,0-19.09-7.21-19.09-19.39,0-12.78,8-19.39,18.86-19.39,3.91,0,10,2.1,12.17,5.94V78.26Zm-31,34c0,6.46,4.66,10.9,10.52,10.9a10.86,10.86,0,0,0,0-21.72C186.66,101.4,182,105.54,182,112.22Z"/><path d="M228.75,115.53c.6,4.58,4.58,7.89,11,7.89,3.38,0,7.82-1.28,9.92-3.46l5.86,5.79c-3.91,4.06-10.3,6-15.93,6-12.77,0-20.37-7.89-20.37-19.76,0-11.27,7.67-19.39,19.69-19.39,12.4,0,20.14,7.67,18.71,22.92Zm20.14-7.59c-.6-4.81-4.36-7.21-9.62-7.21-5,0-9,2.4-10.37,7.21Z"/><path d="M296.38,93.66l8.12,27.88L313,93.66h10.14l-12.93,37.27H299.54l-3.83-11-3.31-12.4L289.09,120l-3.83,11H274.59l-13-37.27h10.22l8.49,27.88,8-27.88Z"/><path d="M340,83.29c0,7.14-10.82,7.14-10.82,0S340,76.15,340,83.29ZM330,93.59v37.2h9.17V93.59Z"/><path d="M355.6,78.26v52.53h-9.09V78.26Z"/><path d="M371.83,78.26v52.53h-9.09V78.26Z"/><path d="M403.17,103.58a12.49,12.49,0,0,0-9.17-3.31c-4.36,0-6.76,1.35-6.76,3.68s2.18,3.76,6.91,4.06c7,.45,15.86,2,15.86,11.87,0,6.54-5.34,12.17-15.93,12.17-5.86,0-11.72-1-17.13-6.61l4.51-6.54c2.63,2.93,8.64,5.11,12.78,5.19,3.46.08,6.69-1.73,6.69-4.43,0-2.55-2.1-3.61-7.36-3.91-7-.53-15.33-3.08-15.33-11.5,0-8.57,8.87-11.57,15.63-11.57,5.79,0,10.15,1.13,14.43,4.88Z"/><path class="cls-1" d="M90.53,120.69v.36l-4.74,4.68L72,112.05v-.9l13.8-13.68,4.74,4.68v.36l-9.48,9.12Z"/></svg>