<svg id="Layer_1" data-name="Layer 1" xmlns="http://www.w3.org/2000/svg" xmlns:xlink="http://www.w3.org/1999/xlink" viewBox="0 0 313 249"><defs><style>.cls-1{fill:url(#linear-gradient);}</style><linearGradient id="linear-gradient" x1="126.89" y1="145.84" x2="126.89" y2="100.95" gradientUnits="userSpaceOnUse"><stop offset="0" stop-color="#b63edf"/><stop offset="0.49" stop-color="#f567aa"/><stop offset="1" stop-color="#fda17b"/></linearGradient></defs><title>Logo only</title><path d="M200.83,146.34a30.28,30.28,0,0,1-22.68,9.31c-17.07,0-31.27-10.27-31.27-31.16s14.21-31.16,31.27-31.16c8.36,0,14.8,2.39,21.25,8.71l-9.19,9.67a17.87,17.87,0,0,0-11.82-4.66c-9.79,0-17,7.16-17,17.43,0,11.22,7.64,17.19,16.71,17.19A17.69,17.69,0,0,0,191,136.79Z"/><path class="cls-1" d="M141.62,137.83v.57l-7.53,7.43-21.92-21.73v-1.43l21.92-21.73,7.53,7.43V109l-15.06,14.49Z"/></svg>