<svg id="Layer_4" data-name="Layer 4" xmlns="http://www.w3.org/2000/svg" viewBox="0 0 100 100"><defs><style>.cls-1,.cls-3{fill:none;stroke:#fcfafb;stroke-miterlimit:10;stroke-width:1.5px;}.cls-2{fill:#f9f7f8;}.cls-3{stroke-linecap:round;}</style></defs><title>1</title><path class="cls-1" d="M71,66.48l5.22,10.78a3.92,3.92,0,0,1-3.53,5.62H27.47a3.58,3.58,0,0,1-3.23-5.12l6.14-12.94"/><path class="cls-1" d="M54.49,49.29l4.93-.23a4.84,4.84,0,0,1,4.44,2.73l2.36,4.89"/><path class="cls-1" d="M34.28,56.61l1.89-4a5.67,5.67,0,0,1,5-3.24L46,49.31"/><path class="cls-1" d="M66.23,56.68a5.8,5.8,0,0,0-.89-.07H35.43a5.17,5.17,0,0,0-5.17,5.17V79.5H71.1V62.37a5.76,5.76,0,0,0-4.87-5.69"/><path class="cls-1" d="M28.64,79.5H72.08a0,0,0,0,1,0,0v1.21a2.17,2.17,0,0,1-2.17,2.17H30.81a2.17,2.17,0,0,1-2.17-2.17V79.5a0,0,0,0,1,0,0Z"/><path class="cls-1" d="M60.33,36.39s.13-8.13-6.31-7.15l-8.26.52a4.77,4.77,0,0,1-5.47-4.71c-.08-1.86.1-5,2.09-6.8,0,0-1.17,4.49,5.59,3.25,0,0,10-2.21,13.14,3.9A11.36,11.36,0,0,1,60.33,36.39Z"/><path class="cls-1" d="M60.33,36.13s-1.84,8.78-10.08,8.33c0,0-6.41.33-9.16-4.75-2.88-5.33,1.28-10.48,1.28-10.48"/><path class="cls-1" d="M40.44,26.51a10,10,0,0,0-.16,7.26"/><path class="cls-1" d="M54.47,43.75v5.16a4.36,4.36,0,0,1-4.27,3.48,3.85,3.85,0,0,1-3.88-3.22L46,43.75"/><path class="cls-2" d="M45.45,68.92l3,1.06v1.47l-4.52-1.92V68.29l4.52-1.92v1.47Z"/><path class="cls-2" d="M50.17,72.82H49l2.82-8.3H53Z"/><path class="cls-2" d="M56.81,68.9l-3.05-1.07V66.38l4.57,1.92v1.23l-4.57,1.92V70Z"/><line class="cls-3" x1="16.72" y1="82.88" x2="83.28" y2="82.88"/></svg>