<svg id="Layer_5" data-name="Layer 5" xmlns="http://www.w3.org/2000/svg" viewBox="0 0 100 100"><defs><style>.cls-1,.cls-2{fill:none;stroke:#fffdfd;stroke-miterlimit:10;stroke-width:2px;}.cls-1{fill-rule:evenodd;}.cls-2{stroke-linecap:round;}.cls-3{fill:#fff;}</style></defs><title>2</title><path class="cls-1" d="M43.86,43.48l-3.66-.41a1.5,1.5,0,0,1-1.33-1.49v-5a1.5,1.5,0,0,1,1.33-1.49l3.73-.42a15.35,15.35,0,0,1,1.22-2.91L42.92,29A1.5,1.5,0,0,1,43,27l3.52-3.52a1.5,1.5,0,0,1,2-.11l2.8,2.24a15.32,15.32,0,0,1,3.07-1.27L54.79,21a1.5,1.5,0,0,1,1.49-1.33h5A1.5,1.5,0,0,1,62.74,21l.38,3.38a15.31,15.31,0,0,1,3.22,1.36l2.52-2a1.5,1.5,0,0,1,2,.11l3.52,3.52a1.5,1.5,0,0,1,.11,2l-2.07,2.59a15.35,15.35,0,0,1,1.32,3.32l3.16.35A1.5,1.5,0,0,1,78.22,37v5a1.5,1.5,0,0,1-1.33,1.49l-3.35.37M76.73,42Z"/><polyline class="cls-2" points="17.22 62.46 22.56 57.46 40.14 75.55 35.56 80.38"/><line class="cls-2" x1="35.45" y1="75.61" x2="33.12" y2="78.02"/><path class="cls-2" d="M25.31,60.29l7.21-6.85a8.45,8.45,0,0,1,3.08-1.87c2.66-.91,7.56-1.94,11.62.81a8.3,8.3,0,0,0,5.83,1.92l6.25.17s4.83.08,4.08,4.83c0,0-.67,2.5-4.5,2.92h-10"/><path class="cls-2" d="M37.59,72.93l2-2.71,19,.4A11.69,11.69,0,0,0,67,67.41L81.79,53.35a3.15,3.15,0,0,0-.1-4.66h0a4.71,4.71,0,0,0-6.28.07c-3.53,3.23-9.23,8.1-12,8.7"/><path class="cls-3" d="M60.45,43.87a2.23,2.23,0,0,0-.56-1.59A5,5,0,0,0,58,41.19a22.32,22.32,0,0,1-2.29-1,7.33,7.33,0,0,1-1.65-1.14A4.56,4.56,0,0,1,53,37.55a5.07,5.07,0,0,1-.38-2.06,4.58,4.58,0,0,1,1.32-3.38,5.56,5.56,0,0,1,3.5-1.54V28h2V30.6a5.1,5.1,0,0,1,3.38,1.8A5.93,5.93,0,0,1,64,36.28H60.45a3.36,3.36,0,0,0-.6-2.19,2,2,0,0,0-1.62-.73,2.06,2.06,0,0,0-1.55.57,2.16,2.16,0,0,0-.55,1.57A2.06,2.06,0,0,0,56.67,37a5.92,5.92,0,0,0,2,1.15,22.11,22.11,0,0,1,2.4,1.1,6.91,6.91,0,0,1,1.59,1.17,4.54,4.54,0,0,1,1,1.49A5.13,5.13,0,0,1,64,43.85a4.56,4.56,0,0,1-1.29,3.37,5.68,5.68,0,0,1-3.56,1.53v2.43H57.18V48.75A5.87,5.87,0,0,1,53.3,47a5.73,5.73,0,0,1-1.37-4h3.53a3.25,3.25,0,0,0,.69,2.23,2.51,2.51,0,0,0,2,.77,2.42,2.42,0,0,0,1.7-.57A2,2,0,0,0,60.45,43.87Z"/></svg>