<?xml version="1.0" encoding="utf-8"?>
<!-- Generator: Adobe Illustrator 25.0.0, SVG Export Plug-In . SVG Version: 6.00 Build 0)  -->
<svg version="1.1" id="Layer_1" xmlns="http://www.w3.org/2000/svg" xmlns:xlink="http://www.w3.org/1999/xlink" x="0px" y="0px"
	 viewBox="0 0 512 512" style="enable-background:new 0 0 512 512;" xml:space="preserve">
<style type="text/css">
	.st0{fill:url(#SVGID_1_);}
</style>
<g>
	<path d="M497.5,375.4c-32.2,33.8-76.9,51.8-123.8,50.7c-93.2,0-170.6-56.2-170.6-170.1S280.5,85.9,373.8,85.9
		c45.8,0,80.7,13.1,115.6,47.4l-50.2,52.9c-17.4-15.8-40.3-25.1-64.3-25.6c-53.4,0-92.7,39.3-92.7,94.9c0,61.1,41.4,93.8,91,93.8
		c26.2,1.1,51.2-8.7,70.3-26.7L497.5,375.4z"/>
	
		<linearGradient id="SVGID_1_" gradientUnits="userSpaceOnUse" x1="94.6285" y1="1340.6438" x2="94.6285" y2="1095.9153" gradientTransform="matrix(1 0 0 1 0 -968)">
		<stop  offset="0" style="stop-color:#B63EDF"/>
		<stop  offset="0.49" style="stop-color:#F567AA"/>
		<stop  offset="1" style="stop-color:#FDA17B"/>
	</linearGradient>
	<path class="st0" d="M174.8,329v3.3l-40.9,40.3L14.5,254.3v-7.6l119.4-118.3l40.9,40.3v3.3L93,251.1L174.8,329z"/>
</g>
</svg>
