<?xml version="1.0" encoding="utf-8"?>
<!-- Generator: Adobe Illustrator 25.0.0, SVG Export Plug-In . SVG Version: 6.00 Build 0)  -->
<svg version="1.1" id="Layer_1" xmlns="http://www.w3.org/2000/svg" xmlns:xlink="http://www.w3.org/1999/xlink" x="0px" y="0px"
	 viewBox="0 0 512 512" style="enable-background:new 0 0 512 512;" xml:space="preserve">
<style type="text/css">
	.st0{fill:#303047;}
</style>
<g>
	<path class="st0" d="M325.3,290.9l-9.3,9.3c-11.3,11.2-29.4,18.5-46.1,18.5c-57.7,0-62.6-47.1-62.7-61.6
		c-0.2-18.1,6.2-35.1,17.5-46.4c11-11.2,26.3-16.8,45.2-16.8c17.2,0,32.8,6,44,17l9.1,8.9l46.6-44.9l-9.6-9.4
		c-24.9-24.5-56-37.5-90.2-37.5c-37.8,0-70.1,12.4-93.5,35.9c-23.3,23.5-36.6,57.6-36.4,93.5c0.3,63.1,40.6,126.7,129.9,126.7
		c36.6,0,68.7-12.6,93-36.5l9.4-9.2L325.3,290.9z"/>
</g>
</svg>
