<?xml version="1.0" encoding="utf-8"?>
<!-- Generator: Adobe Illustrator 25.0.0, SVG Export Plug-In . SVG Version: 6.00 Build 0)  -->
<svg version="1.1" id="Layer_2_1_" xmlns="http://www.w3.org/2000/svg" xmlns:xlink="http://www.w3.org/1999/xlink" x="0px" y="0px"
	 viewBox="0 0 306 110" style="enable-background:new 0 0 306 110;" xml:space="preserve">
<style type="text/css">
	.st0{fill:url(#SVGID_1_);}
</style>
<g>
	<path d="M51.5,58.8c-3.4,3.5-8,5.4-12.9,5.3c-9.7,0-17.8-5.8-17.8-17.7s8.1-17.7,17.8-17.7c4.5-0.2,8.9,1.6,12.1,5l-5.2,5.5
		c-1.8-1.7-4.2-2.6-6.7-2.6c-5.6,0-9.6,4.1-9.6,9.9c0,6.4,4.3,9.8,9.5,9.8c2.7,0.1,5.4-0.9,7.3-2.8L51.5,58.8z"/>
	<path d="M88.2,46.4c0,9.6-6.6,17.4-17.4,17.4S53.4,56,53.4,46.4S60.1,29,70.7,29S88.2,36.8,88.2,46.4z M61.7,46.4
		c0,5.1,3,9.8,9.1,9.8c6,0,9.1-4.7,9.1-9.8s-3.5-9.9-9.1-9.9C64.8,36.5,61.7,41.4,61.7,46.4L61.7,46.4z"/>
	<path d="M127.7,15.7v47.4H120l-0.5-4.6c-2.6,4-6.7,5.4-10.8,5.4c-9.8,0-17.2-6.5-17.2-17.5c0-11.5,7.2-17.5,17-17.5
		c3.5,0,9,1.9,11,5.4V15.7H127.7z M99.8,46.3c0,5.8,4.2,9.8,9.5,9.8c5.4,0,9.8-4.4,9.8-9.8s-4.4-9.8-9.8-9.8
		C104,36.6,99.8,40.3,99.8,46.3L99.8,46.3z"/>
	<path d="M141.9,49.3c0.5,4.1,4.1,7.1,9.9,7.1c3,0,7.1-1.2,8.9-3.1l5.3,5.2c-3.5,3.7-9.3,5.4-14.4,5.4c-11.5,0-18.4-7.1-18.4-17.8
		c0-10.2,6.9-17.5,17.8-17.5c11.2,0,18.2,6.9,16.9,20.7L141.9,49.3z M160.1,42.5c-0.5-4.3-3.9-6.5-8.7-6.5c-4.5,0-8.1,2.2-9.4,6.5
		H160.1z"/>
	<path d="M202.9,29.6l7.3,25.1l7.7-25.1h9.1l-11.7,33.6h-9.6l-3.5-9.9l-3-11.2l-3,11.2l-3.5,9.9h-9.6l-11.7-33.6h9.2l7.7,25.1
		l7.2-25.1H202.9z"/>
	<path d="M242.3,20.2c0,6.4-9.8,6.4-9.8,0S242.3,13.8,242.3,20.2z M233.3,29.5v33.6h8.3V29.5H233.3z"/>
	<path d="M256.4,15.7v47.4h-8.2V15.7H256.4z"/>
	<path d="M271,15.7v47.4h-8.2V15.7H271z"/>
	<path d="M299.3,38.5c-2.2-2.1-5.2-3.2-8.3-3c-3.9,0-6.1,1.2-6.1,3.3c0,2.1,2,3.4,6.2,3.7c6.3,0.4,14.3,1.8,14.3,10.7
		c0,5.9-4.8,11-14.4,11c-5.3,0-10.6-0.9-15.5-6l4.1-5.9c2.4,2.6,7.8,4.6,11.5,4.7c3.1,0.1,6-1.6,6-4c0-2.3-1.9-3.3-6.6-3.5
		c-6.3-0.5-13.8-2.8-13.8-10.4c0-7.7,8-10.4,14.1-10.4c5.2,0,9.2,1,13,4.4L299.3,38.5z"/>
	<path d="M137.7,86.6c-0.3,0.8-0.8,1.6-1.5,2.2c-0.6,0.6-1.3,1.1-2.1,1.4c-0.8,0.3-1.6,0.5-2.4,0.5c-0.6,0-1.2-0.1-1.7-0.2
		c-0.5-0.1-1-0.4-1.4-0.6c-0.4-0.3-0.8-0.6-1.1-0.9c-0.3-0.3-0.6-0.7-0.9-1.1v2.6h-2V71.2h2v8.3c0.3-0.4,0.6-0.8,0.9-1.2
		c0.3-0.4,0.7-0.7,1.1-1c0.4-0.3,0.9-0.5,1.4-0.6c0.6-0.2,1.1-0.3,1.7-0.3c1.7,0,3.3,0.6,4.4,1.8c0.6,0.6,1.1,1.4,1.5,2.2
		C138.4,82.4,138.4,84.5,137.7,86.6L137.7,86.6z M135.8,81.4c-0.2-0.6-0.6-1.2-1-1.7c-0.4-0.5-0.9-0.8-1.5-1.1
		c-0.6-0.2-1.2-0.4-1.8-0.4c-0.6,0-1.2,0.1-1.8,0.4c-0.6,0.3-1.1,0.6-1.6,1.1c-0.5,0.5-0.8,1-1.1,1.6c-0.3,0.7-0.4,1.4-0.4,2.1
		c0,0.7,0.1,1.5,0.4,2.1c0.3,0.6,0.6,1.2,1.1,1.7c0.4,0.4,1,0.7,1.5,1c0.6,0.2,1.2,0.4,1.8,0.4c0.6,0,1.2-0.1,1.8-0.4
		c0.6-0.2,1.1-0.6,1.5-1c0.4-0.5,0.8-1,1-1.6c0.3-0.7,0.4-1.5,0.4-2.2C136.1,82.8,136,82.1,135.8,81.4L135.8,81.4z"/>
	<path d="M147.9,90.8c-0.4,1.1-1.1,2.1-1.9,3c-0.7,0.6-1.6,0.9-2.6,0.9c-0.5,0-1-0.1-1.5-0.2c-0.5-0.1-0.9-0.3-1.4-0.5l0.7-1.6
		c0.3,0.2,0.6,0.3,1,0.4c0.4,0.1,0.8,0.1,1.1,0.1c0.6,0,1.1-0.2,1.5-0.6c0.5-0.6,1-1.2,1.2-2l-6.1-13.5h2.2l4.9,11.3l4.3-11.3h2.1
		L147.9,90.8z"/>
	<g id="_2-_slelected">
		<path d="M163.4,79.5h8v-8h2.8v18.9h-2.8v-8.2h-8v8.2h-2.7V71.5h2.7L163.4,79.5z"/>
		<path d="M188.5,84.9h-6.8c-0.7,1.7-1.7,4-2.3,5.6h-2.9l7.6-19.2h2l7.6,19.2h-2.9L188.5,84.9z M182.8,82.3h4.7l-2.3-6.7L182.8,82.3
			z"/>
		<path d="M206.4,76.4c-0.4-1.7-2.2-2.4-3.9-2.4c-1.3,0-2.6,0.5-3.4,1.4c-0.4,0.5-0.5,1.2-0.5,1.8c0.1,1.9,2.3,2.2,4.3,2.4
			c2.6,0.3,5.8,1,6.5,4c0.1,0.4,0.1,0.8,0.1,1.2c0,3.6-3.6,5.8-7,5.8c-2.9,0-6.5-1.7-6.8-5.1V85l2.8-0.1v0.4v-0.1
			c0.2,1.8,2.3,2.7,4.1,2.7c2,0,4.2-1.1,4.2-3.1c0-0.2,0-0.4-0.1-0.6c-0.3-1.4-2.3-1.7-4.2-1.9c-2.9-0.3-6.4-0.9-6.7-4.9l0,0
			c-0.1-1.3,0.2-2.6,1-3.6c1.4-1.7,3.5-2.6,5.7-2.5c2.9,0,6,1.5,6.4,5L206.4,76.4z"/>
		<path d="M216,79.5h8v-8h2.8v18.9H224v-8.2h-8v8.2h-2.7V71.5h2.7V79.5z"/>
		<path d="M234.5,80.8h3.2c1.8,0.1,3.4-1.3,3.5-3.1c0.1-1.8-1.3-3.4-3.1-3.5c-0.1,0-0.2,0-0.3,0h-4.2v16.2h-2.7V71.5h6.9
			c3.2-0.2,6,2.3,6.2,5.5c0,0.2,0,0.3,0,0.5c0.1,2.9-2,5.4-4.9,5.8l6,7.1h-3.5l-6.9-8.3L234.5,80.8z"/>
		<path d="M249.6,74.1c3.7-3.8,9.8-3.8,13.5-0.1c0,0,0.1,0.1,0.1,0.1c3.8,3.8,3.8,9.9,0,13.7c-3.7,3.8-9.8,3.8-13.5,0.1
			c0,0-0.1-0.1-0.1-0.1C245.8,84,245.8,77.9,249.6,74.1z M261.3,76.1c-1.3-1.3-3.1-2-4.9-2.1c-1.8,0-3.6,0.7-4.8,2.1
			c-2.7,2.7-2.7,7.1,0,9.8c1.3,1.3,3,2,4.8,2.1c3.8-0.1,6.9-3.2,6.8-7.1C263.2,79.1,262.5,77.4,261.3,76.1L261.3,76.1z"/>
		<path d="M272.3,74.1c3.7-3.8,9.8-3.8,13.5-0.1c0,0,0.1,0.1,0.1,0.1c3.8,3.8,3.8,9.9,0,13.7c-3.7,3.8-9.8,3.8-13.5,0.1
			c0,0-0.1-0.1-0.1-0.1C268.6,84,268.6,77.9,272.3,74.1z M284.1,76.1c-1.3-1.3-3.1-2-4.9-2.1c-1.8,0-3.6,0.7-4.8,2.1
			c-2.7,2.7-2.7,7.1,0,9.8c1.3,1.3,3,2,4.8,2.1c3.8,0,6.9-3.2,6.9-7C286,79.1,285.3,77.4,284.1,76.1z"/>
		<path d="M295.8,90.5V74.3h-5.7v-2.8h14.2v2.8h-5.7v16.2H295.8z"/>
	</g>
	
		<linearGradient id="SVGID_1_" gradientUnits="userSpaceOnUse" x1="9.166" y1="43.3911" x2="8.8864" y2="73.4645" gradientTransform="matrix(1 0 0 -1 0 112)">
		<stop  offset="0" style="stop-color:#B63EDF"/>
		<stop  offset="0.49" style="stop-color:#F567AA"/>
		<stop  offset="1" style="stop-color:#FDA17B"/>
	</linearGradient>
	<path class="st0" d="M17.3,54v0.3L13,58.5L0.6,46.2v-0.8L13,33l4.3,4.2v0.3l-8.6,8.2L17.3,54z"/>
</g>
</svg>
