<svg id="Layer_1" data-name="Layer 1" xmlns="http://www.w3.org/2000/svg" viewBox="0 0 216 56"><defs><style>.cls-1{fill:#fff;}</style></defs><path class="cls-1" d="M23.82,36.85a13.16,13.16,0,0,1-9.66,3.74C4.71,40.59,1,34.65,1,28.12c0-6.19,4.12-12.75,13.16-12.75a12.86,12.86,0,0,1,9.31,3.85l-4.19,4.12a7.06,7.06,0,0,0-5.12-2.09c-4.64,0-6.46,3.78-6.42,6.9s1.68,6.67,6.42,6.67a8.33,8.33,0,0,0,5.67-2.44Z"/><path class="cls-1" d="M37.94,40.56C30.07,40.56,24.58,36,24.58,28s5.49-12.61,13.36-12.61S51.31,19.94,51.31,28,45.85,40.56,37.94,40.56Zm0-19.42c-3.88,0-6.56,2.82-6.56,6.81s2.71,6.8,6.56,6.8,6.57-2.82,6.57-6.8S41.93,21.14,37.94,21.14Z"/><path class="cls-1" d="M65.16,15.92c8.49,0,12.58,5.22,12.58,11.86S73.79,40,65.16,40H54.85V15.92ZM61.59,34.24h3.57C69.49,34.24,71,31,71,27.71s-1.68-6.12-5.84-6.12H61.59Z"/><path class="cls-1" d="M100.59,40H81.35V15.92h18.76v5.7H88.05v3.44H99.43v5.53H88.05v3.65h12.54Z"/><path class="cls-1" d="M130.08,39.94h-5.53l-4.26-11.51-4.13,11.51h-5.5l-9-24h7.43l3.09,8.45a48.37,48.37,0,0,1,1.27,5.57l4.43-14h4.71l4.57,14c.35-1.82.79-3.74,1.34-5.74l2.89-8.28h7.42Z"/><path class="cls-1" d="M141.08,40V15.92h6.77V40Z"/><path class="cls-1" d="M159.53,15.92V34.2h11.52V40H152.73V15.92Z"/><path class="cls-1" d="M180.84,15.92V34.2h11.51V40H174V15.92Z"/><path class="cls-1" d="M210.15,22.59a9,9,0,0,0-5.63-1.65c-1.65,0-3.27.51-3.27,1.78,0,1.65,1.62,1.89,4,2.13,4.78.52,9.76,2.44,9.76,8s-5.15,7.8-10.55,7.83c-4.33,0-7.42-.72-10.76-4.22l3.75-4.3a9.67,9.67,0,0,0,7,2.72c2.24,0,3.78-.8,3.78-2.14s-1.37-1.95-4-2.19c-5.25-.49-9.79-1.83-9.79-7.81,0-5.08,5-7.28,10.07-7.28a13.62,13.62,0,0,1,9,2.85Z"/></svg>