<?xml version="1.0" encoding="utf-8"?>
<!-- Generator: Adobe Illustrator 25.0.0, SVG Export Plug-In . SVG Version: 6.00 Build 0)  -->
<svg version="1.1" id="Layer_2_1_" xmlns="http://www.w3.org/2000/svg" xmlns:xlink="http://www.w3.org/1999/xlink" x="0px" y="0px"
	 viewBox="0 0 306 110" style="enable-background:new 0 0 306 110;" xml:space="preserve">
<style type="text/css">
	.st0{fill:url(#SVGID_1_);}
</style>
<g>
	<path d="M51.9,73.9c-3.3,3.5-8,5.4-12.8,5.3c-9.6,0-17.7-5.8-17.7-17.6S29.5,44,39.1,44c4.5-0.2,8.9,1.6,12,4.9l-5.2,5.5
		c-1.8-1.7-4.2-2.6-6.7-2.6c-5.5,0-9.6,4-9.6,9.9c0,6.3,4.3,9.7,9.4,9.7c2.7,0.1,5.3-0.9,7.3-2.8L51.9,73.9z"/>
	<path d="M88.5,61.6c0,9.6-6.5,17.3-17.3,17.3s-17.3-7.7-17.3-17.3s6.6-17.3,17.2-17.3S88.5,52,88.5,61.6z M62.1,61.6
		c0,5.1,3,9.8,9,9.8c6,0,9-4.7,9-9.8s-3.5-9.9-9-9.9C65.2,51.7,62.1,56.6,62.1,61.6L62.1,61.6z"/>
	<path d="M127.9,31v47.2h-7.7l-0.5-4.6c-2.6,4-6.7,5.3-10.7,5.3c-9.8,0-17.1-6.5-17.1-17.4c0-11.5,7.2-17.4,16.9-17.4
		c3.5,0,9,1.9,10.9,5.3V31H127.9z M100,61.5c0,5.8,4.2,9.8,9.4,9.8c5.4,0,9.7-4.4,9.7-9.7s-4.4-9.7-9.7-9.7
		C104.2,51.8,100,55.5,100,61.5L100,61.5z"/>
	<path d="M142,64.5c0.5,4.1,4.1,7.1,9.9,7.1c3,0,7-1.1,8.9-3.1l5.3,5.2c-3.5,3.6-9.2,5.4-14.3,5.4c-11.5,0-18.3-7.1-18.3-17.7
		c0-10.1,6.9-17.4,17.7-17.4c11.1,0,18.1,6.9,16.8,20.6L142,64.5z M160.1,57.6c-0.5-4.3-3.9-6.5-8.6-6.5c-4.5,0-8.1,2.2-9.3,6.5
		H160.1z"/>
	<path d="M202.7,44.8l7.3,25l7.6-25h9.1l-11.6,33.5h-9.6l-3.4-9.9l-3-11.1l-3,11.2l-3.4,9.9h-9.6l-11.7-33.5h9.2l7.6,25l7.2-25
		L202.7,44.8z"/>
	<path d="M241.9,35.5c0,6.4-9.7,6.4-9.7,0S241.9,29.1,241.9,35.5z M232.9,44.8v33.4h8.2V44.8H232.9z"/>
	<path d="M255.9,31v47.2h-8.2V31H255.9z"/>
	<path d="M270.4,31v47.2h-8.2V31H270.4z"/>
	<path d="M298.6,53.7c-2.2-2.1-5.2-3.1-8.2-3c-3.9,0-6.1,1.2-6.1,3.3c0,2.1,2,3.4,6.2,3.6c6.3,0.4,14.2,1.8,14.2,10.7
		c0,5.9-4.8,10.9-14.3,10.9c-5.3,0-10.5-0.9-15.4-5.9l4-5.9c2.4,2.6,7.8,4.6,11.5,4.7c3.1,0.1,6-1.6,6-4c0-2.3-1.9-3.2-6.6-3.5
		c-6.3-0.5-13.8-2.8-13.8-10.3c0-7.7,8-10.4,14-10.4c5.2,0,9.1,1,13,4.4L298.6,53.7z"/>
	
		<linearGradient id="SVGID_1_" gradientUnits="userSpaceOnUse" x1="9.6153" y1="138.3852" x2="9.6153" y2="163.7525" gradientTransform="matrix(1 0 0 -1 0 212)">
		<stop  offset="0" style="stop-color:#B63EDF"/>
		<stop  offset="0.49" style="stop-color:#F567AA"/>
		<stop  offset="1" style="stop-color:#FDA17B"/>
	</linearGradient>
	<path class="st0" d="M17.9,69.1v0.3l-4.3,4.2L1.3,61.3v-0.8l12.4-12.3l4.3,4.2v0.3L9.4,61L17.9,69.1z"/>
</g>
</svg>
