<svg id="Layer_1" data-name="Layer 1" xmlns="http://www.w3.org/2000/svg" viewBox="0 0 306 110"><defs><style>.cls-1{fill:#fff;}</style></defs><path class="cls-1" d="M36,67.29A18.24,18.24,0,0,1,22.62,72.5C9.49,72.5,4.39,64.24,4.34,55.17c0-8.6,5.73-17.72,18.28-17.72A17.88,17.88,0,0,1,35.56,42.8l-5.82,5.73a9.85,9.85,0,0,0-7.12-2.91c-6.44,0-9,5.25-8.92,9.59s2.34,9.27,8.92,9.27a11.58,11.58,0,0,0,7.88-3.39Z"/><path class="cls-1" d="M55.67,72.45c-10.94,0-18.58-6.35-18.58-17.52,0-11,7.64-17.52,18.58-17.52S74.24,43.8,74.24,54.93,66.65,72.45,55.67,72.45Zm0-27c-5.4,0-9.12,3.92-9.12,9.46s3.77,9.45,9.12,9.45c5.53,0,9.11-3.91,9.11-9.45C64.78,49.2,61.2,45.47,55.67,45.47Z"/><path class="cls-1" d="M93.48,38.22c11.8,0,17.48,7.25,17.48,16.47s-5.49,17-17.48,17H79.16V38.22Zm-5,25.45h5c6,0,8.12-4.49,8.12-9.08s-2.34-8.5-8.12-8.5h-5Z"/><path class="cls-1" d="M142.71,71.64H116V38.22H142v7.92H125.28v4.78h15.81V58.6H125.28v5.07h17.43Z"/><path class="cls-1" d="M183.68,71.59H176l-5.92-16-5.73,16H156.7L144.24,38.22h10.31L158.85,50a67.23,67.23,0,0,1,1.77,7.74l6.16-19.48h6.54l6.35,19.48c.47-2.53,1.09-5.21,1.86-8l4-11.5h10.31Z"/><path class="cls-1" d="M199,71.64V38.22h9.4V71.64Z"/><path class="cls-1" d="M224.6,38.22v25.4h16v8H215.15V38.22Z"/><path class="cls-1" d="M254.2,38.22v25.4h16v8H244.75V38.22Z"/><path class="cls-1" d="M294.93,47.48a12.5,12.5,0,0,0-7.83-2.29c-2.29,0-4.54.71-4.54,2.48,0,2.29,2.25,2.63,5.54,3,6.64.72,13.56,3.39,13.56,11.08S294.5,72.55,287,72.59c-6,0-10.31-1-14.94-5.87l5.21-6a13.39,13.39,0,0,0,9.78,3.77c3.11,0,5.25-1.09,5.25-3,0-1.67-1.91-2.72-5.58-3.05-7.31-.67-13.61-2.53-13.61-10.84,0-7.07,6.92-10.12,14-10.12,5,0,8.93,1.14,12.51,4Z"/></svg>