<?xml version="1.0" encoding="utf-8"?>
<!-- Generator: Adobe Illustrator 25.0.0, SVG Export Plug-In . SVG Version: 6.00 Build 0)  -->
<svg version="1.1" id="Layer_1" xmlns="http://www.w3.org/2000/svg" xmlns:xlink="http://www.w3.org/1999/xlink" x="0px" y="0px"
	 viewBox="0 0 116 110" style="enable-background:new 0 0 116 110;" xml:space="preserve">
<style type="text/css">
	.st0{fill:#FFFFFF;}
	.st1{fill:url(#SVGID_1_);}
</style>
<path class="st0" d="M13.1,0.1h89.8c5.5,0,10,4.5,10,10v89.8c0,5.5-4.5,10-10,10H13.1c-5.5,0-10-4.5-10-10V10.1
	C3.1,4.6,7.6,0.1,13.1,0.1z"/>
<g>
	<path d="M102.3,76.8c-5.9,6.2-14.1,9.5-22.7,9.3c-17.1,0-31.3-10.3-31.3-31.2s14.2-31.2,31.3-31.2c8.4,0,14.8,2.4,21.2,8.7
		l-9.2,9.7c-3.2-2.9-7.4-4.6-11.8-4.7c-9.8,0-17,7.2-17,17.4c0,11.2,7.6,17.2,16.7,17.2c4.8,0.2,9.4-1.6,12.9-4.9L102.3,76.8z"/>
	
		<linearGradient id="SVGID_1_" gradientUnits="userSpaceOnUse" x1="28.395" y1="35.6656" x2="28.395" y2="80.5556" gradientTransform="matrix(1 0 0 -1 0 112)">
		<stop  offset="0" style="stop-color:#B63EDF"/>
		<stop  offset="0.49" style="stop-color:#F567AA"/>
		<stop  offset="1" style="stop-color:#FDA17B"/>
	</linearGradient>
	<path class="st1" d="M43.1,68.3v0.6l-7.5,7.4L13.7,54.6v-1.4l21.9-21.7l7.5,7.4v0.6L28.1,54L43.1,68.3z"/>
</g>
</svg>
