<svg id="the_bizz" data-name="the bizz" xmlns="http://www.w3.org/2000/svg" xmlns:xlink="http://www.w3.org/1999/xlink" viewBox="0 0 364 306"><defs><style>.cls-1,.cls-16,.cls-17,.cls-18,.cls-9{fill:none;}.cls-2{fill:#0f2a3e;}.cls-3{fill:#4d77b3;}.cls-12,.cls-14,.cls-4,.cls-5{fill:#fff;}.cls-12,.cls-16,.cls-17,.cls-18,.cls-4,.cls-9{stroke:#fff;stroke-miterlimit:10;}.cls-17,.cls-18,.cls-4{stroke-linecap:round;}.cls-4{stroke-width:1.04px;}.cls-6{fill:#4f79ac;}.cls-7{fill:#5379bf;}.cls-8{fill:#5174ab;}.cls-9{stroke-width:0.5px;}.cls-10{fill:#4e66a6;}.cls-11{fill:#fdfefd;}.cls-12{font-size:10.91px;stroke-width:0.68px;font-family:BankGothicBT-Light, Bank Gothic Light BT;letter-spacing:-0.15em;}.cls-13{clip-path:url(#clip-path);}.cls-14{fill-rule:evenodd;}.cls-15{fill:#4f75ae;}.cls-16,.cls-17{stroke-width:6.57px;}.cls-18{stroke-width:6.27px;}</style><clipPath id="clip-path"><ellipse class="cls-1" cx="55.83" cy="206.91" rx="5.48" ry="5.65"/></clipPath></defs><title>test</title><g id="Layer_15" data-name="Layer 15"><path class="cls-2" d="M22.16,142l.46-1.41,6.14-.18L24,136.49l.29-.9,6.17-.27-4.84-3.78.4-1.22,6.28,5.1-.33,1-6,.26,4.66,3.87-.33,1Z"/><path class="cls-2" d="M27.1,128.51l2.6-4.8c.69-1.27,1.26-1.43,2.47-.77l3.49,1.9c1.22.66,1.36,1.23.68,2.48l-2.6,4.8c-.69,1.27-1.21,1.45-2.45.78L27.8,131C26.59,130.35,26.41,129.78,27.1,128.51Zm8.45-2.11-4.65-2.52-3,5.55,4.65,2.52Z"/><path class="cls-2" d="M31.46,120.88l3.71-4.82c.67-.88,1.29-1,2.13-.37l1.34,1c.82.63.85,1.26.18,2.14l-.61.79,4.38-.84-1.16,1.51-4.18.58L36,122.56l2.35,1.81-.87,1.13Zm1.75-.46,1.94,1.49,2.46-3.19c.38-.49.36-.73-.12-1.1l-.72-.56c-.49-.38-.77-.26-1.1.17Z"/><path class="cls-2" d="M37,113.9l1-1,4.53,4.55,4.17-4.15.8.81-5.19,5.16Z"/><path class="cls-2" d="M49.2,104.27a3.68,3.68,0,0,1,3.2,1.59c1.52,2.07,1,4-1.52,5.82l-3.51,2.57-4.47-6.09,3.51-2.57A5.82,5.82,0,0,1,49.2,104.27Zm-4.48,4,3.13,4.27,2.23-1.63c1.84-1.35,2.38-2.52,1.16-4.17s-2.47-1.44-4.3-.1Z"/><path class="cls-2" d="M57.08,100.21l2.18,5.18,5-2.09-.75-1.79,1.29-.25.36.84c.56,1.33.34,1.85-.95,2.39l-4,1.68c-1.29.54-1.83.33-2.39-1l-1.59-3.76c-.55-1.31-.32-1.85,1-2.39l4-1.68c1.29-.54,1.81-.34,2.37,1l.29.68-1.1.72L62,98.13Z"/><path class="cls-2" d="M66.45,95.63l5.22-1.21c1.36-.32,1.85,0,2.17,1.38l.93,4c.32,1.39,0,1.88-1.34,2.19l-5.22,1.21c-1.34.31-1.86,0-2.18-1.37l-.93-4C64.77,96.42,65.1,95.94,66.45,95.63Zm7.24,5.16-1.27-5.47-6.24,1.45,1.27,5.47Z"/><path class="cls-2" d="M76,93.65l.81,0,6,4.89a7.43,7.43,0,0,1,.93.93,11.08,11.08,0,0,1-.22-1.9l-.21-4.24,1.19-.06L85,101l-.72,0L78,95.92a3.54,3.54,0,0,1-.82-.83,12.91,12.91,0,0,1,.17,1.69l.23,4.56-1.19.06Z"/><path class="cls-2" d="M87.13,93.41l7.33.73-.1,1-6.05-.61-.25,2.52,3.45.35-.1,1L88,98.13l-.31,3.11-1.28-.13Z"/><path class="cls-2" d="M95.13,94.34l7.26,1.74-.24,1-6-1.44-.5,2.1,3.67.88-.24,1-3.67-.88-.57,2.4,6.06,1.45-.25,1-7.32-1.75Z"/><path class="cls-2" d="M110.47,99.94a3.79,3.79,0,0,1,.25,3.6A3.84,3.84,0,0,1,108,106a5.46,5.46,0,0,1-3-.58L101,103.77l3-7.16L108,98.25A5.5,5.5,0,0,1,110.47,99.94Zm-5.67-1.86-2.15,5.19,2.58,1.07c2.14.89,3.42.72,4.26-1.3s0-3-2.11-3.88Z"/><path class="cls-2" d="M113.8,101l6.35,3.91-.54.88-5.26-3.23-1.13,1.84,3.21,2-.53.87-3.21-2-1.29,2.1,5.31,3.26-.56.91-6.41-3.94Z"/><path class="cls-2" d="M121.52,105.9l4.76,4c.86.73,1,1.38.28,2.2l-1.12,1.32c-.7.82-1.36.81-2.22.08l-.87-.74.75,4.59-1.46-1.24-.45-4.34-1.74-1.48-2,2.3-1-.84Zm.33,1.6-1.76,2.07,3.39,2.88c.43.37.73.44,1.16-.06l.73-.86c.42-.49.31-.78-.13-1.15Z"/><path class="cls-2" d="M131,114.81l.9,1.05-3.09,8.31-.93-1.08.81-2-3.4-4-2.09.48-.83-1Zm-1.9,5.24,1.66-4.16-4.37,1Z"/><path class="cls-2" d="M129.66,125.87l-.72-1.07,5.55-3.74-2-2.94.87-.59,4.69,7-.87.59-2-3Z"/><path class="cls-2" d="M138.15,124.91l.63,1.13L132,129.8l-.63-1.13Z"/><path class="cls-2" d="M140.67,129.7l2,5c.53,1.29.3,1.82-1,2.36l-3.79,1.54c-1.32.54-1.85.31-2.38-1l-2-5c-.52-1.28-.32-1.83,1-2.37l3.79-1.54C139.62,128.16,140.15,128.42,140.67,129.7Zm-4,8,5.2-2.11-2.41-5.94-5.2,2.11Z"/><path class="cls-2" d="M144.12,138.9l.16.79-3.94,6.7a7.41,7.41,0,0,1-.78,1.06,11.13,11.13,0,0,1,1.85-.49l4.17-.83.23,1.16-7.6,1.52-.14-.71,4.12-6.9a3.54,3.54,0,0,1,.7-.94,12.84,12.84,0,0,1-1.65.42l-4.48.9-.23-1.16Z"/><path class="cls-2" d="M146.2,155.46l-.26,5.35c-.07,1.4-.49,1.78-1.92,1.71l-4.08-.2c-1.42-.07-1.81-.49-1.74-1.89l.26-5.35c.07-1.38.48-1.8,1.92-1.73l4.08.2C145.9,153.62,146.27,154.08,146.2,155.46ZM139.26,161l5.61.27.31-6.41-5.61-.27Z"/><path class="cls-2" d="M145.4,165.12l-1.53,7.21-1-.22,1.26-6-2.48-.53L140.9,169l-1-.21.72-3.39-3.06-.65.27-1.26Z"/><path class="cls-2" d="M142.4,176.53l-2.54,5.71c-.46,1-1,1.32-2,.88l-.82-.37c-.59-.26-1-.67-.68-1.72a1.38,1.38,0,0,1-1.93.6l-.91-.4c-.95-.42-1.09-1.27-.51-2.58l2.35-5.28Zm-7.37,4c.66.29.94.17,1.2-.4l1.82-4.09-2.28-1L134,179.08c-.26.59-.16.87.49,1.15Zm3.14,1.33c.51.23.71.06.94-.45l1.82-4.09-2-.87-1.82,4.09c-.23.51-.19.79.31,1Z"/><path class="cls-2" d="M131.84,183.07l-3.14,4.69,5.54,3.71-.71,1.06-4.91-3.29c-1.18-.79-1.3-1.36-.52-2.52l2.56-3.82c.77-1.15,1.34-1.29,2.53-.49l4.91,3.29-.72,1.07Z"/><path class="cls-2" d="M130.28,194.72l-1.56-1.49-3.37,3.53c-1,1-1.56,1-2.57,0l-.63-.6c-1-1-1-1.56-.08-2.57l3.12-3.27c1-1,1.55-1,2.58-.05l.15.15-.62,1.07-.9-.86-4,4.17,1.68,1.61,3.36-3.52c1-1,1.53-1,2.57,0l.49.47c1,1,1,1.57.08,2.57l-2.85,3c-.89.93-1.51,1.07-2.48.14l-.12-.11.54-1,.81.78Z"/><path class="cls-2" d="M124.66,201.69l-1,.83-5-5.93,1-.83Z"/><path class="cls-2" d="M121.88,204.13l-.68.45-7.69-1.13a7.4,7.4,0,0,1-1.28-.33,11,11,0,0,1,1.15,1.53l2.34,3.54-1,.65-4.27-6.46.6-.4,7.94,1.21a3.52,3.52,0,0,1,1.13.3,12.89,12.89,0,0,1-1-1.37l-2.51-3.81,1-.65Z"/><path class="cls-2" d="M112.38,210l-6.81,3-.42-.95,5.63-2.52-.88-2-3.44,1.54-.42-.93,3.44-1.54-1-2.25L102.78,207l-.44-1,6.87-3.07Z"/><path class="cls-2" d="M102.6,212.92l-.57-2.08-4.71,1.28c-1.36.37-1.85.05-2.22-1.29l-.23-.84c-.38-1.38-.09-1.87,1.26-2.24l4.36-1.19c1.35-.37,1.86-.09,2.23,1.29l.06.2-1.08.59-.33-1.2L95.81,209l.61,2.24,4.69-1.28c1.33-.36,1.84-.1,2.22,1.29l.18.65c.38,1.39.08,1.88-1.26,2.24l-4,1.09c-1.25.34-1.85.13-2.2-1.16l0-.16,1-.6.3,1.09Z"/><path class="cls-2" d="M92.71,215.22l-.22-2.15-4.85.5c-1.4.15-1.84-.25-2-1.64l-.09-.87c-.15-1.42.22-1.86,1.6-2l4.5-.46c1.39-.14,1.85.22,2,1.64l0,.21-1.17.41-.13-1.24-5.74.59.24,2.32,4.84-.5c1.37-.14,1.83.2,2,1.64l.07.67c.15,1.43-.23,1.87-1.6,2l-4.11.42c-1.28.13-1.84-.17-2-1.5l0-.16,1.07-.43.12,1.12Z"/><path class="cls-2" d="M83.7,217l-7.45-.36,0-1,6.16.29.1-2.16-3.77-.18,0-1,3.77.18.12-2.46-6.23-.3.05-1.06,7.51.36Z"/><path class="cls-2" d="M73.67,215.13,74.1,213l-4.78-1c-1.38-.28-1.68-.79-1.4-2.15l.17-.85c.28-1.4.76-1.71,2.13-1.44l4.43.9c1.37.28,1.7.76,1.42,2.16l0,.21-1.23,0,.25-1.22-5.65-1.15-.46,2.28,4.77,1c1.35.28,1.69.74,1.4,2.15l-.13.66c-.29,1.41-.78,1.71-2.13,1.44l-4-.82c-1.27-.26-1.71-.71-1.44-2l0-.16,1.15-.09L68.3,214Z"/></g><g id="Layer_4" data-name="Layer 4"><circle class="cls-3" cx="25.07" cy="152.56" r="5.33"/><line class="cls-4" x1="25.03" y1="148.65" x2="25.03" y2="155.45"/><g id="Layer_2_copy" data-name="Layer 2 copy"><polygon class="cls-5" points="25.04 154.96 26.68 156.02 26.68 156.48 25.04 155.94 25.04 154.96"/><polygon class="cls-5" points="25.04 154.96 23.39 156.02 23.39 156.48 25.04 155.94 25.04 154.96"/></g><g id="Layer_2" data-name="Layer 2"><polygon class="cls-5" points="25.07 151.13 29.28 153.38 29.28 154.34 25.07 153.2 25.07 151.13"/><polygon class="cls-5" points="25.07 150.95 20.86 153.21 20.86 154.16 25.07 153.02 25.07 150.95"/></g></g><g id="Layer_5" data-name="Layer 5"><g id="Layer_6" data-name="Layer 6"><circle class="cls-6" cx="26.51" cy="165.02" r="5.5"/></g><polygon class="cls-5" points="22.98 167.41 30.22 167.41 30.22 162.25 28.43 162.25 28.43 164.33 27.67 164.33 26.31 162.97 26.31 164.28 25.77 164.28 24.58 163.08 24.58 164.28 24.03 164.28 22.81 163.06 22.81 167.41 22.98 167.41"/><rect class="cls-7" x="23.59" y="165.18" width="1.42" height="1.42"/><rect class="cls-7" x="25.91" y="165.18" width="1.42" height="1.42"/><rect class="cls-7" x="27.9" y="165.18" width="1.42" height="1.42"/></g><g id="Layer_7" data-name="Layer 7"><g id="Layer_8" data-name="Layer 8"><circle class="cls-8" cx="30.22" cy="177.32" r="5.6"/></g><polygon class="cls-5" points="27.85 173.32 27.66 176.23 30.91 179.3 34.07 179.4 27.85 173.32"/><polygon class="cls-5" points="30.5 179.16 27.95 176.76 27.95 179.54 30.37 179.62 30.5 179.16"/><polygon class="cls-5" points="27.95 179.76 30.24 179.76 30.24 180.09 30.52 180.09 30.52 181.33 27.46 181.33 27.46 180 27.95 180 27.95 179.76 27.95 179.76"/><polyline class="cls-9" points="29.29 175.9 31.04 174.37 32.59 174.75 32.58 176.06 30.83 178.02"/></g><g id="Layer_9" data-name="Layer 9"><circle class="cls-10" cx="36.81" cy="188.04" r="5.6"/><path class="cls-11" d="M39,189.45V184a.17.17,0,0,0-.26-.15l-3.25,2.06s-1.1.33-.86-.12A22,22,0,0,1,38,183.65l-.2-.27-3.15,2.07s-.52.16-.64-.16v6.65s.62.21.7-.1l0,.42a1,1,0,0,0,.9-.23l3.3-2.16A.48.48,0,0,0,39,189.45Z"/></g><g id="Layer_10" data-name="Layer 10"><circle class="cls-10" cx="45.73" cy="197.76" r="5.48"/><text class="cls-12" transform="translate(41.33 200.51)">$</text></g><g id="Layer_11" data-name="Layer 11"><circle class="cls-10" cx="55.84" cy="207.04" r="5.65"/><g class="cls-13"><path class="cls-14" d="M59.26,206.69c-.29-.32-.39-.62-.62-.88a.19.19,0,0,1,0-.14.29.29,0,0,1,0-.16c.07-.09,0-.3-.1-.56v0a2.24,2.24,0,0,0-.08-.3c0-.17,0-.34-.08-.49s0,0,0-.07a1.15,1.15,0,0,0-.05-.34s0,0,0-.06a.53.53,0,0,0-.27-.35,1.47,1.47,0,0,0-.61-.37,2.67,2.67,0,0,1-.36-.15,1.32,1.32,0,0,0-.43-.11l-.35-.05h-.06l-.37,0a1,1,0,0,0-.35,0c-.09,0-.2,0-.28,0-.25.17-.28.37-.62.32a.67.67,0,0,0-.34,0c-.2.07-.61.15-.72.33a.11.11,0,0,1-.05,0,.72.72,0,0,0-.34.47.1.1,0,0,1,0,.06.54.54,0,0,0-.16.22.41.41,0,0,0-.09.16.78.78,0,0,0,0,.19.11.11,0,0,1,0,.06,1.12,1.12,0,0,0-.15.6.1.1,0,0,1,0,.05.57.57,0,0,0,0,.38.1.1,0,0,1,0,0,1.09,1.09,0,0,0,.1.59v0c.05.32.26,1.14.58,1.3l0,0a1.57,1.57,0,0,1,.17.56c0,.12,0,.23.06.35a.1.1,0,0,0,.13.08h0a.1.1,0,0,1,.14.08,2.34,2.34,0,0,1,0,.51c-.07.93-1.85,1.25-2.39,2.08a4.68,4.68,0,0,0,1,1l4.34,1.19a1,1,0,0,0,.43-1.43c-.28-.6-.91-1.3-.18-2,.12-.11.31-.36.4-.44.29-.24.65-.1,1.05-.43l0,0c.25-.05.47-.23.22-.66-.06-.1-.13-.16-.12-.23s.09-.07.16-.11a.11.11,0,0,0,0-.17.1.1,0,0,1,0-.13.17.17,0,0,0,0-.18c-.07-.05-.13-.33,0-.38a.87.87,0,0,0,.31-.16A.23.23,0,0,0,59.26,206.69Z"/><path class="cls-14" d="M55.51,204.23l2.85-.29s-1.12-2.47-4.64-1a2.87,2.87,0,0,0-.9,3.57l.69.38a9.5,9.5,0,0,0,1.24-.66C54.75,206.2,55.51,204.23,55.51,204.23Z"/></g></g><g id="Layer_13" data-name="Layer 13"><g id="Layer_14" data-name="Layer 14"><ellipse class="cls-15" cx="83.86" cy="153.7" rx="51.49" ry="49.54"/></g><ellipse class="cls-16" cx="83.76" cy="153.66" rx="42.44" ry="40.82"/><path class="cls-17" d="M88.64,115.66s41.05,32.42,0,76.62"/><path class="cls-17" d="M79.52,115.66s-41.05,32.42,0,76.62"/><line class="cls-18" x1="83.76" y1="113.95" x2="83.76" y2="191.44"/><line class="cls-17" x1="45.73" y1="135.54" x2="121.8" y2="135.54"/><line class="cls-17" x1="41.33" y1="153.66" x2="126.2" y2="153.66"/><line class="cls-17" x1="45.16" y1="170.61" x2="122.37" y2="170.61"/></g><g id="Layer_18" data-name="Layer 18"><path class="cls-15" d="M188,156.35a11.87,11.87,0,0,1,.69,4.43q0,4.51-1.85,6.56t-6.28,2h-8V139.71h8q4.34,0,6.19,1.91t1.85,6.08a8.71,8.71,0,0,1-.73,3.74,4.92,4.92,0,0,1-2.49,2.37A4.75,4.75,0,0,1,188,156.35Zm-10.23-11.91v7.18H180a3.3,3.3,0,0,0,2.58-.84,4.12,4.12,0,0,0,.73-2.73,4.19,4.19,0,0,0-.73-2.79,3.36,3.36,0,0,0-2.58-.82Zm4.9,19.24a5.6,5.6,0,0,0,.73-3.29,5.17,5.17,0,0,0-.79-3.23,3.21,3.21,0,0,0-2.64-1h-2.19v8.47h2.19A3.22,3.22,0,0,0,182.62,163.68Z"/><path class="cls-15" d="M192.25,139.71h5.25v29.67h-5.25Z"/><path class="cls-15" d="M214.1,164.61v4.77H200.38v-4.77l8.34-20.12h-7.91v-4.77h13.12v4.77l-8.3,20.12Z"/><path class="cls-15" d="M229.53,164.61v4.77H215.82v-4.77l8.34-20.12h-7.91v-4.77h13.12v4.77l-8.3,20.12Z"/><path class="cls-15" d="M251.76,163.62h-6.92l-1.2,5.76h-5.5l7.61-29.67h5.16l7.57,29.67H253Zm-.95-4.73-2.49-12-2.49,12Z"/><path class="cls-15" d="M287,139.71l-5.29,29.67H276l-3.22-18.23-3.27,18.23h-5.68l-5.29-29.67h5.38l2.88,22.19,2.79-22.19h6.45l2.79,22.19,2.88-22.19Z"/><path class="cls-15" d="M300.74,163.62h-6.92l-1.2,5.76h-5.5l7.61-29.67h5.16l7.57,29.67h-5.5Zm-.95-4.73-2.49-12-2.49,12Z"/><path class="cls-15" d="M317.34,157.47H314.8v11.91h-5.29V139.71h8.08q4.39,0,6.21,2.11t1.83,6.75a13,13,0,0,1-.82,4.94,5.75,5.75,0,0,1-2.67,3l4.43,12.9h-5.5Zm-2.54-4.73h2.75a2.31,2.31,0,0,0,2.19-1.05,6.42,6.42,0,0,0,.6-3.12,6.49,6.49,0,0,0-.58-3.1,2.31,2.31,0,0,0-2.21-1H314.8Z"/><path class="cls-15" d="M329.29,139.71h8.21a8.34,8.34,0,0,1,6,2.15q2.26,2.15,2.26,6.36v12.64q0,4.17-2.37,6.34a8.74,8.74,0,0,1-6.15,2.17h-8Zm8.08,24.94a2.62,2.62,0,0,0,2.3-1.16,5.65,5.65,0,0,0,.8-3.23V149.13a6.35,6.35,0,0,0-.77-3.46,2.59,2.59,0,0,0-2.32-1.18h-2.84v20.17Z"/><path class="cls-15" d="M181.89,117.12h-3.33v16.21h-3.42V117.12h-3.36V114h10.11Z"/><path class="cls-15" d="M193.7,114v19.32h-3.44V125h-3.64v8.29h-3.44V114h3.44v8h3.64v-8Z"/><path class="cls-15" d="M199.47,117.12V122H204V125h-4.48v5.21h5.21v3.08h-8.62V114h8.62v3.11Z"/><path class="cls-15" d="M184,191.44h-1.3l-3.06-12-3,12h-1.3l-3.54-13.8h1.42l2.8,11.44,2.7-11.44h1.86l2.8,11.44,2.7-11.44h1.36Z"/><path class="cls-15" d="M189.89,186.31v-3.58a5.41,5.41,0,0,1,1.3-4,4.8,4.8,0,0,1,3.5-1.27,4.73,4.73,0,0,1,3.47,1.27,5.43,5.43,0,0,1,1.29,4v3.58a5.4,5.4,0,0,1-1.3,4,5.42,5.42,0,0,1-7,0A5.43,5.43,0,0,1,189.89,186.31Zm8.1-3.52q0-4-3.3-4a3.16,3.16,0,0,0-2.5,1,4.58,4.58,0,0,0-.84,3.07v3.6a4.24,4.24,0,0,0,.85,2.94,3.22,3.22,0,0,0,2.49.92q3.3,0,3.3-3.86Z"/><path class="cls-15" d="M204.81,185.37v6.06h-1.46v-13.8h5.12a4.37,4.37,0,0,1,3,1,3.69,3.69,0,0,1,1.11,2.87,3.74,3.74,0,0,1-.78,2.44,3.78,3.78,0,0,1-2.18,1.28l3.26,6.2h-1.68l-3.12-6.06Zm3.54-1.26a3,3,0,0,0,2.08-.67,2.88,2.88,0,0,0,0-3.84,3,3,0,0,0-2.09-.65h-3.54v5.16Z"/><path class="cls-15" d="M217.77,177.63v12.48h6.88v1.32h-8.34v-13.8Z"/><path class="cls-15" d="M232.59,177.63a4.76,4.76,0,0,1,3.49,1.27,5.43,5.43,0,0,1,1.29,4v3.24a5.43,5.43,0,0,1-1.29,4,4.75,4.75,0,0,1-3.49,1.27h-4.72v-13.8Zm3.3,8.6V183a4.55,4.55,0,0,0-.85-3.06,3.08,3.08,0,0,0-2.43-1h-3.26v11.16h3.26Q235.89,190.12,235.89,186.23Z"/><path class="cls-15" d="M241,186.31v-3.58a5.36,5.36,0,0,1,1.32-4,4.89,4.89,0,0,1,3.54-1.27,5.59,5.59,0,0,1,2.47.52,3.84,3.84,0,0,1,1.65,1.48,4.21,4.21,0,0,1,.58,2.22v.06h-1.46v-.06a2.7,2.7,0,0,0-.87-2.12,3.42,3.42,0,0,0-2.37-.78,3.28,3.28,0,0,0-2.53.94,4.47,4.47,0,0,0-.87,3.08v3.6q0,3.86,3.42,3.86a3.41,3.41,0,0,0,2.36-.77,2.69,2.69,0,0,0,.86-2.11v-.08h1.42v.08a4,4,0,0,1-1.26,3.08,5.61,5.61,0,0,1-6.94-.13A5.35,5.35,0,0,1,241,186.31Z"/><path class="cls-15" d="M254.17,186.31v-3.58a5.4,5.4,0,0,1,1.3-4,4.79,4.79,0,0,1,3.5-1.27,4.73,4.73,0,0,1,3.47,1.27,5.44,5.44,0,0,1,1.29,4v3.58a5.4,5.4,0,0,1-1.3,4,5.42,5.42,0,0,1-7,0A5.43,5.43,0,0,1,254.17,186.31Zm8.1-3.52q0-4-3.3-4a3.16,3.16,0,0,0-2.5,1,4.58,4.58,0,0,0-.84,3.07v3.6a4.25,4.25,0,0,0,.85,2.94,3.22,3.22,0,0,0,2.49.92q3.3,0,3.3-3.86Z"/><path class="cls-15" d="M277,187.66a3.54,3.54,0,0,1-1.12,2.78,4.43,4.43,0,0,1-3.06,1h-5.18v-13.8h5.06a4.38,4.38,0,0,1,3,1,3.41,3.41,0,0,1,1.07,2.69,3.35,3.35,0,0,1-.56,1.9,2.86,2.86,0,0,1-1.56,1.16,3.18,3.18,0,0,1,1.75,1.22A3.62,3.62,0,0,1,277,187.66Zm-7.9-3.92h3.44a3.19,3.19,0,0,0,2-.59,2.15,2.15,0,0,0,.74-1.79,2.24,2.24,0,0,0-.72-1.81,3.07,3.07,0,0,0-2-.61h-3.46Zm6.44,3.82a2.33,2.33,0,0,0-.75-1.88,3.19,3.19,0,0,0-2.13-.64h-3.56v5.1h3.54a3.17,3.17,0,0,0,2.14-.66A2.41,2.41,0,0,0,275.53,187.55Z"/><path class="cls-15" d="M281.67,189.58v3.36l-1.32,1.24v-4.6Z"/><path class="cls-15" d="M294.57,179v12.48h-1.44V179h-3.94v-1.32h9.32V179Z"/><path class="cls-15" d="M302.7,183.75h5.92v1.32H302.7v5h6.92v1.32h-8.38v-13.8h8.38V179H302.7Z"/><path class="cls-15" d="M312.08,177.63h1.76l3.38,5.42,3.38-5.42h1.7l-4.22,6.56,4.66,7.24H321l-3.8-6-3.78,6h-1.7l4.64-7.18Z"/><path class="cls-15" d="M326.71,188.12l-1.16,3.32H324l5-13.8h1.22l5,13.8h-1.54l-1.16-3.32Zm2.92-8.44-2.5,7.2h5Z"/><path class="cls-15" d="M337,187.54h1.44q.28,2.74,3.28,2.74a3.68,3.68,0,0,0,2.37-.66,2.33,2.33,0,0,0,.81-1.92,2.2,2.2,0,0,0-.64-1.72,3.8,3.8,0,0,0-1.94-.8l-1.56-.26a4.72,4.72,0,0,1-2.58-1.15,3.25,3.25,0,0,1-.9-2.45,3.5,3.5,0,0,1,1.22-2.84,4.86,4.86,0,0,1,3.22-1,4.62,4.62,0,0,1,3,1,4.14,4.14,0,0,1,1.39,2.89h-1.44q-.24-2.58-3-2.58a3.32,3.32,0,0,0-2.21.67,2.28,2.28,0,0,0-.79,1.83,2.07,2.07,0,0,0,.61,1.59,3.58,3.58,0,0,0,1.85.79l1.6.28a4.9,4.9,0,0,1,2.66,1.2,3.39,3.39,0,0,1,.92,2.54,3.55,3.55,0,0,1-1.26,2.91,5.31,5.31,0,0,1-3.46,1,4.82,4.82,0,0,1-3.26-1A4.29,4.29,0,0,1,337,187.54Z"/></g></svg>