<svg id="ccss" xmlns="http://www.w3.org/2000/svg" viewBox="0 0 364 306"><defs><style>.cls-1{fill:#6d6e6e;}</style></defs><title>ccss</title><g id="Layer_69" data-name="Layer 69"><path class="cls-1" d="M79.55,111.42c-.65,1.18-1.2,1.88-1.11,2.79s1.08,1.57,1.55,2.49c.43-1.07,1.15-1.88,1.06-2.72s-1.29-1.95-1.5-2.56"/><path class="cls-1" d="M96,111.42c.64,1.18,1.2,1.88,1.11,2.79s-1.08,1.57-1.55,2.49c-.43-1.07-1.14-1.88-1.06-2.72s1.29-1.95,1.5-2.56"/><path class="cls-1" d="M70.07,110.73A1.08,1.08,0,1,0,69,109.66a1.09,1.09,0,0,0,1.11,1.08"/><path class="cls-1" d="M70.82,112.27a1.12,1.12,0,1,0-1.12,1.08,1.1,1.1,0,0,0,1.12-1.08"/><path class="cls-1" d="M71.36,114.87a1.12,1.12,0,1,0-1.11,1.07,1.1,1.1,0,0,0,1.11-1.07"/><path class="cls-1" d="M76.24,105.61a1.08,1.08,0,1,0-1.11-1.08,1.1,1.1,0,0,0,1.11,1.08"/><path class="cls-1" d="M73.47,106.43a1.08,1.08,0,1,0-1.12-1.08,1.1,1.1,0,0,0,1.12,1.08"/><path class="cls-1" d="M71.29,108.27a1.07,1.07,0,1,0-1.11-1.08,1.09,1.09,0,0,0,1.11,1.08"/><path class="cls-1" d="M79.14,105.87A1.07,1.07,0,1,0,78,104.79a1.1,1.1,0,0,0,1.12,1.08"/><path class="cls-1" d="M81.9,106.64a1.08,1.08,0,1,0-1.12-1.08,1.1,1.1,0,0,0,1.12,1.08"/><path class="cls-1" d="M84.5,107.82a1.08,1.08,0,1,0-1.11-1.08,1.1,1.1,0,0,0,1.11,1.08"/><path class="cls-1" d="M104.36,109.66a1.11,1.11,0,1,0,1.11-1.08,1.1,1.1,0,0,0-1.11,1.08"/><path class="cls-1" d="M105.85,111.19a1.08,1.08,0,1,0,1.12,1.08,1.1,1.1,0,0,0-1.12-1.08"/><path class="cls-1" d="M105.3,113.8a1.07,1.07,0,1,0,1.12,1.08,1.1,1.1,0,0,0-1.12-1.08"/><path class="cls-1" d="M99.32,105.61a1.08,1.08,0,1,0-1.12-1.08,1.1,1.1,0,0,0,1.12,1.08"/><path class="cls-1" d="M102.08,106.43a1.08,1.08,0,1,0-1.11-1.08,1.1,1.1,0,0,0,1.11,1.08"/><path class="cls-1" d="M104.26,108.27a1.07,1.07,0,1,0-1.11-1.08,1.1,1.1,0,0,0,1.11,1.08"/><path class="cls-1" d="M96.41,105.87a1.07,1.07,0,1,0-1.12-1.08,1.09,1.09,0,0,0,1.12,1.08"/><path class="cls-1" d="M93.65,106.64a1.08,1.08,0,1,0-1.11-1.08,1.1,1.1,0,0,0,1.11,1.08"/><path class="cls-1" d="M89.94,106.74a1.11,1.11,0,1,0,1.11-1.08,1.1,1.1,0,0,0-1.11,1.08"/><path class="cls-1" d="M85.88,112.55h1.24v-4.61a4.67,4.67,0,0,1-1.24-.36Z"/><path class="cls-1" d="M89.68,107.58a4.54,4.54,0,0,1-1.25.37v4.6h1.25Z"/><path class="cls-1" d="M87.06,102.5V99.77a3.44,3.44,0,0,0-2.74,2.73Z"/><path class="cls-1" d="M88.51,102.5h2.72a3.45,3.45,0,0,0-2.72-2.73Z"/><path class="cls-1" d="M84.36,103.82a3.53,3.53,0,0,0,6.83,0Z"/><path class="cls-1" d="M89.69,99.34A3.73,3.73,0,0,1,88.17,97a4.5,4.5,0,0,1,2.53,1.55V94.8a4.47,4.47,0,0,1-2.53,1.55,5.33,5.33,0,0,1,1.46-2.65H85.92a5.3,5.3,0,0,1,1.46,2.65,4.47,4.47,0,0,1-2.53-1.55v3.7A4.5,4.5,0,0,1,87.38,97a3.69,3.69,0,0,1-1.52,2.38Z"/><path class="cls-1" d="M93.79,173.18a72.79,72.79,0,0,1-11.58-4v0a2.84,2.84,0,0,0-.8-2.29,3,3,0,0,0-2.21-1,3.27,3.27,0,0,0-1.06.2,15.83,15.83,0,0,1-1.62-1.6,18.23,18.23,0,0,1-3.44-5.77,20.31,20.31,0,0,1-1-3.83,3.58,3.58,0,0,1-3.65,2.57c0-.23,0-.78-.19-.83-.58.62-1.44,1.29-3.43.61a27.7,27.7,0,0,0,1.29,4.39,25.79,25.79,0,0,0,5,8.16,24.23,24.23,0,0,0,2.24,2.17,3.61,3.61,0,0,0,0,.43,3.42,3.42,0,0,0,1.93,2.59,2.77,2.77,0,0,0,2.86-.32,32.24,32.24,0,0,0,6.21,2.33A29.15,29.15,0,0,0,91.5,178a13,13,0,0,0,6.2-2.14,15.52,15.52,0,0,0,2.34-1.72l.24-.22a20.42,20.42,0,0,1-6.49-.75M81,168.09l-.37-.27a1.34,1.34,0,0,0-1.86,0,7.1,7.1,0,0,0-.81.82l-.38.42.25.2c.72.56.82,1.16.62,1.52a.66.66,0,0,1-.37.28,2,2,0,0,1-1.37-.34l-.28-.15-.16.26-.14.19c-.06.08-.12.17-.18.28a2.57,2.57,0,0,0-.46,1.23,1,1,0,0,0,0,.26,1.2,1.2,0,0,0,.7.7l.17.1c.32.2.77.46,1.11.65a2,2,0,0,1-1.91.07,2.84,2.84,0,0,1-1.57-2,5.56,5.56,0,0,1,1.06-2.86l.1-.16-.1-.17a5.74,5.74,0,0,1-.49-.93c.36,0,.72.11,1.08.19l.18,0,.13-.13c.42-.44,1.9-1.89,3.26-1.89a2.37,2.37,0,0,1,1.73.84,2.43,2.43,0,0,1,.64,1.29c-.19-.13-.41-.29-.62-.45m2.27,6.44a1.45,1.45,0,1,1,1.49-1.44,1.48,1.48,0,0,1-1.49,1.44m6.57,2a1.33,1.33,0,1,1,1.37-1.33,1.35,1.35,0,0,1-1.37,1.33"/><path class="cls-1" d="M91.6,183.17a2.56,2.56,0,0,0-.7.1v-4a30.59,30.59,0,0,1-6.13-.9v5a2.25,2.25,0,0,0-.74-.11,2.35,2.35,0,0,0-2.38,2.3,4.12,4.12,0,0,0,1.18,2.61c.28-.63.53-1.14.9-1.14.73,0,.39,3.51,2.53,3.61a1.54,1.54,0,0,0-.11.56,1.67,1.67,0,0,0,3.34,0,1.45,1.45,0,0,0-.11-.56c2.14-.1,1.78-3.61,2.51-3.61.36,0,.59.48.91,1.14A4.1,4.1,0,0,0,94,185.47a2.34,2.34,0,0,0-2.38-2.3M87.81,192a.9.9,0,1,1,.93-.9.91.91,0,0,1-.93.9m5-5.1a1.22,1.22,0,0,0-.94-.72c-1.43,0-.87,3.65-2.58,3.65a1,1,0,0,1-1.14-1c0-.5.37-.66.37-1.08s-.34-.56-.71-.56-.71.15-.71.56.38.57.38,1.08a1,1,0,0,1-1.15,1c-1.7,0-1.14-3.65-2.57-3.65a1.19,1.19,0,0,0-.93.72,3.15,3.15,0,0,1-.45-1.43A1.62,1.62,0,0,1,84,183.88c1.91,0,1.47,2.52,2.38,2.52a.63.63,0,0,0,.7-.62c0-.72-1.33-1.4-1.33-2.43s1-1.89,2-2.71c1.07.83,2,1.69,2,2.71s-1.33,1.71-1.33,2.43a.62.62,0,0,0,.7.62c.92,0,.47-2.52,2.38-2.52a1.62,1.62,0,0,1,1.65,1.59,3.25,3.25,0,0,1-.44,1.43"/><path class="cls-1" d="M140.84,188a.44.44,0,0,0-.55-.25c-4.91,1.37-11-2.55-16.9-6.34-5-3.19-9.64-6.2-13.65-6.2a8.46,8.46,0,0,0-3.95.9,6.88,6.88,0,0,0-3.12,3.5,21.92,21.92,0,0,1-2,3.54,5.12,5.12,0,0,0-1.18,2.72,2.9,2.9,0,0,0,1,2.12,10.53,10.53,0,0,0,2.58,1.69c.25.13.5.25.75.36,1,.46,1.58.77,1.69,1.29a33.48,33.48,0,0,1-7.31,2,67.68,67.68,0,0,1-21,0,33.4,33.4,0,0,1-7.32-2c.08-.79.68-1.11,1.75-1.59l.76-.36A13.43,13.43,0,0,0,75,187.9a2.53,2.53,0,0,0,1-2,5.14,5.14,0,0,0-1.17-2.72,21.07,21.07,0,0,1-2-3.54,6.88,6.88,0,0,0-3.13-3.49,8.41,8.41,0,0,0-3.93-.9c-4,0-8.7,3-13.66,6.21-5.89,3.79-12,7.71-16.9,6.33a.44.44,0,0,0-.54.27.42.42,0,0,0,.24.54,20,20,0,0,1,4.09,2.59c1.77,1.33,3.44,2.58,5.28,2.58a13.12,13.12,0,0,0,5.89-1.69,62.27,62.27,0,0,0,6-3.66c3.88-2.56,7.88-5.2,11.69-5.49-.39.39-.79.73-1.15,1-1.12,1-2.09,1.81-2.09,3.51a7.68,7.68,0,0,0,1.13,3.62c.2.38.41.82.64,1.31a13.89,13.89,0,0,1,.86,2.64c.11.44.23.92.39,1.49.24.88.69,2.51,3.48,3.88,3.24,1.59,8.81,2.4,16.57,2.4s13.34-.81,16.57-2.4c2.79-1.36,3.24-3,3.48-3.88.16-.57.29-1.05.39-1.49a13.58,13.58,0,0,1,.86-2.64c.31-.66.61-1.21.87-1.68a6,6,0,0,0,1-3.1c0-1.71-1-2.59-2.2-3.61-.38-.32-.78-.68-1.18-1.09,3.8.29,7.81,2.93,11.7,5.5a63.47,63.47,0,0,0,6,3.66,13.18,13.18,0,0,0,5.9,1.68c1.84,0,3.52-1.26,5.29-2.6a20.5,20.5,0,0,1,4.07-2.58.43.43,0,0,0,.25-.55"/><path class="cls-1" d="M111.34,150.09a6.36,6.36,0,0,1-1.89-2.12c-.58-1.16-3-5.79-3.4-6.41a2.71,2.71,0,0,1-.47-1.39,2.07,2.07,0,0,1,.51-1.22c.19-.23.72-.73.92-1a4.11,4.11,0,0,1,.43-.54,22.06,22.06,0,0,0-3-3.87,23.8,23.8,0,0,0-4.76-4,3.34,3.34,0,0,0,1.88-2.84,2.55,2.55,0,0,0-1-2c1-3,2.74-6.7,4.24-8.3l-3.16-1.29a4.68,4.68,0,0,1,.7,3.44,3.91,3.91,0,0,1-1.76-2.3,13,13,0,0,1-1.16,3.31,3,3,0,0,1,2.57-.23,3.85,3.85,0,0,1-4,1.28c-1.12-.26-2.24-.84-2.19-1.68a1,1,0,0,1,1.11-1c.69.07.72,1.07.51,1.52.9-.49,1.84-3,.43-3.42-1.11-.3-2.12,1.17-2.49,2.3-.21-1.36-.79-2.66-1.91-2.59-1.45.09-1,2.69-.47,3.34.09-.91.61-1.4,1-1.36a.88.88,0,0,1,.8,1.11c-.09.83-1.3,1.34-2.7,1.34s-3.67-.39-3.89-2.88a4.88,4.88,0,0,1,2.8,1.62,16.05,16.05,0,0,1,0-4.13,4.41,4.41,0,0,1-2.76,1.62,5,5,0,0,1,2.29-2.85H84.93a5,5,0,0,1,2.3,2.85,4.42,4.42,0,0,1-2.72-1.61,16.26,16.26,0,0,1,0,4.13,4.84,4.84,0,0,1,2.75-1.61c-.22,2.48-2.56,2.87-3.89,2.87s-2.61-.5-2.7-1.34a.88.88,0,0,1,.82-1.11c.42,0,.93.45,1,1.36.5-.66,1-3.25-.48-3.34-1.12-.07-1.7,1.23-1.91,2.59-.37-1.13-1.38-2.6-2.49-2.3-1.41.38-.47,2.93.43,3.42-.22-.45-.17-1.46.51-1.52a1,1,0,0,1,1.11,1c.05.84-1.07,1.42-2.19,1.68a3.83,3.83,0,0,1-4-1.27,3,3,0,0,1,2.6.22A13.37,13.37,0,0,1,75,116.22a3.92,3.92,0,0,1-1.8,2.33,4.67,4.67,0,0,1,.69-3.46l-3.15,1.29C72.23,118,74,121.65,75,124.7a2.51,2.51,0,0,0-.95,2,3.32,3.32,0,0,0,1.87,2.84,23.68,23.68,0,0,0-4.76,4,25.39,25.39,0,0,0-5,8.11c.44.43,2.33,2.42,2.77,3a4.85,4.85,0,0,1,1.27,2.66,3.92,3.92,0,0,0,1.11,2.85,5.1,5.1,0,0,1,.62,2H87.54v16.47a2.38,2.38,0,0,0-1.8.82c1.82.7,3.53,1.34,5.27,1.86a4.3,4.3,0,0,1,.95-2.41s-2.28-.22-3.49-.28V152.12h15.3a20.11,20.11,0,0,1-1.24,6.52,18.5,18.5,0,0,1-3.44,5.77A15.75,15.75,0,0,1,94,168.28c-.31.14-.3.36-.61.47a4.26,4.26,0,0,0-.76,1.34,5.77,5.77,0,0,0-.35,1.5c.72.21,1.11.32,1.79.48,5.38,1.3,6.71.92,7,.69h0a23.35,23.35,0,0,0,3.38-3.06,25.91,25.91,0,0,0,5-8.16,27.64,27.64,0,0,0,1.84-10c0-.63,0-.83,0-1.47m-23.8,1.13H71.85a20,20,0,0,1,1.26-6.76,18.38,18.38,0,0,1,3.44-5.77,16,16,0,0,1,5.07-3.88,14.3,14.3,0,0,1,5.92-1.4ZM87.81,126a20,20,0,0,0-10.92,2.84c-1.21-.69-1.73-1.38-1.73-2.18,0-2.87,8.4-3.12,12.65-3.12h0c4.25,0,12.65.25,12.65,3.12,0,.8-.52,1.48-1.74,2.18A20,20,0,0,0,87.81,126m.65,25.21V133.44A14.43,14.43,0,0,1,94,134.82a16,16,0,0,1,5.08,3.88,18.55,18.55,0,0,1,3.44,5.77,20.32,20.32,0,0,1,1.26,6.76Z"/><path class="cls-1" d="M101.35,148.32c.26.17.18.58-.16.54a16.49,16.49,0,0,0-2.94-7.5l0,0a.94.94,0,0,0,.65-.78,1,1,0,0,0-1,.43c-.11-.14-.22-.28-.33-.43a14.48,14.48,0,0,0-3.32-3,12.5,12.5,0,0,0-3.69-1.63.3.3,0,0,1,.56-.07.52.52,0,0,0-.61-.61.41.41,0,0,0-.27.37,1,1,0,0,0-.69-.36,1,1,0,0,0,.22.71.45.45,0,0,0-.41.19c-.13.22,0,.66.53.69a.28.28,0,0,1,.16-.52v5.78a1,1,0,0,0-1,.25,1,1,0,0,0,1,.25v6.28a.28.28,0,0,1-.15-.53c-.49,0-.69.42-.58.65a.45.45,0,0,0,.5.22,1,1,0,0,0-.26.66,1,1,0,0,0,.68-.25.44.44,0,0,0,.25.48.54.54,0,0,0,.67-.57c-.18.24-.56.17-.56-.12h4.52a1,1,0,0,0,.25,1,.94.94,0,0,0,.26-1h5c0,.3-.37.39-.55.15a.54.54,0,0,0,.68.55.43.43,0,0,0,.23-.49,1,1,0,0,0,.69.24,1,1,0,0,0-.28-.66.47.47,0,0,0,.5-.24c.1-.22-.11-.65-.6-.63M97,140.67a.4.4,0,0,0-.15.41.44.44,0,0,0,.46.29A1,1,0,0,0,97,142a1,1,0,0,0,.72-.15.41.41,0,0,0,.57.51,15.93,15.93,0,0,1,2.29,6,1.08,1.08,0,0,0-.57-.15.93.93,0,0,0,.31.68H96.46a.44.44,0,0,0-.26-.49.44.44,0,0,0-.51.18,1,1,0,0,0-.31-.65,1,1,0,0,0-.29.65.42.42,0,0,0-.77.31H91.05a.94.94,0,0,0,.23-.62,1,1,0,0,0-.66.23v-5.12a.47.47,0,0,0,.53-.24.42.42,0,0,0-.18-.5,1,1,0,0,0,.68-.29,1,1,0,0,0-.68-.28.43.43,0,0,0,.18-.51.47.47,0,0,0-.53-.24V137a1.14,1.14,0,0,0,.57.22,1,1,0,0,0-.15-.62A12.49,12.49,0,0,1,94,138a14,14,0,0,1,3,2.69"/><path class="cls-1" d="M98.66,146.73a.79.79,0,0,0,.42-.37.5.5,0,0,1-.44-.05c.15-.09.34,0,.15-.27s-.3-.28-.48-.08-1.4-.05-1.4-.93a.86.86,0,0,0,.42.34l.14.06.15,0a1,1,0,0,0,.35.05h.07v0a.54.54,0,0,0,.47-.46c0-.48-.43-.71-1-1.13-.21-.17-.36-.31-.49-.43-.18-.35-.06-.67-.52-1.3a2.6,2.6,0,0,0-.15-.56,1.57,1.57,0,0,0,.29,1.87c.5.54,1.59,1.05,1.55,1.51a.3.3,0,0,1-.28.23h-.14l-.11,0a1.11,1.11,0,0,1-.22-.1,1.74,1.74,0,0,1-.38-.29A11.2,11.2,0,0,1,96,143.44a1.89,1.89,0,0,1-.2-1.74c.35-.47-.22-1.44-.56-1.67a.9.9,0,0,0,0-.5c-.07.06-.23,0-.31,0-.09-.18-.13-.22-.25-.24s-.21-.15-.23-.23c-.13.11-.17.22-.3.23s-.25,0-.33.06a.45.45,0,0,1-.37.13c-.21,0-.2.11-.19.25s0,.23.15.28l.06,0,.17.18.1-.19c.09-.09.36-.1.41.08s.06.17-.11.18a3.84,3.84,0,0,1-.44,0c-.11,0-.11.15-.11.24s.14.17.38.11.67-.1.67.1c0,.53-.62.51-.75,1.13a1.19,1.19,0,0,1-.39-.34,2.28,2.28,0,0,0-.45-.54,2.09,2.09,0,0,0-.47-.37c-.21-.12-.22-.23-.22-.44s.08-.36.08-.53a.81.81,0,0,0-.05-.16.3.3,0,0,0-.29-.18.26.26,0,0,1,.12.19.3.3,0,0,0-.09.1.12.12,0,0,0,0,.18s0,0,0,0a.28.28,0,0,1,0,.09s0,0,0,0-.11-.32-.23-.33h-.09v0c0-.14-.16-.25-.33-.08,0,0,.11,0,.14,0a.53.53,0,0,0,0,.14c0,.13.09.2.25.2a0,0,0,0,1,0,0,.15.15,0,0,1,0,.06s0,0,0,0c-.25-.11-.35,0-.36.11a.32.32,0,0,0,0,.1c-.09.06-.11.18,0,.29,0,0,0-.13.05-.15h0a.13.13,0,0,0,.07.05s.07,0,.14,0,0,0,.06,0l.07,0s0,0,0,0-.13.3.06.35a.2.2,0,0,1-.36-.15c-.21.33.14.56.43.44,0,.11,0,.35.05.36a.06.06,0,0,1,.06-.07s0,0,0,0a.18.18,0,0,0,.15.18.08.08,0,0,1,0-.1l.14.23a2.32,2.32,0,0,0,1.07,1.14,3.08,3.08,0,0,0-.76.7c-.18.17-.45.36-.61.26s-.09-.12-.19-.19a.28.28,0,0,0-.2-.05l-.11,0a.31.31,0,0,0-.34.1.28.28,0,0,1,.24,0s0,.11,0,.11.06.16.39.14c0,0,.06,0,0,0a.18.18,0,0,1-.18,0c-.15,0-.22-.15-.33,0a.8.8,0,0,1-.07.08h0c-.13,0-.26.29-.11.4a.25.25,0,0,1,.1-.2l.07.07c.1.14.21.22.43-.11,0,0,0,0,0,0s-.16.37,0,.4H92v0a.3.3,0,0,0,.39.18.35.35,0,0,1-.22-.22h.11c.12-.12,0-.27,0-.35s0,0,0,0,.14.21.32.12a.26.26,0,0,0,.13-.21,1,1,0,0,1,.59-.11c0-.11.11-.27.35-.33a.41.41,0,0,1,.43.07,1.15,1.15,0,0,1,.25-.4c0,.93,1.26.9,1.56,1.46a2.29,2.29,0,0,0-1.06-.2c-.31.06-.86.35-.93.69a1.3,1.3,0,0,0,.56,1c-.37.06-.5,0-.85,0l0,0c-.29,0-.33-.47-.68-.33l-.09.07h0c-.13,0-.32.16-.29.29a.36.36,0,0,1,.22-.12.65.65,0,0,0,0,.07s0,.11.13.11.09,0,.14,0a0,0,0,0,1,0,0c0,.13-.43-.07-.35.28a.8.8,0,0,0,.06.1c0,.11.08.22.27.15,0,0-.1-.07-.09-.13h.08s0,0,0-.06,0,0,0,0,0,0,0,0,0,0,0,.07l0,.11a.22.22,0,0,0,.36.13c-.05,0-.17,0-.18-.09l.09,0s0-.07,0-.12,0,0,0,0h.09a0,0,0,0,1,.06,0,.23.23,0,0,0,.27.11.16.16,0,0,0,.11-.09l.15.09c0-.13.07-.24.36,0l.22-.16s.29.12.39,0,.08-.16.08-.31-.2-.25-.26-.52c-.1-.46.56-.72,1-.64a2.11,2.11,0,0,0,1.21,1.29c.44.14.62-.32.76-.25s.06,0,.08.12,0,.4-.05.5-.28,0-.44,0a.17.17,0,0,0-.17.07c-.13,0-.29.14-.29.29a.51.51,0,0,1,.25-.12.29.29,0,0,1,0,.06.2.2,0,0,0,.35.12s.07,0,0,0-.31.25-.14.32l.09,0a.23.23,0,0,0,.18.24c0-.06,0-.1,0-.22H98c.13,0,.07-.22.21-.29s0,0,0,0-.07.29,0,.32l.1,0a.23.23,0,0,0,.34.1s-.13-.05-.16-.11l.1-.11c.08-.28-.17-.28-.17-.4s.29,0,.29-.32l0,0c.14-.07.28-.16.29-.26a.92.92,0,0,1-.36-.06Z"/><path class="cls-1" d="M85.76,155.07l-.26,0v-.24a1.4,1.4,0,0,0-1.5-1.54c-.89,0-2.58,1.11-5,1.11a6.75,6.75,0,0,1-3-.9l-.29.68a.35.35,0,0,0,0-.07.59.59,0,1,0-.59.57.62.62,0,0,0,.46-.21l-.29.68.31.13c-.35,3.48,2.33,7.92,7,9.27.7-.18,1.41-.07,1.41.66a.58.58,0,0,1-.65.65c-.28,0-.47-.15-.47-.34s.55-.11.61-.33-.11-.4-.44-.4a.78.78,0,0,0-.83.73,1,1,0,0,0,1.08,1A1.35,1.35,0,0,0,84.88,165c.25,0,.54,0,.59-.27l.06-.7-.25,0,.19-8h.19c.31,0,.57-.11.59-.43a.48.48,0,0,0-.49-.49m-8.53.62,5.74,8c-3.07-1.15-6.12-3.8-5.74-8m5.9,7.19-5.22-7.25.48,0a5.45,5.45,0,0,0,.8-.06l4.2,5.8-.25,1.49m.38-2.3-3.68-5.1a10.29,10.29,0,0,0,1.18-.34L83.78,159c-.08.54-.18,1.09-.27,1.62m.9-5.61-.22,0a.51.51,0,0,0-.58.41c0,.32.21.5.51.52h.15c0,.07,0,.14,0,.22-.07.45-.2,1.2-.33,2.06l-2.34-3.23a11.61,11.61,0,0,1,2.45-.88c.38,0,.47.18.38.91"/><path class="cls-1" d="M84.76,139c1.11,0,1.67-.35,1.67-.68,0-1.2-3.07-.46-3.07-1.18a.45.45,0,0,1,.23-.33h0c1.54-.14,1.57-1.16,2.67-1.37-1.33-.18-1.51.83-2.08.87a.66.66,0,0,0,.39-.62c-.27.35-.86.38-1.2.79a.24.24,0,0,0-.05.21.53.53,0,0,0-.32.43c0,1.14,3.12.36,3.12,1.19,0,.28-.54.48-1.4.48-.64,0-1.1-.44-2.3-.15,0-.19.4-.56.25-.73a.28.28,0,0,0,.2-.22.43.43,0,0,0-.23-.11c0-.05,0-.12-.06-.16s0-.13-.07-.16a1.07,1.07,0,0,0-.27-.18A.78.78,0,0,0,82,137a.66.66,0,0,0-.17,0c-.07,0-.15,0-.16.07a.35.35,0,0,0-.22-.1.43.43,0,0,0,0,.32c-.11,0-.23.28-.33.26s.07.11.11.11c-.1.17-.13.36-.24.36l.08.09a3.46,3.46,0,0,0-.16.68,1.18,1.18,0,0,0-.25-.19c-.18-.1-.17-.18-.14-.35s.13-.29.14-.43a1.08,1.08,0,0,0,0-.14.23.23,0,0,0-.24-.15.14.14,0,0,1,.08.15l-.09.07s-.07.1,0,.15,0,0,0,0a.2.2,0,0,1,0,.07s0,0,0,0-.06-.26-.16-.27H80v0c0-.11-.11-.2-.28-.07,0,0,.09,0,.11,0a.4.4,0,0,0-.05.11c0,.11.07.16.2.16h0a.12.12,0,0,1,0,.05s0,0,0,0c-.21-.09-.32,0-.34.07s0,.07,0,.09-.12.14,0,.23,0-.11.07-.13h0s0,0,0,0,.06,0,.14,0h.06s0,0,.06,0,0,0,0,0c-.18.13-.17.25,0,.29,0,0,0,0,0,0-.05.25-.42.18-.36-.05-.24.28.08.49.38.36,0,0,0,0,0,0a.09.09,0,0,0,.08.09s0,0,.07,0,0,0,0,0a.12.12,0,0,0,.1.16s0-.1.05-.1.12.2.28.38a3.61,3.61,0,0,1-.69.2,1.57,1.57,0,0,0-.54,0c-.18.08-.61.24-.74.07s0-.12-.08-.21a.25.25,0,0,0-.14-.11H78.5a.23.23,0,0,0-.29,0,.22.22,0,0,1,.17.1.37.37,0,0,0,0,.09c0,.05,0,.14.26.23,0,0,0,0,0,0a.16.16,0,0,1-.16,0c-.11-.09-.12-.21-.25-.13l-.08,0h0c-.13,0-.32.14-.23.26A.25.25,0,0,1,78,140s0,.07,0,.08.08.25.36.06c0,0,0,0,0,0s-.25.23-.11.32l.07,0a.08.08,0,0,0,0,0,.24.24,0,0,0,.24.26.25.25,0,0,1-.09-.24l.08,0c.14-.05.07-.22.14-.27a0,0,0,0,1,0,0c0,.06,0,.22.21.21a.23.23,0,0,0,.21-.22s0,0,0,0a.15.15,0,0,1,.09.18.23.23,0,0,0,.11-.11.23.23,0,0,1-.06.28.42.42,0,0,0,.27-.27l.05.09h0a.62.62,0,0,0,.33,0s0,0,0,0a.15.15,0,0,0,0,.16.17.17,0,0,1,.06-.08s0,.16.1.25c0-.4.26-.24.52-.4,0,0,0,0,0,0a.35.35,0,0,1-.11.13c.1,0,.32-.09.32-.24s.08-.08.17-.14a.31.31,0,0,0,.3-.13s0,.16,0,.2c.27,0,.56-.28.67-.31.58-.12-.36-.52.83-.46a.64.64,0,0,0,.35-.13c-.1.18-.1.52.08.55a.64.64,0,0,1,.31.13s0,0,0,0a1.13,1.13,0,0,0-.25.07c-.29.18-.29-.4-.59-.3l-.07.05c-.12,0-.28.14-.25.26a.29.29,0,0,1,.19-.11s0,.05,0,.06,0,.09.11.09.07,0,.12,0a0,0,0,0,1,0,0c0,.11-.37-.07-.3.24a.3.3,0,0,0,.06.1c0,.09.07.18.23.12,0,0-.09-.05-.07-.11h.07s0,0,0-.05,0,0,0,0l0,0s0,0,0,.07a.29.29,0,0,0,0,.1c0,.11.15.22.32.11,0,0-.14,0-.16-.07l.07,0a.12.12,0,0,0,0-.1s0,0,0,0h.08s0,0,.06,0a.17.17,0,0,0,.23.09c.2-.07,0-.23.19-.26a.13.13,0,0,1,.12,0c.16,0,.39,0,.43,0a.4.4,0,0,0-.15-.45c-.1,0,0-.16-.09-.3a1.53,1.53,0,0,0,.59.14c.43,0,0-.06.21-.17a.65.65,0,0,1,.51,0c.06,0,.11,0,.09.09,0,.22,0,.24,0,.34s-.23,0-.35,0a.16.16,0,0,0-.13.05c-.11,0-.23.11-.23.24a.49.49,0,0,1,.19-.1s0,0,0,0a.16.16,0,0,0,.28.1s.06,0,0,0-.25.2-.11.26l.07,0a.19.19,0,0,0,.14.2c0-.05,0-.07,0-.18h.08c.09,0,0-.18.16-.23s0,0,0,0-.05.23,0,.27h.07c0,.08.13.14.26.07a.2.2,0,0,1-.12-.08l.07-.1c.07-.22-.13-.23-.13-.32s.23,0,.23-.27a.17.17,0,0,0-.1-.14s0,0,0,0,.13,0,.16-.07c-.16,0-.11-.13-.14-.22s0,0,0,0a.21.21,0,0,0,.07-.24c-.05.07-.25.16-.26,0s0-.12-.18-.08-.42-.12-1-.17c0,0-.06,0,0,0m-3.42-1.21h0m.81-.2a1.38,1.38,0,0,0,.36.14c-.17,0-.12.11-.23.1s-.15-.14-.13-.24m-.22-.11c0,.09-.15.15-.23.07s0-.1-.09-.25a1.37,1.37,0,0,0,.32.17m-.34.73c0-.06.05-.11.09-.11s.1,0,.11-.07,0-.1-.1-.14.1,0,.07-.07-.11,0-.13,0,0-.05.07-.07.06,0,.09,0l.29.14s.07,0,.07.07,0,.08,0,.1,0-.09-.08-.1,0,0,0,.11-.14-.05-.17,0a.1.1,0,0,0,0,.14s0,.08,0,.14a.17.17,0,0,1-.22.1.16.16,0,0,1-.05-.23"/><path class="cls-1" d="M86.3,143c0-.32-.38-.53-1.47-.53s-3.56.39-3.56-.2c0-.3.48-.27,1.06-.24a.41.41,0,0,0,.23.12c1.41.39,3.08-.32,3.93-.09-1-.74-1.85,0-2.92-.2.62,0,.85-.17.87-.34-.48.31-1.41-.15-2,.19l-.09.07c-.78,0-1.4,0-1.4.48,0,1.05,2.93.43,3.85.43s1.12.09,1.12.26-.91.31-1.43.31a24.07,24.07,0,0,0-4.66-.12c.12-.23.38-.52.24-.68a.35.35,0,0,0,.23-.27.59.59,0,0,0-.27-.12c0-.06,0-.13-.07-.18s0-.17-.08-.18a1.13,1.13,0,0,0-.32-.21,1.41,1.41,0,0,0-.33-.09,1,1,0,0,0-.2,0c-.08,0-.17,0-.18.07a.5.5,0,0,0-.25-.11.47.47,0,0,0,0,.38c-.13,0-.27.33-.39.29,0,.09.09.13.12.14-.11.19-.15.41-.28.42a.4.4,0,0,0,.18.16c0,.14,0,.29,0,.4l-.23-.08h-.07a.19.19,0,0,1-.09,0l.1,0-.13,0a4,4,0,0,0-.48-.39c-.21-.12-.21-.22-.2-.43s.11-.36.11-.53l0-.16a.27.27,0,0,0-.29-.19.22.22,0,0,1,.11.19l-.1.09a.14.14,0,0,0,0,.19,0,0,0,0,1,0,0,.27.27,0,0,1,0,.09s0,0,0,0-.1-.32-.22-.33-.07,0-.09,0,0,0,0,0-.14-.25-.32-.08a.23.23,0,0,1,.14.06.41.41,0,0,0,0,.14c0,.13.08.18.23.19s0,0,0,0a.18.18,0,0,1,0,.06s0,0,0,0c-.25-.11-.35,0-.36.12a.31.31,0,0,0,0,.09c-.1.06-.12.19,0,.29,0,0,0-.14.06-.15l0,0a.16.16,0,0,0,.06.06s.07,0,.14,0,0,0,.07,0a.16.16,0,0,1,.07,0s0,0,0,0c-.18.16-.15.31.07.35,0,0,0,0,0,0a.21.21,0,1,1-.41-.06c-.24.34.15.6.46.43,0,0,0,0,0,0a.12.12,0,0,0,.1.11.07.07,0,0,1,.07-.07s0,0,0,0a.16.16,0,0,0,.14.18c0-.05,0-.11,0-.11s.19.23.44.37.35.29.48.17c0,.2.17.44.13.44a2.93,2.93,0,0,0-.77,0c-.21.11-.72.28-.86.08s0-.14-.1-.24a.28.28,0,0,0-.18-.12h-.11a.33.33,0,0,0-.34,0,.25.25,0,0,1,.19.13.77.77,0,0,0-.05.1c0,.06,0,.17.31.28,0,0,0,0,0,0a.16.16,0,0,1-.17,0c-.12-.1-.14-.23-.29-.15l-.1,0h0c-.14,0-.36.15-.26.31a.26.26,0,0,1,.18-.14s0,.09,0,.11.11.28.44.06c0,0,0,0,0,0s-.3.26-.13.37l.07.06,0,0a.3.3,0,0,0,.28.32.37.37,0,0,1-.11-.27l.09,0c.18-.07.1-.25.18-.3s0,0,0,0,0,.26.24.24a.25.25,0,0,0,.25-.25s0,0,0,0a.18.18,0,0,1,.09.2.29.29,0,0,0,.14-.13.25.25,0,0,1-.07.32.52.52,0,0,0,.32-.32s0,.07.07.11,0,0,0,0a.75.75,0,0,0,.38,0s0,0,0,0a.15.15,0,0,0,0,.18s.05-.09.08-.09,0,.18.11.29c0-.47.31-.29.61-.47,0,0,0,0,0,0a.26.26,0,0,1-.13.16c.33.07.87-.42.94-.64a2.75,2.75,0,0,1,.32,0c1,.08.29-.83,1.83-.57a.76.76,0,0,0,.38-.17c-.11.19-.12.61.09.64a.79.79,0,0,1,.36.15s0,0,0,0a1,1,0,0,0-.29.07c-.32.22-.33-.47-.68-.34l-.1.07c-.14,0-.32.15-.29.29a.34.34,0,0,1,.22-.12v.07s0,.11.13.11.09,0,.14,0,0,0,0,0-.43-.08-.35.28a.62.62,0,0,0,.06.1c0,.11.08.22.26.16,0,0-.1-.07-.09-.13h.08s0,0,.05-.06,0,0,0,0,0,0,0,0,0,0,0,.07a.25.25,0,0,0,0,.12c0,.12.17.26.36.13-.05,0-.18,0-.19-.09l.09,0a.18.18,0,0,0,0-.14s0,0,0,0h.09s.06,0,.06,0a.22.22,0,0,0,.27.11c.24-.08,0-.28.22-.32a.3.3,0,0,1,.14,0c.18,0,.46,0,.5,0a.45.45,0,0,0-.18-.51c-.11-.06,0-.19-.1-.36a1.75,1.75,0,0,0,.68.16,1.3,1.3,0,0,0,.86-.21.89.89,0,0,1,.61-.06c.06,0,.11,0,.1.13-.06.25,0,.27,0,.39s-.26,0-.41,0a.16.16,0,0,0-.15.07c-.13,0-.27.13-.26.27a.48.48,0,0,1,.23-.11v.06a.18.18,0,0,0,.32.11s.07,0,0,0-.29.24-.14.29l.09.05a.22.22,0,0,0,.17.23c0-.06,0-.08,0-.21h.09c.11,0,.06-.21.18-.28s0,0,0,0-.07.28,0,.31l.1,0a.2.2,0,0,0,.3.09s-.11-.05-.12-.11a.62.62,0,0,0,.08-.12c.08-.25-.16-.26-.16-.37s.27,0,.27-.3a.16.16,0,0,0-.11-.16s0,0,0,0h0c.08,0,.16,0,.19-.09-.2,0-.14-.14-.17-.25s0,0,0,0a.25.25,0,0,0,.09-.28c-.07.09-.29.19-.32,0,0,0,0-.13-.2-.1a6.54,6.54,0,0,1-1.2-.09c.72,0,1.78-.18,1.78-.57m-8.56.61s0,0,0,0h0m1.74-1.51a1.56,1.56,0,0,0,.42.16c-.19,0-.14.12-.27.11s-.18-.17-.15-.28m-.27-.13c-.05.09-.17.17-.27.08s0-.12-.1-.29a2,2,0,0,0,.37.21m-.41.85c0-.07.07-.14.11-.14s.11,0,.14-.07,0-.12-.13-.18c.08,0,.13-.06.08-.09s-.13,0-.14,0,0-.06.07-.09a.09.09,0,0,1,.11,0l.35.16s.07,0,.07.08,0,.11,0,.12,0-.11-.09-.12-.06.06,0,.13-.15-.07-.2,0a.13.13,0,0,0,0,.17s0,.09,0,.17-.13.18-.25.12a.19.19,0,0,1-.07-.26m.9,1.85h0s0,0,0,0"/><path class="cls-1" d="M85.82,147.66c0-.31-.35-.51-1.39-.51s-4.25.38-4.25-.19c0-.36,1.08-.21,1.88-.19a.43.43,0,0,0,.24.15c1.34.36,2.74-.51,3.7-.2-.76-.67-1.74.07-2.76-.13.6,0,1.22-.12,1.25-.27-.46.29-1.77-.2-2.31.13a.23.23,0,0,0-.08.07c-1,0-2.2-.14-2.2.44,0,1,3.65.42,4.53.42s1.06.09,1.06.25-.87.29-1.36.29c-.81,0-4.23-.43-5.58,0,.07-.23.4-.57.25-.74a.31.31,0,0,0,.22-.25.52.52,0,0,0-.25-.12c0-.06,0-.13-.06-.17s0-.15-.07-.17a1.5,1.5,0,0,0-.31-.21,1,1,0,0,0-.31-.07s-.18,0-.19,0-.16,0-.18.07a.36.36,0,0,0-.23-.09.4.4,0,0,0,0,.35c-.13,0-.25.31-.37.28,0,.08.07.12.11.13-.1.18-.14.39-.27.4l.12.12a1.47,1.47,0,0,0,0,.3l-.11,0h-.16l-.17,0c-.17,0-.29-.28-.57-.43s-.22-.21-.22-.42.09-.33.08-.5c0,0,0-.11-.05-.15a.27.27,0,0,0-.27-.18.22.22,0,0,1,.11.18s-.08.07-.08.1a.11.11,0,0,0,0,.17s0,0,0,0a.2.2,0,0,1,0,.07s0,0,0,0-.11-.31-.22-.31h-.08s0,0,0,0-.15-.22-.31-.07a.26.26,0,0,1,.12.06.75.75,0,0,0,0,.13c0,.14.1.18.25.19s0,0,0,0,0,0,0,.06,0,0,0,0c-.23-.1-.33,0-.34.11a.32.32,0,0,0,0,.09c-.09.07-.11.18.05.27,0,0,0-.13.05-.14h0l.07.06s.06,0,.13,0a.05.05,0,0,1,.06,0l.07,0s0,0,0,0c-.16.15-.14.3.07.33,0,0,0,0,0,0,0,.29-.4.23-.38,0-.21.32.17.57.46.4,0,0,0,0,0,0s0,.1.1.11,0-.07.07-.07,0,0,0,0a.18.18,0,0,0,.15.18c0-.06,0-.11,0-.11a3,3,0,0,0,.68.61c.08,0,.2,0,.24-.11s0,.07.09.1.14.42.1.42a3.71,3.71,0,0,0-.86,0c-.2.1-.67.27-.82.07s0-.13-.1-.22-.1-.12-.15-.12H75a.29.29,0,0,0-.33,0,.24.24,0,0,1,.19.12s0,.08-.06.09,0,.16.29.27c0,0,0,0,0,0a.15.15,0,0,1-.17,0c-.11-.09-.14-.22-.27-.14l-.1,0h0c-.13,0-.34.16-.25.31a.25.25,0,0,1,.17-.14.23.23,0,0,1,0,.1c0,.15.1.27.42.06,0,0,0,0,0,0s-.29.26-.12.36l.07.05s0,0,0,0a.27.27,0,0,0,.26.29.31.31,0,0,1-.09-.26s.08,0,.09,0,.08-.23.17-.29,0,0,0,0,0,.23.23.22a.24.24,0,0,0,.24-.25s0,0,0,0a.18.18,0,0,1,.09.19.4.4,0,0,0,.13-.12.26.26,0,0,1-.07.3.44.44,0,0,0,.3-.3.39.39,0,0,1,.06.1h0a.65.65,0,0,0,.36,0s0,0,0,0a.28.28,0,0,0,0,.18s0-.09.07-.09,0,.17.1.27c0-.43.59-.22.88-.39,0,0,0,0,0,0a.31.31,0,0,1-.13.14.61.61,0,0,0,.38-.14l0,0,.47-.21c0-.05,0-.1,0-.13l.15,0h0c.3,0,.27-.22.39-.2,1.71.22.73-.71,2.73-.52.11,0,.14,0,.22-.11-.11.19-.11.51.1.54a.73.73,0,0,1,.34.14s0,0,0,0l-.28.06c-.31.2-.32-.44-.65-.32l-.09.06c-.14,0-.31.15-.28.29a.31.31,0,0,1,.21-.12v.07s0,.09.12.09.09,0,.14,0a0,0,0,0,1,0,0c0,.11-.41-.07-.33.26l.06.11c0,.1.07.2.26.14,0,0-.11-.07-.09-.12h.09s0,0,0,0,0,0,0,0,0,0,0,0,0,0,0,.07a.26.26,0,0,0,0,.11c0,.12.17.25.35.13-.05,0-.17,0-.18-.09l.08,0s0-.07,0-.12,0,0,0,0h.07s.06,0,.07,0a.21.21,0,0,0,.26.11c.22-.08,0-.26.21-.3a.27.27,0,0,1,.13,0c.17,0,.44,0,.48,0a.43.43,0,0,0-.17-.49c-.11-.06,0-.19-.1-.34a1.73,1.73,0,0,0,.65.15,1.3,1.3,0,0,0,.81-.19.82.82,0,0,1,.57-.06c.06,0,.11,0,.1.11-.06.24,0,.26,0,.37s-.25,0-.39,0a.19.19,0,0,0-.15.07.28.28,0,0,0-.25.26.55.55,0,0,1,.21-.11.12.12,0,0,0,0,.05.17.17,0,0,0,.3.11s.07,0,0,0-.28.23-.13.29l.08,0a.21.21,0,0,0,.16.21s0-.08,0-.19h.08c.11,0,.06-.21.17-.27s0,0,0,0-.06.26,0,.29h.09a.2.2,0,0,0,.29.09.31.31,0,0,1-.13-.1.27.27,0,0,0,.07-.11c.08-.25-.14-.25-.14-.35s.25,0,.25-.3a.16.16,0,0,0-.11-.15s0,0,0,0,.14,0,.18-.07c-.19,0-.13-.15-.16-.25s0,0,0,0a.26.26,0,0,0,.07-.27c-.06.09-.27.19-.29,0,0,0,0-.13-.2-.1a6.59,6.59,0,0,1-1.13-.08c.59,0,1.69-.16,1.69-.54m-7.63-.82a3.09,3.09,0,0,0,.42.16c-.19,0-.14.1-.27.1s-.16-.16-.15-.26m-.24-.12c-.06.08-.17.16-.26.07s0-.11-.1-.28a1.57,1.57,0,0,0,.36.2m-.39.81c0-.07.06-.13.1-.13s.12,0,.14-.07-.05-.12-.13-.16c.08,0,.12-.06.08-.09s-.13,0-.14,0,0-.06.06-.08.06,0,.11,0l.33.15a.09.09,0,0,1,.06.08s0,.1,0,.11,0-.1-.09-.11,0,0,0,.11-.15-.06-.19,0a.11.11,0,0,0,0,.15s0,.09,0,.16-.13.18-.24.12a.18.18,0,0,1-.07-.25"/><path class="cls-1" d="M100.65,155.42s0,0,0,0a.3.3,0,0,0,.11-.27c-.07.09-.29.18-.29,0,0,0,0-.12-.19-.1a6.89,6.89,0,0,1-1.22-.07s-.06,0,0,0c.6,0,1.69-.13,1.69-.5s-.35-.5-1.4-.5-4.24.37-4.24-.2c0-.36,1.08-.21,1.88-.18a.36.36,0,0,0,.22.14c1.35.37,2.88-.6,3.69-.38-1.06-.35-1.72.26-2.74.06.59,0,1.23-.12,1.26-.27-.47.28-1.77-.2-2.32.13l-.09.07c-1,0-2.19-.13-2.19.43,0,1,3.65.43,4.52.43s1.07.08,1.07.24-.87.31-1.36.31c-.83,0-4.23-.44-5.59,0,.07-.23.42-.56.26-.73a.33.33,0,0,0,.22-.26.53.53,0,0,0-.26-.11c0-.06,0-.12-.06-.17s0-.15-.07-.17a1.12,1.12,0,0,0-.31-.21,1,1,0,0,0-.31-.08,1.69,1.69,0,0,0-.18,0c-.07,0-.16,0-.17.08a.43.43,0,0,0-.24-.11.45.45,0,0,0,0,.36c-.13,0-.26.31-.37.27,0,.09.08.12.11.13-.1.18-.14.39-.26.39.07.1.13.15.18.15a1.88,1.88,0,0,0,0,.3l-.18-.06h-.17l-.16,0c-.17,0-.3-.27-.57-.42s-.21-.22-.21-.43.08-.32.08-.48l-.06-.16a.29.29,0,0,0-.28-.18.28.28,0,0,1,.11.18s-.08.09-.1.1a.15.15,0,0,0,0,.18s0,0,0,0a.38.38,0,0,1,0,.08s0,0,0,0-.11-.3-.22-.31h-.09a.09.09,0,0,0,0,0c0-.13-.14-.23-.31-.07,0,0,.11,0,.14.06a1.25,1.25,0,0,0,0,.13c0,.14.09.18.23.18s0,0,0,0a.21.21,0,0,1,0,.06s0,0,0,0c-.24-.1-.35,0-.35.11a.56.56,0,0,0,0,.09c-.07.06-.1.18.06.27,0,0,0-.12,0-.14h0s0,0,.06,0,.06,0,.14,0h.06a.13.13,0,0,0,.07,0s0,0,0,0-.14.3.08.34c0,0,0,0,0,0,0,.29-.41.23-.39-.05-.21.32.17.57.45.4,0,0,0,0,0,0s0,.11.09.11a.07.07,0,0,1,.07-.06s0,0,0,0,0,.18.14.19,0-.11,0-.11.24.41.68.64c0,0,.15-.1.24-.16a.25.25,0,0,0,.15.19l.07,0c0,.19.21.39.17.39a1.68,1.68,0,0,0-.6,0c-.19.1-.68.26-.82.08s0-.13-.1-.23a.22.22,0,0,0-.15-.12h-.11a.31.31,0,0,0-.32,0,.25.25,0,0,1,.18.12.62.62,0,0,1,0,.09c0,.06,0,.16.29.26,0,0,0,0,0,0a.14.14,0,0,1-.17,0c-.13-.08-.14-.22-.29-.14l-.09,0h0c-.14,0-.34.15-.25.31a.23.23,0,0,1,.16-.15s0,.08,0,.1.1.27.42.07c0,0,0,0,0,0s-.29.26-.12.36l.07.06v0a.28.28,0,0,0,.26.29.34.34,0,0,1-.11-.26l.1,0c.14-.06.08-.24.17-.3s0,0,0,0,0,.24.24.22a.22.22,0,0,0,.23-.24s0,0,0,0a.19.19,0,0,1,.09.19.42.42,0,0,0,.14-.12.27.27,0,0,1-.08.31.48.48,0,0,0,.3-.31.34.34,0,0,1,.07.1v0a.65.65,0,0,0,.36,0s0,0,0,0a.21.21,0,0,0,0,.18s0-.09.07-.09,0,.17.1.28c0-.45.29-.27.58-.45,0,0,0,0,0,0a.33.33,0,0,1-.13.14c.11.08.53-.18.53-.34s.17-.06.3-.08c.29,0,.26-.21.38-.2,1.71.22.73-.71,2.73-.51.09,0,.14-.11.22-.18-.11.18-.11.57.09.6a.74.74,0,0,1,.34.14s0,0,0,0a1.1,1.1,0,0,0-.29.07c-.3.2-.31-.45-.64-.33l-.09.07c-.14,0-.32.15-.29.29a.34.34,0,0,1,.21-.13V156c0,.06,0,.1.12.1s.09,0,.13,0a0,0,0,0,1,0,0c0,.12-.41-.06-.34.26a1.27,1.27,0,0,0,.07.11c0,.1.07.2.25.14,0,0-.11-.07-.08-.11h.07s0,0,0-.06,0,0,0,0,0,0,0,0,0,0,0,.07a.32.32,0,0,0,0,.11c0,.12.17.25.35.12-.05,0-.16,0-.18-.08l.09,0s0-.07,0-.12,0,0,0,0h.09s0,0,.06,0a.21.21,0,0,0,.26.1c.22-.07,0-.26.22-.3h.13c.17,0,.43,0,.47,0a.44.44,0,0,0-.16-.49c-.11,0,0-.19-.1-.34a1.63,1.63,0,0,0,.65.16,1.42,1.42,0,0,0,.86-.19.82.82,0,0,1,.58-.06c.05,0,.11,0,.08.11-.07.24,0,.26-.06.37s-.25,0-.4,0a.2.2,0,0,0-.15.06.34.34,0,0,0-.28.26.48.48,0,0,1,.23-.11v0a.17.17,0,0,0,.29.11s.05,0,0,0-.29.22-.14.29l.07,0a.19.19,0,0,0,.14.22c0-.05,0-.09,0-.2H100c.1,0,.07-.2.2-.26s0,0,0,0-.09.26,0,.29l.08,0a.19.19,0,0,0,.29.09s-.1,0-.12-.09a.7.7,0,0,0,.09-.12c.1-.25-.12-.25-.11-.35s.25,0,.27-.29a.13.13,0,0,0-.09-.14v0h0c.07,0,.14,0,.19-.07-.19,0-.12-.14-.14-.25m-7.52-1.87a2,2,0,0,0,.4.15c-.18,0-.14.11-.25.11s-.17-.15-.15-.26m-.25-.13c-.06.1-.16.17-.26.08s0-.11-.1-.27a1.63,1.63,0,0,0,.36.18m-.39.82c0-.07.07-.13.11-.13s.11,0,.14-.07,0-.11-.12-.16.12-.06.07-.09-.12,0-.13,0,0-.06.06-.09.06,0,.1,0l.33.15s.07,0,.06.09,0,.09,0,.1,0-.1-.09-.11-.05,0,0,.12-.16-.07-.2,0a.12.12,0,0,0,0,.16s0,.08,0,.17a.18.18,0,0,1-.23.11.18.18,0,0,1-.07-.25m-.27-.45h0Zm.08-.36h0m1.56,2.35h0"/><path class="cls-1" d="M96,158a.33.33,0,0,0,.24.16c1.28.36,2.74-.57,3.51-.36-1-.33-1.64.25-2.61.06.57,0,1.16-.12,1.19-.27-.43.28-1.68-.18-2.2.14l-.08.06c-.7,0-1.28,0-1.28.43,0,1,2.66.4,3.49.4s.73.08.73.24-1,.29-1.42.29a21.75,21.75,0,0,0-4.22-.11c.11-.2.35-.48.22-.63a.28.28,0,0,0,.2-.24.56.56,0,0,0-.25-.11c0-.05,0-.12-.05-.17s0-.14-.07-.16a1.3,1.3,0,0,0-.29-.19.65.65,0,0,0-.29-.08s-.16,0-.18,0-.15,0-.16.07a.33.33,0,0,0-.22-.1.44.44,0,0,0,0,.34c-.11,0-.24.3-.35.27s.07.11.11.12c-.1.17-.14.37-.24.39a.3.3,0,0,0,.1.1,1.39,1.39,0,0,0-.07.36l-.11,0h-.05a1,1,0,0,1-.52-.15c-.2-.11-.2-.21-.2-.4s.08-.31.07-.47a.91.91,0,0,0,0-.14.27.27,0,0,0-.27-.16.2.2,0,0,1,.11.16l-.07.08a.12.12,0,0,0,0,.17,0,0,0,0,1,0,0s0,0,0,.08,0,0,0,0-.1-.29-.21-.3h-.07v0c0-.12-.14-.22-.29-.08,0,0,.1,0,.12.05a.88.88,0,0,0,0,.13c0,.13.1.17.24.18s0,0,0,0a.22.22,0,0,0,0,0s0,0,0,0c-.22-.09-.31,0-.32.1a.18.18,0,0,0,0,.09c-.08.05-.11.17,0,.26s0-.12,0-.14h0l.06,0s.05,0,.13,0,0,0,.05,0l.07,0s0,0,0,0-.13.29.07.32c0,0,0,0,0,.05,0,.26-.39.21-.38-.06-.2.31.17.54.44.39,0,0,0,0,0,0s.05.1.1.11a.06.06,0,0,1,.06-.06s0,0,0,0a.18.18,0,0,0,.14.18c0-.06,0-.11,0-.11s0-.12.39.07a.22.22,0,0,0,.13.12l.25,0c0,.18,0,.47,0,.47a1.76,1.76,0,0,0-.57,0c-.18.09-.64.26-.77.07s0-.13-.09-.22-.1-.12-.14-.12h-.11a.29.29,0,0,0-.32,0,.23.23,0,0,1,.18.11s0,.08,0,.09,0,.15.28.25c0,0,0,0,0,0a.16.16,0,0,1-.16,0c-.11-.09-.13-.21-.26-.14l-.1,0h0c-.12,0-.31.14-.22.29a.21.21,0,0,1,.15-.12l0,.08c0,.15.09.26.39.06,0,0,0,0,0,0s-.27.25-.12.34l.07.05v0a.26.26,0,0,0,.25.27.29.29,0,0,1-.1-.24l.1,0c.14-.06.07-.22.16-.29s0,0,0,0,0,.22.22.21.25-.15.22-.23,0,0,0,0a.17.17,0,0,1,.08.18.49.49,0,0,0,.13-.13A.24.24,0,0,1,91,161a.42.42,0,0,0,.29-.29.33.33,0,0,1,.06.1l0,0a.57.57,0,0,0,.34,0s0,0,0,0a.16.16,0,0,0,0,.17s0-.1.07-.1,0,.17.1.27c0-.42.39-.32.67-.49,0,0,0,0,0,0a.28.28,0,0,1-.13.14c.3.18.61-.22.69-.43a.22.22,0,0,0,.08-.08s0,.08-.05.13c.29,0,.25-.21.37-.2.87.07.2-.7,1.59-.47a.56.56,0,0,0,.34-.15c-.1.17-.11.54.09.57a.81.81,0,0,1,.33.14s0,0,0,0a.58.58,0,0,0-.27.07c-.29.18-.31-.43-.61-.31a.28.28,0,0,0-.09.05c-.13,0-.3.14-.27.27a.35.35,0,0,1,.21-.11.23.23,0,0,1,0,.07s0,.1.11.1.08,0,.12,0a0,0,0,0,1,0,0c0,.11-.39-.07-.32.25a.37.37,0,0,0,.06.1c0,.1.07.2.24.14,0,0-.1-.07-.08-.11h.08s0,0,0,0,0,0,0,0,0,0,0,0,0,0,0,.07a.44.44,0,0,0,0,.11c0,.11.16.23.33.12-.05,0-.16,0-.17-.09l.08,0s0-.06,0-.12,0,0,0,0h.08s.05,0,.06,0a.19.19,0,0,0,.25.1c.21-.07,0-.25.2-.28a.17.17,0,0,1,.13,0c.16,0,.41,0,.45,0a.42.42,0,0,0-.15-.47c-.11,0,0-.17-.1-.32a1.45,1.45,0,0,0,.62.15,1.72,1.72,0,0,0,.9-.18.77.77,0,0,1,.56-.06c.05,0,.1,0,.05.11-.1.23,0,.25-.11.35s-.25,0-.38,0a.23.23,0,0,0-.15.05c-.13,0-.29.13-.31.26a.51.51,0,0,1,.24-.11l0,0c0,.16.14.21.27.1s.06,0,0,0-.32.21-.2.27l.08,0a.15.15,0,0,0,.09.21c0-.05,0-.09.06-.19h.08c.11,0,.11-.2.24-.25s0,0,0,0-.13.25,0,.28l.07,0c0,.08.11.14.27.08,0,0-.11-.05-.11-.09l.11-.11c.13-.24-.08-.24-.05-.33s.25,0,.32-.28a.12.12,0,0,0-.07-.14s0,0,0,0h0c.07,0,.14,0,.2-.07-.18,0-.09-.14-.09-.22s0,0,0,0a.28.28,0,0,0,.14-.25c-.07.09-.29.17-.28,0s0-.11-.17-.09a8.56,8.56,0,0,1-1.3-.09s-.06,0,0,0c.57,0,1.74-.12,1.74-.47s-.06-.49-1.05-.49-3.23.36-3.23-.18c0-.26.43-.24,1-.21m-3.23-.07c-.06.09-.16.16-.25.07s0-.11-.09-.26a1.49,1.49,0,0,0,.34.18m.2.58s0-.09-.08-.1,0,0,0,.11-.14-.06-.18,0,0,.09,0,.15,0,.08,0,.15a.17.17,0,0,1-.23.11.18.18,0,0,1-.07-.24c0-.06.07-.11.1-.11s.11,0,.13-.07,0-.11-.11-.15.11-.06.07-.09-.11,0-.13,0,0-.06.07-.08.06,0,.1,0l.32.14s.06,0,.06.08,0,.09,0,.1m.17-.22c-.11,0-.16-.15-.14-.25a1.69,1.69,0,0,0,.39.15c-.18,0-.14.11-.25.1"/><path class="cls-1" d="M94.92,162.4a.33.33,0,0,0,.23.16c1.28.35,2.74-.57,3.52-.36-1-.34-1.65.25-2.61.05.57,0,1.16-.11,1.19-.25-.43.27-1.68-.2-2.2.11l-.1.1c-.39.08-.73.29-.73.57,0,.81,3.27.17,3.27.44s-.64.42-1.5.42a9.14,9.14,0,0,0-3.19-.07v0c.1-.23.39-.57.27-.73a.27.27,0,0,0,.2-.22.4.4,0,0,0-.22-.11c0-.06,0-.11-.06-.17s0-.13-.07-.15a1.06,1.06,0,0,0-.28-.18,1.62,1.62,0,0,0-.28-.08.76.76,0,0,0-.17,0c-.07,0-.15,0-.16.07a.46.46,0,0,0-.21-.09.37.37,0,0,0,0,.33c-.11,0-.23.28-.33.25s.07.11.11.11c-.09.17-.13.36-.24.37l.11.11a2.34,2.34,0,0,0-.05.77c-.2-.2-.5-.66-.7-.77a.34.34,0,0,1-.19-.38c0-.15.08-.29.07-.45a.74.74,0,0,0,0-.14.26.26,0,0,0-.25-.15.2.2,0,0,1,.11.16.49.49,0,0,0-.07.09.1.1,0,0,0,0,.15.06.06,0,0,1,0,0,.5.5,0,0,1,0,.07s0,0,0,0-.1-.27-.2-.28H90s0,0,0,0-.14-.2-.28-.07c0,0,.1,0,.11.05a.59.59,0,0,0,0,.12c0,.12.08.17.22.17s0,0,0,0l0,0s0,0,0,0c-.22-.08-.31,0-.32.1a.4.4,0,0,0,0,.09c-.08,0-.1.15,0,.24s0-.11,0-.13h0l.06.05s0,0,.12,0h0l.06,0s0,0,0,0-.11.27.07.3a0,0,0,0,1,0,0c0,.25-.36.21-.35-.05-.2.3.15.52.4.38,0,0,0,0,0,0a.11.11,0,0,0,.09.1.06.06,0,0,1,0-.07s0,0,0,0,0,.15.12.17,0-.1,0-.1,0,.39.38.6a.43.43,0,0,0,.45.32c.06.15.16.3.13.3a2.22,2.22,0,0,0-.63,0,1.4,1.4,0,0,1-.42.14l0,0,0,0a.35.35,0,0,1-.32-.07c0-.06,0-.12-.08-.21a.2.2,0,0,0-.14-.11h-.11a.28.28,0,0,0-.29,0,.22.22,0,0,1,.16.11l0,.09c0,.06,0,.14.25.24,0,0,0,0,0,0a.13.13,0,0,1-.15,0c-.11-.08-.13-.19-.26-.12l-.07,0h0c-.11,0-.31.14-.22.28a.22.22,0,0,1,.15-.13.52.52,0,0,0,0,.08c0,.14.08.25.37.06,0,0,0,0,0,0s-.26.22-.11.32l.06,0s0,0,0,0a.25.25,0,0,0,.24.27.27.27,0,0,1-.08-.24l.08,0c.14-.06.07-.22.14-.27s0,0,0,0,0,.22.21.2a.23.23,0,0,0,.22-.22s0,0,0,0a.15.15,0,0,1,.08.17.33.33,0,0,0,.11-.11.2.2,0,0,1-.06.27.4.4,0,0,0,.27-.26.18.18,0,0,1,.06.09v0a.55.55,0,0,0,.33,0s0,0,0,0a.16.16,0,0,0,0,.16s0-.08.07-.08,0,.15.09.25c0-.39.26-.24.53-.41,0,0,0,0,0,0a.33.33,0,0,1-.12.13c.11,0,.4-.13.4-.27a1.84,1.84,0,0,0,.24-.69h.11c.35,0,.5-.27.85-.29a.75.75,0,0,0-.1.47c0,.19.24.39.31.44s0,0,0,0a.63.63,0,0,0-.25.07c-.28.18-.29-.41-.58-.3l-.08.07c-.13,0-.29.13-.25.25a.31.31,0,0,1,.18-.11v.06s0,.09.11.09.07,0,.12,0a0,0,0,0,1,0,0c0,.11-.38-.06-.3.24l0,.09c0,.09.07.18.23.13,0,0-.09-.06-.08-.11h.07a.05.05,0,0,0,0,0s0,0,0,0l0,0s0,0,0,.07l0,.09c0,.11.15.22.32.11,0,0-.14,0-.16-.07l.07,0a.11.11,0,0,0,0-.1s0,0,0,0h.07s0,0,.06,0a.2.2,0,0,0,.23.08c.2-.07,0-.23.2-.27h.12c.16,0,.28.07.32,0a.4.4,0,0,0-.15-.44c-.09,0,.15-.65-.33-.93.22.06.95.15,1.07,0a1.23,1.23,0,0,1,.5.23s0,.09,0,.13-.16.18-.26.21h0c-.07-.06-.13-.15-.19-.18a.14.14,0,0,0-.15,0,.26.26,0,0,0-.31.12.36.36,0,0,1,.22,0,.19.19,0,0,0,0,0s0,.06,0,.09h0l0,0s0,0,0,0-.32,0-.27.09,0,.05,0,.09a.18.18,0,0,0,0,.23s0-.07.14-.11l.05.06c.06.07.17-.1.29-.06s0,0,0,0-.22.12-.17.21a.17.17,0,0,0,0,.07.18.18,0,0,0,.13.24.2.2,0,0,1,0-.14l.12,0c.22-.11.08-.25.16-.31s.18.13.35,0a.13.13,0,0,0,0-.15s0,0,0,0h0s.08.1.17.06c-.13-.11,0-.16.07-.25a0,0,0,0,1,0,0c.07,0,.15,0,.23-.11-.1,0-.35-.12-.19-.18s.26-.19.17-.31-.53-.23-.54-.48H96c1.11,0,1.8-.29,1.79-.64,0-.72-3.34.07-3.34-.46,0-.16.2-.28.46-.36m-2.39.11a1.27,1.27,0,0,0,.36.14c-.17,0-.14.09-.24.09s-.15-.14-.12-.24m-.22-.11c-.05.07-.16.14-.24.07s0-.1-.09-.24a1.4,1.4,0,0,0,.33.17m-.36.73c0-.06.06-.11.09-.11s.1,0,.11-.07,0-.1-.1-.14.1-.05.07-.09-.11,0-.12,0,0-.07.06-.08.06,0,.09,0l.3.14s.05,0,.05.08,0,.08,0,.1,0-.09-.08-.1,0,0,0,.1-.14-.06-.17,0a.1.1,0,0,0,0,.14.18.18,0,0,1,0,.14c0,.07-.11.17-.22.11a.16.16,0,0,1-.06-.23"/><path class="cls-1" d="M41.42,106.81a.8.8,0,1,0-.8.77.79.79,0,0,0,.8-.77"/><path class="cls-1" d="M41.14,104.75a.8.8,0,1,0-.8.77.79.79,0,0,0,.8-.77"/><path class="cls-1" d="M41.59,103.84a.79.79,0,0,0,.8-.77.8.8,0,0,0-1.6,0,.78.78,0,0,0,.79.77"/><path class="cls-1" d="M43.72,103.7a.79.79,0,0,0,.8-.77.8.8,0,0,0-1.6,0,.78.78,0,0,0,.79.77"/><path class="cls-1" d="M52.82,102.27a.83.83,0,0,0,1.14,0,.76.76,0,0,0,0-1.08.84.84,0,0,0-1.14,0,.77.77,0,0,0,0,1.1"/><path class="cls-1" d="M52.64,100.62a.75.75,0,0,0,0-1.09.81.81,0,0,0-1.13,0,.75.75,0,0,0,0,1.09.81.81,0,0,0,1.13,0"/><path class="cls-1" d="M50.52,100.29a.76.76,0,0,0,0-1.09.83.83,0,0,0-1.14,0,.76.76,0,0,0,0,1.1.82.82,0,0,0,1.14,0"/><path class="cls-1" d="M48.71,101.59a.76.76,0,0,0,0-1.09.84.84,0,0,0-1.14,0,.76.76,0,0,0,0,1.09.82.82,0,0,0,1.13,0"/><path class="cls-1" d="M43.6,100.53l.64,1.35.81-.94.09,0a13.66,13.66,0,0,1,.1,1.68,1,1,0,0,0,1,1,1,1,0,0,0,1-1,1,1,0,0,0-.55-.87,7.67,7.67,0,0,1-1.12-1,.41.41,0,0,0,0-.13l1.36.12-.54-1.39-1,.83-.05,0-.07-1.44-1.41.51.94,1.06a.33.33,0,0,0-.06.11Z"/><path class="cls-1" d="M52.87,102.93a2,2,0,0,1,.45,1.07,2.24,2.24,0,0,1-.83-.73l.17,1.8a1.6,1.6,0,0,1,.67-.65c-.07,1.17-.56,1.66-1,1.74a.79.79,0,0,1-1-.6c-.1-.52.37-.85.84-.38.09-1.08-.81-1.07-1.21-.61a1.55,1.55,0,0,0-.68-2.29,1.64,1.64,0,0,0,.42,2.36c-.74-.36-1.4.25-.75,1,.14-.69.77-.54.91,0s-.35,1.08-1.14,1.31c-1.15.34-1.52-.37-1.8-1a1.67,1.67,0,0,1,1.5.31l-.56-1.77a1.81,1.81,0,0,1-1.1,1.08,5.45,5.45,0,0,1,.36-1.54L46,105a5.51,5.51,0,0,1,1.37.87,1.94,1.94,0,0,1-1.56,0l.88,1.63c.18-.73.56-1.17.86-1.22.23.62.48,1.38-.58,1.91a1.39,1.39,0,0,1-1.77-.18c-.3-.49,0-1,.64-.62-.1-1-1-1-1.29-.25a1.68,1.68,0,0,0-1.41-2c-.28,1,.09,1.67,1.18,2.1-.61-.07-1.27.53-.43,1.25,0-.66.57-.73.89-.3a.75.75,0,0,1-.26,1.07c-.36.22-1,.21-1.95-.59a1.74,1.74,0,0,1,.95,0l-1.18-1.4a2.09,2.09,0,0,1-.07,1.08,2,2,0,0,1-.45-1.06l-.9.78a10.11,10.11,0,0,1,3,2.87A36.72,36.72,0,0,1,54,107a9.6,9.6,0,0,1,.09-4.09Z"/><path class="cls-1" d="M70.44,152.13c.32-.82-1.26-1.76-1.44-3s0-2.31-1.44-3.9-6.17-6.5-7.62-8.08a2.35,2.35,0,0,1,2.11.59c.51.46,1.54,1.41,2.49,2.31a24.87,24.87,0,0,1,5.08-7.89c.29-.31.58-.61.87-.91a12,12,0,0,0-2.83.91c-.06-1.36.05-2.46-.92-3.32.37-1.9,0-4.2-4.36-7,2.25.52,3.59,2.5,5.31,1-1.55,0-1.58-3.3-7.18-6,2.14,0,3.81,3.29,6.28,1.4-2.33-.27-3.1-4.27-7.31-5.51,1.46.16,3,.85,4.22-.79-1.45.33-2.32-1-3.88-1.08a4.85,4.85,0,0,0-.18-4.14,5.48,5.48,0,0,0-3,1c-.12-1-1.17-1-2.09-1,0,.43.25,1-.22,1.11a38.86,38.86,0,0,0-5.18,1.51,28.57,28.57,0,0,0-4.77,2.47c-.39.26-.73-.35-1-.63-.68.56-1.35,1.28-.85,2a6.18,6.18,0,0,0-3.27,1.13c0,1.2,1,2.37,2.58,3-2.6,2.48-.25,4.79-2.54,7,3.21.11,2.66-4.21,4.28-4.81-.17,3-1.93,3.57-1.93,6.85,0,1.75,1.08,3.65.11,4.8,2.69-.72,2-6.45,3.66-8.18a4.68,4.68,0,0,1-.22,2.92c-.94,2.67.1,6.34-1.36,7.53,2.74-.25,3.07-4.51,5.32-6.06-1.94,3.82-3.93,12-6.82,16C37.69,149.56,34.95,157,30.66,157a3.1,3.1,0,0,1-3.31-3.42c0-6.92,12.29-11.69,12.29-19.06a4.46,4.46,0,0,0-4.5-4.53,6.44,6.44,0,0,0-3.77,1.5,4.27,4.27,0,0,0-1.45-.31c-4.35,0-3.19,7.54-7,7.47,1.5.82,4.09-.77,5.61-2.88-.64,4.89-7.93,3.59-7.37,9.47,1-4.59,12.64-3.93,12.64-10.9a2.66,2.66,0,0,0-1-2,4.66,4.66,0,0,1,2.46-.74,2.68,2.68,0,0,1,2.66,3c0,6.18-12.22,11.4-12.22,19a5.25,5.25,0,0,0,1,3.19,2.09,2.09,0,0,1-2.48-.65c-.07,1.95,2.83,3.18,4.65,2.21a5,5,0,0,0,1.27.25c-.55,1.45-2.42,1.89-3.4,1.82,3,2.28,8.22-.71,7.93-3.29,2.38-1.85,3.89-5,5.61-7.1-.11.48-.2,1-.27,1.44-1.76,3.08-3.4,5.83-3.85,9.89-.39,3.4-2.16,6.45-4.63,6.45-.54,0-1.43-.68-1.85-.34-.76.63,0,1.31,0,1.94,0,1-1.93,1.93-1.93,4.91,0,1.34.81,2.95.5,3.84a5.47,5.47,0,0,0,2.27-3.31c.84,3.93-1.75,3.76.12,7.25a1.49,1.49,0,0,1,2.15-1.15c.73.48.39.82-.15,1.34s-1,3.14,1.42,3c-.46-.29-.49-1,.73-1.23,1.7-.33,2.2.42,4,.42,1.12,0,1.43-1.41,2.31-1.41s.89.66.57,1.15c1.43-.37,1.69-1.11,1.69-1.9s-.65-1.26-.15-1.56,2.16,0,1.5,1.33A1.55,1.55,0,0,0,46,180.27c0-1-1.18-1.6-2.31-1.42-.19-.63-1.15-1-2-1-2,0-1.69,1.52-3.07,1.52-2.19,0-4.33-2.76-4.33-7.42,0-2.49,2.78-3.12,4.74-3.95a16.76,16.76,0,0,0,7.47-6.21c1.62-2.62,1.67-5.49,1.46-8.89a5.58,5.58,0,0,1,3.09,5.35,3.26,3.26,0,0,1-2,3.31c-.75.33-1,.19-1.07.62a.92.92,0,0,0,.59,1c1,.49.79,1.41,1.07,2.41a7.66,7.66,0,0,0,2.76,3.74,10.7,10.7,0,0,0,0-2.91c2.13,1,.42,5.14,4.56,5.14a1,1,0,0,1-.13-1.66c.44-.16,1,.27,1.8,1.34s.58,1,2.54,1,1.08-.65,2.11-.65,1,1.16.4,2c1.75-.51,2.27-1.79,1.69-3.1A1.68,1.68,0,0,1,68,171.69c1.52-1.45,0-3.23-1.19-3.35a1.19,1.19,0,0,0-1.11-1.15,15.89,15.89,0,0,0-2,0c-.72,0-1.11,1-2,1-2.59,0-7.72-4.53-7.72-6.49s4.91-3.16,4.91-6.2c0-4-4.05-5.33-7.46-7.89,1.21-1.31,4.76-1.62,6.77-.67.23-1.11,1-.83,1.24-2.75.72,1.69,0,3.13.71,3.84.57-.81,2-.69,2-2.77.45,1.3-.57,3.3.45,4.17.18-1.07.84-1.28,1.26-1.28s.78.3.78.93c0,1.58-2,.85-2,2.64,0,.75,1,1,1,1.51a1.1,1.1,0,0,1-1.79.6,2.1,2.1,0,0,0,1.83,1.3,2.6,2.6,0,0,0,2.23-1.59c.47,1.15.11,2.41-.73,2.58.89.43,3,0,2.77-2.61,1.2.19,1.83,1,1.12,2.37,1-.23,1.88-.69,1.88-1.71,0-.78-.87-1-.48-2M47.22,116.27c-1.12.1-1.09-.93-3.07-1.4a33.92,33.92,0,0,0,4.72-1.52c.29,1.25-.24,2.8-1.65,2.92m7.93,8.12a2.2,2.2,0,0,1-2.83-1.45c-.28-.84-.51-1.53-.17-1.84.62-.6.82-1.06.44-1.8s-1.36-.45-2.37-.21c.47-.82.5-1.4-.14-1.32s-.78,1.28-1.2,1.14-.18-.83-.18-1.21.34-.68.87-.91l4.18-1.53c.54-.19.91-.29,1.28.08s.94.59.73,1-1.08-.47-1.69,0-.06.77.86,1c-.9.5-1.86.85-1.55,1.75s.73,1,1.6,1c.47,0,.81.66,1.2,1.44a2,2,0,0,1-1,2.86m.25-11.23c-1.11.84-2.6.07-3.27-1a36.44,36.44,0,0,0,4.52-2c-1.11,1.65-.36,2.38-1.25,3.05"/><path class="cls-1" d="M148.78,171.2a3.46,3.46,0,1,0,3.47-3.34,3.4,3.4,0,0,0-3.47,3.34m.89,0a2.57,2.57,0,1,1,2.58,2.48,2.53,2.53,0,0,1-2.58-2.48"/><path class="cls-1" d="M135.89,174.27a1.93,1.93,0,0,0-.85,1.24,1.9,1.9,0,0,0,.53,1.66,3.09,3.09,0,0,0,1.73.9,3.17,3.17,0,0,0,1.94-.26,2,2,0,0,0,1.11-1.39,2.44,2.44,0,0,0-2.26-2.57,3.07,3.07,0,0,0-2.2.41m1.56,3c-1-.17-1.68-.88-1.54-1.58a1.06,1.06,0,0,1,.49-.68,2.14,2.14,0,0,1,1.53-.27,1.71,1.71,0,0,1,1.57,1.41,1,1,0,0,1,0,.16c-.13.71-1,1.13-2,1"/><path class="cls-1" d="M116.86,127.46a2.17,2.17,0,0,0-.7,3,2.34,2.34,0,0,0,3.19.09,2.57,2.57,0,0,0,1.05-1.69,1.73,1.73,0,0,0-.35-1.32,1.82,1.82,0,0,0-1.22-.65,2.75,2.75,0,0,0-2,.55m-.19,2a1.69,1.69,0,0,1,.73-1.28,1.83,1.83,0,0,1,1.31-.39.91.91,0,0,1,.64.34.87.87,0,0,1,.18.69,1.77,1.77,0,0,1-.72,1.12,1.5,1.5,0,0,1-2,.06.89.89,0,0,1-.18-.54"/><path class="cls-1" d="M131.83,168.73a2.88,2.88,0,0,0-.85,2v.07a2.77,2.77,0,0,0,.77,2,2,2,0,0,0,1.4.61,2.08,2.08,0,0,0,1.43-.56,2.93,2.93,0,0,0,.26-3.81,2.06,2.06,0,0,0-1.58-.84,2.09,2.09,0,0,0-1.43.57m1.34,3.78h0a1.11,1.11,0,0,1-.77-.34,2,2,0,0,1-.53-1.43,1.92,1.92,0,0,1,.58-1.39,1.06,1.06,0,0,1,.79-.33c.74,0,1.31.81,1.29,1.78a1.94,1.94,0,0,1-.57,1.4,1.08,1.08,0,0,1-.79.32m0,.86h0Z"/><path class="cls-1" d="M114.92,141.78a2,2,0,0,0-1.16,1,2.39,2.39,0,0,0,1.47,3.06,3.06,3.06,0,0,0,2.24.17,2,2,0,0,0,1.16-1,1.89,1.89,0,0,0,.06-1.49,2.89,2.89,0,0,0-1.54-1.57,3,3,0,0,0-2.23-.18m.69,3.26c-.9-.43-1.37-1.29-1.05-1.92a1.09,1.09,0,0,1,.65-.54,2.13,2.13,0,0,1,1.55.13,2.09,2.09,0,0,1,1.08,1.09,1.05,1.05,0,0,1,0,.83,1.12,1.12,0,0,1-.66.54,2.19,2.19,0,0,1-1.56-.13"/><path class="cls-1" d="M151.23,138.34c1.12,3,3.36,4.05,5.07,3.29-3.81-.43-.72-6.73-5.63-6.73a3.83,3.83,0,0,0-.79.08,4.06,4.06,0,0,0-3.19-1.2,6,6,0,0,0-5.66,5.93c0,8.6,10.36,9.36,10.36,17a3.56,3.56,0,0,1-3.69,3.61c-1.74,0-3.14-1.89-4.6-4.84a36.69,36.69,0,0,0-3.8-5.34,2.86,2.86,0,0,0,1.54.52,2,2,0,0,0,1.44-.51,1.89,1.89,0,0,0,.61-1.35v-.07a2.83,2.83,0,0,0-.84-1.94,3,3,0,0,0-2-.93,2,2,0,0,0-1.44.51,1.9,1.9,0,0,0-.61,1.35v.07a2.55,2.55,0,0,0,.17.88c-2.23-2.81-4.3-5.56-4.3-7.08,0-1.33,1-2.5,2.13-3.91l.41.22.31-.34c.41-.44,1.28-1.36,3.07-3.21l.11-.11h0l.43-.43-1.11-.86a12.62,12.62,0,0,0,.75-2.12c.34,1.38,1.08,2.26,2.09,2-.67-1.43.68-3.34-.21-6.84.85,1.35,2.07,2.06,2.94,1.82-2.3-2,.69-4.7-2.3-9a1.79,1.79,0,0,0,2.05-.33c-2.72-.37-1.47-3.73-6.26-4.92,1.18-.21,1.89-.88,1.71-1.48-1.26.88-2.37-1.64-6.52-1.57a5.87,5.87,0,0,0-3.31-3.84,5,5,0,0,1-.29,3.08L116.3,96.94c-.39-.35-.61-.43-.72-.3s-.1.36.15.63l11.59,14c-.87.3-1.73.65-2.63,1a1.53,1.53,0,0,0-1,1.45,24.73,24.73,0,0,0-5,3.14c-.72.63-1.28.77-.65,2.19.25.53-.5,1.86,1.18.89,1.11-.64,3.6-2,4-1.13.2.43-1,1-1.88,1.31s-1.76.95-1.63,1.26.8,0,.85.31a.74.74,0,0,0,.65.7c.33,0,.77-.68,1-.46s-.14,1.76-.4,2.15a2.57,2.57,0,0,0,2.19-2.31c0-.95.3-1.17.5-1.3s.44,1,.17,1.69c.7-.14,1.42-1,1.32-2.66a1.86,1.86,0,0,1,1-.47c.44,0,1.32,1.17,2.56,1.17a3.79,3.79,0,0,0,3.7-2.63,2.37,2.37,0,0,0-.32-1.85,3,3,0,0,1,1.09,2.39c0,3.14-5.74,4.61-8.11,6.79l-.26.23-2.7-1-.18.57s0,.14-.16.49c-.28.9-.87,2.75-1.23,3.82,0,0-.14.43-.14.43l.24.14a14.19,14.19,0,0,0-3.18,6.72,24.6,24.6,0,0,0-2-1.74,2.69,2.69,0,0,0,.15-.72,2.53,2.53,0,0,0-.62-1.84,1.83,1.83,0,0,0-1.24-.6,1.86,1.86,0,0,0-1.32.47,2.53,2.53,0,0,0-.23.25l-.29-.22a22.66,22.66,0,0,1-2.66-2.15,1.38,1.38,0,0,0-1.17-.47l-1.2,0c-.39,0-.63.3-1.08.69-.21.18-.83.65-1.53,1.16.33.33.66.66,1,1l.51.58.47-.35a1.61,1.61,0,0,1,1-.27,1.56,1.56,0,0,1,1.18.74c.24.36,2.43,3.12,4.23,5-.2.07-.39.13-.57.21a10.07,10.07,0,0,1-3.3.19c-.79-.07-.93-.25-1.46.54a9.47,9.47,0,0,1-.72,1c-.25.31-.47.65.09,1.55a70.07,70.07,0,0,1,3.43,6.27c.65,1.54,1.44,1.79,2.69,2.29a19.92,19.92,0,0,1,3.66,2l.08-1.18a7.57,7.57,0,0,0-2-1c-.46-.16-.57-.35,0-.35a14.05,14.05,0,0,1,3.12.94,8.84,8.84,0,0,0-2.15-3.15,3,3,0,0,0-2.2,0,.49.49,0,0,1-.51.54.47.47,0,0,1-.49-.61c.12-.35.66-.47.54-1.12s-1-.78-1.51-.83c-.77-1.08-1.66-2.65-2.06-3.29s-.16-1,.11-1.21c.66-.53,2,.27,4.77.44l3.4.18c.36,3.07,1.64,6,6.08,7.07a7.48,7.48,0,0,1,5.17,4.06c-8.86-.15-10.26,3.18-10.26,6.33,0,3.57,3.12,3.38,3.12,6.06,0,2.33-7.45,3.3-9.7,3.62a6.35,6.35,0,0,0-3.91,1.57c-.92.88-1.84,1.73-3.51,3.34a6.23,6.23,0,0,0,1.42.12l1.26-1.57c.37-.53.62-1,.87-.92s.08.43-.21,1l-1,1.69c4.38.28,4.66-1.28,4.66-1.93s-1.08-1.08-.45-1.48,1.16-.12,1.66.44.67,1,1.88.61c0,0,9.53-3.81,10.73-4.34s.77-.93.13-1.45a2.92,2.92,0,0,1-.83-2.45c0-2.79,1.73-3.65,4.84-3.59a9.74,9.74,0,0,0-.1,1.34c0,4.34,6.8,8.59,8.65,8.59.81,0,1.93-.59,2,2,0,1.93.45,3.28.1,5.52s-1,2.56-2.4,3.5-2.69,3.88-3.28,4.51c.61.39,1.28.43,1.79-1a4.32,4.32,0,0,1,1.44-2.32c-.54,1.31-.93,3.22-1.19,3.8,1.74.29,4.56-1.24,4.56-2.43s-1-1.08-1-1.87a.94.94,0,0,1,1-.75,1.43,1.43,0,0,1,1.28.79c.77-.39,1.26-1.14,1.23-2.86,0-.68,0-1.38-.07-2.1a1.41,1.41,0,0,0,.16.27,2,2,0,0,0,1.57.85,3.07,3.07,0,0,0,1.9-.5,2.82,2.82,0,0,0,1.3-1.77,2,2,0,0,0,0-.42,1.8,1.8,0,0,0-.31-1,2,2,0,0,0-1.28-.81,3.06,3.06,0,0,0-2.19.45,2.86,2.86,0,0,0-1.26,1.62c-.14-2.37-.32-4.6-.25-5.5.1-1.33.15-1.92-.31-2.12s-1,.54-1.64.54-2.66-1.78-2.66-3.66,2.1-4.3,2-6.87c0-.81.49-1.22.82-.49a11.53,11.53,0,0,0,1.91,3c-.56,3.23,3.12,6.39,6.15,4-1.5.21-2.53-1.08-3.19-2.37a4.93,4.93,0,0,0,.82.07h.45c1.06,1.26,4.44,1.16,5.32-2a3.54,3.54,0,0,1-2.69,1.05,5.14,5.14,0,0,0,1.94-4.19c0-8.19-10.3-9.15-10.3-16.62a4.66,4.66,0,0,1,4.25-4.55,2.64,2.64,0,0,1,1.6.5,3.65,3.65,0,0,0-1,2.85c.28,5.89,10.25,5.6,10.37,8.43,1.11-4.27-6.31-2.95-6.59-8.7m-26.54-22.61c.48-.89,0-2.25,1.69-2.25.83,0,1.57.8,2.57,1.11a10.58,10.58,0,0,0-4.26,1.14m-9.11,18.07a1.69,1.69,0,0,1-.53,1.18,1,1,0,0,1-.65.25,1.31,1.31,0,0,1-1-1.43v-.11a1.7,1.7,0,0,1,.52-1.18.94.94,0,0,1,.67-.25,1,1,0,0,1,.64.32,1.65,1.65,0,0,1,.39,1.22M145,175.2A2.05,2.05,0,0,1,146,174a2.15,2.15,0,0,1,1.52-.33,1.15,1.15,0,0,1,.72.45h0a1,1,0,0,1,.14.81,2,2,0,0,1-.92,1.22,1.67,1.67,0,0,1-2.25-.11,1.06,1.06,0,0,1-.14-.82m-6.19-27.48a1,1,0,0,1,.33-.75,1.15,1.15,0,0,1,.81-.28,2.16,2.16,0,0,1,1.41.66,2,2,0,0,1,.6,1.4,1,1,0,0,1-.32.75h0a1.15,1.15,0,0,1-.8.27,2.08,2.08,0,0,1-1.41-.66,2,2,0,0,1-.61-1.4m-16.91-18.53c.48-1.45,1.39-4.31,1.39-4.31l1.57.58a5.61,5.61,0,0,0-1.5,1,1.7,1.7,0,0,0,1.43-.1l-.63,1.51a2,2,0,0,0-1-.88,1.55,1.55,0,0,0,1.05,2c1,.47,1.58.55,1.84.13s-.32-1.26-1.13-.93c-.08-.79.38-1.22.92-1.22a1,1,0,0,1,.9.9,2.47,2.47,0,0,1,1.78-2.67,2.51,2.51,0,0,1-.9,3,1.16,1.16,0,0,1,1.34.18c.3.44.19,1-.54,1.42a.8.8,0,0,0-1.45-.36c-.29.53.15,1,1,1.51a1.65,1.65,0,0,0,2.39-.64,1.91,1.91,0,0,0-1.47.29l1-1.9a1.94,1.94,0,0,0,.66,1.11,2.36,2.36,0,0,0,.06-1.83l2.25,1.26a2.52,2.52,0,0,0-1.61,1,2.17,2.17,0,0,0,1.32,0L131.48,132a1.75,1.75,0,0,0-.48-1.36,1.54,1.54,0,0,0,.63,2.31c.87.5,1.53.61,1.87.11s-.21-1.3-1-1c0-.8.45-1.19,1-1.16s.75.5.83,1a2.61,2.61,0,0,1,2.25-2.26,2.45,2.45,0,0,1-1.51,2.83,1.05,1.05,0,0,1,1.26.3c.27.46.12,1-.64,1.38a.79.79,0,0,0-1.4-.48c-.25.43.14.91,1,1.47a1.66,1.66,0,0,0,2.29-.1,2.09,2.09,0,0,0-1.31-.43l1-1.29a1.55,1.55,0,0,0,.62,1.24,5,5,0,0,0,.17-1.76l1.32,1s-2.13,2.19-3.18,3.32Zm14,34a1.65,1.65,0,0,1-2.16.62,1.51,1.51,0,0,1-.11-2.17,1.65,1.65,0,0,1,2.15-.62,1.52,1.52,0,0,1,.12,2.17M140,157a1.65,1.65,0,0,1-2.16.61,1.52,1.52,0,0,1-.11-2.17,1.65,1.65,0,0,1,2.16-.62A1.51,1.51,0,0,1,140,157"/><path class="cls-1" d="M201.19,96.3c-.62-3.15-3.15-4.75-6.25-4.75-5.31,0-7.56,4.37-7.56,9,0,5.09,2.25,9.34,7.59,9.34,3.9,0,6.15-2.75,6.43-6.43h3c-.56,5.56-4,8.93-9.65,8.93-6.93,0-10.31-5.12-10.31-11.62S188.1,89.06,195,89.06c4.65,0,8.5,2.5,9.18,7.25Z"/><path class="cls-1" d="M206.77,95.74h2.5v3.41h.06c1.28-2.59,3.06-3.87,5.93-3.78v2.81c-4.28,0-5.84,2.44-5.84,6.53v7.18h-2.65Z"/><path class="cls-1" d="M223.4,95.37c5.12,0,7.84,3.72,7.84,8.46s-2.72,8.43-7.84,8.43-7.84-3.72-7.84-8.43S218.28,95.37,223.4,95.37Zm0,14.56c2.78,0,5-2.19,5-6.09s-2.25-6.12-5-6.12-5,2.19-5,6.12S220.62,109.92,223.4,109.92Z"/><path class="cls-1" d="M249,111.89h-2.81L243,99.05h-.06l-3.25,12.84h-2.87l-5.19-16.15h2.94L238.18,109h.06l3.25-13.21h2.9L247.77,109h.06l3.62-13.21h2.75Z"/><path class="cls-1" d="M256,95.74h2.5V98.3h.06a5.62,5.62,0,0,1,5.25-2.94c4.25,0,5.56,2.44,5.56,5.9v10.62h-2.65V101a3,3,0,0,0-3.28-3.25c-3.22,0-4.78,2.15-4.78,5.06v9.12H256Z"/><path class="cls-1" d="M201.19,129.12c-.62-3.15-3.15-4.75-6.25-4.75-5.31,0-7.56,4.37-7.56,9,0,5.09,2.25,9.34,7.59,9.34,3.9,0,6.15-2.75,6.43-6.43h3c-.56,5.56-4,8.93-9.65,8.93-6.93,0-10.31-5.12-10.31-11.62s3.69-11.75,10.56-11.75c4.65,0,8.5,2.5,9.18,7.25Z"/><path class="cls-1" d="M213.9,128.18c5.12,0,7.84,3.72,7.84,8.46s-2.72,8.43-7.84,8.43-7.84-3.72-7.84-8.43S208.78,128.18,213.9,128.18Zm0,14.56c2.78,0,5-2.19,5-6.09s-2.25-6.12-5-6.12-5,2.19-5,6.12S211.12,142.73,213.9,142.73Z"/><path class="cls-1" d="M224.13,128.55h2.5v2.37h.06a6,6,0,0,1,5.22-2.75c2,0,3.78.78,4.44,2.75a6,6,0,0,1,5.06-2.75c3.22,0,5.37,1.34,5.37,4.68V144.7h-2.66V134.11c0-2-.53-3.59-3.12-3.59a3.91,3.91,0,0,0-4.22,4.12V144.7h-2.65V134.11c0-2.09-.66-3.59-3-3.59a4.36,4.36,0,0,0-4.31,4.12V144.7h-2.65Z"/><path class="cls-1" d="M250,128.55h2.5v2.37h.06a6,6,0,0,1,5.22-2.75c2,0,3.78.78,4.44,2.75a6,6,0,0,1,5.06-2.75c3.22,0,5.37,1.34,5.37,4.68V144.7H270V134.11c0-2-.53-3.59-3.12-3.59a3.91,3.91,0,0,0-4.22,4.12V144.7H260V134.11c0-2.09-.66-3.59-3-3.59a4.36,4.36,0,0,0-4.31,4.12V144.7H250Z"/><path class="cls-1" d="M289.69,139.58c-.72,3.56-3.28,5.5-6.9,5.5-5.15,0-7.59-3.56-7.75-8.5,0-4.84,3.19-8.4,7.59-8.4,5.72,0,7.46,5.34,7.31,9.25H277.85c-.09,2.81,1.5,5.31,5,5.31a3.89,3.89,0,0,0,4.19-3.16Zm-2.56-4.5a4.65,4.65,0,0,0-4.65-4.56,4.6,4.6,0,0,0-4.62,4.56Z"/><path class="cls-1" d="M292.08,128.55h2.5V132h.06c1.28-2.59,3.06-3.87,5.93-3.78V131c-4.28,0-5.84,2.44-5.84,6.53v7.18h-2.65Z"/><path class="cls-1" d="M312.72,133.74a3.76,3.76,0,0,0-4-3.22c-3.84,0-5,3-5,6.31,0,3,1.34,5.9,4.72,5.9a4.17,4.17,0,0,0,4.44-3.94h2.72c-.59,3.94-3.06,6.28-7.12,6.28-4.93,0-7.56-3.44-7.56-8.25s2.5-8.65,7.62-8.65c3.65,0,6.59,1.72,7,5.56Z"/><path class="cls-1" d="M320.6,125.65h-2.65V122.4h2.65Zm-2.65,2.9h2.65V144.7h-2.65Z"/><path class="cls-1" d="M338.23,144.64a3.58,3.58,0,0,1-1.91.44c-1.37,0-2.25-.75-2.25-2.5a7.17,7.17,0,0,1-5.68,2.5c-2.94,0-5.34-1.31-5.34-4.53,0-3.65,2.72-4.44,5.47-5,2.94-.56,5.43-.37,5.43-2.37,0-2.31-1.91-2.69-3.59-2.69-2.25,0-3.9.69-4,3.06h-2.65c.16-4,3.25-5.4,6.84-5.4,2.9,0,6.06.66,6.06,4.44v8.31c0,1.25,0,1.81.84,1.81a2.26,2.26,0,0,0,.81-.16Zm-4.31-8.28c-1,.75-3,.78-4.81,1.09s-3.25.94-3.25,2.9c0,1.75,1.5,2.37,3.12,2.37,3.5,0,4.93-2.19,4.93-3.65Z"/><path class="cls-1" d="M340.19,122.4h2.65v22.3h-2.65Z"/><path class="cls-1" d="M198.41,161.74c-.34-3.19-2.47-4.56-5.53-4.56-2.5,0-5,.91-5,3.81,0,2.75,3.56,3.16,7.15,4s7.12,2.06,7.12,6.43c0,4.75-4.65,6.65-8.71,6.65-5,0-9.21-2.44-9.21-7.87H187c0,3.75,3.12,5.37,6.5,5.37,2.69,0,5.65-.84,5.65-4.06,0-3.06-3.56-3.59-7.12-4.37s-7.15-1.81-7.15-5.9c0-4.53,4-6.53,8.09-6.53,4.56,0,8,2.16,8.21,7.06Z"/><path class="cls-1" d="M218.42,172.39c-.72,3.56-3.28,5.5-6.9,5.5-5.15,0-7.59-3.56-7.75-8.5,0-4.84,3.19-8.4,7.59-8.4,5.72,0,7.46,5.34,7.31,9.25H206.58c-.09,2.81,1.5,5.31,5,5.31a3.89,3.89,0,0,0,4.19-3.16Zm-2.56-4.5a4.65,4.65,0,0,0-4.65-4.56,4.6,4.6,0,0,0-4.62,4.56Z"/><path class="cls-1" d="M220.81,161.37h2.5v3.41h.06c1.28-2.59,3.06-3.87,5.93-3.78v2.81c-4.28,0-5.84,2.44-5.84,6.53v7.18h-2.65Z"/><path class="cls-1" d="M238.87,177.51H236l-6-16.15h3l4.53,13.46h.06l4.4-13.46h2.78Z"/><path class="cls-1" d="M249.19,158.46h-2.65v-3.25h2.65Zm-2.65,2.9h2.65v16.15h-2.65Z"/><path class="cls-1" d="M263.53,166.55a3.76,3.76,0,0,0-4-3.22c-3.84,0-5,3-5,6.31,0,3,1.34,5.9,4.72,5.9a4.17,4.17,0,0,0,4.44-3.94h2.72c-.59,3.94-3.06,6.28-7.12,6.28-4.93,0-7.56-3.44-7.56-8.25s2.5-8.65,7.62-8.65c3.65,0,6.59,1.72,7,5.56Z"/><path class="cls-1" d="M282.48,172.39c-.72,3.56-3.28,5.5-6.9,5.5-5.15,0-7.59-3.56-7.75-8.5,0-4.84,3.19-8.4,7.59-8.4,5.72,0,7.46,5.34,7.31,9.25H270.64c-.09,2.81,1.5,5.31,5,5.31a3.89,3.89,0,0,0,4.19-3.16Zm-2.56-4.5a4.65,4.65,0,0,0-4.65-4.56,4.6,4.6,0,0,0-4.62,4.56Z"/><rect class="cls-1" x="169.56" y="89.13" width="2.19" height="121.41"/><path class="cls-1" d="M201,195.07c0-3.92-2.1-5.18-5.93-5.18-2.76,0-5.71,1.29-5.71,4.49,0,2.39,1.88,3.14,3.77,3.7l2.38.72c3.08.94,6,1.95,6,5.71,0,2.2-1.38,6.9-8.66,6.9-5,0-8.69-2.42-8.44-7.84h2.13c-.22,4.36,2.38,6,6.46,6,2.92,0,6.37-1.44,6.37-4.8,0-3.17-3.07-3.73-5.55-4.46l-2.2-.66c-2.6-.75-4.42-2.32-4.42-5.21,0-4.49,4-6.4,7.94-6.4,4.55,0,8.22,1.82,8,7Z"/><path class="cls-1" d="M215.52,211H213.7l.56-2.95h-.06a7.08,7.08,0,0,1-5.77,3.42c-2.82,0-4.89-1.26-4.89-4.36a10,10,0,0,1,.25-1.91L206,194.76h2l-2.26,10.45a7,7,0,0,0-.22,1.63c0,2.13,1.63,2.92,3.39,2.92,2.86,0,5.46-2.57,6.34-6.68l1.79-8.31h2Z"/><path class="cls-1" d="M222.14,194.76h1.79l-.63,2.92h.06a6.45,6.45,0,0,1,5.9-3.39c4.14,0,6.15,2.67,6.15,6.62,0,5-3.42,10.51-8.85,10.51-2.54,0-4.74-1.07-5.18-3.7h-.06l-2,9.22h-2ZM222,205.08c0,2.82,1.63,4.68,4.52,4.68,4.55,0,6.9-5,6.9-9,0-2.76-1.38-4.83-4.36-4.83C224.52,196,222,201.07,222,205.08Z"/><path class="cls-1" d="M239.21,194.76H241l-.63,2.92h.06a6.45,6.45,0,0,1,5.9-3.39c4.14,0,6.15,2.67,6.15,6.62,0,5-3.42,10.51-8.85,10.51-2.54,0-4.74-1.07-5.18-3.7h-.06l-2,9.22h-2Zm-.13,10.32c0,2.82,1.63,4.68,4.52,4.68,4.55,0,6.9-5,6.9-9,0-2.76-1.38-4.83-4.36-4.83C241.59,196,239.08,201.07,239.08,205.08Z"/><path class="cls-1" d="M257.44,188.55h2L254.58,211h-2Z"/><path class="cls-1" d="M261,194.76h2L259.44,211h-2Zm1.35-6.21h2l-.69,3.17h-2Z"/><path class="cls-1" d="M265.19,203.39a7.85,7.85,0,0,0-.09,1.26c0,2.92,1.51,5.11,4.71,5.11a5.52,5.52,0,0,0,5.3-4h2c-1.07,3.61-3.55,5.68-7.37,5.68-4.27,0-6.59-2.67-6.59-6.87,0-5.11,3.2-10.26,8.75-10.26,3.89,0,6.15,2.54,6.15,6.31a21.42,21.42,0,0,1-.16,2.79ZM276,201.73c0-.44,0-.85,0-1.26a4.19,4.19,0,0,0-4.42-4.52c-3.26,0-5.49,2.76-6.18,5.77Z"/><path class="cls-1" d="M281.16,194.76h1.79l-.82,3.73h.06c1.25-2.32,3-4,5.87-4,.34,0,.72,0,1.07,0l-.44,2c-.38,0-.75,0-1.13,0-3.55.06-5.43,2.92-6.09,6L279.65,211h-2Z"/></g></svg>