<svg id="cip" xmlns="http://www.w3.org/2000/svg" viewBox="0 0 364 306"><defs><style>.cls-1{fill:#231f65;}.cls-2,.cls-5,.cls-7{fill:none;}.cls-2{stroke:#fff;stroke-width:1.79px;}.cls-2,.cls-4,.cls-7{stroke-linecap:round;}.cls-2,.cls-4,.cls-5,.cls-6,.cls-7{stroke-miterlimit:10;}.cls-3,.cls-4{fill:#0e044c;}.cls-4,.cls-5,.cls-6,.cls-7{stroke:#0e044c;}.cls-4{stroke-width:1.04px;}.cls-5{stroke-width:0.6px;}.cls-6{fill:#d4d8d4;}.cls-6,.cls-7{stroke-width:1.2px;}.cls-8{fill:#110923;}</style></defs><title>CIP</title><g id="Layer_21" data-name="Layer 21"><circle class="cls-1" cx="183.14" cy="151.82" r="47.64"/><path class="cls-2" d="M190.84,104.93s24.83,9.57,23,50.56c0,0-2.62,41.43-31,43.38,0,0-16.08,1.94-28-27.07,0,0-12.56-46.52,17.65-65.37"/><path class="cls-2" d="M191.89,166.85s-.82,30.51-9,32c0,0-6.36-.15-9.5-28l-1-42.18"/><path class="cls-2" d="M161.82,193.48s20.19-10.77,40.83,0"/><path class="cls-2" d="M144,178.82s12.18-12,37.05-8.38"/><path class="cls-2" d="M202.66,170.59s10.77,1.35,18.1,7.48"/><line class="cls-2" x1="229.73" y1="150.1" x2="135.95" y2="150.7"/><path class="cls-2" d="M220.76,125.57s-11.67,7.78-19.45,8.38"/><path class="cls-3" d="M227.82,129.4a.14.14,0,0,1-.2,0,10.7,10.7,0,0,1-1.89-2.18s-1,0-.39.88a9.63,9.63,0,0,0,1.91,2.5l.33.27,3.24-2.87s.2-1.15-1.26-.25A9.68,9.68,0,0,0,227.82,129.4Z"/><path class="cls-3" d="M228.19,126.94a.13.13,0,0,1-.2,0,11.29,11.29,0,0,1-1.89-2.35s-1,0-.39,1a10.35,10.35,0,0,0,1.91,2.7l.33.29,3.24-3.09s.2-1.24-1.26-.26A10,10,0,0,0,228.19,126.94Z"/><path class="cls-3" d="M228.73,124.6a.15.15,0,0,1-.2,0,10,10,0,0,1-1.89-1.93s-1,0-.39.78a8.7,8.7,0,0,0,1.91,2.22l.33.24,3.24-2.54s.2-1-1.26-.22A9.31,9.31,0,0,0,228.73,124.6Z"/><path class="cls-4" d="M228.9,123.36s-2.14,11.72-2.95,13.8"/><path class="cls-3" d="M122.61,154.72h0a2.17,2.17,0,0,1-1.71-.7,2.73,2.73,0,0,1-.7-1.94,2.55,2.55,0,0,1,.86-2,3.19,3.19,0,0,1,2.2-.79h1.29a3.21,3.21,0,0,1,2.21.76,2.54,2.54,0,0,1,.88,2,2.81,2.81,0,0,1-.64,2,2.16,2.16,0,0,1-1.73.72h0v-.94a1.61,1.61,0,0,0,1.2-.46,1.72,1.72,0,0,0,.43-1.26,1.54,1.54,0,0,0-.67-1.3,2.69,2.69,0,0,0-1.64-.48h-1.3a2.71,2.71,0,0,0-1.65.5,1.54,1.54,0,0,0-.65,1.31,1.73,1.73,0,0,0,.45,1.26,1.62,1.62,0,0,0,1.22.44Z"/><path class="cls-3" d="M120.55,157.59l-.08-1,7.21-.58.08,1Z"/><path class="cls-3" d="M127.87,163.75l-.35-2.36-6.39,1-.15-1,6.39-1L127,158.1l.76-.11.85,5.65Z"/><path class="cls-3" d="M122.07,167.23l-.21-1,7.06-1.58.21,1Z"/><path class="cls-3" d="M123.53,169.94l1.17,3.87L124,174l-1.49-4.93.69-.21,6.61,2-1.1-3.65.74-.22,1.43,4.72-.67.2Z"/><path class="cls-3" d="M129.26,178.2l-1.14-2.74-2.39,1,1.34,3.21-.71.29-1.71-4.11,6.68-2.78,1.69,4.06-.71.3L131,174.26l-2.16.9L130,177.9Z"/><path class="cls-3" d="M129.82,186.38l-.48-.85,3.12-5.73,0,0-4.81,2.69-.48-.85,6.31-3.53.48.85-3.12,5.73,0,0,4.81-2.69.48.85Z"/><path class="cls-3" d="M134.91,190.43a1.09,1.09,0,0,0,.46-.77,3,3,0,0,0-.28-1.33,4.14,4.14,0,0,1-.37-1.86,1.69,1.69,0,0,1,.71-1.29,1.78,1.78,0,0,1,1.53-.3,2.57,2.57,0,0,1,1.48,1.06,2.52,2.52,0,0,1,.56,1.85,2,2,0,0,1-.83,1.43h0l-.55-.75a1.34,1.34,0,0,0,.57-.95,1.55,1.55,0,0,0-.33-1.12,1.51,1.51,0,0,0-.89-.65,1.12,1.12,0,0,0-.91.22,1,1,0,0,0-.4.79,3.68,3.68,0,0,0,.32,1.38,3.69,3.69,0,0,1,.31,1.83,1.82,1.82,0,0,1-.76,1.27,1.69,1.69,0,0,1-1.54.28,2.85,2.85,0,0,1-1.49-1.13,3,3,0,0,1-.62-1.84,1.78,1.78,0,0,1,.8-1.56h0l.55.75a1.21,1.21,0,0,0-.54,1,2,2,0,0,0,.39,1.16,1.76,1.76,0,0,0,.9.7A1,1,0,0,0,134.91,190.43Z"/><path class="cls-3" d="M138,196.68l-.68-.71,5.2-5,.68.71Z"/><path class="cls-3" d="M143.69,201.88l-.74-.64,1-6.46h0l-3.61,4.17-.74-.64,4.73-5.47.74.64-1,6.45h0l3.6-4.16.74.64Z"/><path class="cls-3" d="M153.24,200.72l-2-1.36-3.67,5.31-.8-.56,3.67-5.31-1.94-1.34.44-.63,4.7,3.25Z"/><path class="cls-3" d="M155.94,205.83l-2.58-1.47-1.28,2.25,3,1.71-.38.67-3.87-2.2,3.57-6.29,3.83,2.17-.38.67-3-1.69-1.15,2,2.58,1.47Z"/><path class="cls-3" d="M161.28,211a2.32,2.32,0,0,1-1.13.28,3.53,3.53,0,0,1-1.64-.41,2.79,2.79,0,0,1-1.51-1.64,2.93,2.93,0,0,1,.19-2.29l.64-1.34a3,3,0,0,1,1.64-1.59,3,3,0,0,1,3.64,1.53,2.07,2.07,0,0,1-.09,1.77l0,0-.85-.41a1.51,1.51,0,0,0,.09-1.18,1.61,1.61,0,0,0-.9-.92,1.64,1.64,0,0,0-1.47,0,2.41,2.41,0,0,0-1.14,1.2l-.65,1.35a2.34,2.34,0,0,0-.2,1.66,1.72,1.72,0,0,0,1,1.15,2.55,2.55,0,0,0,1,.29,1.45,1.45,0,0,0,.67-.12l.7-1.47-1.48-.71.33-.69,2.36,1.13Z"/><path class="cls-3" d="M165.07,209.91l-.85,3-.94-.27,2-7,2.38.67a2.75,2.75,0,0,1,1.6,1,1.89,1.89,0,0,1,.19,1.64,1.65,1.65,0,0,1-.54.85,2,2,0,0,1-1,.4,1.49,1.49,0,0,1,.65.84,2.05,2.05,0,0,1,0,1.11l-.18.65a2.22,2.22,0,0,0-.09.6.91.91,0,0,0,.13.49l0,.11-1-.27a.81.81,0,0,1-.1-.55,4.07,4.07,0,0,1,.13-.67l.18-.64a1.31,1.31,0,0,0-.07-1,1.21,1.21,0,0,0-.79-.59Zm.21-.74,1.34.38a1.82,1.82,0,0,0,1.24,0,1.2,1.2,0,0,0,.61-.83,1.24,1.24,0,0,0-.08-1,1.56,1.56,0,0,0-1-.62l-1.44-.41Z"/><path class="cls-3" d="M174,213.25l-2.68-.47-1,1.72-1-.17,3.81-6.68.83.14,1.28,7.56-1-.17ZM171.78,212l2.13.37-.51-3.24h0Z"/><path class="cls-3" d="M181.81,209.42l-2.38-.19-.52,6.44-1-.08.52-6.44-2.35-.19.06-.77,5.7.46Z"/><path class="cls-3" d="M183.8,215.84h-1l0-7.23h1Z"/><path class="cls-3" d="M191.35,212.42a3.08,3.08,0,0,1-.63,2.26,2.8,2.8,0,0,1-2.05,1,2.65,2.65,0,0,1-2.12-.7,3.16,3.16,0,0,1-1-2.13l-.11-1.28a3.16,3.16,0,0,1,.6-2.26,2.64,2.64,0,0,1,2-1,2.79,2.79,0,0,1,2.2.69,3.1,3.1,0,0,1,1,2.13Zm-1.08-1.21a2.43,2.43,0,0,0-.67-1.58,1.79,1.79,0,0,0-1.49-.51,1.66,1.66,0,0,0-1.3.75,2.53,2.53,0,0,0-.37,1.67l.11,1.29a2.54,2.54,0,0,0,.64,1.59,1.66,1.66,0,0,0,1.41.52,1.79,1.79,0,0,0,1.38-.75,2.46,2.46,0,0,0,.39-1.68Z"/><path class="cls-3" d="M199,213.88l-1,.21-4.59-4.64,0,0,1.19,5.38-1,.21L192.11,208l1-.21,4.59,4.63,0,0L196.49,207l1-.21Z"/><path class="cls-3" d="M203.73,209.2l1.14,2.67-.9.38-2.84-6.65,2.54-1.09a2.55,2.55,0,0,1,1.89-.16,2.24,2.24,0,0,1,1.24,2.89,2.57,2.57,0,0,1-1.42,1.25Zm-.3-.7,1.64-.7a1.31,1.31,0,0,0,.8-1.85,1.44,1.44,0,0,0-.73-.78,1.4,1.4,0,0,0-1.17.06l-1.64.7Z"/><path class="cls-3" d="M211.89,204.62l-2.58,1.47,1.28,2.25,3-1.72.38.67-3.87,2.2-3.57-6.29,3.83-2.17.38.67-3,1.69,1.16,2,2.58-1.47Z"/><path class="cls-3" d="M217.11,202.82l-2.21,1.59.56,1.89-.81.58-2.11-7.39.68-.49,6.3,4.38-.81.58Zm-2.46.76,1.75-1.26-2.67-1.9,0,0Z"/><path class="cls-3" d="M222.75,197.27h0a2.17,2.17,0,0,1,.66,1.73,2.73,2.73,0,0,1-.93,1.84,2.55,2.55,0,0,1-2,.75,3.19,3.19,0,0,1-2.08-1.06l-.89-.93a3.21,3.21,0,0,1-1-2.13,2.55,2.55,0,0,1,.84-2,2.8,2.8,0,0,1,1.86-.88,2.16,2.16,0,0,1,1.71.76v0l-.68.65a1.61,1.61,0,0,0-1.15-.56,1.71,1.71,0,0,0-1.22.55,1.54,1.54,0,0,0-.49,1.38,2.69,2.69,0,0,0,.78,1.52l.9.94a2.7,2.7,0,0,0,1.49.85,1.54,1.54,0,0,0,1.4-.43,1.72,1.72,0,0,0,.61-1.19,1.63,1.63,0,0,0-.52-1.19Z"/><path class="cls-3" d="M225.39,192.65l-2,2.24,1.95,1.7,2.29-2.62.58.5-2.93,3.36-5.45-4.76,2.89-3.31.58.51-2.25,2.58,1.76,1.54,2-2.24Z"/><path class="cls-3" d="M231.25,187.41a1.09,1.09,0,0,0-.88-.19,2.94,2.94,0,0,0-1.18.68,4.13,4.13,0,0,1-1.65.94,1.69,1.69,0,0,1-1.45-.27,1.78,1.78,0,0,1-.77-1.36,2.58,2.58,0,0,1,.54-1.74,2.53,2.53,0,0,1,1.58-1.11,2,2,0,0,1,1.61.34l0,0-.54.76a1.34,1.34,0,0,0-1.08-.24,1.54,1.54,0,0,0-1,.66,1.5,1.5,0,0,0-.34,1,1.11,1.11,0,0,0,.49.8,1,1,0,0,0,.87.13,3.7,3.7,0,0,0,1.2-.74,3.69,3.69,0,0,1,1.64-.87,1.82,1.82,0,0,1,1.44.32,1.69,1.69,0,0,1,.75,1.38,2.87,2.87,0,0,1-.61,1.77,3.06,3.06,0,0,1-1.55,1.17,1.78,1.78,0,0,1-1.73-.28l0,0,.54-.76a1.21,1.21,0,0,0,1.16.19,2,2,0,0,0,1-.74,1.76,1.76,0,0,0,.38-1.08A1,1,0,0,0,231.25,187.41Z"/><path class="cls-3" d="M234.59,179.72a3.08,3.08,0,0,1,1.49,1.81,2.79,2.79,0,0,1-.31,2.28,2.65,2.65,0,0,1-1.79,1.34,3.16,3.16,0,0,1-2.3-.42l-1.11-.64a3.17,3.17,0,0,1-1.51-1.79,2.64,2.64,0,0,1,.27-2.22,2.79,2.79,0,0,1,1.83-1.41,3.09,3.09,0,0,1,2.32.39Zm-1.61.2a2.44,2.44,0,0,0-1.68-.35,1.79,1.79,0,0,0-1.27.93,1.66,1.66,0,0,0-.13,1.5,2.52,2.52,0,0,0,1.15,1.26l1.12.65a2.54,2.54,0,0,0,1.67.38,1.66,1.66,0,0,0,1.23-.86,1.79,1.79,0,0,0,.18-1.57,2.46,2.46,0,0,0-1.15-1.29Z"/><path class="cls-3" d="M238.08,173.67h0a2.17,2.17,0,0,1,1.27,1.34,2.73,2.73,0,0,1-.16,2.05,2.55,2.55,0,0,1-1.61,1.47,3.2,3.2,0,0,1-2.33-.19l-1.18-.52a3.21,3.21,0,0,1-1.7-1.6,2.54,2.54,0,0,1,0-2.18,2.8,2.8,0,0,1,1.39-1.52,2.16,2.16,0,0,1,1.87.06l0,0-.38.86a1.61,1.61,0,0,0-1.28-.08,1.72,1.72,0,0,0-.92,1,1.54,1.54,0,0,0,.07,1.46,2.69,2.69,0,0,0,1.3,1.11l1.19.53a2.71,2.71,0,0,0,1.7.22,1.54,1.54,0,0,0,1.13-.93,1.72,1.72,0,0,0,.11-1.33,1.62,1.62,0,0,0-.93-.9Z"/><path class="cls-3" d="M241.14,171.81l-.32.93L234,170.4l.32-.93Z"/><path class="cls-3" d="M239.57,164.9l-.71,2.88,2.51.62.83-3.38.74.18-1.06,4.33-7-1.72,1-4.27.75.18-.82,3.32,2.27.56.71-2.88Z"/><path class="cls-3" d="M237.37,157.57l-.25,2.37,6.43.67-.1,1-6.43-.67-.24,2.34-.77-.08.59-5.68Z"/><path class="cls-3" d="M240.12,154l-3.78-1.66-.07-1.12,4.83,2.25,2.54-.15.06,1-2.61.16-4.45,2.77-.07-1.12Z"/><circle class="cls-5" cx="183.14" cy="151.82" r="47.64"/><path class="cls-6" d="M226.89,133.79s-9.57-9.87-15.56,2.39c0,0-3.14-8.83-4.34-11.22,0,0-4.79-10.47-20-16.3,0,0-18.85-5.24-22.44-17.8,0,0-.9,13,6.73,21.24,0,0-31.71-.6-38.14-12.12,0,0,.3,6.73,5.09,8.53,0,0-2.69,5.68,5.38,9.27,0,0-3,5.38,6.58,7.63,0,0-1.62,3.51.91,5.4a11.12,11.12,0,0,1,.87.73c1.17,1.07,4.76,3.71,11.68,3.6,0,0-6.13,1.35.3,4,0,0,4.34,2.69,12.56,2.09,0,0-2.94,1.94-.3,5.24,0,0,2,3.29,4.89,3.59a5.52,5.52,0,0,0,0,6.43s3.63,5.83,7.82,2.24c0,0-9.81,9.24-21.53,7.49a18.83,18.83,0,0,0-1.92-.17c-3.76-.17-15.74-1.52-19.17-4,0,0,8.23,13.31,8.68,24.23,0,0,11.07-11.82,25.05-10.62,0,0,26.85,3,35.52-7.78,0,0,7.48-4.64,7.18-26.48A8.62,8.62,0,0,1,226.89,133.79Z"/><path class="cls-7" d="M138.19,108.52s9.42,7.48,28.87,7.68"/><path class="cls-7" d="M211.93,152.59s2.59-19.64-19.84-33.9a46.51,46.51,0,0,0-21.54-6.6"/><path class="cls-7" d="M211.33,136.19s-1.44,3.23-1,4.57"/><path class="cls-7" d="M143.17,117.6s4.34,4.68,30.57,6.37"/><path class="cls-7" d="M150.16,125.42s7.13,4.74,29.17,6.23"/><path class="cls-7" d="M164.05,135.16s17.07.13,21-.42"/><path class="cls-7" d="M175.84,141.31s10.12-.7,12.22-1.69"/><path class="cls-7" d="M181.08,150.1s7.82-3.79,12-3.29"/><path class="cls-7" d="M188.06,159.37s8.33-7.88,10.41-8.68"/><path class="cls-7" d="M149.37,167.81a76.37,76.37,0,0,0,27.66,0"/><path class="cls-7" d="M151.72,173.11s25.41-2.07,27.61-2.67"/><path class="cls-7" d="M154.14,180.68s14.82-8.7,23.79-7.57"/><circle class="cls-8" cx="221.11" cy="134.04" r="1.1"/><path class="cls-3" d="M225.14,131.6l3.39,2.34s-.32,0-3.39,2c-3.48,2.23.92-2.19.92-2.19Z"/></g></svg>