<svg id="CLUTCH" xmlns="http://www.w3.org/2000/svg" viewBox="0 0 364 306"><defs><style>.cls-1,.cls-3,.cls-5{fill:#fff;}.cls-1{stroke:#607074;}.cls-1,.cls-3{stroke-miterlimit:10;stroke-width:0.94px;}.cls-2{fill:#6a797d;}.cls-3{stroke:#152f39;}.cls-4{fill:#17313b;}.cls-6{fill:#ff3d2e;}</style></defs><title>clutch</title><polygon class="cls-1" points="125.76 122.64 125.76 183.36 182.05 213.72 238.24 183.36 238.24 122.64 182.05 92.28 125.76 122.64"/><polygon class="cls-2" points="129.63 124.71 129.63 181.29 182.05 209.48 234.38 181.29 234.38 124.71 182.05 96.52 129.63 124.71"/><polygon class="cls-3" points="134.2 126.79 134.2 179.12 182 205.33 229.8 179.12 229.8 126.79 182 100.67 134.2 126.79"/><polygon class="cls-4" points="234.33 169.55 230.37 169.55 230.37 166.62 134.2 166.72 133.82 169.55 129.67 169.55 129.67 136.45 133.91 136.45 133.91 139.28 230.46 139.28 230.46 136.45 234.33 136.45 234.33 169.55"/><rect class="cls-4" x="134.53" y="139.33" width="94.95" height="27.34"/><g id="Layer_6" data-name="Layer 6"><path class="cls-5" d="M167,148.32l-1.6,1.51c-2.92-2.26-5.85-2.36-7.73-.19a5.43,5.43,0,0,0,.09,7.07c1.89,2.17,4.81,2.07,7.73-.28l1.51,1.51c-1.23,2-4.71,3.11-7.45,2.36a7.14,7.14,0,0,1-5.37-6.51,7.23,7.23,0,0,1,4.24-7.45A7.59,7.59,0,0,1,167,148.32Z"/><path class="cls-5" d="M209.84,160.29h-2.36v-5.47c0-1.41-.66-2.17-1.79-2.17a2.26,2.26,0,0,0-2.55,2.07v.19c-.09,1.51,0,3.11,0,4.62v.85h-2.45v-14.9h2.07c.09,0,.28.38.28.57v5.09l.75-.28a5,5,0,0,1,3.68,0,3.55,3.55,0,0,1,2.26,3.3C209.84,156,209.84,158.12,209.84,160.29Z"/><path class="cls-5" d="M179.86,150.49h2.36v9.9H180c-.09,0,0-.66-.09-.66-.28.09-.47.28-.75.38a4.58,4.58,0,0,1-2.73.47A3.84,3.84,0,0,1,173,157c-.09-2.17,0-4.34,0-6.6H175V156c0,1.32.57,2.17,1.6,2.26a2.47,2.47,0,0,0,2.92-1.89,8.11,8.11,0,0,0,.09-1.51A33.39,33.39,0,0,0,179.86,150.49Z"/><path class="cls-5" d="M199.47,151.9l-1.6,1.51a3.17,3.17,0,0,0-3.3-.94,4,4,0,0,0-1.7,1,3,3,0,0,0,.19,3.77c1.23,1.32,2.92,1.23,4.81-.09l1.6,1.51c-1.79,2.26-5.75,2.36-7.92.38a5.26,5.26,0,0,1-.19-7.54,5.79,5.79,0,0,1,8.11.38Z"/><path class="cls-5" d="M184.85,152.28h-1.51v-1.79l1.51-.09V147h2.73v3.49h1.79v1.89h-1.79v8h-2.73Z"/><path class="cls-5" d="M168.17,145.39h2.64v14.9h-2.64Z"/><path class="cls-6" d="M195.23,153.6a1.74,1.74,0,1,1-.09,3.49,1.69,1.69,0,0,1-1.7-1.7,1.79,1.79,0,0,1,1.79-1.79Z"/></g><g id="Layer_5" data-name="Layer 5"><path class="cls-4" d="M182.27,180.86c-.09-.19-.28-.28-.28-.47.09-1.51.19-2.92.28-4.43.57-.19.85,0,1,.57a17.36,17.36,0,0,0,.85,2.36l.38.75a6,6,0,0,0,.38-.85c.28-.75.57-1.6.85-2.36s.19-.66,1-.57l.28,4.71-.19.09c-.09-.19-.28-.28-.28-.47-.09-.94-.09-1.89-.09-2.83a1.07,1.07,0,0,0-.28-.75.71.71,0,0,0-.19.38c-.38.94-.66,1.89-1,2.83a.94.94,0,0,1-.47.38c-.09,0-.28-.19-.38-.38-.38-.94-.66-1.79-.94-2.73l-.28-.57h-.19l-.19,3.87Z"/><path class="cls-4" d="M181.24,127.68l.85,2.26-.19.19a1.14,1.14,0,0,1-.47-.47c-.09-.28-.19-.66-.28-.94a1.16,1.16,0,0,0-1.32-.85h-.09c-.19.09-.28.19-.28.38v1.32c0,.09-.19.28-.28.38-.09-.09-.28-.28-.28-.38v-4.62a21.45,21.45,0,0,1,2.45.19c.85.19,1,1.51.38,2.17A1.66,1.66,0,0,1,181.24,127.68Zm-1.79-2.26v2.07c.66,0,1.41.19,1.79-.47.19-.28.19-1,0-1.13A12.56,12.56,0,0,0,179.45,125.42Z"/><path class="cls-4" d="M182.65,115.43v.85a1.89,1.89,0,0,1-2,1.79h-.09a1.7,1.7,0,0,1-1.89-1.51v-.28a4.58,4.58,0,0,1,0-1.6,1.9,1.9,0,0,1,2.07-1.7h0a1.77,1.77,0,0,1,1.79,1.7v.19a1.66,1.66,0,0,0,.09.57Zm-.57,0a4.73,4.73,0,0,0-.19-1.13c-.19-.75-.57-.94-1.32-.94s-1.13.28-1.23,1a7,7,0,0,0,0,2,1.07,1.07,0,0,0,1,1.13h.19a1.26,1.26,0,0,0,1.41-1v-.09a3.54,3.54,0,0,1,.09-.94Z"/><path class="cls-4" d="M179.45,178.31l.85,2.26-.28.19a.74.74,0,0,1-.38-.38.71.71,0,0,1-.09-.47c-.28-1.23-.57-1.41-1.89-1.23-.09.66-.09,1.32-.19,2h-.38V176a8.35,8.35,0,0,1,2.17,0,1.34,1.34,0,0,1,.85.75,1.2,1.2,0,0,1-.38,1.41C179.63,178.22,179.54,178.31,179.45,178.31Zm-1.89-.09h1.23a.93.93,0,0,0,.75-1c0-.57-.38-.75-.85-.85-1.13-.09-1.13-.09-1.13,1.13v.75Z"/><path class="cls-4" d="M179.92,190.48a8.49,8.49,0,0,1-.28,1.51,1.39,1.39,0,0,1-1.32,1,1.17,1.17,0,0,1-1.32-1,16.13,16.13,0,0,1,0-3,1.42,1.42,0,0,1,1.41-1.13,1.32,1.32,0,0,1,1.32,1.13A9.4,9.4,0,0,1,179.92,190.48Zm-.57,0c-.09-.57-.09-.94-.19-1.32a.85.85,0,0,0-1.7,0h0a12.35,12.35,0,0,0,0,2.64.91.91,0,0,0,.75.66c.38-.09.75-.28.85-.57a3.78,3.78,0,0,0,.28-1.41Z"/><path class="cls-4" d="M176.71,127.78h-1.32c-.38,0-.47.09-.47.47v1.32h1.7a.72.72,0,0,1,.47.19c-.19.09-.28.28-.47.28h-2.17v-4.9c1.32-.28,2.36-.09,2.55.38h-1.32c-.38,0-.75.09-.66.66V127c.57.47,1.41-.19,1.89.47Z"/><path class="cls-4" d="M184.54,113h2c.85.09,1.23.57,1.13,1.6s-.38,1.32-1.23,1.41c-1.32.09-1.23.09-1.32,1.41,0,.19-.19.28-.28.47-.09-.19-.28-.28-.28-.38Zm.57.57v1.23c0,.85,0,.85.94.85s1.13-.28,1.13-1-.19-.94-1.13-.94Z"/><path class="cls-4" d="M197.27,127.78v1.79h1.89l.09.19c-.09.09-.28.28-.38.28h-1.79c-.19-.09-.38-.19-.38-.47v-4.05c.09-.19.19-.38.47-.38H199c.19,0,.28.19.47.28l-.09.19h-2v1.7h1.41c.09,0,.28.19.38.28a.71.71,0,0,1-.38.19Z"/><path class="cls-4" d="M187.37,125.23l-1,2.92c-.19.57-.38,1-.57,1.6a.51.51,0,0,1-.38.28.52.52,0,0,1-.47-.28c-.57-1.51-1-3-1.51-4.53.47-.19.57,0,.75.38.28,1,.66,2.07.94,3a3.19,3.19,0,0,1,.28.75c.19-.38.28-.47.28-.66.38-1,.66-2.07,1-3.11.09-.19.28-.28.47-.47Z"/><path class="cls-4" d="M172.28,125.51a.85.85,0,0,1-.47.09,3.54,3.54,0,0,0-1-.09,1,1,0,0,0-.66.57,1,1,0,0,0,.38.85l1.13.57a1.4,1.4,0,0,1,.94,1.6,1.36,1.36,0,0,1-1.51,1,8.25,8.25,0,0,1-1.51-.19v-.28a.85.85,0,0,1,.47-.09c.38,0,.66.19,1,.19s.85-.19.85-.66a1.31,1.31,0,0,0-.47-.94,3,3,0,0,0-.94-.47,1.27,1.27,0,0,1-.94-1.51,1.31,1.31,0,0,1,1.41-.94,6.37,6.37,0,0,1,1.32.19Z"/><path class="cls-4" d="M203.77,125.51a.85.85,0,0,1-.47.09,3.54,3.54,0,0,0-1-.09,1.47,1.47,0,0,0-.75.57,1,1,0,0,0,.38.85l1.13.57a1.29,1.29,0,0,1,.85,1.51,1.26,1.26,0,0,1-1.41,1,6.37,6.37,0,0,1-1.32-.19c-.09,0-.19-.19-.19-.38a.71.71,0,0,1,.47-.09c.38.09.66.28.94.19a1.6,1.6,0,0,0,.94-.57c.28-.47-.09-.85-.47-1a11.06,11.06,0,0,1-1-.47,1.3,1.3,0,0,1-.75-1.6,1.34,1.34,0,0,1,1.23-.85,8.25,8.25,0,0,1,1.51.19Z"/><path class="cls-4" d="M188.78,180.2h.57a3.54,3.54,0,0,0,1,.09c.28-.09.75-.28.75-.57a1.42,1.42,0,0,0-.38-1c-.19-.28-.57-.28-.94-.47-.85-.38-1.23-.85-1-1.51a1.54,1.54,0,0,1,1.7-1l1,.28v.19a.71.71,0,0,1-.47.09,4.23,4.23,0,0,0-1-.09,1.2,1.2,0,0,0-.66.47,1.07,1.07,0,0,0,.28.75,2.47,2.47,0,0,0,.85.47c1.23.47,1.6,1.13,1.23,2a1.93,1.93,0,0,1-2.26.75l-.57-.28Z"/><path class="cls-4" d="M194.72,125.7h-.57c-1.32-.47-2.07,0-2.07,1.32v1.32a1.27,1.27,0,0,0,1.23,1.32,1.52,1.52,0,0,0,.85-.28,1.2,1.2,0,0,1,.57-.09c-.09.19-.28.38-.38.57a1.72,1.72,0,0,1-2.45-.47,1.59,1.59,0,0,1-.28-.94,5.13,5.13,0,0,1,0-1.7,1.74,1.74,0,0,1,1-1.6A2,2,0,0,1,194.72,125.7Z"/><path class="cls-4" d="M182,192.36c1,.28,1.89-.09,2.55.28v.19h-2.92a1.62,1.62,0,0,1,.57-1.7l1.13-.85c.66-.47.85-1,.57-1.51a1.28,1.28,0,0,0-1.6-.28,1.2,1.2,0,0,1-.57.09,2,2,0,0,1,2.26-.38,1.32,1.32,0,0,1,.38,1.79l-.28.28-1.41,1.13A8.16,8.16,0,0,0,182,192.36Z"/><path class="cls-4" d="M172.28,188.59c.94-1,2.55-.75,2.73.38a1.34,1.34,0,0,1-.57,1.41c-.38.38-.85.57-1.23.94a7.19,7.19,0,0,0-.75,1l2.55.19v.19h-2.92a1.58,1.58,0,0,1,.75-1.79,6.34,6.34,0,0,1,1-.66c.57-.47.85-1,.57-1.51a1.23,1.23,0,0,0-1.6-.28A1.2,1.2,0,0,1,172.28,188.59Z"/><path class="cls-4" d="M187.93,188.5l-1.32.85c0-.19-.09-.38,0-.47a3.46,3.46,0,0,1,1.89-.85v4.34l1,.19v.19h-2.83l-.09-.19a1.6,1.6,0,0,1,.66-.09c.57.09.75-.09.66-.66C187.84,190.76,187.93,189.72,187.93,188.5Z"/><path class="cls-4" d="M165.77,125.61h-1.41v4a.8.8,0,0,1-.28.47c-.09-.19-.28-.28-.28-.47v-4h-1.23c-.09,0-.19-.19-.28-.28.09-.09.19-.28.28-.28h3c.09,0,.28.19.38.28Z"/><path class="cls-4" d="M175.11,113.63c-.47-.38-1.23.19-1.6-.57h3.68c.09.57-.28.47-.57.47h-.94v3.87c0,.28,0,.66-.57.38Z"/><path class="cls-4" d="M172.66,176.14c-.09.09-.19.09-.38.19h-.94c-.85,0-.85,0-.85.85s0,.85.85.85h.94v.28a1.4,1.4,0,0,1-.66.09c-1.23,0-1.23,0-1.23,1.23v.94l-.19.09c-.09-.19-.28-.28-.28-.47v-4.34h2.64Z"/><path class="cls-4" d="M189.63,127.59v2.07c0,.09-.19.28-.19.38-.09-.09-.38-.28-.38-.38v-4.15c0-.09.19-.28.28-.38.09.19.28.28.28.38Z"/><path class="cls-4" d="M160.68,127.68v2.07c0,.09-.19.28-.28.38-.09-.09-.28-.28-.28-.38v-4.24c0-.09.19-.19.28-.38a.49.49,0,0,1,.19.38A16,16,0,0,1,160.68,127.68Z"/><path class="cls-4" d="M174.45,180.67v-4.53c0-.09.28-.19.47-.47v4.62c0,.19-.19.28-.28.47Z"/><path class="cls-5" d="M179.45,125.42a5.69,5.69,0,0,1,1.79.57c.19.09.09.85,0,1.13-.38.66-1.13.38-1.79.47Z"/><path class="cls-5" d="M182.09,115.43c0,.38-.09.66-.09,1a1.25,1.25,0,0,1-1.32,1.13h-.09a1.14,1.14,0,0,1-1.23-.94v-.19a7,7,0,0,1,0-2c.09-.66.57-.94,1.23-1a1.05,1.05,0,0,1,1.32.94C182,114.67,182,115,182.09,115.43Z"/><path class="cls-5" d="M177.56,178.22v-.75c0-1.23,0-1.13,1.13-1.13a.75.75,0,0,1,.85.85.93.93,0,0,1-.75,1Z"/><path class="cls-5" d="M179.35,190.48a3,3,0,0,1-.28,1.32,1.26,1.26,0,0,1-.85.57.91.91,0,0,1-.75-.66,12.35,12.35,0,0,1,0-2.64.77.77,0,0,1,.85-.75h0a.77.77,0,0,1,.85.75A3.66,3.66,0,0,1,179.35,190.48Z"/><path class="cls-5" d="M185.1,113.54H186c.85,0,1.13.19,1.13.94s-.28,1-1.13,1-.94,0-.94-.85Z"/></g></svg>