<svg id="consultant" xmlns="http://www.w3.org/2000/svg" viewBox="0 0 364 306"><defs><style>.cls-1,.cls-2{fill:#25478b;}.cls-2,.cls-5,.cls-6,.cls-7{stroke:#25478b;stroke-miterlimit:10;}.cls-2,.cls-5,.cls-6{stroke-linecap:round;}.cls-2{stroke-width:0.17px;}.cls-3{fill:#bf4d51;}.cls-4,.cls-5,.cls-6,.cls-7{fill:#fff;}.cls-5,.cls-7{stroke-width:0.24px;}.cls-6{stroke-width:0.23px;}</style></defs><title>consultants</title><path class="cls-1" d="M23.84,164.51c-5.92,0-11.73-2.75-14.66-7.15-1.9-2.8-3.1-7.59-3.1-12.43,0-11.55,7.19-19.19,17.77-19.19,5.81,0,10.18,1.81,13.11,5.39a12.16,12.16,0,0,1,3.16,7.59H32.24a7.74,7.74,0,0,0-8-6.43c-6.21,0-10.06,5-10.06,13.09,0,7.86,3.62,12.48,9.77,12.48a8.42,8.42,0,0,0,6.15-2.53c1.09-1.1,1.5-2,2.13-4.4h8C39.14,159.45,33,164.51,23.84,164.51Z"/><path class="cls-1" d="M80.87,145.37c0,11.44-7.36,19.25-18.34,19.25a18.66,18.66,0,0,1-13.11-5.17c-3.68-3.52-5.35-7.92-5.35-14.08s2-11.55,5.58-15.07c3.45-3.3,7.59-4.78,13.28-4.78C73.75,125.52,80.87,133.44,80.87,145.37Zm-28.69-.22c0,7.81,4.2,12.92,10.46,12.92A9.21,9.21,0,0,0,70,154.5c2-2.36,2.76-5.22,2.76-9.4,0-8-3.85-13-10.06-13C56.09,132.07,52.18,137,52.18,145.15Z"/><path class="cls-1" d="M94.38,126.62l14.95,24v-24h7.82V163.3h-8.51L93.46,138.77V163.3h-7.7V126.62Z"/><path class="cls-1" d="M127.74,155.38a10.24,10.24,0,0,0,6.65,2.31c4,0,7.09-2.14,7.09-4.73a3.81,3.81,0,0,0-2.25-3.35,26.7,26.7,0,0,0-3-1.21l-4.29-1.1c-5.06-1.26-7.81-2.31-9.4-3.63a9.47,9.47,0,0,1-3-7.31c0-7.2,5.44-11.77,14-11.77,5.5,0,9.68,1.81,12.26,5.11,1.48,2,2,3.85,2.15,7h-7.26c-.66-4.12-2.58-5.66-7.15-5.66-4.18,0-6.82,1.81-6.82,4.62a3.19,3.19,0,0,0,1.59,2.86,11,11,0,0,0,2.53,1l1.92.44,1.87.44,1.87.44c9.57,2.36,12.54,4.84,12.54,10.72a11.7,11.7,0,0,1-3.3,8.47c-2.58,2.58-6.21,3.85-11.49,3.85-6.21,0-11.11-2.09-13.58-5.55-1.27-2-1.71-3.63-1.87-6.76H126C126.48,153.67,126.86,154.5,127.74,155.38Z"/><path class="cls-1" d="M178.38,159.51c-2.69,3.41-6.76,5.11-12.1,5.11-5.94,0-10.67-2.31-12.92-6.27a13.82,13.82,0,0,1-1.54-7.26V126.62h7.37v22.6a11.92,11.92,0,0,0,1.43,6.21,7.12,7.12,0,0,0,5.72,2.64,6.87,6.87,0,0,0,5.94-2.92c.82-1.37,1.21-3.13,1.21-6.43V126.62H181v23.54C181,154.34,180.2,157.25,178.38,159.51Z"/><path class="cls-1" d="M193,126.62v30.3h18.2v6.38H185.6V126.62Z"/><path class="cls-1" d="M214.72,163.3V133h-11v-6.38h29.75V133H222.25v30.3Z"/><path class="cls-1" d="M246.44,126.62l12.87,36.68h-8.41l-2.36-7.53H234.89l-2.47,7.53h-8.25l13.2-36.68Zm-4.84,7.64-4.84,15.23h9.62Z"/><path class="cls-1" d="M269.85,126.62l14.3,24v-24h7.48V163.3h-8.14L269,138.77V163.3H261.6V126.62Z"/><path class="cls-1" d="M305.72,163.3V133h-11v-6.38h29.75V133H313.25v30.3Z"/><path class="cls-1" d="M337.41,156.15a10.24,10.24,0,0,0,6.65,2.31c4,0,7.09-2.14,7.09-4.73a3.81,3.81,0,0,0-2.25-3.35,26.51,26.51,0,0,0-3-1.21l-4.29-1.1c-5.06-1.27-7.81-2.31-9.4-3.63a9.47,9.47,0,0,1-3-7.31c0-7.2,5.44-11.77,14-11.77,5.5,0,9.68,1.81,12.26,5.11,1.49,2,2,3.85,2.14,7h-7.26c-.66-4.12-2.58-5.66-7.15-5.66-4.18,0-6.82,1.81-6.82,4.62a3.19,3.19,0,0,0,1.59,2.86,11,11,0,0,0,2.53,1l1.92.44,1.87.44,1.87.44c9.57,2.36,12.54,4.84,12.54,10.72a11.7,11.7,0,0,1-3.3,8.47c-2.58,2.58-6.21,3.85-11.49,3.85-6.21,0-11.11-2.09-13.58-5.55-1.26-2-1.7-3.63-1.87-6.76h7.26C336.14,154.45,336.53,155.27,337.41,156.15Z"/><circle class="cls-2" cx="62.58" cy="145.11" r="19.42"/><path d="M15.46,120.92c0-.39-.24-.59-.48-.59s-1.22.82-2.5.82a3.81,3.81,0,0,1-3.28-2.09,10.49,10.49,0,0,1-1.6-5.89,10.11,10.11,0,0,1,1.3-5.23c1-1.71,2.38-2.62,3.68-2.62a5.41,5.41,0,0,1,2.28.73c.22,0,.4-.2.44-.57h.4v4.35h-.32c-.52-2.8-1.34-4.1-2.74-4.1-1.94,0-2,1.82-2,5.87v3.87c0,3.59.18,5.28,1.84,5.28,1.46,0,2.46-1.39,3-4.16h.36v4.35Z"/><path d="M20.7,111a3.37,3.37,0,0,1,2.56,1.39,5.45,5.45,0,0,1,1.22,3.66c0,2.91-1.76,5-3.82,5s-3.8-2.12-3.8-5.07S18.68,111,20.7,111Zm0,9.74c1.14,0,1.24-.84,1.24-2.78v-4.07c0-1.73-.1-2.55-1.26-2.55s-1.22.89-1.22,2.78v3.78C19.44,119.87,19.5,120.76,20.68,120.76Z"/><path d="M25.24,120.49h.88v-8.85h-.88v-.34h.54a11.52,11.52,0,0,0,2.68-.27v1.91A2.8,2.8,0,0,1,31,111c2,0,2.34,1.41,2.34,4.35v5.12h.8v.34h-4v-.34h.74v-6.73c0-1.11-.28-1.66-1-1.66-1.14,0-1.36,1.18-1.36,3.39v5h.74v.34H25.24Z"/><path d="M35.24,117.53h.28c.8,2.16,1.7,3.23,3,3.23,1,0,1.62-.77,1.62-1.93,0-1.37-.9-1.27-2.4-1.59-1.7-.36-2.5-1.21-2.5-2.89S36.38,111,37.86,111a7.21,7.21,0,0,1,1.92.52c.22,0,.38-.14.5-.46h.28v3h-.28c-.46-1.82-1.32-2.75-2.5-2.75a1.62,1.62,0,0,0-1.6,1.68,1.31,1.31,0,0,0,.52,1c.46.34,1.32.23,2.34.5a2.61,2.61,0,0,1,2.1,2.93c0,2.12-1.14,3.55-2.86,3.55-.82,0-1.42-.5-2-.5a.73.73,0,0,0-.76.5h-.28Z"/><path d="M47.82,119.17a2.82,2.82,0,0,1-2.6,1.91c-1.94,0-2.34-1.39-2.34-4.35v-5.1H42v-.34h.78a12.8,12.8,0,0,0,2.52-.27v7.33c0,1.11.28,1.64,1,1.64,1.14,0,1.36-1.16,1.36-3.37v-5h-.88v-.34h.72a13.75,13.75,0,0,0,2.64-.27v9.46H51v.34H47.82Z"/><path d="M51.82,106v-.34h1.32a5.54,5.54,0,0,0,2-.25v15.08h.74v.34H51.84v-.34h.88V106Z"/><path d="M59.74,106.81H60v4.48h1.44v.34H60v7.17c0,1,.16,1.46.64,1.46s.8-.3,1.1-.91l.26.18a2.66,2.66,0,0,1-2.44,1.57c-1.58,0-2-1-2-3.28v-6.19h-.86v-.34C58.36,111,59.4,109.43,59.74,106.81Z"/><path d="M65.2,121.1c-1.9,0-2.9-1-2.9-2.73,0-2.09,1.62-3.09,4.88-3.09v-1.36c0-1.77-.14-2.53-1.48-2.53-.82,0-1.34.43-1.34.71s.82.41.82,1.41c0,.8-.4,1.25-1.1,1.25s-1.14-.52-1.14-1.36C62.94,112,64,111,65.86,111c2.4,0,3.46,1.14,3.46,3.5v4c0,.93,0,1.41.48,1.41a.63.63,0,0,0,.46-.27l.24.2a1.86,1.86,0,0,1-1.66,1.25,1.56,1.56,0,0,1-1.56-1.27A2.27,2.27,0,0,1,65.2,121.1ZM67,115.62c-2,0-2.4.46-2.4,2.37,0,1.71.3,2.55,1.16,2.55.58,0,1-.39,1.38-1.21v-3.71Z"/><path d="M71.08,120.49H72v-8.85h-.88v-.34h.54A11.52,11.52,0,0,0,74.3,111v1.91A2.8,2.8,0,0,1,76.88,111c2,0,2.34,1.41,2.34,4.35v5.12H80v.34H76v-.34h.74v-6.73c0-1.11-.28-1.66-1-1.66-1.14,0-1.36,1.18-1.36,3.39v5h.74v.34H71.08Z"/><path d="M83.72,106.81H84v4.48h1.44v.34H84v7.17c0,1,.16,1.46.64,1.46s.8-.3,1.1-.91l.26.18a2.66,2.66,0,0,1-2.44,1.57c-1.58,0-2-1-2-3.28v-6.19h-.86v-.34C82.34,111,83.38,109.43,83.72,106.81Z"/><path d="M86.58,117.53h.28c.8,2.16,1.7,3.23,3,3.23,1,0,1.62-.77,1.62-1.93,0-1.37-.9-1.27-2.4-1.59-1.7-.36-2.5-1.21-2.5-2.89S87.72,111,89.2,111a7.21,7.21,0,0,1,1.92.52c.22,0,.38-.14.5-.46h.28v3h-.28c-.46-1.82-1.32-2.75-2.5-2.75a1.62,1.62,0,0,0-1.6,1.68,1.31,1.31,0,0,0,.52,1c.46.34,1.32.23,2.34.5a2.61,2.61,0,0,1,2.1,2.93c0,2.12-1.14,3.55-2.86,3.55-.82,0-1.42-.5-2-.5a.73.73,0,0,0-.76.5h-.28Z"/><path class="cls-3" d="M99.56,120.54v.29h-4v-.29h.85v-12.1h-.85v-.28h4.34c2.19,0,3.39,1.16,3.39,3s-1.15,2.91-3.31,3.08c2.12.38,2.82,1.22,3,3.5.15,1.77,0,2.75.52,2.75a.9.9,0,0,0,.43-.21l.13.32a2.21,2.21,0,0,1-1.19.44,2,2,0,0,1-1.54-.72c-.69-.78-.69-1.88-.75-3.44-.08-1.88-.17-2.55-1.44-2.55a3.85,3.85,0,0,0-.45,0v6.15Zm-.35-6.46c1.44,0,1.54-.66,1.54-2.83s-.13-2.83-1.64-2.83a3.32,3.32,0,0,0-.42,0v5.62A5,5,0,0,0,99.21,114.08Z"/><path class="cls-3" d="M107.84,116.46v1.35c0,2,.43,2.83,1.55,2.83s1.92-1,2.27-2.7h.23c-.3,2-1.34,3.12-2.81,3.12-2,0-3.37-1.77-3.37-4.24,0-2.28,1.44-4.18,3.17-4.18,1.54,0,2.81,1.5,2.86,3.82Zm1.82-1.61c0-1.35-.15-1.92-.94-1.92s-.89.68-.89,2.09v1.16h1.82Z"/><path class="cls-3" d="M116.53,121.05l-2.66-7.9h-.69v-.29h3.34v.29h-.7l1.74,5.24,1.15-3.69a2.81,2.81,0,0,0,.15-.78c0-.53-.3-.76-1-.78v-.29h2.46v.29c-.6,0-1,.63-1.44,1.92l-1.87,6Z"/><path class="cls-3" d="M121.9,113.15v-.29H123a4.71,4.71,0,0,0,1.7-.23v7.9h.62v.29H121.9v-.29h.74v-7.39Zm1.77-5.09a1.33,1.33,0,0,1,0,2.64,1.33,1.33,0,0,1,0-2.64Z"/><path class="cls-3" d="M129.35,116.46v1.35c0,2,.43,2.83,1.55,2.83s1.92-1,2.27-2.7h.23c-.3,2-1.34,3.12-2.81,3.12-2,0-3.38-1.77-3.38-4.24,0-2.28,1.44-4.18,3.17-4.18,1.54,0,2.81,1.5,2.86,3.82Zm1.82-1.61c0-1.35-.15-1.92-.94-1.92s-.89.68-.89,2.09v1.16h1.82Z"/><path class="cls-3" d="M134.69,113.15v-.29H138v.29h-.7l1.74,5.24,1-3.08-.7-2.17h-.69v-.29H142v.29h-.7l1.55,5.24,1.15-3.69a2.81,2.81,0,0,0,.15-.78c0-.53-.3-.76-1-.78v-.29h2.46v.29c-.6,0-1,.63-1.44,1.92l-1.87,6h-.52l-1.6-5.28-1.67,5.28H138l-2.66-7.9Z"/><path class="cls-4" d="M63.15,141.14l-2.53.51-1.87.3-4,2,.39,5.56,1.17,1.82,2.4.56,1,.37.69.82h1.57l.86.5h1.16l1.14-.5,1-.26.62-1.28,1,.08.88-.7.18-.55,1.27.48.91-.33.49-.82v-1.9l-1-1.06.23-.51v-1.37a11.34,11.34,0,0,0-2.38-1.55c-.57-.09-3.81-.36-3.81-.36Z"/><path class="cls-5" d="M65,153.07a1.44,1.44,0,0,0,1.44-1.59h0l.28.1a1.45,1.45,0,0,0,1.94-1.37h0l1.27.63h0a1.43,1.43,0,0,0,1.42-1.35v-.08l-4.6-3.81A5.1,5.1,0,0,0,61.39,144l-1.75.79-.92.29a1.25,1.25,0,0,1-1.62-1.19v-.68l3.66-1.9,2.13-.63c1.44-.37,3-.79,4.34-.12L69.33,142l3.17-.79L75.59,147l-4.11,2.26"/><path class="cls-5" d="M60.77,141.33l-7.51-.08-2.66,5.59c0,.9,2.4,1.53,3.61,1.67"/><path class="cls-5" d="M68.69,150.21s-4.44-3.73-5.39-3.77"/><path class="cls-5" d="M62.47,150.94s1.88-.41,2.34,2.13c.22,1.25-2.34.4-2.34.4"/><path class="cls-6" d="M56.06,148.46s.82-.79,1.94.34l-.13,2.92c-1.81.08-1.88-.93-1.88-.93"/><path class="cls-5" d="M60,149.09a2.52,2.52,0,0,1,2.5,1.85v2.52a2.37,2.37,0,0,1-2.5-.71"/><path class="cls-5" d="M66.47,151.48s-3.25-3.41-4.6-3.57"/><path class="cls-5" d="M56,148.49v2.27c-1.79.56-1.75-.4-1.75-.4v-2S54.67,147.53,56,148.49Z"/><polygon class="cls-7" points="52.99 140.37 49.95 147.26 44.73 145.1 48.31 137.69 52.99 140.37"/><polygon class="cls-7" points="72.82 140.63 76.22 147.26 80.71 145.22 77.46 138 72.82 140.63"/><path class="cls-5" d="M58.07,148.81s.89-.87,1.9.28v3.46c-2.1,0-2-.83-2-.83"/><path class="cls-5" d="M57.57,144.88s-1.53-1.29-.46-1.65a31.34,31.34,0,0,0,3.66-1.9"/><path class="cls-1" d="M26.55,185.81a11.75,11.75,0,0,1-1.17,5.37A8.36,8.36,0,0,1,22,194.75,9.9,9.9,0,0,1,17,196a9.14,9.14,0,0,1-6.94-2.78,10.42,10.42,0,0,1-2.64-7.5v-2.28a11.68,11.68,0,0,1,1.19-5.37A8.48,8.48,0,0,1,12,174.48a9.81,9.81,0,0,1,5-1.26,9.92,9.92,0,0,1,5,1.23,8.41,8.41,0,0,1,3.34,3.49,11.53,11.53,0,0,1,1.23,5.22Zm-2.07-2.4a9.14,9.14,0,0,0-2-6.27A7,7,0,0,0,17,174.87a6.94,6.94,0,0,0-5.45,2.28,9.21,9.21,0,0,0-2,6.35v2.31a9.15,9.15,0,0,0,2,6.25A6.93,6.93,0,0,0,17,194.37a6.88,6.88,0,0,0,5.49-2.28,9.37,9.37,0,0,0,2-6.34Z"/><path class="cls-1" d="M49.42,185.33H38v10.36H35.91V173.53H51.1v1.58H38v8.63H49.42Z"/><path class="cls-1" d="M87.95,175.12h-8.4v20.58H77.47V175.12H69.08v-1.58H87.95Z"/><path class="cls-1" d="M114.22,195.69h-2.09V185.07h-14v10.62H96V173.53h2.07v10h14v-10h2.09Z"/><path class="cls-1" d="M138.13,185.07H126.66v9h13.19v1.58H124.59V173.53h15.17v1.58h-13.1v8.37h11.47Z"/><path class="cls-1" d="M168.07,185.62l7.5-12.08H178l-8.86,13.82v8.34H167v-8.34l-8.84-13.82h2.46Z"/><path class="cls-1" d="M199.2,185.07H187.73v9h13.19v1.58H185.66V173.53h15.17v1.58h-13.1v8.37H199.2Z"/><path class="cls-1" d="M222.66,189.47H211.53L209,195.69h-2.17l9.28-22.16h2l9.28,22.16H225.2Zm-10.49-1.58H222l-4.92-12.07Z"/><path class="cls-1" d="M244.26,186.45h-7.12v9.24h-2.09V173.53h8a9.75,9.75,0,0,1,6.13,1.72,5.74,5.74,0,0,1,2.21,4.8,5.63,5.63,0,0,1-1.38,3.75,7.14,7.14,0,0,1-3.71,2.25l6.13,9.43v.2h-2.21Zm-7.12-1.58h6.35a6.27,6.27,0,0,0,4.19-1.34,4.72,4.72,0,0,0-.07-7.12,7.34,7.34,0,0,0-4.63-1.3h-5.84Z"/><path class="cls-1" d="M266.93,186.68h-8.07v-1.54h8.07Z"/><path class="cls-1" d="M289.71,195.69H274.35v-1.4l8.4-8.61a20.18,20.18,0,0,0,2.9-3.59,5.54,5.54,0,0,0,.81-2.75A4.24,4.24,0,0,0,285.1,176a5.42,5.42,0,0,0-3.76-1.23,5.61,5.61,0,0,0-4,1.43,4.86,4.86,0,0,0-1.52,3.71h-2a6.37,6.37,0,0,1,3.6-5.82,8.58,8.58,0,0,1,3.93-.87,7.92,7.92,0,0,1,5.26,1.6,5.4,5.4,0,0,1,1.89,4.35,6.86,6.86,0,0,1-1.07,3.39,25.55,25.55,0,0,1-3.76,4.6l-6.84,7h12.88Z"/><path class="cls-1" d="M310.67,186.45q0,4.69-1.9,7.12a6.69,6.69,0,0,1-5.61,2.43,6.77,6.77,0,0,1-5.57-2.38q-1.94-2.38-2-6.93v-4q0-4.67,1.92-7.08a7.78,7.78,0,0,1,11.17-.08q1.92,2.32,2,6.84Zm-2-4a10,10,0,0,0-1.37-5.75,5.39,5.39,0,0,0-8.26,0,9.67,9.67,0,0,0-1.42,5.62v4.35a10,10,0,0,0,1.42,5.8,4.75,4.75,0,0,0,4.13,2,4.68,4.68,0,0,0,4.08-2,10,10,0,0,0,1.41-5.75Z"/><path class="cls-1" d="M326.8,195.69h-2v-20L318.11,178v-1.71l8.35-2.8h.34Z"/><path class="cls-1" d="M340.31,184.34l1.2-10.8h12.26v1.69H343.24l-.86,7.49a8.6,8.6,0,0,1,4.62-1.22,7.19,7.19,0,0,1,5.29,1.95,7,7,0,0,1,2,5.19,7.38,7.38,0,0,1-1.92,5.43,7.28,7.28,0,0,1-5.41,1.93,8,8,0,0,1-5.19-1.61,6.35,6.35,0,0,1-2.27-4.52h1.94a5.06,5.06,0,0,0,1.7,3.43,5.84,5.84,0,0,0,3.82,1.16,5,5,0,0,0,4-1.51,6.25,6.25,0,0,0,1.34-4.29,5.22,5.22,0,0,0-5.59-5.51,8.47,8.47,0,0,0-2.49.33,7,7,0,0,0-2.24,1.27Z"/></svg>