<svg id="cOOL_STARTUPS" data-name="cOOL STARTUPS" xmlns="http://www.w3.org/2000/svg" xmlns:xlink="http://www.w3.org/1999/xlink" viewBox="0 0 364 306"><defs><style>.cls-1{fill:#131112;}.cls-2{fill:#c82321;}.cls-3{fill:#364451;}.cls-4{fill:url(#linear-gradient);}.cls-5{fill:url(#linear-gradient-2);}.cls-6{fill:url(#linear-gradient-3);}.cls-7{fill:url(#linear-gradient-4);}.cls-10,.cls-15,.cls-16,.cls-17,.cls-8,.cls-9{fill:none;stroke-linecap:round;stroke-width:2px;}.cls-15,.cls-16,.cls-17,.cls-8,.cls-9{stroke-miterlimit:10;}.cls-8{stroke:url(#linear-gradient-5);}.cls-9{stroke:url(#linear-gradient-6);}.cls-10{stroke-linejoin:round;stroke:url(#linear-gradient-7);}.cls-11{fill:url(#linear-gradient-8);}.cls-12{fill:url(#linear-gradient-9);}.cls-13{fill:url(#linear-gradient-10);}.cls-14{fill:url(#linear-gradient-11);}.cls-15{stroke:url(#linear-gradient-12);}.cls-16{stroke:url(#linear-gradient-13);}.cls-17{stroke:url(#linear-gradient-14);}</style><linearGradient id="linear-gradient" x1="308" y1="111.11" x2="329.63" y2="111.11" gradientUnits="userSpaceOnUse"><stop offset="0" stop-color="#364451"/><stop offset="0.11" stop-color="#3d4a57"/><stop offset="0.27" stop-color="#505c67"/><stop offset="0.45" stop-color="#6f7982"/><stop offset="0.66" stop-color="#9aa1a7"/><stop offset="0.88" stop-color="#d1d4d6"/><stop offset="1" stop-color="#f1f2f2"/></linearGradient><linearGradient id="linear-gradient-2" y1="118.74" x2="329.63" y2="118.74" xlink:href="#linear-gradient"/><linearGradient id="linear-gradient-3" y1="128.11" x2="329.63" y2="128.11" xlink:href="#linear-gradient"/><linearGradient id="linear-gradient-4" y1="135.74" x2="329.63" y2="135.74" xlink:href="#linear-gradient"/><linearGradient id="linear-gradient-5" x1="346.25" y1="101.24" x2="346.25" y2="106.99" xlink:href="#linear-gradient"/><linearGradient id="linear-gradient-6" x1="333.63" y1="91.36" x2="333.63" y2="97.24" xlink:href="#linear-gradient"/><linearGradient id="linear-gradient-7" x1="288.23" y1="104.95" x2="288.27" y2="111.06" gradientUnits="userSpaceOnUse"><stop offset="0" stop-color="#364451"/><stop offset="0.12" stop-color="#525e69"/><stop offset="0.43" stop-color="#959da3"/><stop offset="0.69" stop-color="#c7cbce"/><stop offset="0.89" stop-color="#e6e7e8"/><stop offset="1" stop-color="#f1f2f2"/></linearGradient><linearGradient id="linear-gradient-8" x1="262.55" y1="113.97" x2="273.92" y2="113.97" xlink:href="#linear-gradient"/><linearGradient id="linear-gradient-9" x1="262.55" y1="118.9" x2="273.92" y2="118.9" xlink:href="#linear-gradient"/><linearGradient id="linear-gradient-10" x1="262.55" y1="124.97" x2="273.92" y2="124.97" xlink:href="#linear-gradient"/><linearGradient id="linear-gradient-11" x1="262.55" y1="129.91" x2="273.92" y2="129.91" xlink:href="#linear-gradient"/><linearGradient id="linear-gradient-12" x1="271.8" y1="104.9" x2="272.09" y2="152.04" xlink:href="#linear-gradient"/><linearGradient id="linear-gradient-13" x1="310.06" y1="91.29" x2="310.06" y2="153.11" xlink:href="#linear-gradient"/><linearGradient id="linear-gradient-14" x1="323.5" y1="101.16" x2="323.5" y2="163.11" xlink:href="#linear-gradient"/></defs><title>cool startup</title><g id="Layer_45" data-name="Layer 45"><g id="Layer_52" data-name="Layer 52"><path class="cls-1" d="M30.52,207.18a2.73,2.73,0,0,0-1.51.42,5.07,5.07,0,0,0-1.1,1q-.5.6-1,1.29a8.39,8.39,0,0,1-1.24,1.29,6.2,6.2,0,0,1-1.75,1,7.35,7.35,0,0,1-2.59.43h-1A4.23,4.23,0,0,1,17,211.55a4.61,4.61,0,0,1-1.13-3.26A4.39,4.39,0,0,1,17,205a4.6,4.6,0,0,1,3.37-1.16l2.59,0,0,3.2-3,0q-1.26,0-1.25,1.06a1,1,0,0,0,.32.84,1.43,1.43,0,0,0,.88.22l1.33,0a2.72,2.72,0,0,0,1.51-.42,5.48,5.48,0,0,0,1.12-1q.51-.6,1-1.29a7.45,7.45,0,0,1,1.24-1.29,6.57,6.57,0,0,1,1.75-1,7.22,7.22,0,0,1,2.57-.43l1.22,0A4.24,4.24,0,0,1,35,204.82a4.61,4.61,0,0,1,1.13,3.26A4.39,4.39,0,0,1,35,211.33a4.6,4.6,0,0,1-3.37,1.16l-2.88,0,0-3.21,3.28,0q1.26,0,1.25-1.06t-1.2-1.06Z"/><path class="cls-1" d="M14.39,201.32l-3.38,0,0-3.46,3.38,0ZM35.66,201l-19.47.27,0-3.46,19.47-.27Z"/><path class="cls-1" d="M35.57,194.66l-25.2.35,0-3.46,25.2-.35Z"/><path class="cls-1" d="M14.21,188.58l-3.38,0,0-3.46,3.38,0Zm21.27-.29L16,188.55l0-3.46,19.47-.27Z"/><path class="cls-1" d="M23.66,176.64l-4,.05q-1.22,0-1.21,1.1t1.24,1.06l11.77-.16q1.22,0,1.21-1.1t-1.24-1.06l-4.36.06,0-3.2,3.85-.05a5,5,0,0,1,3.56,1.07,4.32,4.32,0,0,1,1.21,3.26A4.38,4.38,0,0,1,34.57,181,4.92,4.92,0,0,1,31,182.16l-10.76.15a4.91,4.91,0,0,1-3.56-1.08,4.38,4.38,0,0,1-1.22-3.28,4.32,4.32,0,0,1,1.13-3.29,5,5,0,0,1,3.53-1.17l3.46,0Z"/><path class="cls-1" d="M30.76,161.82a4.87,4.87,0,0,1,3.56,1.1,5.48,5.48,0,0,1,.09,6.77,4.87,4.87,0,0,1-3.53,1.2L20.12,171a4.86,4.86,0,0,1-3.56-1.1,5.48,5.48,0,0,1-.09-6.77A4.87,4.87,0,0,1,20,162Zm-11.22,3.61q-1.22,0-1.21,1.1t1.24,1.06l11.77-.16q1.22,0,1.21-1.1t-1.24-1.06Z"/><path class="cls-1" d="M35.08,159l-19.47.27,0-3.2,1.91,0a3.58,3.58,0,0,1-1.62-1,2.65,2.65,0,0,1-.69-1.86A2.86,2.86,0,0,1,16,151a4.41,4.41,0,0,1,3-.87L35,150l0,3.46-15.62.21a1.41,1.41,0,0,0-1,.27,1,1,0,0,0-.26.76,1.06,1.06,0,0,0,.37.82,1.35,1.35,0,0,0,.94.31L35,155.57Z"/><path class="cls-2" d="M13.64,147.4l-3.38,0,0-3.46,3.38,0Zm21.27-.29-19.47.27,0-3.46,19.47-.27Z"/><path class="cls-2" d="M34.83,140.74,15.35,141l0-3.2,1.91,0a3.58,3.58,0,0,1-1.62-1,2.65,2.65,0,0,1-.69-1.86,2.86,2.86,0,0,1,.83-2.17,4.41,4.41,0,0,1,3-.87l15.91-.22,0,3.46-15.62.21a1.41,1.41,0,0,0-1,.27,1,1,0,0,0-.26.76,1.06,1.06,0,0,0,.37.82,1.34,1.34,0,0,0,.94.31l15.55-.21Z"/><path class="cls-2" d="M34.58,122.85a2.54,2.54,0,0,1-.68.23l-.9.16a3.26,3.26,0,0,1,1.4,1A2.72,2.72,0,0,1,35,126a2.87,2.87,0,0,1-.83,2.15,4.34,4.34,0,0,1-3,.89l-12.35.17a4.34,4.34,0,0,1-3.07-.8,2.87,2.87,0,0,1-.89-2.13,2.71,2.71,0,0,1,.43-1.59,3.41,3.41,0,0,1,1.16-1.06l-7,.1,0-3.46L30.11,120l1.44,0,1.12-.07,1-.1a8.66,8.66,0,0,0,.92-.17ZM19,123.56a1.35,1.35,0,0,0-.93.34,1.06,1.06,0,0,0-.35.83,1,1,0,0,0,.28.75,1.4,1.4,0,0,0,1,.24l11.77-.16a1.4,1.4,0,0,0,1-.26,1,1,0,0,0,.26-.76,1.07,1.07,0,0,0-.37-.82,1.35,1.35,0,0,0-.94-.31Z"/><path class="cls-2" d="M13.23,117.27l-3.38,0,0-3.46,3.38,0ZM34.5,117,15,117.25l0-3.46,19.47-.27Z"/><path class="cls-2" d="M34.33,104.85a2.54,2.54,0,0,1-.7.23l-.92.16a3.38,3.38,0,0,1,1.42,1,2.66,2.66,0,0,1,.6,1.74,3,3,0,0,1-.78,2.15A4,4,0,0,1,31,111l-2.45,0a6.14,6.14,0,0,1-2.44-.38,4.84,4.84,0,0,1-1.58-1,5.79,5.79,0,0,1-1-1.34q-.39-.71-.77-1.34a5,5,0,0,0-.82-1,1.65,1.65,0,0,0-1.19-.4l-2.05,0q-1.22,0-1.21,1t1.24,1l3.38,0,0,3.24-2.88,0q-4.71.06-4.78-4.33t4.66-4.42L29.87,102l1.44,0,1.11-.07,1-.1a8.68,8.68,0,0,0,.92-.17Zm-9.28.63.51.78a3.34,3.34,0,0,0,.6.69,2.58,2.58,0,0,0,.83.47,3.37,3.37,0,0,0,1.17.16l2.45,0a1.33,1.33,0,0,0,.9-.25,1,1,0,0,0,.24-.74,1.08,1.08,0,0,0-.39-.86,1.42,1.42,0,0,0-1-.31Z"/><path class="cls-3" d="M158.72,157.74c0,10,.16,20,0,30-.41,21.54-19.18,33-38.85,23.85-9.66-4.48-12.75-13-12.94-22.48q-.63-31.44,0-62.9c.18-9.5,3.11-18.42,12.88-22.47,10.2-4.23,20.6-4.27,30,2.33,6.49,4.56,8.63,11.72,8.82,19.27.26,10.81.07,21.63.07,32.45Zm-35.57-.64c0,10.31,0,20.62,0,30.93,0,7.16,3.75,11.38,9.8,11.27,5.9-.11,9.4-4.09,9.42-11.13q.09-30.68,0-61.36c0-7-3.51-10.86-9.55-10.86-6.32,0-9.66,3.85-9.68,11.22Q123.14,142.14,123.16,157.11Z"/><path class="cls-3" d="M59.4,165.63H44.24l3.17-63.11H92v14.56c-8.38,0-16.65.18-24.91-.08-3.81-.12-5.33.92-5.36,4.93-.06,7.06-.67,14.12-.54,21.51,4.63-4.24,9.48-6.78,15.73-6.55,9,.34,14.9,4.42,16.91,13.27A74.75,74.75,0,0,1,95.26,165c.18,8.32.2,16.66-.18,25-.68,14.85-8.93,23.38-22.74,24-16.65.78-25.7-6.19-27.78-21.88-.58-4.39-.09-8.91-.09-13.78H59.69c0,3.79-.16,7.42,0,11,.36,6.4,3.85,9.85,9.6,9.81s9.43-3.62,9.58-9.89c.22-8.82.16-17.65.09-26.47-.05-7.1-3.43-11.05-9.34-11.23-6.23-.19-9.67,3.55-10.09,11Z"/><path class="cls-3" d="M183.33,109.21c-8.3,0-13.16,4.56-13.16,11.48s4.86,11.48,13.16,11.48c.47,0,.95,0,1.46,0v3.61h-1.16c-4.43,0-7.83-.69-10.15-2.11a15,15,0,0,1,0-25.84c2.32-1.42,5.72-2.11,10.15-2.11h1.16v3.57C184.27,109.21,183.8,109.21,183.33,109.21Z"/><path class="cls-3" d="M191,117.85a10.23,10.23,0,0,1,14.66,0,11,11,0,0,1,0,15.18A10.23,10.23,0,0,1,191,133a10.85,10.85,0,0,1,0-15.18Zm7.31,14.71c3.61,0,6.58-3.14,6.58-7.18a6.6,6.6,0,1,0-13.16,0C191.76,129.42,194.72,132.56,198.33,132.56Z"/><path class="cls-3" d="M215,117.85a10.23,10.23,0,0,1,14.66,0,11,11,0,0,1,0,15.18A10.23,10.23,0,0,1,215,133a10.85,10.85,0,0,1,0-15.18Zm7.31,14.71c3.61,0,6.58-3.14,6.58-7.18a6.6,6.6,0,1,0-13.16,0C215.71,129.42,218.67,132.56,222.29,132.56Z"/><path class="cls-3" d="M237.08,105.68h3.7v30.06h-3.7Z"/><path class="cls-3" d="M166.17,169.74h10.28c3.31,0,5-1.33,5-3.78,0-2.19-1.5-3.4-4.64-5l-5-2.58c-3.66-1.85-5.46-4.26-5.46-7.44,0-4.34,3.31-7.27,9.2-7.27h8.69v4h-10c-2.32,0-3.74,1.29-3.74,3.18,0,2.24,1.81,3.22,5.16,4.95L180,158c3.83,1.94,5.63,4.39,5.63,7.74,0,4.95-3.44,8-9.93,8h-9.5Z"/><path class="cls-3" d="M193,147.68v5.46h6.24v3.48H193v8.82c0,3.31,1.55,4.77,5.07,4.77h1.16v3.53H198c-5.8,0-8.73-2.54-8.73-7.65v-18.4Z"/><path class="cls-3" d="M218.54,163.46c0-4.39-2.75-7.22-6.58-7.22s-6.62,2.88-6.62,7.09,2.88,7.27,6.79,7.27a8.42,8.42,0,0,0,5.16-1.89v4a11.13,11.13,0,0,1-5.59,1.42,10,10,0,0,1-5.55-1.72,10.56,10.56,0,0,1-4.56-8.94c0-6.23,4.39-10.66,10.32-10.66a10.16,10.16,0,0,1,9.2,5.59c1.08,2.11,1.12,4.26,1.12,6.75v8.64h-3.7Z"/><path class="cls-3" d="M226.67,153.14h3.4v3.05c1.33-2.54,3.53-3.44,7.09-3.44h.95v3.57h-.56c-5.12,0-7.18,2.32-7.18,7.7v9.72h-3.7Z"/><path class="cls-3" d="M243.83,147.68v5.46h6.24v3.48h-6.24v8.82c0,3.31,1.55,4.77,5.07,4.77h1.16v3.53h-1.2c-5.8,0-8.73-2.54-8.73-7.65v-18.4Z"/><path class="cls-3" d="M270.87,164.37c0,6.23-3.65,9.76-8.77,9.76s-8.73-3.53-8.73-9.76V153.14H257v11.91c0,3.31,2.19,5.5,5.12,5.5s5.07-2.19,5.07-5.5V153.14h3.65Z"/><path class="cls-3" d="M275.09,165.1a14.64,14.64,0,0,1,1.12-6.75,10.09,10.09,0,0,1,9.25-5.59c5.93,0,10.32,4.43,10.32,10.66a10.91,10.91,0,0,1-2.79,7.4,9.92,9.92,0,0,1-7.35,3.27,11.14,11.14,0,0,1-5.59-1.42v-4a8.53,8.53,0,0,0,5.2,1.89c3.91,0,6.79-3,6.79-7.27s-2.84-7.09-6.67-7.09-6.58,2.84-6.58,7.22V182.9h-3.7Z"/><path class="cls-3" d="M307.21,170.21c1.85,0,2.88-.77,2.88-2s-.9-1.76-2.75-2.54l-3.53-1.42c-3.7-1.5-5.46-2.92-5.46-5.93,0-3.27,2.37-5.2,6.92-5.2h7.61v3.44h-8.6c-1.42,0-2.24.65-2.24,1.76,0,.9.73,1.5,2.28,2.15L308,162c3.78,1.55,5.89,2.88,5.89,6.11,0,3.87-2.84,5.63-8.64,5.63h-7v-3.53Z"/><path class="cls-3" d="M167.42,193.55a6.42,6.42,0,0,1,9.2,0,6.88,6.88,0,0,1,0,9.53,6.42,6.42,0,0,1-9.2,0,6.81,6.81,0,0,1,0-9.53Zm4.59,9.23a4.51,4.51,0,1,0-4.13-4.51A4.31,4.31,0,0,0,172,202.78Z"/><path class="cls-3" d="M181.78,190.72c0-3.21,1.81-4.8,5.45-4.8h1.4v2.21h-1.35c-2.21,0-3.21.92-3.21,3v.73h4.56V194h-4.56v10.74h-2.29Z"/><path class="cls-3" d="M201.39,188.42v3.43h3.91V194h-3.91v5.53c0,2.08,1,3,3.18,3h.73v2.21h-.76c-3.64,0-5.48-1.59-5.48-4.8V188.42Z"/><path class="cls-3" d="M208.57,185.91h2.32v7.18a5,5,0,0,1,3.59-1.51c3.13,0,5.07,2.13,5.07,6.1v7.1h-2.32V197.3c0-2.21-1.11-3.46-3.08-3.46s-3.27,1.48-3.27,3.94v7h-2.32Z"/><path class="cls-3" d="M229.17,205a6.28,6.28,0,0,1-3.27-.92,6.84,6.84,0,0,1-1.35-10.58,6.41,6.41,0,0,1,4.64-2,6.55,6.55,0,0,1,6,4l-8.48,4.7-1-1.75,6.29-3.51a3.76,3.76,0,0,0-2.89-1.29,4.53,4.53,0,0,0,0,9c2.16,0,3.78-1.51,4.16-4.08l2.35.35C235,202.81,232.46,205,229.17,205Z"/><path class="cls-3" d="M251.55,197.55c-3.1-.78-4.7-3-4.7-6.5v-5.13h2.51v5.16c0,2.81,1.24,4.29,3.43,4.29s3.43-1.48,3.43-4.29v-5.16h2.51V191c0,3.54-1.59,5.72-4.7,6.5v7.23h-2.48Z"/><path class="cls-3" d="M266.78,205a6.28,6.28,0,0,1-3.27-.92,6.84,6.84,0,0,1-1.35-10.58,6.41,6.41,0,0,1,4.64-2,6.55,6.55,0,0,1,6,4l-8.48,4.7-1-1.75,6.29-3.51a3.76,3.76,0,0,0-2.89-1.29,4.53,4.53,0,0,0,0,9c2.16,0,3.78-1.51,4.16-4.08l2.35.35C272.64,202.81,270.07,205,266.78,205Z"/><path class="cls-3" d="M286.38,198.33c0-2.75-1.73-4.54-4.13-4.54a4.14,4.14,0,0,0-4.16,4.45,4.25,4.25,0,0,0,4.26,4.56,5.29,5.29,0,0,0,3.24-1.19v2.48a7,7,0,0,1-3.51.89,6.24,6.24,0,0,1-3.48-1.08,6.63,6.63,0,0,1-2.86-5.61A6.49,6.49,0,0,1,288,195.12a8.84,8.84,0,0,1,.7,4.24v5.43h-2.32Z"/><path class="cls-3" d="M292.48,191.85h2.13v1.92c.84-1.59,2.21-2.16,4.45-2.16h.59v2.24h-.35c-3.21,0-4.51,1.46-4.51,4.83v6.1h-2.32Z"/><polygon class="cls-4" points="308 110.49 329.63 108.86 308 113.36 308 110.49"/><polygon class="cls-5" points="308 118.11 329.63 116.49 308 120.99 308 118.11"/><polygon class="cls-6" points="308 127.49 329.63 125.86 308 130.36 308 127.49"/><polygon class="cls-7" points="308 135.11 329.63 133.49 308 137.99 308 135.11"/><line class="cls-8" x1="339.63" y1="102.24" x2="352.88" y2="105.99"/><line class="cls-9" x1="341.13" y1="96.24" x2="326.13" y2="92.36"/><line class="cls-10" x1="294" y1="110.02" x2="282.5" y2="105.99"/><polygon class="cls-11" points="262.55 113.56 273.93 112.51 262.55 115.43 262.55 113.56"/><polygon class="cls-12" points="262.55 118.5 273.93 117.45 262.55 120.36 262.55 118.5"/><polygon class="cls-13" points="262.55 124.57 273.93 123.52 262.55 126.43 262.55 124.57"/><polygon class="cls-14" points="262.55 129.5 273.93 128.45 262.55 131.36 262.55 129.5"/><polyline class="cls-15" points="263.38 150.99 261.75 108.86 281.88 105.99 281 150.99"/><polyline class="cls-16" points="326.13 102.74 326.13 92.36 294 94.74 294.63 152.11"/><polyline class="cls-17" points="308 150.99 307.38 104.61 339.63 102.24 338.63 162.11"/></g></g></svg>