<svg id="iac" xmlns="http://www.w3.org/2000/svg" viewBox="0 0 364 306"><defs><style>.cls-1{fill:#c3161c;}.cls-2,.cls-4{fill:none;stroke:#d1aa67;stroke-miterlimit:2.61;}.cls-2{stroke-width:4.98px;}.cls-3{fill:#fff;}.cls-4{stroke-width:3.32px;}.cls-5{fill:#d1aa67;fill-rule:evenodd;}</style></defs><title>IAC</title><ellipse class="cls-1" cx="182" cy="153" rx="57.5" ry="58.1"/><ellipse class="cls-2" cx="182" cy="153" rx="57.5" ry="58.1"/><ellipse class="cls-3" cx="182.08" cy="152.82" rx="41.16" ry="41.6"/><ellipse class="cls-4" cx="182.08" cy="152.82" rx="41.16" ry="41.6"/><ellipse class="cls-4" cx="202.42" cy="152.82" rx="19.58" ry="19.79"/><ellipse class="cls-4" cx="162.26" cy="152.82" rx="19.58" ry="19.79"/><ellipse class="cls-4" cx="182.08" cy="132.16" rx="19.45" ry="19.66"/><ellipse class="cls-4" cx="182.08" cy="173.47" rx="19.45" ry="19.66"/><polygon class="cls-5" points="176.5 178.37 176.5 126.48 171.3 126.48 171.3 119.7 192.86 119.7 192.86 126.48 187.65 126.48 187.65 178.37 192.86 178.37 192.86 185.93 171.3 185.93 171.3 178.37 176.5 178.37"/><path class="cls-3" d="M227.47,168.6a2.22,2.22,0,0,1-1.54-1.44,4.43,4.43,0,0,1,0-2.76,7.48,7.48,0,0,1,.6-1.59,8.79,8.79,0,0,1,.76-1.2l1.79.49-.06.21a4.66,4.66,0,0,0-1.09,1.16,4.54,4.54,0,0,0-.64,1.37,4.68,4.68,0,0,0-.09.47,1.91,1.91,0,0,0,0,.5,1.24,1.24,0,0,0,.13.43.54.54,0,0,0,.36.25.56.56,0,0,0,.48-.1,1.54,1.54,0,0,0,.44-.54q.21-.4.43-.85a7.26,7.26,0,0,1,.46-.83,2.9,2.9,0,0,1,1.2-1.15,2.18,2.18,0,0,1,2.87,1.34,4.33,4.33,0,0,1,0,2.62,7.81,7.81,0,0,1-.53,1.44,7.25,7.25,0,0,1-.69,1.17l-1.72-.47.06-.21a4.21,4.21,0,0,0,.9-1,4.07,4.07,0,0,0,.6-1.29,3.93,3.93,0,0,0,.1-.49,2,2,0,0,0,0-.5.94.94,0,0,0-.14-.4.52.52,0,0,0-.31-.24.53.53,0,0,0-.51.11,2.62,2.62,0,0,0-.52.78l-.38.75c-.12.24-.27.5-.44.77a2.86,2.86,0,0,1-1.11,1.08,1.93,1.93,0,0,1-1.37.07m-.36-7.54.17-2.46,3-1.93.06-.93-2.84-.2.14-2,7.73.55-.23,3.38a7.78,7.78,0,0,1-.16,1.19,2.56,2.56,0,0,1-.4.91,2,2,0,0,1-.72.65,1.92,1.92,0,0,1-1.05.19,2.29,2.29,0,0,1-1.37-.5,3.07,3.07,0,0,1-.82-1.21Zm5.58-2.76a1,1,0,0,0,.51-.08.81.81,0,0,0,.35-.39,1.57,1.57,0,0,0,.13-.47c0-.18,0-.39.06-.63l0-.73-2.08-.15,0,.62a6,6,0,0,0,0,.81,1.18,1.18,0,0,0,.17.56,1.06,1.06,0,0,0,.34.33A1.16,1.16,0,0,0,232.69,158.29Zm-5.09-6.44-.49-5.64,7.72-.68.49,5.64-1.49.13-.31-3.64-1.33.12.29,3.38-1.49.13-.29-3.38-1.91.17.32,3.64Zm7.11-9.15-8.24-.44-.65-2.16,6.58-5,.61,2-4.66,3.42,5.75.2Zm-10-6.1-2.37-5.13,7-3.31,2.37,5.13-1.36.64-1.53-3.31-1.21.57,1.42,3.07-1.36.64-1.42-3.07-1.74.82,1.53,3.31ZM221.62,130l-2.47-3.85,1.15-.76.69,1.08,4.19-2.75-.69-1.08,1.15-.76,2.47,3.85-1.15.76-.69-1.08-4.19,2.75.69,1.08Zm-3.34-5.22-1.34-1.5,2.54-2.31-2-2.22L215,121.07l-1.34-1.5,5.76-5.24,1.34,1.5-2.11,1.92,2,2.22,2.11-1.92,1.34,1.5Zm-8-7.89a4.85,4.85,0,0,1-1.1-1.2,3.45,3.45,0,0,1-.52-1.39,3.5,3.5,0,0,1,.13-1.51,5,5,0,0,1,.85-1.57,4.85,4.85,0,0,1,1.25-1.16,3.58,3.58,0,0,1,1.42-.53,3.39,3.39,0,0,1,1.48.15,4.58,4.58,0,0,1,1.46.79,6.08,6.08,0,0,1,1.15,1.16,5.22,5.22,0,0,1,.36.57c.1.18.18.35.25.49l-1.16,1.5-.18-.14c0-.13-.06-.28-.11-.46a4.74,4.74,0,0,0-.19-.58,3.55,3.55,0,0,0-.32-.61,2.18,2.18,0,0,0-.49-.53,2.39,2.39,0,0,0-.71-.39,1.93,1.93,0,0,0-.83-.09,2.13,2.13,0,0,0-.87.32,3.26,3.26,0,0,0-.88.83,3.21,3.21,0,0,0-.59,1.1,2.18,2.18,0,0,0-.06.93,1.9,1.9,0,0,0,.31.76,2.55,2.55,0,0,0,.53.58,2.41,2.41,0,0,0,.63.36,2.77,2.77,0,0,0,.7.17,4.54,4.54,0,0,0,.57,0h.46l.16.13-1.14,1.48-.59-.15a4.54,4.54,0,0,1-.56-.19,7.16,7.16,0,0,1-.66-.31A5.87,5.87,0,0,1,210.29,116.89Zm-5-7.05.41-2.94L203.6,109Zm1.39,4.11-1.84-.95.23-1.66L202.52,110l-1.19,1.16-1.8-.92,6.07-5.66,2.05,1.06Zm-10.84-5.16-5.47-1.17L192,100l2,.42-1.3,6.18,3.51.75ZM186.41,104l-.76-2.87-1.14,2.74Zm2.87,3.23-2.06-.15-.43-1.62-2.87-.2-.64,1.54-2-.14,3.4-7.61,2.29.16Zm-9.18-.49-1.91.24L174.27,102l.65,5.33-1.82.23-.94-7.77,2.37-.29,3.35,4.11-.54-4.45,1.82-.23Zm-11.61.12a2.39,2.39,0,0,0,.15-.94,4.11,4.11,0,0,0-.22-1.13,3.84,3.84,0,0,0-.52-1.09,2.34,2.34,0,0,0-.64-.63,1.61,1.61,0,0,0-.72-.24,1.9,1.9,0,0,0-.73.09,1.87,1.87,0,0,0-.64.35,1.69,1.69,0,0,0-.45.62,2.26,2.26,0,0,0-.15.91,3.93,3.93,0,0,0,.21,1.19,3.87,3.87,0,0,0,.51,1.08,2.34,2.34,0,0,0,.64.63,1.6,1.6,0,0,0,.72.25,1.88,1.88,0,0,0,.74-.09,1.84,1.84,0,0,0,.65-.37A1.64,1.64,0,0,0,168.49,106.86Zm1.91-2.71a4.11,4.11,0,0,1-.1,3.16,3.92,3.92,0,0,1-2.45,2,3.87,3.87,0,0,1-3.12-.13,4.08,4.08,0,0,1-1.92-2.5,4.12,4.12,0,0,1,.1-3.17,3.92,3.92,0,0,1,2.45-2,3.88,3.88,0,0,1,3.12.13A4.06,4.06,0,0,1,170.4,104.14ZM163,111.06l-4,2.08-.62-1.24,1.13-.58-2.27-4.5-1.13.58-.62-1.24,4-2.08.62,1.24-1.13.58,2.27,4.5,1.13-.58Zm-8.41-2.69-2,1.4,3.59,5.17-1.64,1.16L151,110.94l-2,1.4-.86-1.24,5.6-4Zm-6.54,9.52-2.66-1.26,1.34,2.64Zm4.29-.15-1.43,1.5-1.5-.71-2,2.09.75,1.49-1.4,1.46-3.58-7.52,1.6-1.67ZM146,124.51l-1,1.63-6.25-.14,4.46,2.93-1,1.55-6.5-4.26,1.3-2,5.26,0-3.72-2.44,1-1.55Zm-4.32,6.65-.91,2.29-3.43.9-.34.86,2.64,1.08-.75,1.86-7.18-2.93,1.25-3.14a7.74,7.74,0,0,1,.51-1.08,2.54,2.54,0,0,1,.66-.74,2,2,0,0,1,.88-.4,1.91,1.91,0,0,1,1.06.15,2.31,2.31,0,0,1,1.15.9,3.08,3.08,0,0,1,.41,1.41Zm-6.15.89A1,1,0,0,0,135,132a.81.81,0,0,0-.46.26,1.56,1.56,0,0,0-.27.4c-.08.17-.16.36-.25.58l-.27.68,1.93.79.23-.57a6,6,0,0,0,.26-.77,1.19,1.19,0,0,0,0-.59,1.06,1.06,0,0,0-.22-.42A1.18,1.18,0,0,0,135.53,132Zm2.84,7.76-1.26,5.52-7.55-1.76,1.26-5.52,1.46.34-.81,3.56,1.3.3.75-3.3,1.46.34-.76,3.31,1.87.44.81-3.56ZM130.72,146l-.21,2.44,6.23.55-.17,2-6.23-.55-.21,2.44-1.49-.13.6-6.89Zm5.73,8.64.23,1.93-4.88,4,5.28-.66.22,1.84-7.69,1-.29-2.4,4.06-3.38-4.41.55-.22-1.84Zm1.3,8.74,1.25,4.41-1.32.38-.35-1.23-4.81,1.39.35,1.23-1.32.38-1.25-4.41,1.32-.38.35,1.23,4.81-1.39-.35-1.23Z"/><path class="cls-3" d="M221.94,189.22l-4,3.93-5.38-5.63,4-3.93,1,1.09-2.6,2.54.93,1,2.41-2.36,1,1.09L217,189.28l1.33,1.39,2.6-2.54Zm-8.2,7.47a4.79,4.79,0,0,1-1.44.74,3.36,3.36,0,0,1-1.46.13,3.42,3.42,0,0,1-1.4-.55,5.38,5.38,0,0,1-2-2.78,3.69,3.69,0,0,1-.11-1.53,3.48,3.48,0,0,1,.55-1.39,4.58,4.58,0,0,1,1.15-1.2,6.77,6.77,0,0,1,.75-.48,6.54,6.54,0,0,1,.67-.31,5.12,5.12,0,0,1,.64-.19l.53-.11,1.1,1.54-.18.14-.47,0a4.83,4.83,0,0,0-.61,0,3.48,3.48,0,0,0-.67.14,2.18,2.18,0,0,0-.64.33,2.42,2.42,0,0,0-.57.58,2,2,0,0,0-.31.78,2.21,2.21,0,0,0,.06.94,3.31,3.31,0,0,0,.54,1.08,3.18,3.18,0,0,0,.88.88,2.12,2.12,0,0,0,.87.32,1.86,1.86,0,0,0,.81-.09,2.57,2.57,0,0,0,.7-.36,2.45,2.45,0,0,0,.52-.52,2.87,2.87,0,0,0,.36-.63,4.58,4.58,0,0,0,.19-.55c.05-.18.09-.33.12-.46l.17-.12,1.09,1.51-.31.53a4.46,4.46,0,0,1-.34.49,7.05,7.05,0,0,1-.48.56A5.9,5.9,0,0,1,213.74,196.69Zm-5.67,3.64-1.74.82-5.23-3.47,2.25,4.87-1.66.78-3.27-7.1,2.16-1,4.44,2.86L203.13,194l1.66-.78Zm-9.18,4-5.39,1.56-2.14-7.53,5.39-1.56.41,1.46-3.48,1,.37,1.3,3.23-.93.41,1.46-3.23.93.53,1.86,3.48-1Zm-7.53,2.06-2.43.21-2.35-2.68-.92.08.25,2.86-2,.17-.68-7.8,3.34-.3a7.46,7.46,0,0,1,1.18,0,2.51,2.51,0,0,1,1,.26,2.05,2.05,0,0,1,.75.62,2,2,0,0,1,.35,1,2.36,2.36,0,0,1-.27,1.44,3.06,3.06,0,0,1-1.05,1Zm-3.57-5.14a1,1,0,0,0-.16-.49.81.81,0,0,0-.44-.29,1.52,1.52,0,0,0-.48-.06l-.63,0-.72.06.18,2.1.61-.05a6,6,0,0,0,.8-.12,1.15,1.15,0,0,0,.52-.26,1.06,1.06,0,0,0,.27-.39A1.21,1.21,0,0,0,187.78,201.22ZM180.95,207l-5.58-.49.68-7.8,5.58.49-.13,1.51-3.6-.32-.12,1.35,3.34.3-.13,1.51-3.34-.3-.17,1.93,3.6.32Zm-6.7-6.94-3.46-.87-.35,1.41,3.21.81-.36,1.47-3.21-.81-.8,3.25-1.93-.49,1.87-7.6,5.39,1.36Zm-10.13,4-1.74-.82-.73-6.28-2.25,4.87-1.66-.78L161,194l2.16,1,.69,5.27,1.88-4.07,1.66.78Zm-10-7.21a2.35,2.35,0,0,0,.84-.43,4.1,4.1,0,0,0,.78-.84,3.87,3.87,0,0,0,.57-1.07,2.35,2.35,0,0,0,.12-.9,1.64,1.64,0,0,0-.23-.73A1.95,1.95,0,0,0,155,192a1.66,1.66,0,0,0-.76,0,2.2,2.2,0,0,0-.82.41,4.46,4.46,0,0,0-1.4,1.93,2.39,2.39,0,0,0-.13.9,1.63,1.63,0,0,0,.23.73,1.9,1.9,0,0,0,.51.55,1.84,1.84,0,0,0,.68.31A1.62,1.62,0,0,0,154.08,196.86Zm3.3,0a4,4,0,0,1-2.59,1.78,3.88,3.88,0,0,1-3-.85,4,4,0,0,1-1.73-2.63,4.11,4.11,0,0,1,.87-3,4,4,0,0,1,2.59-1.78,3.88,3.88,0,0,1,3,.85,4,4,0,0,1,1.73,2.63A4.1,4.1,0,0,1,157.37,196.83Zm-12.58-4.88a4.86,4.86,0,0,1-1-1.31,3.44,3.44,0,0,1-.38-1.43,3.49,3.49,0,0,1,.29-1.49,5,5,0,0,1,1-1.47,4.84,4.84,0,0,1,1.36-1,3.57,3.57,0,0,1,1.47-.37,3.38,3.38,0,0,1,1.45.3,4.56,4.56,0,0,1,1.37.94,6.93,6.93,0,0,1,.6.66,6.48,6.48,0,0,1,.42.61,5.23,5.23,0,0,1,.3.6c.08.19.15.36.2.51l-1.31,1.37-.16-.16c0-.13,0-.29-.06-.47a4.91,4.91,0,0,0-.13-.6A3.56,3.56,0,0,0,150,188a2.2,2.2,0,0,0-.43-.58,2.39,2.39,0,0,0-.67-.47,2,2,0,0,0-.81-.17,2.13,2.13,0,0,0-.9.22,3.27,3.27,0,0,0-1,.73,3.2,3.2,0,0,0-.7,1,2.19,2.19,0,0,0-.16.92,1.93,1.93,0,0,0,.22.79,2.61,2.61,0,0,0,.47.63,2.46,2.46,0,0,0,.59.43,2.79,2.79,0,0,0,.68.25,4.56,4.56,0,0,0,.57.1l.46,0,.15.15-1.29,1.35-.57-.21a4.53,4.53,0,0,1-.54-.25,6.91,6.91,0,0,1-.63-.38A5.9,5.9,0,0,1,144.79,191.94Z"/></svg>