<svg id="IEDRA" xmlns="http://www.w3.org/2000/svg" xmlns:xlink="http://www.w3.org/1999/xlink" viewBox="0 0 364 306"><defs><clipPath id="clip-path"><ellipse cx="181.81" cy="153.41" rx="45.67" ry="46.73" style="fill:none"/></clipPath></defs><title>IEDRA-01</title><g id="Layer_39" data-name="Layer 39"><path d="M161.48,197.26l1,.47-2.78,6.05-1-.47Z" style="fill:#da1727"/><path d="M155.77,194.14l1,.57.14,5.54,2.37-4.09,1,.57-3.33,5.77-1-.57-.14-5.56-2.37,4.11-1-.56Z" style="fill:#da1727"/><path d="M154.73,193.43l-4,5.29-1.53-1.17a3,3,0,0,1-1-1.24,2.66,2.66,0,0,1-.15-1.51,3.61,3.61,0,0,1,.71-1.54l.2-.27a3.6,3.6,0,0,1,1.3-1.1,2.63,2.63,0,0,1,1.51-.24,3.1,3.1,0,0,1,1.48.64Zm-4.37,3.87,2.91-3.82-.59-.45a1.68,1.68,0,0,0-1.43-.37,2.52,2.52,0,0,0-1.38,1l-.22.29a2.59,2.59,0,0,0-.64,1.59,1.62,1.62,0,0,0,.71,1.27Z" style="fill:#da1727"/><path d="M149.19,188.9l.83.76-4.49,4.92-.83-.76Z" style="fill:#da1727"/><path d="M144.52,186.31l1.7,1.86,1.5-.66.79.87-6.57,2.68-.68-.75,3.25-6.31.8.87Zm.8,2.25L144,187.17l-1.4,2.56Z" style="fill:#da1727"/><path d="M141.13,179.24l.65.92-2.19,5.09,3.86-2.72.65.92-5.44,3.83-.65-.92,2.2-5.11L136.33,184l-.65-.92Z" style="fill:#da1727"/><path d="M135,174l1.16,2.41,1.85-.89-1.35-2.81.83-.4,1.84,3.83-6,2.89-1.83-3.8.84-.4,1.34,2.79,1.66-.8-1.16-2.41Z" style="fill:#da1727"/><path d="M133.51,167.52a2.43,2.43,0,0,1,1.82.18,2.58,2.58,0,0,1,1.15,1.49,2.49,2.49,0,0,1,.09,1.42,2.46,2.46,0,0,1-.71,1.22,3.94,3.94,0,0,1-1.41.85l-.59.21a4,4,0,0,1-1.68.24,2.5,2.5,0,0,1-1.35-.52,2.56,2.56,0,0,1-.83-1.2,2.48,2.48,0,0,1,0-1.83,2.52,2.52,0,0,1,1.34-1.28l.37,1.06a1.67,1.67,0,0,0-.84.73,1.33,1.33,0,0,0,0,1,1.31,1.31,0,0,0,.89.89,2.81,2.81,0,0,0,1.66-.15l.56-.19a3,3,0,0,0,1.43-.9,1.24,1.24,0,0,0,.17-1.23,1.44,1.44,0,0,0-.62-.84,1.62,1.62,0,0,0-1.1-.06Z" style="fill:#da1727"/><path d="M131.14,161.47a4.17,4.17,0,0,1,1.75,0,2.62,2.62,0,0,1,1.9,3.45,2.58,2.58,0,0,1-.9,1.17,4,4,0,0,1-1.58.69l-.37.08a4.13,4.13,0,0,1-1.75,0,2.58,2.58,0,0,1-1.31-.69,2.54,2.54,0,0,1-.68-1.29,2.49,2.49,0,0,1,1-2.62,4.13,4.13,0,0,1,1.6-.69Zm-.1,1.18a3,3,0,0,0-1.57.75,1.42,1.42,0,0,0,.48,2.25,2.91,2.91,0,0,0,1.71.07l.38-.08a2.94,2.94,0,0,0,1.57-.76,1.33,1.33,0,0,0,.34-1.26,1.32,1.32,0,0,0-.81-1,3,3,0,0,0-1.76,0Z" style="fill:#da1727"/><path d="M133.66,154.64l.09,1.13L129.28,159l4.71-.39.09,1.13-6.64.55-.09-1.13,4.49-3.29-4.73.39-.09-1.12Z" style="fill:#da1727"/><path d="M130.72,148a4.17,4.17,0,0,1,1.7.41,2.62,2.62,0,0,1,1,3.81,2.58,2.58,0,0,1-1.17.9,4,4,0,0,1-1.7.27l-.37,0a4.14,4.14,0,0,1-1.7-.41,2.58,2.58,0,0,1-1.1-1,2.57,2.57,0,0,1,1.29-3.71,4.12,4.12,0,0,1,1.72-.26Zm-.4,1.11a3,3,0,0,0-1.71.33,1.42,1.42,0,0,0-.1,2.3,2.9,2.9,0,0,0,1.64.5l.38,0a2.94,2.94,0,0,0,1.71-.34,1.34,1.34,0,0,0,.65-1.13,1.32,1.32,0,0,0-.53-1.18,3,3,0,0,0-1.69-.48Z" style="fill:#da1727"/><path d="M127.67,144.49l5.37-.89-4.67-2.79.27-1.44,6.54,1.24-.21,1.11-2.16-.41-2.86-.66,4.69,2.84-.15.79-5.4.93,2.9.44,2.16.41-.21,1.11-6.54-1.24Z" style="fill:#da1727"/><path d="M136,138.26l-.33,1.08-6.37-1.93.33-1.08Z" style="fill:#da1727"/><path d="M136.19,131.54a2.43,2.43,0,0,1,1.26,1.33,2.58,2.58,0,0,1-.11,1.88,2.49,2.49,0,0,1-.86,1.13,2.46,2.46,0,0,1-1.34.45,4,4,0,0,1-1.62-.29l-.58-.23a4,4,0,0,1-1.42-.92,2.5,2.5,0,0,1-.68-1.28,2.57,2.57,0,0,1,.16-1.45,2.48,2.48,0,0,1,1.2-1.39,2.52,2.52,0,0,1,1.85-.08l-.42,1a1.66,1.66,0,0,0-1.11,0,1.33,1.33,0,0,0-.65.77,1.31,1.31,0,0,0,.09,1.26,2.81,2.81,0,0,0,1.35,1l.55.22a3,3,0,0,0,1.67.26,1.24,1.24,0,0,0,.94-.81,1.44,1.44,0,0,0,.09-1,1.62,1.62,0,0,0-.79-.77Z" style="fill:#da1727"/><path d="M139.71,129.43,134,125.94l1-1.64a3,3,0,0,1,1.14-1.1,2.66,2.66,0,0,1,1.49-.3,3.62,3.62,0,0,1,1.6.55l.28.17a3.6,3.6,0,0,1,1.23,1.19,2.62,2.62,0,0,1,.39,1.47,3.09,3.09,0,0,1-.49,1.53Zm-4.29-4,4.09,2.51.39-.63a1.68,1.68,0,0,0,.23-1.46,2.52,2.52,0,0,0-1.14-1.27l-.32-.19A2.59,2.59,0,0,0,137,124a1.61,1.61,0,0,0-1.19.84Z" style="fill:#da1727"/><path d="M142.88,119.61l-1.65,2.1,1.61,1.26,1.92-2.46.73.57-2.62,3.35-5.25-4.1,2.6-3.33.74.57-1.9,2.44,1.45,1.13,1.65-2.1Z" style="fill:#da1727"/><path d="M146.64,117.79,144.07,113l.87-.89,3.12,6.33-.77.78-6.39-3,.87-.88Z" style="fill:#da1727"/><path d="M151.31,111.62l-2.07,1.68,1.29,1.59,2.42-2,.58.72-3.3,2.68-4.2-5.17,3.28-2.66.59.72-2.4,1.95,1.16,1.43,2.07-1.68Z" style="fill:#da1727"/><path d="M154.7,111.76l2.47-1.61.51.77-3.42,2.23-3.64-5.58.95-.62Z" style="fill:#da1727"/><path d="M161.34,105.48a4.17,4.17,0,0,1,.48,1.68,2.62,2.62,0,0,1-2.85,2.71,2.58,2.58,0,0,1-1.36-.57,4,4,0,0,1-1.07-1.35l-.17-.33a4.13,4.13,0,0,1-.48-1.69,2.58,2.58,0,0,1,.33-1.45,2.57,2.57,0,0,1,3.87-.7,4.12,4.12,0,0,1,1.07,1.37Zm-1.17.2a3,3,0,0,0-1.13-1.33,1.42,1.42,0,0,0-2.06,1,2.91,2.91,0,0,0,.37,1.67l.17.34a2.94,2.94,0,0,0,1.14,1.33,1.34,1.34,0,0,0,1.31,0,1.32,1.32,0,0,0,.77-1,3,3,0,0,0-.41-1.71Z" style="fill:#da1727"/><path d="M164,105.2l.83,2.33-1.06.38-2.23-6.27,2.34-.83a2.48,2.48,0,0,1,1.83,0A2,2,0,0,1,166.8,102a1.91,1.91,0,0,1-.08,1.65,2.6,2.6,0,0,1-1.47,1.1Zm-.31-.88,1.28-.46a1.32,1.32,0,0,0,.77-.58,1.08,1.08,0,0,0,0-.9,1.17,1.17,0,0,0-.59-.7,1.22,1.22,0,0,0-.94,0l-1.31.47Z" style="fill:#da1727"/><path d="M169.28,99.17l2.85,4.63.83-5.37,1.43-.29,1.31,6.53-1.1.22-.43-2.15-.47-2.9-.87,5.41-.79.16-2.89-4.65.69,2.85.43,2.15-1.1.22-1.31-6.53Z" style="fill:#da1727"/><path d="M180.55,101.4l-2.67.17.13,2,3.12-.19.06.92-4.24.27L176.53,98l4.21-.26.06.93-3.09.19.11,1.84,2.67-.17Z" style="fill:#da1727"/><path d="M187.2,104.62l-1.13-.06-2.63-4.88-.27,4.72-1.13-.06.38-6.65,1.13.06,2.63,4.9.27-4.74,1.12.06Z" style="fill:#da1727"/><path d="M194,100l-2-.36-1,5.64-1.1-.2,1-5.64-2-.36.17-.92,5.08.92Z" style="fill:#da1727"/><path d="M196,104.58a1.55,1.55,0,0,1,.51-.72,3.89,3.89,0,0,1,1.22-.54,4.19,4.19,0,0,1-.22-1,1.76,1.76,0,0,1,.93-1.69,1.71,1.71,0,0,1,1.33,0,1.63,1.63,0,0,1,1,.79,1.4,1.4,0,0,1,.07,1.15,1.48,1.48,0,0,1-.45.65,2.45,2.45,0,0,1-.87.43l-.53.16.68,1.85a2.72,2.72,0,0,0,.67-1.06l.89.31a3.38,3.38,0,0,1-1.2,1.71l.51,1.41-1.19-.42-.2-.54a2.65,2.65,0,0,1-1.75-.05,2.21,2.21,0,0,1-1.28-1A1.75,1.75,0,0,1,196,104.58Zm1.69,1.66a1.63,1.63,0,0,0,1.09,0l-.77-2.09-.16,0a1.19,1.19,0,0,0-.82.72,1,1,0,0,0,0,.8A1.05,1.05,0,0,0,197.73,106.24Zm.87-4.24a1.72,1.72,0,0,0,.11,1.06l.58-.16.17-.06a.83.83,0,0,0,.48-.52.59.59,0,0,0,0-.48.67.67,0,0,0-.4-.34.63.63,0,0,0-.55,0A.82.82,0,0,0,198.6,102Z" style="fill:#da1727"/><path d="M206.54,108.28l-1.1-.61-1.25,2.24-1-.55,3.24-5.82,2,1.11a2.62,2.62,0,0,1,1.27,1.3,1.85,1.85,0,0,1-.2,1.61,1.9,1.9,0,0,1-.82.82,2,2,0,0,1-1.1.18l-.08,3.13,0,.05-1.06-.59Zm-.65-1.43,1,.57a1.27,1.27,0,0,0,.92.18,1,1,0,0,0,.67-.55,1.11,1.11,0,0,0,.14-.87,1.24,1.24,0,0,0-.63-.7l-1-.58Z" style="fill:#da1727"/><path d="M212.91,112l-2.17-1.55-1.19,1.67,2.54,1.81-.54.75-3.46-2.47,3.87-5.42,3.43,2.45-.54.76-2.51-1.8-1.07,1.5,2.17,1.55Z" style="fill:#da1727"/><path d="M215.91,116.2a.81.81,0,0,0,.23-.71,3.57,3.57,0,0,0-.49-1.08,5.17,5.17,0,0,1-.57-1.24,1.71,1.71,0,0,1,.33-1.7,1.63,1.63,0,0,1,1.36-.56,2.55,2.55,0,0,1,1.59.72,2.75,2.75,0,0,1,.73,1,2,2,0,0,1,.14,1.1,1.91,1.91,0,0,1-.47,1l-.84-.75a1.05,1.05,0,0,0,.31-.82,1.3,1.3,0,0,0-.48-.83,1.36,1.36,0,0,0-.8-.39.82.82,0,0,0-.68.3.73.73,0,0,0-.16.68,3.72,3.72,0,0,0,.5,1.08,5,5,0,0,1,.56,1.21,2,2,0,0,1,.05,1,1.8,1.8,0,0,1-.44.81,1.6,1.6,0,0,1-1.35.57,2.66,2.66,0,0,1-1.59-.76,3.13,3.13,0,0,1-.79-1.06,2.2,2.2,0,0,1-.19-1.16,1.88,1.88,0,0,1,.49-1l.84.75a1.09,1.09,0,0,0-.31.9,1.58,1.58,0,0,0,.58.93,1.37,1.37,0,0,0,.82.41A.79.79,0,0,0,215.91,116.2Z" style="fill:#da1727"/><path d="M221,119.75l-1.79-2-1.52,1.37,2.09,2.32-.69.62-2.84-3.16,5-4.45,2.82,3.14-.69.62-2.07-2.3-1.37,1.23,1.79,2Z" style="fill:#da1727"/><path d="M223,124.81l-1.46-2.05-1.57.47-.68-1,6.85-1.86.59.83-4,5.87-.68-1Zm-.52-2.34,1.09,1.54,1.71-2.37Z" style="fill:#da1727"/><path d="M226.45,128.58l-.6-1.11-2.25,1.23-.54-1,5.85-3.19,1.09,2a2.62,2.62,0,0,1,.38,1.77,1.85,1.85,0,0,1-1,1.25,1.91,1.91,0,0,1-1.13.26,2,2,0,0,1-1-.44L225.46,132l-.05,0-.58-1.06Zm.22-1.55.56,1a1.27,1.27,0,0,0,.69.64,1,1,0,0,0,.86-.1,1.11,1.11,0,0,0,.58-.66,1.25,1.25,0,0,0-.16-.92l-.57-1Z" style="fill:#da1727"/><path d="M229.55,136.48a2.43,2.43,0,0,1-1.83-.1,2.58,2.58,0,0,1-1.22-1.43,2.49,2.49,0,0,1-.16-1.41,2.46,2.46,0,0,1,.66-1.25,4,4,0,0,1,1.38-.91l.58-.23a4,4,0,0,1,1.66-.31,2.49,2.49,0,0,1,1.38.46,2.56,2.56,0,0,1,.89,1.16,2.48,2.48,0,0,1,.09,1.83,2.52,2.52,0,0,1-1.29,1.34l-.42-1a1.67,1.67,0,0,0,.81-.76,1.33,1.33,0,0,0-.06-1,1.31,1.31,0,0,0-.93-.85,2.81,2.81,0,0,0-1.65.23l-.55.22a3,3,0,0,0-1.39,1,1.24,1.24,0,0,0-.12,1.24,1.44,1.44,0,0,0,.66.81,1.62,1.62,0,0,0,1.1,0Z" style="fill:#da1727"/><path d="M229.13,143.17l-.28-1.09,2.86-.74-.73-2.81-2.86.74-.29-1.09,6.45-1.68.28,1.09-2.68.7.73,2.81,2.68-.7.28,1.09Z" style="fill:#da1727"/><path d="M231.55,150.22l-.2-2.51-1.59-.4-.09-1.17L236.5,148l.08,1-6.44,3-.1-1.18Zm.75-2.27.15,1.88,2.68-1.16Z" style="fill:#da1727"/><path d="M231.71,156.17a.81.81,0,0,0,.69-.28,3.57,3.57,0,0,0,.52-1.07,5.15,5.15,0,0,1,.58-1.23,1.71,1.71,0,0,1,1.52-.84,1.64,1.64,0,0,1,1.3.69,2.55,2.55,0,0,1,.46,1.68,2.75,2.75,0,0,1-.3,1.2,2,2,0,0,1-.76.81,1.91,1.91,0,0,1-1.06.27l0-1.12a1.06,1.06,0,0,0,.83-.29,1.3,1.3,0,0,0,.33-.9,1.35,1.35,0,0,0-.21-.87.81.81,0,0,0-.67-.33.73.73,0,0,0-.62.31,3.75,3.75,0,0,0-.51,1.07,5,5,0,0,1-.57,1.2,2,2,0,0,1-.7.65,1.8,1.8,0,0,1-.9.18,1.6,1.6,0,0,1-1.3-.67,2.65,2.65,0,0,1-.43-1.71,3.12,3.12,0,0,1,.31-1.29,2.2,2.2,0,0,1,.77-.89,1.87,1.87,0,0,1,1.11-.29l0,1.13a1.09,1.09,0,0,0-.89.34,1.58,1.58,0,0,0-.35,1,1.38,1.38,0,0,0,.21.89A.8.8,0,0,0,231.71,156.17Z" style="fill:#da1727"/><path d="M231.06,161.8a.81.81,0,0,0,.71-.2,3.59,3.59,0,0,0,.63-1,5.18,5.18,0,0,1,.71-1.16,1.71,1.71,0,0,1,1.6-.67,1.64,1.64,0,0,1,1.22.83,2.55,2.55,0,0,1,.28,1.72,2.74,2.74,0,0,1-.43,1.16,2,2,0,0,1-.84.72,1.92,1.92,0,0,1-1.08.15l.16-1.11a1.06,1.06,0,0,0,.85-.2,1.3,1.3,0,0,0,.42-.86,1.35,1.35,0,0,0-.12-.89.81.81,0,0,0-.63-.4.73.73,0,0,0-.65.24,3.76,3.76,0,0,0-.63,1,4.92,4.92,0,0,1-.7,1.13,2,2,0,0,1-.77.57,1.79,1.79,0,0,1-.92.08,1.6,1.6,0,0,1-1.22-.81,2.65,2.65,0,0,1-.24-1.74,3.11,3.11,0,0,1,.45-1.25,2.18,2.18,0,0,1,.86-.8,1.86,1.86,0,0,1,1.13-.17l-.16,1.12a1.09,1.09,0,0,0-.92.24,1.58,1.58,0,0,0-.46,1,1.37,1.37,0,0,0,.11.91A.8.8,0,0,0,231.06,161.8Z" style="fill:#da1727"/><path d="M230.71,169.4a4.17,4.17,0,0,1-1.57-.77,2.48,2.48,0,0,1-.86-2.68,2.51,2.51,0,0,1,2.09-1.89,4,4,0,0,1,1.72.11l.36.1a4.13,4.13,0,0,1,1.57.77,2.58,2.58,0,0,1,.85,1.22,2.57,2.57,0,0,1-2.06,3.34,4.14,4.14,0,0,1-1.74-.12Zm.63-1a3,3,0,0,0,1.75,0,1.42,1.42,0,0,0,.6-2.22,2.91,2.91,0,0,0-1.5-.84l-.37-.1a2.94,2.94,0,0,0-1.75,0,1.33,1.33,0,0,0-.88,1,1.32,1.32,0,0,0,.26,1.27,3,3,0,0,0,1.55.84Z" style="fill:#da1727"/><path d="M227.43,175a2.43,2.43,0,0,1-1.25-1.34,2.58,2.58,0,0,1,.12-1.88,2.41,2.41,0,0,1,2.21-1.56,4,4,0,0,1,1.62.3l.58.24a4,4,0,0,1,1.41.93,2.5,2.5,0,0,1,.67,1.29,2.57,2.57,0,0,1-.17,1.45,2.48,2.48,0,0,1-1.21,1.38,2.52,2.52,0,0,1-1.85.07l.43-1a1.67,1.67,0,0,0,1.11,0,1.34,1.34,0,0,0,.66-.77,1.31,1.31,0,0,0-.08-1.26,2.81,2.81,0,0,0-1.34-1l-.55-.22a3,3,0,0,0-1.67-.27,1.24,1.24,0,0,0-.94.81,1.44,1.44,0,0,0-.09,1,1.61,1.61,0,0,0,.78.78Z" style="fill:#da1727"/><path d="M224.39,176.08l.52-1,5.92,3-.52,1Z" style="fill:#da1727"/><path d="M223.09,181.29l1.35-2.13-1-1.28.63-1,4.3,5.64-.54.86-6.94-1.49.63-1Zm2-1.36-1,1.59,2.84.69Z" style="fill:#da1727"/><path d="M222.3,189.23l1.26-1.59-4.48-3.57.7-.88,4.48,3.57,1.25-1.57.73.58-3.21,4Z" style="fill:#da1727"/><path d="M216.38,187.13l.77-.82,4.85,4.57-.77.82Z" style="fill:#da1727"/><path d="M213.68,193.93a4.17,4.17,0,0,1-.89-1.51,2.62,2.62,0,0,1,2.07-3.35,2.58,2.58,0,0,1,1.46.21,4,4,0,0,1,1.38,1l.25.28a4.12,4.12,0,0,1,.89,1.51,2.58,2.58,0,0,1,0,1.48,2.54,2.54,0,0,1-.79,1.23,2.49,2.49,0,0,1-2.77.43,4.13,4.13,0,0,1-1.39-1.05Zm1.08-.49a3,3,0,0,0,1.43,1,1.42,1.42,0,0,0,1.73-1.53,2.91,2.91,0,0,0-.79-1.52l-.25-.29a2.93,2.93,0,0,0-1.44-1,1.33,1.33,0,0,0-1.26.32,1.32,1.32,0,0,0-.48,1.2,3,3,0,0,0,.83,1.55Z" style="fill:#da1727"/><path d="M206.48,195.09l.94-.63,5,2.29-2.64-3.92.94-.63,3.73,5.52-.94.63-5.06-2.3,2.65,3.93-.93.63Z" style="fill:#da1727"/><ellipse cx="182" cy="153" rx="60.27" ry="59.96" style="fill:none;stroke:#5b4987;stroke-miterlimit:10;stroke-width:1.856693049975593px"/><circle cx="181.75" cy="205.73" r="3.56" transform="translate(-92.74 208.81) rotate(-49.18)" style="fill:#3d3063"/><g style="clip-path:url(#clip-path)"><rect x="108.39" y="111.26" width="146.22" height="4.74" style="fill:none;stroke:#5b4987;stroke-miterlimit:10;stroke-width:1.8296827726696776px"/><rect x="108.39" y="116" width="146.22" height="4.74" style="fill:none;stroke:#5b4987;stroke-miterlimit:10;stroke-width:1.8296827726696776px"/><rect x="108.39" y="120.74" width="146.22" height="4.74" style="fill:none;stroke:#5b4987;stroke-miterlimit:10;stroke-width:1.8296827726696776px"/><rect x="108.39" y="125.49" width="146.22" height="4.74" style="fill:none;stroke:#5b4987;stroke-miterlimit:10;stroke-width:1.8296827726696776px"/><rect x="108.39" y="130.23" width="146.22" height="4.74" style="fill:none;stroke:#5b4987;stroke-miterlimit:10;stroke-width:1.8296827726696776px"/><rect x="108.39" y="134.97" width="146.22" height="4.74" style="fill:none;stroke:#5b4987;stroke-miterlimit:10;stroke-width:1.8296827726696776px"/><rect x="108.39" y="139.72" width="146.22" height="4.74" style="fill:none;stroke:#5b4987;stroke-miterlimit:10;stroke-width:1.8296827726696776px"/><rect x="108.39" y="144.46" width="146.22" height="4.74" style="fill:none;stroke:#5b4987;stroke-miterlimit:10;stroke-width:1.8296827726696776px"/><rect x="108.39" y="149.2" width="146.22" height="4.74" style="fill:none;stroke:#5b4987;stroke-miterlimit:10;stroke-width:1.8296827726696776px"/><rect x="108.39" y="153.95" width="146.22" height="4.74" style="fill:none;stroke:#5b4987;stroke-miterlimit:10;stroke-width:1.8296827726696776px"/><rect x="108.39" y="158.69" width="146.22" height="4.74" style="fill:none;stroke:#5b4987;stroke-miterlimit:10;stroke-width:1.8296827726696776px"/><rect x="108.39" y="163.44" width="146.22" height="4.74" style="fill:none;stroke:#5b4987;stroke-miterlimit:10;stroke-width:1.8296827726696776px"/><rect x="108.39" y="168.18" width="146.22" height="4.74" style="fill:none;stroke:#5b4987;stroke-miterlimit:10;stroke-width:1.8296827726696776px"/><rect x="108.39" y="172.92" width="146.22" height="4.74" style="fill:none;stroke:#5b4987;stroke-miterlimit:10;stroke-width:1.8296827726696776px"/><rect x="108.39" y="177.67" width="146.22" height="4.74" style="fill:none;stroke:#5b4987;stroke-miterlimit:10;stroke-width:1.8296827726696776px"/><rect x="108.39" y="182.41" width="146.22" height="4.74" style="fill:none;stroke:#5b4987;stroke-miterlimit:10;stroke-width:1.8296827726696776px"/><rect x="108.39" y="187.15" width="146.22" height="4.74" style="fill:none;stroke:#5b4987;stroke-miterlimit:10;stroke-width:1.8296827726696776px"/><rect x="108.39" y="191.9" width="146.22" height="4.74" style="fill:none;stroke:#5b4987;stroke-miterlimit:10;stroke-width:1.8296827726696776px"/></g><path d="M164.87,127.82c.47,0,.49.7,0,.72-.14,0-.42-.12-.53-.06s-.31.37-.59.42-.35.2-.57.44-.22.24,0,.51a1.47,1.47,0,0,1,.15.67c0,.28-.41.31-.26.67s0,.16-.2.28-.26.44-.39.63c-.27.39-.86.56-1,1-.05.19.14.54-.06.68a2.06,2.06,0,0,1-.63.32c-.21.06-.5,0-.66.2s-.23.68-.35,1a2.13,2.13,0,0,1-.45.64c-.21.25-.33.57-.56.81s-.34.46-.49.52-.58-.21-.78.08a2.6,2.6,0,0,1-.47.59c-.23.2-.2.51-.37.73s-.43.25-.64.4-.15.4-.27.62-1,0-1.32.09a3,3,0,0,0-.88.13c-.14.07-.49.36-.58.19a.89.89,0,0,1-.05-.66c0-.19.13-.37-.14-.36a2.1,2.1,0,0,0-1.74.83c-.27.33-.36.61-.76.82a2.71,2.71,0,0,0-.91.6c-.32.4-.24,1.69.4,1.79.34.05.54.31.91.3s.16.39,0,.62a1.05,1.05,0,0,0-.23.93,2.68,2.68,0,0,0,.56,1,.68.68,0,0,0,.65.13c.5-.06.11.27.19.59.19.76,1.1,2,.59,2.75-.11.16-.2.09-.25.32s-.17,0-.29,0,0-.67-.25-.66-.66.24-1,.28c-.13,0-.34-.08-.44,0a.62.62,0,0,0-.09.44,3.2,3.2,0,0,1-.69-.13c-.24-.1-.32-.4-.56-.5s-.41.13-.63.19-.71-.17-1-.24-.43-.2-.63-.13a.54.54,0,0,0-.25.58c.05.18,0,.47-.28.38s-.22,0-.34,0-.22-.18-.37-.22c-.55-.14-.47.72-.56,1s-.42.29-.16.52c.07.06.17.21.27.23s.17-.09.24,0c.22.28.58.49.66.85a1.9,1.9,0,0,0,.91,1,7.85,7.85,0,0,0,1.35.69,3,3,0,0,0,.77.06c.36,0,.05-.46.45-.3a.79.79,0,0,0,.75-.06c.14-.12.28-.22.47-.08s-.4.42-.43.45c-.26.2-.51.06-.78.21a7.09,7.09,0,0,0-.69.26c-.24.17-.42-.11-.65,0s-.42.25-.5.1-.11-.39-.41-.41a.67.67,0,0,0-.69.76c0,.54.61,1,1,1.39s.75.8,1.1,1.24a13.93,13.93,0,0,0,1,1.44c.21.21.51.26.62.54s.45.28.73.4.4.42.7.24c.09-.05.22-.2.34-.18a.85.85,0,0,0,.47,0c.22-.07.61-.06.79-.2a1.18,1.18,0,0,1,.73-.3.61.61,0,0,0,.51-.27c.16-.2.58-.06.74-.33.07-.12.09-.26.17-.38s.29-.25.4-.4,0-.49-.11-.72.06-.12.12-.16.05-.25,0-.38a.61.61,0,0,1,.27-.8c-.07,0-.06.44-.06.51,0,.38.17.19.41.24.08,0-.37.33-.38.41,0,.39.26.4.52.44-.11,0-.19.23-.19.32s0,.15-.13.24a.47.47,0,0,0-.19.5c0,.27.21.27.32.47s-.12.21,0,.39.11.4.21.66a.9.9,0,0,1,.1.41c0,.26-.41.35-.45.63a2.12,2.12,0,0,1-.27,1c-.34.43.29.66.12,1s0,.3.1.52-.06.43-.06.63.13.48.14.71-.21.34,0,.63-.08.28-.11.42.18.36.31.43-.06.33,0,.5.27.17.3.38.25.6.26,1c0,.07-.14.42-.09.46.25.21.13.21.19.51l.11.1c0,.11-.07.28-.07.41s.05.52.07.78a3.62,3.62,0,0,0,.32,1.58c.1.21.1.45.2.66s.18.54.27.56.15.31.18.43,0,.26.12.31.23,0,.29.06-.53.17-.1.44.22.59.41.84.25,0,.26.22,0,.32,0,.36.39,0,.39.19-.1.23,0,.38a1.71,1.71,0,0,1,.43.85,1.25,1.25,0,0,0-.09.18.7.7,0,0,0,.15.36,4.05,4.05,0,0,1,.24.61,1.05,1.05,0,0,1,.18.54,4.68,4.68,0,0,0,0,.74,8.26,8.26,0,0,0,.05.83c0,.14.21.19.26.32s-.09.39.12.5.14.28.16.37a8.43,8.43,0,0,0,.34,1,1.23,1.23,0,0,0,.26.41c.12.12.36.08.44.21a6,6,0,0,0,.63.79c.11.12.08.35.16.5a2.44,2.44,0,0,0,.28.49c.14.17,0,.39.18.55a.86.86,0,0,1,.17.57c0,.17.15.24.17.4s-.05.39,0,.53.13.39.28.46,0,.37.12.4.1-.08.15-.08.11.17.14.21.45.54.29.51-.23-.35-.44-.36,0,.44,0,.55a5.09,5.09,0,0,1,.32,1.39c0,.22.21.33.25.52s-.14.46.1.65.19.37.26.57.45.37.63.6.29.49.56.44.15.18.26.36c.29.48.73.28,1.06.66.46.54.72.11,1.09-.19a2.85,2.85,0,0,1,1.2-.53c.3-.07.34-.78.32-1a1.26,1.26,0,0,1,0-.54c.06-.14.45-.42.6-.38.35.11.46,0,.78-.1s.44,0,.66-.06.49,0,.55-.11.2-.12.11-.21a3.19,3.19,0,0,0-.28-.31c-.51-.42-.07-.81.25-1.16a2.74,2.74,0,0,1,.55-.52c.09-.05-.25-.26-.06-.47s.31-.29.54-.2a1.34,1.34,0,0,0,.79.1c.16,0,.59-.05.68-.21s-.05-.13-.11-.18-.06-.28-.06-.39a2.07,2.07,0,0,0,0-.66,1.17,1.17,0,0,1-.07-.7,1,1,0,0,0,0-.74c-.09-.18-.27-.44-.05-.6s-.09-.33,0-.55a6.5,6.5,0,0,1,.22-.63.83.83,0,0,1,.37-.54c.07-.05.55-.44.55-.54s-.36-.32-.35-.46.5-.21.59-.29.22-.44.35-.61.11-.54.1-.83a.75.75,0,0,0-.37-.66c-.09-.06-.39-.17-.33-.32.13-.37.76.57.55-.12a7.48,7.48,0,0,0-.35-1c-.09-.19-.33-.48-.14-.69s.36-.22.32-.5c-.07-.46-.31-.86-.39-1.32a1.24,1.24,0,0,1,.36-1.18,1.66,1.66,0,0,0,.3-.62c0-.1.29-.22.37-.27a1.29,1.29,0,0,1,.49-.14c.36-.05.31.25.54.4s.69-.51.82-.68.15-.34.33-.38a5.4,5.4,0,0,0,.22-.74c.08-.23.48-.11.6,0a.63.63,0,0,0,.74.13c.25-.08.51-.22.77-.32a2.64,2.64,0,0,0,.79-.43c.16-.12.08-.63.06-.8s-.16-.23-.17-.37.2-.2.37-.29l.43-.24c.15-.09.24-.26.4-.34s.63-.11.92-.28.78-.45.81-.82a.89.89,0,0,1,.54-.9,11.62,11.62,0,0,0,1.2-.49c.39-.25.58-.74.87-1.07a2.23,2.23,0,0,1,.45-.46c.15-.09.33-.19.32-.4,0-.43.42-.41.56-.79s.46-.34.67-.52c.06,0,.18-.06.22-.09a1.49,1.49,0,0,0,.18-.45c.12,0,.18.15.32.15s.23-.1.35-.12.35-.25.56-.32a3.81,3.81,0,0,0,1.55-.7c.37-.41,1-.72.9-1.38,0-.14.27-.3.35-.39a1.06,1.06,0,0,0,.21-.79c0-.31-.31-.37-.45-.62s.2-.49.34-.62.62-.08.81-.29.55-.1.77-.14.4,0,.45-.21.06-.24.32-.32,0-.52.19-.52.08.48.14.58.52-.09.6-.09c.29,0,.38-.1.53-.33s.88.38,1.08-.07a1.16,1.16,0,0,0-.09-1.21,1.53,1.53,0,0,1-.15-.54.91.91,0,0,0-.16-.5c-.11-.21.05-.43,0-.65s-.12-.38.09-.67-.07-.49-.29-.56-.28,0-.25-.32a.62.62,0,0,0-.3-.65.36.36,0,0,1-.06-.62c.22-.22.19-.36.18-.64s.1-.48,0-.69c-.14-.41-.9,0-1.16-.27s-.69-.91-.16-1c.31,0,.39-.27.42-.54s.14-.23.34-.36,1.2.09,1.09-.52c-.06-.32,0-.39-.35-.49s-.09-.41-.33-.51-.5.2-.61,0-.32-.29-.44-.48-.22-.12-.34-.17,0-.43,0-.55c0-.33.34-.35.52-.59s.3.33.36.42.38.4.58.25,0-.4.16-.46.56.29.69.42.28.16.46.27.5,0,.73-.15.19.25.11.38,0,.42.17.57a7.54,7.54,0,0,1-.22.74c-.05.28.16.37.4.45a3.62,3.62,0,0,0,.7.18,2.36,2.36,0,0,1,.72.14c.43.16.62-.28,1-.16s.48,0,.83,0,.56.13.87.09.54.14.88,0a.75.75,0,0,1,.87.1,1.32,1.32,0,0,0-.19.2c-.05.13.08.2.08.33s-.07.15-.11.24,0,.27-.05.39-.19.15-.3.16c-.28,0-.16.37-.19.56-.49-.21-.79.35-1.18.49s-.63.76-.68,1.21.51,1,.4,1.58c0,.09-.09.76.15.65s.26.07.44-.19c-.2.27.44.54.65.42a1.57,1.57,0,0,0,.43-.27c.08-.11,0-.34,0-.47a1.32,1.32,0,0,1,.08-.62c.08-.13.2-.22.22-.38a.83.83,0,0,1,.07-.37c.22-.35.15,0,.3.1.32.19.19.29.19.62s.24.32.34.52-.07.51-.15.66.11.39.26.58.12.4.12.72c0,.13.12.19.12.33s-.06.26-.06.39.19.42.21.65-.1.44.13.66.32-.06.42-.21c0,0,.46.25.53.26.3.06.28-.36.34-.52s.25-.33.33-.5-.09-.45-.05-.7a4.55,4.55,0,0,0-.17-1.38c0-.21-.08-.48.24-.5s.37-.2.47-.52-.18-.42-.15-.68.27-.35.21-.68-.19-.59,0-.85.44.12.65.12.13-.12.22-.13.25.07.37.08a.6.6,0,0,0,.61-.22c.09-.18,0-.34,0-.52a3.15,3.15,0,0,1,.2-.75c.07-.12.22-.12.3-.22s0-.27.08-.4.33-.41.38-.69,0-.52.09-.78-.39-.25-.41-.44.42-.49.55-.61.24-.44.39-.65.12-.56.21-.82a1.47,1.47,0,0,0-.07-1c-.06-.21-.25-.56,0-.72s.41,0,.59-.17a1.65,1.65,0,0,0,.42-.57,1.75,1.75,0,0,1,.53-.62c.21-.17.27-.45.48-.62s.36-.12.54-.26.28,0,.46-.08.41-.23.62.06a.75.75,0,0,0,.61.35c.31,0,.32,0,.34-.28s-.61-.55-.7-1,.11-.33.35-.47.34-.37.51-.53.29-.28.13-.53c0-.07-.17-.11-.19-.2s.18-.26.12-.36-.37-.1-.46-.13a.58.58,0,0,0-.58,0c-.23.14-.45-.22-.65-.29s-.53.16-.73.21-.1-.22,0-.31a2.87,2.87,0,0,0,.48-.52c.09-.14.16-.35-.08-.39s-.18-.32-.19-.51-.44-.17-.46,0,.05.15-.07.21-.25,0-.24-.09.1-.27.33-.48.14-.46-.12-.5-.16,0-.3-.19c-.26-.34-.41-.25-.68,0a6.53,6.53,0,0,0-.67.56c-.13.13-.17.53-.36.55s-.42-.07-.69-.21-.37,0-.59-.11-.46-.16-.47-.34c0-.34-.31.14-.37.21s-.39.25-.59.39-.11.38-.22.53a3.37,3.37,0,0,0-.5.64c-.08.15-.49.12-.63.15s-.15.18-.26.17-.42-.14-.61,0-.22.39-.3.52.11.35,0,.44-.41.05-.58.13a1.26,1.26,0,0,0-.39.33c-.1.13-.32.17-.35.33s.21.36.08.48a2.15,2.15,0,0,1-.44.31c-.12.06-.24-.11-.37-.1a2.15,2.15,0,0,0-1.05.36c-.2.17-.53-.57-.78-.27-.1.12,0,.4,0,.57s.12.32.1.49.84.21,1,.25.39.19.27.39-.08.39-.11.66c0,.44-.58,0-.8.35-.07.13-.4,0-.53.08s-.42.09-.71.09c-.54,0-.93.44-1.45,0-.37-.28-.57-.24-1,0-.09.06-.2.17-.31.15s-.32-.1-.4,0,.06.37-.23.24a.45.45,0,0,1-.2-.2c-.11-.08-.3,0-.4-.09s0-.11-.09-.17-.54.27-.59.25-.35-.34-.52-.45a1.19,1.19,0,0,1-.37-.46c-.09-.15.26-.35.18-.56s-.14-.15-.23-.2,0-.18-.12-.24.25-.48.25-.61a.94.94,0,0,0-.15-.62c-.26-.43-.57-.46-.9-.11s-.21.16-.49.17c-.08,0-.41,0-.46.08a.35.35,0,0,0,0,.46c.23.28,0,.32-.12.54a1.69,1.69,0,0,0-.2.68c0,.22-.18.37-.21.59s.24.56.37.76a1.44,1.44,0,0,1,.1.92s0,.47-.16.33a.47.47,0,0,0-.48,0,3.3,3.3,0,0,1-1.14.11c-.32,0-.51-.33-.83-.39s-.33.16-.5.23a.94.94,0,0,1-.74-.11c-.16-.1-.22-.39-.45-.36s-.17.13-.3.11-.23-.15-.36-.19-.35.17-.55-.05-.14-.38-.39-.44-.31.2-.52.21-.33-.07-.53-.25-1-.25-1.07-.47a1.46,1.46,0,0,0-.19-.75c-.18-.28-.36-.12-.67-.16s-.18-.25-.3-.34a1.11,1.11,0,0,0-.57-.09,2.41,2.41,0,0,0-.73.33s-.4-.18-.44-.18a.45.45,0,0,0-.37.15s0,.17-.08.2a1.74,1.74,0,0,0-.45-.2,3.42,3.42,0,0,1-.67-.05c-.14-.06,0-.33,0-.43s-.47-.24-.69-.19-.34.25-.46,0a1.3,1.3,0,0,0-.59-.41c-.22-.09-.36-.18-.6-.06s-.31-.17-.57-.28-.48-.07-.53-.37c0-.1,0-.23-.1-.3s-.19,0-.16.13c-.46-.18-.47-.74-1-.81s-.75-.09-1-.52-.25,0-.47,0-.76-.42-.86-.51-.13-.31.08-.37.16-.21.18-.4.21-.24.23-.43-.12-.41,0-.63.24-.22.27-.48a.4.4,0,0,1,.14-.29,1.25,1.25,0,0,0,.33-.36c.12-.18.38-.12.49-.33s.62-.63.29-.8-.22-.33-.35-.51-.28-.08-.54-.11-.16-.28-.41-.16-.2-.2-.22-.32c0-.28-.33-.75-.69-.69-.2,0-.26-.2-.44-.25a2.69,2.69,0,0,0-.45-.06c-.28,0-.64-.09-.67-.44s-.13-.77-.53-.88-.56.53-.53.55a.35.35,0,0,1-.21-.33c0-.12-.15-.16-.15-.27s.51-.33.22-.61,0-.57-.06-.87c0-.11-.21-.22-.27-.32s0-.17,0-.29-.38-.12-.39-.19,0-.4,0-.6.06-.52.32-.37.19.28.31.6.32.47.55.39.17-.15.21-.41.34-.08.4-.25.44-.06.57-.12c.36-.18.49-.39.3-.77s-.8-.5-.47-1-.42-.63-.78-.63-.36-.06-.32-.43a1.15,1.15,0,0,1,.09-.39c.08-.15.27-.19.35-.33s-.11-.27-.12-.32c0-.2-.2,0-.32-.13s-.11-.2,0-.33.46,0,.76.08c.11,0,.51.24.52,0s.23-.22.31-.41a5.41,5.41,0,0,0,.17-.65c0-.12.4-.16.48-.18.31-.07,0-.35.18-.49s.37,0,.52-.1.16-.28.15-.53.16-.44.2-.66.29-.31.37-.49a1.41,1.41,0,0,0,0-.71c-.07-.22-.43-.35-.59-.49s-.27-.38-.7-.42a1.25,1.25,0,0,1-.7-.29c-.1-.11-.14-.35-.33-.27a3.82,3.82,0,0,1-.74.37c-.14,0-.67-.18-.7-.09-.14.45-.89.1-1.24.28s-.19.39-.4.5a2.49,2.49,0,0,1-.85.21.31.31,0,0,0-.24.12c-.06.06-.22,0-.28,0-.25,0-.18-.26-.25-.45-.17-.5-.51-.55-1-.51s-.62-.34-.74-.82c-.06-.22-.13-.27-.34-.37s-.25-.45-.5-.51a2.49,2.49,0,0,1-.72-.23c-.26-.14-.17-.36-.35-.52a2.24,2.24,0,0,1-.69-.78c-.11-.22-.12-.15-.32-.26s0-.34-.17-.4-.22,0-.48.12-.34-.19-.4,0-.37,0-.43-.06-.21-.28-.37-.13-.2.27-.36.24-.21-.27-.5-.09-.47.15-.54.27-.4-.05-.57-.07,0,.39-.35.48-.31-.07-.47-.14-.56.15-.85,0-.18.63-.55.6a.24.24,0,0,0-.26.28c.08.34-.23.14-.42.32s-.25.14-.48.22-.07.52,0,.63c.18.28-.15.77.45.72a2.61,2.61,0,0,1,.8,0,.43.43,0,0,1,.19.17c.12.18.3.29.42.46s.13.24.2.33c.24.28.32-.06.51-.11,0,0,.1.69.19.75a2.38,2.38,0,0,1,.33.35c.11.11.35,0,.47.13s.06.27,0,.31-.17.16-.28.3-.63,0-.79.37a4.41,4.41,0,0,1-.74.5c0,.13.12.21.09.37s-.1.33,0,.47.26.12.17.39-.29.14-.23.4.26.24.27.46a1.1,1.1,0,0,0,.16.75c-.14-.16-.21.55-.21.61,0,.33-.32.62,0,.93s1,.3,1.42.63c.15.11.28.46.48.45s.56,0,.62,0-.11.36-.07.47a.62.62,0,0,0,.38.33,3.16,3.16,0,0,0,.61.08C164.72,127.65,164.67,127.82,164.87,127.82Z" style="fill:#da1727"/><path d="M157.75,155.17h-2v-9.76h2Z" style="fill:#fff"/><path d="M165.66,150.94h-3.86v2.61h4.53v1.62h-6.54v-9.76h6.53V147h-4.52v2.33h3.86Z" style="fill:#fff"/><path d="M167.69,155.17v-9.76h3a4.56,4.56,0,0,1,2.3.58,4,4,0,0,1,1.58,1.65,5.09,5.09,0,0,1,.57,2.43v.45a5.1,5.1,0,0,1-.56,2.42,4,4,0,0,1-1.58,1.64,4.6,4.6,0,0,1-2.3.59Zm2-8.13v6.51h1a2.18,2.18,0,0,0,1.8-.77,3.48,3.48,0,0,0,.64-2.2v-.52a3.53,3.53,0,0,0-.62-2.25,2.18,2.18,0,0,0-1.8-.77Z" style="fill:#fff"/><path d="M180.4,151.6h-1.6v3.57h-2v-9.76h3.63a4.1,4.1,0,0,1,2.67.77,2.66,2.66,0,0,1,.94,2.18,3,3,0,0,1-.43,1.67,3,3,0,0,1-1.31,1.06l2.11,4v.09h-2.16ZM178.8,150h1.62a1.66,1.66,0,0,0,1.17-.39,1.38,1.38,0,0,0,.42-1.06,1.47,1.47,0,0,0-.39-1.09,1.63,1.63,0,0,0-1.2-.4H178.8Z" style="fill:#fff"/><path d="M191.23,153.16h-3.52l-.67,2H184.9l3.63-9.76h1.86l3.65,9.76h-2.14Zm-3-1.63h2.44l-1.23-3.65Z" style="fill:#fff"/></g></svg>