<svg id="QUALITY_CROWN" data-name="QUALITY CROWN" xmlns="http://www.w3.org/2000/svg" viewBox="0 0 364 306"><defs><style>.cls-1{fill:#0e6671;}.cls-2,.cls-4,.cls-5,.cls-7,.cls-8{fill:none;stroke:#0a6d76;stroke-miterlimit:10;}.cls-2{stroke-width:1.86px;}.cls-3{fill:#0a6d76;}.cls-4{stroke-width:0.31px;}.cls-5{stroke-width:1.91px;}.cls-6{fill:#fff;}.cls-7{stroke-width:2.87px;}.cls-8{stroke-width:0.48px;}</style></defs><title>IQC</title><g id="Layer_30" data-name="Layer 30"><path class="cls-1" d="M141.24,113.77V96.69h2.27v17.08Z"/><path class="cls-1" d="M148.1,113.77V96.69h2.42l9,13.85h0V96.69h2.15v17.08h-2.49l-8.92-13.71h0v13.71Z"/><path class="cls-1" d="M170.06,113.77V98.61h-5.69V96.69H178v1.91h-5.69v15.17Z"/><path class="cls-1" d="M180.7,113.77V96.69H192.5v1.91H183V104h8.88V106H183v5.91h9.59v1.91Z"/><path class="cls-1" d="M196.11,113.77V96.69h8a5.6,5.6,0,0,1,3.8,1.21,4.11,4.11,0,0,1,1.39,3.27,5.07,5.07,0,0,1-.73,2.77,3.65,3.65,0,0,1-2.24,1.55v0a2.63,2.63,0,0,1,1.87,1.14,5.9,5.9,0,0,1,.69,2.38c0,.14,0,.47.06,1s0,.87.07,1.1.07.54.13.92a3.57,3.57,0,0,0,.74,1.72H207.4a1.68,1.68,0,0,1-.36-1q-.07-.66-.11-1.63a11.59,11.59,0,0,0-.16-1.61,10.46,10.46,0,0,0-.25-1.2,3.91,3.91,0,0,0-.43-.94,1.76,1.76,0,0,0-.84-.72,3.42,3.42,0,0,0-1.33-.23h-5.55v7.3Zm2.27-9.21h4.74a5.46,5.46,0,0,0,2.88-.66,2.57,2.57,0,0,0,1.06-2.38,3,3,0,0,0-.75-2.13,3,3,0,0,0-2.28-.79h-5.65Z"/><path class="cls-1" d="M213.26,113.77V96.69h2.42l9,13.85h0V96.69h2.15v17.08h-2.49l-8.92-13.71h0v13.71Z"/><path class="cls-1" d="M229.31,113.77,236,96.69h2.51l6.67,17.08h-2.51l-1.87-5.14h-7.22l-1.91,5.14Zm5-7.06h5.79l-2.85-8h0Z"/><path class="cls-1" d="M249.3,113.77V98.61h-5.69V96.69h13.66v1.91h-5.69v15.17Z"/><path class="cls-1" d="M260,113.77V96.69h2.27v17.08Z"/><path class="cls-1" d="M266.86,109.62a11.33,11.33,0,0,1,0-8.78,7.62,7.62,0,0,1,2.79-3.28,8.58,8.58,0,0,1,9,0,7.62,7.62,0,0,1,2.79,3.28,11.33,11.33,0,0,1,0,8.78,7.62,7.62,0,0,1-2.79,3.28,8.58,8.58,0,0,1-9,0A7.61,7.61,0,0,1,266.86,109.62Zm2-7.75a9.93,9.93,0,0,0,0,6.72,5.91,5.91,0,0,0,2,2.61,5.84,5.84,0,0,0,6.72,0,5.91,5.91,0,0,0,2-2.61,9.93,9.93,0,0,0,0-6.72,5.91,5.91,0,0,0-2-2.61,5.84,5.84,0,0,0-6.72,0A5.91,5.91,0,0,0,268.83,101.87Z"/><path class="cls-1" d="M285.88,113.77V96.69h2.42l9,13.85h0V96.69h2.15v17.08H297l-8.92-13.71h0v13.71Z"/><path class="cls-1" d="M301.93,113.77l6.67-17.08h2.51l6.67,17.08h-2.51l-1.87-5.14h-7.22l-1.91,5.14Zm5-7.06h5.79l-2.85-8h0Z"/><path class="cls-1" d="M320.25,113.77V96.69h2.27v15.17h9v1.91Z"/><path class="cls-1" d="M156.21,142.52,155.06,144l-2.61-2.1a7.75,7.75,0,0,1-4.09,1,7.88,7.88,0,0,1-4.51-1.28,7.62,7.62,0,0,1-2.79-3.28,11.33,11.33,0,0,1,0-8.78,7.62,7.62,0,0,1,2.79-3.28,8.58,8.58,0,0,1,9,0,7.62,7.62,0,0,1,2.79,3.28,10.72,10.72,0,0,1,.89,4.39,9.14,9.14,0,0,1-2.58,6.79ZM148.84,139l1.2-1.39,2.27,1.82a7.41,7.41,0,0,0,2-5.48,9.39,9.39,0,0,0-.59-3.36,5.92,5.92,0,0,0-2-2.61,5.84,5.84,0,0,0-6.72,0,5.91,5.91,0,0,0-2,2.61,9.93,9.93,0,0,0,0,6.72,5.91,5.91,0,0,0,2,2.61,5.33,5.33,0,0,0,3.36,1.06,6.09,6.09,0,0,0,2.37-.48Z"/><path class="cls-1" d="M173.75,125.4V136.3a6.49,6.49,0,0,1-1.75,4.9,6.91,6.91,0,0,1-5,1.67,7.52,7.52,0,0,1-5.2-1.63,6.33,6.33,0,0,1-1.81-5V125.4h2.27V136.3a4.64,4.64,0,0,0,1.22,3.47A4.82,4.82,0,0,0,167,141a4.35,4.35,0,0,0,3.31-1.2,4.85,4.85,0,0,0,1.14-3.47V125.4Z"/><path class="cls-1" d="M176.14,142.48l6.67-17.08h2.51L192,142.48h-2.51l-1.87-5.14h-7.22l-1.91,5.14Zm5-7.06h5.79l-2.85-8h0Z"/><path class="cls-1" d="M194.46,142.48V125.4h2.27v15.17h9v1.91Z"/><path class="cls-1" d="M208.64,142.48V125.4h2.27v17.08Z"/><path class="cls-1" d="M219.41,142.48V127.31h-5.69V125.4h13.66v1.91h-5.69v15.17Z"/><path class="cls-1" d="M243.64,125.4l-6.53,10.09v7h-2.27v-7l-6.6-10.09h2.7l5.12,8.13,5-8.13Z"/><path class="cls-1" d="M252.94,134a9.68,9.68,0,0,1,2.14-6.45A7.34,7.34,0,0,1,261,125a7.71,7.71,0,0,1,4.72,1.45,5.84,5.84,0,0,1,2.31,4.1h-2.27a4.22,4.22,0,0,0-1.65-2.7,5.21,5.21,0,0,0-3.13-.93,5,5,0,0,0-4.33,2,8.11,8.11,0,0,0-1.46,4.92,8.58,8.58,0,0,0,1.45,5.14,5,5,0,0,0,4.37,2,4.57,4.57,0,0,0,3.48-1.38A5.51,5.51,0,0,0,266,136h2.27a7.73,7.73,0,0,1-2.25,5,7.21,7.21,0,0,1-5.14,1.79A7.14,7.14,0,0,1,255,140.4,9.76,9.76,0,0,1,252.94,134Z"/><path class="cls-1" d="M271.84,142.48V125.4h8a5.6,5.6,0,0,1,3.8,1.21,4.11,4.11,0,0,1,1.39,3.27,5.07,5.07,0,0,1-.73,2.77,3.65,3.65,0,0,1-2.24,1.55v0a2.63,2.63,0,0,1,1.87,1.14,5.9,5.9,0,0,1,.69,2.38c0,.14,0,.47.06,1s0,.87.07,1.1.07.54.13.92a3.57,3.57,0,0,0,.74,1.72h-2.54a1.68,1.68,0,0,1-.36-1q-.07-.66-.11-1.63a11.59,11.59,0,0,0-.16-1.61,10.46,10.46,0,0,0-.25-1.2,3.91,3.91,0,0,0-.43-.94,1.76,1.76,0,0,0-.84-.72,3.42,3.42,0,0,0-1.33-.23h-5.55v7.3Zm2.27-9.21h4.74a5.46,5.46,0,0,0,2.88-.66,2.57,2.57,0,0,0,1.06-2.38,3,3,0,0,0-.75-2.13,3,3,0,0,0-2.28-.79h-5.65Z"/><path class="cls-1" d="M288.94,138.33a11.33,11.33,0,0,1,0-8.78,7.62,7.62,0,0,1,2.79-3.28,8.58,8.58,0,0,1,9,0,7.62,7.62,0,0,1,2.79,3.28,11.33,11.33,0,0,1,0,8.78,7.62,7.62,0,0,1-2.79,3.28,8.58,8.58,0,0,1-9,0A7.61,7.61,0,0,1,288.94,138.33Zm2-7.75a9.93,9.93,0,0,0,0,6.72,5.91,5.91,0,0,0,2,2.61,5.84,5.84,0,0,0,6.72,0,5.91,5.91,0,0,0,2-2.61,9.93,9.93,0,0,0,0-6.72,5.91,5.91,0,0,0-2-2.61,5.84,5.84,0,0,0-6.72,0A5.91,5.91,0,0,0,290.91,130.58Z"/><path class="cls-1" d="M328,125.4l-4.57,17.08H321l-3.9-14.35h0l-3.95,14.35h-2.37L306.4,125.4h2.32l3.35,14.21h0l3.83-14.21h2.46l3.78,14.21h0l3.47-14.21Z"/><path class="cls-1" d="M330.89,142.48V125.4h2.42l9,13.85h0V125.4h2.15v17.08H342l-8.92-13.71h0v13.71Z"/><path class="cls-1" d="M139.11,171.18l6.67-17.08h2.51L155,171.18h-2.51L150.59,166h-7.22l-1.91,5.14Zm5-7.06h5.79l-2.85-8h0Z"/><path class="cls-1" d="M176.85,154.1l-4.57,17.08h-2.37L166,156.83h0L162,171.18h-2.37l-4.38-17.08h2.32l3.35,14.21h0l3.83-14.21h2.46l3.78,14.21h0l3.47-14.21Z"/><path class="cls-1" d="M177.19,171.18l6.67-17.08h2.51L193,171.18h-2.51L188.67,166h-7.22l-1.91,5.14Zm5-7.06H188l-2.85-8h0Z"/><path class="cls-1" d="M195.51,171.18V154.1h8a5.6,5.6,0,0,1,3.8,1.21,4.11,4.11,0,0,1,1.39,3.26,5.07,5.07,0,0,1-.73,2.77,3.65,3.65,0,0,1-2.24,1.55v0a2.63,2.63,0,0,1,1.87,1.14,5.89,5.89,0,0,1,.69,2.38c0,.14,0,.47.06,1s0,.87.07,1.1.07.54.13.92a3.57,3.57,0,0,0,.74,1.72H206.8a1.68,1.68,0,0,1-.36-1q-.07-.66-.11-1.63a11.59,11.59,0,0,0-.16-1.61,10.5,10.5,0,0,0-.25-1.2,3.9,3.9,0,0,0-.43-.94,1.76,1.76,0,0,0-.84-.72,3.42,3.42,0,0,0-1.33-.23h-5.55v7.3Zm2.27-9.21h4.74a5.45,5.45,0,0,0,2.88-.66,2.57,2.57,0,0,0,1.06-2.38,3,3,0,0,0-.75-2.13,3,3,0,0,0-2.28-.79h-5.65Z"/><path class="cls-1" d="M212.69,171.18V154.1h5.86a8.44,8.44,0,0,1,6.1,2q2.1,2,2.11,6.1,0,8.95-8.21,8.95Zm2.27-1.91h3.78a8.55,8.55,0,0,0,1.21-.08,5.85,5.85,0,0,0,1.47-.48,4.58,4.58,0,0,0,1.51-1.06,5.73,5.73,0,0,0,1.09-2,9.3,9.3,0,0,0,.47-3.11,7.62,7.62,0,0,0-1.34-4.87,5.27,5.27,0,0,0-4.35-1.66H215Z"/><path class="cls-2" d="M39.52,177.58l-1.59-6a28.2,28.2,0,0,0-7.24-9.45,10.78,10.78,0,0,1-4.05-7.94c-.07-3.16,1.1-7,5.79-10.31a6.51,6.51,0,0,1,4.41-1.17c3.27.34,8.92,1.75,10.73,7.45a10.06,10.06,0,0,1-.3,6.56c-1,2.74-1.62,8.52.21,18.76"/><path class="cls-3" d="M26.54,158.37s.59,5.55,5.91,6.63l1.32-.35s-.58-3.86-6-6.61Z"/><path class="cls-3" d="M48.88,152.45s2.24,5.11-1.85,8.68l-1.32.35s-1.41-3.64,1.93-8.71Z"/><path class="cls-3" d="M30,144.55s3.41-4.42,8.5-2.55l.94,1s-2.52,3-8.56,2.49Z"/><circle class="cls-3" cx="38.14" cy="157.02" r="2.68" transform="matrix(0.97, -0.26, 0.26, 0.97, -38.94, 15)"/><line class="cls-4" x1="38.57" y1="158.63" x2="43.32" y2="176.57"/><path class="cls-2" d="M102.64,177.72l1.59-6a28.2,28.2,0,0,1,7.24-9.45,10.78,10.78,0,0,0,4.05-7.94c.07-3.16-1.1-7-5.79-10.31a6.51,6.51,0,0,0-4.41-1.17c-3.27.34-8.92,1.75-10.73,7.45a10.06,10.06,0,0,0,.3,6.56c1,2.74,1.62,8.52-.21,18.76"/><path class="cls-3" d="M115.62,158.51s-.59,5.55-5.91,6.63l-1.32-.35s.58-3.86,6-6.61Z"/><path class="cls-3" d="M93.28,152.59s-2.24,5.11,1.85,8.68l1.32.35s1.41-3.64-1.93-8.71Z"/><path class="cls-3" d="M112.14,144.69s-3.41-4.42-8.5-2.55l-.94,1s2.52,3,8.56,2.49Z"/><circle class="cls-3" cx="104.03" cy="157.17" r="2.68" transform="translate(-74.54 217.47) rotate(-75.16)"/><line class="cls-4" x1="103.6" y1="158.78" x2="98.85" y2="176.72"/><polygon class="cls-5" points="126.2 213.6 17.84 213.6 17.84 113.77 17.84 92.4 126.2 92.4 126.2 213.6"/><line class="cls-5" x1="126.2" y1="113.77" x2="17.85" y2="113.77"/><path class="cls-3" d="M17.85,187s53.34-23.68,108.36,0V213.6H17.85Z"/><path class="cls-6" d="M42.62,194.5l-.47,1.08-2-.87A5,5,0,0,1,37.83,196a5,5,0,0,1-3,0,4.88,4.88,0,0,1-2.26-1.57A7.25,7.25,0,0,1,31.11,189a4.88,4.88,0,0,1,1.18-2.49A5.49,5.49,0,0,1,37.87,185a4.86,4.86,0,0,1,2.26,1.57,6.85,6.85,0,0,1,1.27,2.57,5.85,5.85,0,0,1-.48,4.63Zm-5.14-1,.51-1.05,1.71.75a4.74,4.74,0,0,0,.31-3.71,6,6,0,0,0-.92-2,3.8,3.8,0,0,0-1.64-1.29,3.73,3.73,0,0,0-4.16,1.11,3.78,3.78,0,0,0-.78,1.94,6.35,6.35,0,0,0,1.11,4.16,3.77,3.77,0,0,0,1.64,1.29,3.41,3.41,0,0,0,2.25.1,3.92,3.92,0,0,0,1.39-.69Z"/><path class="cls-6" d="M54.3,181.27l1.13,6.89a4.15,4.15,0,0,1-.59,3.28,4.42,4.42,0,0,1-3,1.57,4.81,4.81,0,0,1-3.46-.49,4.06,4.06,0,0,1-1.65-2.94l-1.13-6.89,1.44-.24,1.13,6.89a3,3,0,0,0,1.13,2.06,3.08,3.08,0,0,0,2.34.39,2.79,2.79,0,0,0,2-1.1,3.11,3.11,0,0,0,.36-2.31l-1.13-6.89Z"/><path class="cls-6" d="M60.06,191.55l3.54-11.19,1.6-.11,5,10.62-1.6.11-1.41-3.21-4.61.31-1,3.37Zm2.88-4.72,3.7-.25-2.15-5h0Z"/><path class="cls-6" d="M74.24,190.9,74.61,180l1.45,0-.33,9.7,5.78.2,0,1.22Z"/><path class="cls-6" d="M85.77,191.62l1.32-10.85,1.44.18-1.32,10.85Z"/><path class="cls-6" d="M95,193.13l2.12-9.47-3.56-.8.27-1.2,8.53,1.91-.27,1.2-3.55-.8-2.13,9.47Z"/><path class="cls-6" d="M115.93,188.41l-6.23,4.51-1.62,4.17-1.36-.53,1.62-4.17-1.6-7.55,1.61.63,1.17,6,4.87-3.7Z"/><path class="cls-6" d="M34.05,205.05a6.19,6.19,0,0,1,1.37-4.13,4.7,4.7,0,0,1,3.8-1.63,4.93,4.93,0,0,1,3,.93,3.74,3.74,0,0,1,1.48,2.63H42.27a2.7,2.7,0,0,0-1.06-1.73,3.34,3.34,0,0,0-2-.6,3.21,3.21,0,0,0-2.77,1.28,5.19,5.19,0,0,0-.93,3.15,5.49,5.49,0,0,0,.93,3.29,3.22,3.22,0,0,0,2.79,1.29,2.92,2.92,0,0,0,2.23-.88,3.53,3.53,0,0,0,.93-2.27h1.45a4.94,4.94,0,0,1-1.44,3.23,4.62,4.62,0,0,1-3.29,1.15,4.57,4.57,0,0,1-3.74-1.59A6.25,6.25,0,0,1,34.05,205.05Z"/><path class="cls-6" d="M49.91,210.49V199.56h5.14a3.58,3.58,0,0,1,2.43.77,2.63,2.63,0,0,1,.89,2.09,3.24,3.24,0,0,1-.47,1.78,2.33,2.33,0,0,1-1.43,1v0a1.69,1.69,0,0,1,1.19.73,3.78,3.78,0,0,1,.44,1.52q0,.14,0,.62t0,.7c0,.15,0,.34.08.59a2.4,2.4,0,0,0,.18.63,2.44,2.44,0,0,0,.29.47H57.14a1.07,1.07,0,0,1-.23-.62c0-.28-.05-.63-.07-1a7.24,7.24,0,0,0-.1-1,6.65,6.65,0,0,0-.16-.77,2.52,2.52,0,0,0-.28-.6,1.12,1.12,0,0,0-.54-.46,2.19,2.19,0,0,0-.85-.15H51.37v4.67Zm1.45-5.89h3a3.49,3.49,0,0,0,1.84-.42,1.65,1.65,0,0,0,.68-1.52,1.89,1.89,0,0,0-.48-1.36,1.93,1.93,0,0,0-1.46-.51H51.37Z"/><path class="cls-6" d="M64.62,207.83a7.25,7.25,0,0,1,0-5.62,4.88,4.88,0,0,1,1.78-2.1,5.49,5.49,0,0,1,5.77,0,4.88,4.88,0,0,1,1.78,2.1,7.25,7.25,0,0,1,0,5.62,4.88,4.88,0,0,1-1.78,2.1,5.5,5.5,0,0,1-5.77,0A4.87,4.87,0,0,1,64.62,207.83Zm1.26-5a6.36,6.36,0,0,0,0,4.3,3.78,3.78,0,0,0,1.26,1.67,3.74,3.74,0,0,0,4.3,0,3.78,3.78,0,0,0,1.25-1.67,6.35,6.35,0,0,0,0-4.3,3.78,3.78,0,0,0-1.25-1.67,3.73,3.73,0,0,0-4.3,0A3.78,3.78,0,0,0,65.89,202.87Z"/><path class="cls-6" d="M93.37,199.56l-2.92,10.93H88.93l-2.5-9.19h0l-2.53,9.19H82.36l-2.8-10.93H81l2.14,9.09h0l2.45-9.09h1.58l2.42,9.09h0l2.22-9.09Z"/><path class="cls-6" d="M99,210.49V199.56h1.55l5.76,8.86h0v-8.86h1.38v10.93h-1.59l-5.71-8.77h0v8.77Z"/><path class="cls-1" d="M22,108V97.93h1.17V108Z"/><path class="cls-1" d="M25.73,108V97.93H27l4.64,8.16h0V97.93h1.11V108H31.47l-4.61-8.08h0V108Z"/><path class="cls-1" d="M37.29,108V99.06H34.35V97.93h7v1.13H38.46V108Z"/><path class="cls-1" d="M43,108V97.93h6.09v1.13H44.18v3.2h4.58v1.13H44.18v3.48h5V108Z"/><path class="cls-1" d="M51.18,108V97.93h4.15a2.66,2.66,0,0,1,2,.71,2.59,2.59,0,0,1,.72,1.92,3.32,3.32,0,0,1-.38,1.64,1.91,1.91,0,0,1-1.15.92v0a1.35,1.35,0,0,1,1,.67,3.85,3.85,0,0,1,.36,1.4q0,.13,0,.57t0,.65q0,.21.07.54a2.42,2.42,0,0,0,.15.58,2.3,2.3,0,0,0,.23.44H57a1.07,1.07,0,0,1-.19-.57q0-.39-.06-1a7.75,7.75,0,0,0-.08-1,7,7,0,0,0-.13-.71,2.52,2.52,0,0,0-.22-.56,1,1,0,0,0-.43-.42,1.57,1.57,0,0,0-.69-.13H52.35V108Zm1.17-5.43H54.8a2.53,2.53,0,0,0,1.49-.39,1.6,1.6,0,0,0,.55-1.4,1.89,1.89,0,0,0-.39-1.25,1.45,1.45,0,0,0-1.18-.47H52.35Z"/><path class="cls-1" d="M60.25,108V97.93H61.5l4.64,8.16h0V97.93h1.11V108H66l-4.61-8.08h0V108Z"/><path class="cls-1" d="M68.76,108l3.44-10.07h1.3L76.95,108h-1.3l-1-3H71l-1,3Zm2.57-4.16h3l-1.47-4.69h0Z"/><path class="cls-1" d="M79.31,108V99.06H76.37V97.93h7v1.13H80.48V108Z"/><path class="cls-1" d="M85.07,108V97.93h1.17V108Z"/><path class="cls-1" d="M88.81,105.55a7.56,7.56,0,0,1,0-5.17,4.39,4.39,0,0,1,1.44-1.93,4,4,0,0,1,4.65,0,4.39,4.39,0,0,1,1.44,1.93,7.55,7.55,0,0,1,0,5.17,4.38,4.38,0,0,1-1.44,1.93,4,4,0,0,1-4.65,0A4.39,4.39,0,0,1,88.81,105.55Zm1-4.57a6.63,6.63,0,0,0,0,4,3.48,3.48,0,0,0,1,1.54,2.71,2.71,0,0,0,3.47,0,3.48,3.48,0,0,0,1-1.54,6.63,6.63,0,0,0,0-4,3.48,3.48,0,0,0-1-1.54,2.71,2.71,0,0,0-3.47,0A3.48,3.48,0,0,0,89.83,101Z"/><path class="cls-1" d="M98.85,108V97.93h1.25l4.64,8.16h0V97.93h1.11V108h-1.28L100,99.92h0V108Z"/><path class="cls-1" d="M107.36,108l3.44-10.07h1.3L115.54,108h-1.3l-1-3h-3.73l-1,3Zm2.57-4.16h3l-1.47-4.69h0Z"/><path class="cls-1" d="M117,108V97.93h1.17v8.94h4.67V108Z"/><path class="cls-7" d="M65.92,172.93v-9.57a43.44,43.44,0,0,0-7.05-16.92A16.61,16.61,0,0,1,56,133c1.14-4.74,4.41-10,12.69-13.07a10,10,0,0,1,7,0c4.73,1.79,12.58,6.13,13,15.33a15.5,15.5,0,0,1-3,9.65c-2.6,3.68-5.77,12.05-7.09,28"/><path class="cls-3" d="M54.17,139.21s-1.31,8.49,6.18,12.2h2.1s.66-6-6.31-12.2Z"/><path class="cls-3" d="M89.77,139.21s1.31,8.49-6.18,12.2h-2.1s-.66-6,6.31-12.2Z"/><path class="cls-3" d="M64.81,120s6.81-5.24,13.67-.45l1,1.84s-4.93,3.45-13.73.33Z"/><circle class="cls-3" cx="71.97" cy="141.78" r="4.13"/><line class="cls-8" x1="71.97" y1="144.35" x2="71.97" y2="172.93"/></g></svg>