<svg id="vmware" xmlns="http://www.w3.org/2000/svg" viewBox="0 0 364 306"><defs><style>.cls-1{fill:#2b2d64;}.cls-2{fill:#a4a4a5;stroke:#a4a4a5;stroke-width:0.26px;}.cls-2,.cls-4{stroke-miterlimit:10;}.cls-3{fill:#ba0f1a;}.cls-4{fill:none;stroke:#000;stroke-width:3.12px;}</style></defs><title>vmware</title><path class="cls-1" d="M26.51,168.85l.27,1,.3-1L42.41,128h4.52L28.79,174.61H24.84L6.7,128h4.48Z"/><path class="cls-1" d="M67.77,128l18,41.14,18-41.14h5.49v46.61h-4.12v-20.3l.33-20.81L87.34,174.61H84.16L66.09,133.67l.33,20.52v20.42H62.31V128Z"/><path class="cls-1" d="M172.74,141.17h4.39l-13.71,33.44h-4.25L147.45,145.5l-11.79,29.11h-4.25l-13.71-33.44h4.52l11.44,29,11.72-29h4.18l11.72,29Z"/><path class="cls-1" d="M213.45,141.17h4v33.44h-4v-8a16.39,16.39,0,0,1-6.17,6.43,17.13,17.13,0,0,1-8.91,2.36,17.3,17.3,0,0,1-12.68-5,17.92,17.92,0,0,1,0-25,17.3,17.3,0,0,1,12.68-5,17.13,17.13,0,0,1,8.91,2.36,16.39,16.39,0,0,1,6.17,6.43Zm-14.39,30.55a14.21,14.21,0,0,0,10.28-4,13.9,13.9,0,0,0,0-19.73,15.21,15.21,0,0,0-20.49,0,13.9,13.9,0,0,0,0,19.73A14.12,14.12,0,0,0,199.06,171.73Z"/><path class="cls-1" d="M232.77,148.39a14.14,14.14,0,0,1,5-5.7,13.28,13.28,0,0,1,7.3-2v3.93a12,12,0,0,0-9,3.44,12.62,12.62,0,0,0-3.36,9.21v17.38h-4V141.17h4Z"/><path class="cls-1" d="M285.61,157.89a10.83,10.83,0,0,1-.14,1.57H252.85a13.16,13.16,0,0,0,4.52,8.92,14.26,14.26,0,0,0,9.73,3.47,15.34,15.34,0,0,0,8.26-2.23,12.37,12.37,0,0,0,5.11-5.9h4.39a16.64,16.64,0,0,1-6.65,8.46,19.49,19.49,0,0,1-11.1,3.21,18.35,18.35,0,0,1-13.16-5,17.42,17.42,0,0,1,0-25,19.81,19.81,0,0,1,26.35,0A16.48,16.48,0,0,1,285.61,157.89Zm-8.81-10.56a14.47,14.47,0,0,0-9.7-3.41,14.2,14.2,0,0,0-9.63,3.41,13.13,13.13,0,0,0-4.56,8.72h28.51A13,13,0,0,0,276.8,147.34Z"/><path class="cls-1" d="M8.3,197.9a3.18,3.18,0,0,0,3.22,3.1,3.1,3.1,0,0,0,3.22-2.93c0-2.16-1.94-2.64-3.81-3.23-1.31-.37-4.11-1.17-4.11-4.08,0-2.73,2.33-4.25,4.79-4.25a4.27,4.27,0,0,1,4.57,4H14.39A2.71,2.71,0,0,0,11.54,188a2.72,2.72,0,0,0-2.94,2.64c0,1.87,1.57,2.33,4,3.12,1.52.56,3.92,1.37,3.92,4.2,0,2.52-2,4.52-5,4.52-2.7,0-4.94-1.62-5-4.56Z"/><path class="cls-1" d="M20.66,194.53c0-4.75,3.85-8,8.4-8a8,8,0,1,1,0,15.94,8.07,8.07,0,0,1-8.4-7.91Zm1.81,0a6.43,6.43,0,0,0,6.61,6.45,6.45,6.45,0,1,0,0-12.9,6.42,6.42,0,0,0-6.59,6.43Z"/><path class="cls-1" d="M42.43,186.79h1.81v13.88h6.14v1.52H42.43Z"/><path class="cls-1" d="M56.31,186.79v9.76a4.56,4.56,0,0,0,.76,3.1,3.5,3.5,0,0,0,2.81,1.29,3.4,3.4,0,0,0,2.76-1.27,4.54,4.54,0,0,0,.76-3.12v-9.76h1.78v9.76c0,1.79-.22,3.56-1.83,4.75a5.43,5.43,0,0,1-3.48,1.17,5.62,5.62,0,0,1-3.55-1.17c-1.7-1.31-1.83-3.06-1.83-4.75v-9.76Z"/><path class="cls-1" d="M73.37,188.31h-4v-1.52h9.75v1.52h-4v13.88H73.37Z"/><path class="cls-1" d="M83.4,186.79h1.78v15.4H83.4Z"/><path class="cls-1" d="M90.14,194.53c0-4.75,3.85-8,8.4-8a8,8,0,1,1-8.4,8Zm1.81,0A6.61,6.61,0,1,0,98.54,188a6.43,6.43,0,0,0-6.59,6.45Z"/><path class="cls-1" d="M123.17,199.65l0-12.86h1.74v15.4h-1.74l-9.55-13,0,13H111.9v-15.4h1.83Z"/><path class="cls-1" d="M143.42,186.79c2.26,0,3.33.25,4.33,1a4.63,4.63,0,0,1,1.72,3.66,4.73,4.73,0,0,1-1.65,3.66c-1.07.79-2.15,1-4.24,1H141v6.06h-1.81v-15.4ZM141,194.61h2.57a5.2,5.2,0,0,0,3-.64,3,3,0,0,0,1.2-2.5,3,3,0,0,0-1.22-2.52,5.24,5.24,0,0,0-3-.64H141Z"/><path class="cls-1" d="M153.67,186.79h4.2c2.52,0,3.7.29,4.53.79a5.09,5.09,0,0,1,1.24,7.16,4.52,4.52,0,0,1-3.59,1.69l4,5.77h-2l-4.55-6.72h.52c1.13,0,2.7,0,3.57-.79a3.68,3.68,0,0,0,1.22-2.83,3.57,3.57,0,0,0-1.59-3,6.08,6.08,0,0,0-3.26-.56h-2.52v13.88h-1.81Z"/><path class="cls-1" d="M168.42,194.53c0-4.75,3.85-8,8.4-8a8,8,0,1,1-8.4,8Zm1.81,0a6.61,6.61,0,1,0,6.59-6.45,6.43,6.43,0,0,0-6.59,6.45Z"/><path class="cls-1" d="M187.74,186.79h1.89L195,200l5.35-13.17h1.89l-6.4,15.4h-1.72Z"/><path class="cls-1" d="M206.51,186.79h1.78v15.4h-1.78Z"/><path class="cls-1" d="M214,186.79h4.81c2.28,0,4.72.48,6.33,2.31a7.49,7.49,0,0,1,1.94,5.37c0,4.64-2.76,7.72-8.18,7.72H214Zm1.78,13.88H219c4.13,0,6.29-2.43,6.29-6.14a6.38,6.38,0,0,0-1.57-4.5,6.29,6.29,0,0,0-4.72-1.73h-3.2Z"/><path class="cls-1" d="M232.06,186.79H241v1.52h-7.14v5.35h7.09v1.52h-7.09v5.49H241v1.52h-8.92Z"/><path class="cls-1" d="M246.15,186.79h4.2c2.52,0,3.7.29,4.53.79a5.09,5.09,0,0,1,1.24,7.16,4.53,4.53,0,0,1-3.59,1.69l4,5.77h-2L250,195.47h.52c1.13,0,2.7,0,3.57-.79a3.68,3.68,0,0,0,1.22-2.83,3.58,3.58,0,0,0-1.59-3,6.08,6.08,0,0,0-3.26-.56H248v13.88h-1.81Z"/><path class="cls-1" d="M262.58,197.9a3.18,3.18,0,0,0,3.22,3.1,3.09,3.09,0,0,0,3.22-2.93c0-2.16-1.94-2.64-3.81-3.23-1.31-.37-4.11-1.17-4.11-4.08,0-2.73,2.33-4.25,4.79-4.25a4.27,4.27,0,0,1,4.57,4h-1.78a2.91,2.91,0,0,0-5.79.13c0,1.87,1.57,2.33,4,3.12,1.52.56,3.92,1.37,3.92,4.2,0,2.52-2,4.52-5,4.52-2.7,0-4.94-1.62-5-4.56Z"/><path class="cls-1" d="M288.73,195.59v1.52h-5.9v-1.52Z"/><path class="cls-1" d="M301.15,200.8c1.79-1.64,3.55-3.31,5.31-5,1.48-1.33,3-2.62,3.13-4.52a3.15,3.15,0,0,0-3.31-3.29c-1.87,0-3.22,1.39-3.29,3.75h-1.72a5.34,5.34,0,0,1,1.39-3.71,5,5,0,0,1,3.79-1.56,4.62,4.62,0,0,1,4.92,4.72c-.07,1.67-.87,2.83-2.46,4.41-1.76,1.69-3.53,3.37-5.31,5.06h7.81v1.48H301.15Z"/><path class="cls-1" d="M315.77,191.85c0-4.45,3.87-5.33,5.44-5.33a5.19,5.19,0,0,1,5.46,5.2v5.54c0,4.06-3.61,5.2-5.4,5.2-2,0-5.51-1.25-5.51-5.2Zm1.81,5.45a3.53,3.53,0,0,0,3.66,3.64,3.61,3.61,0,0,0,3.66-3.64v-5.62a3.66,3.66,0,1,0-7.31.08Z"/><path class="cls-1" d="M335.59,188.27h-3.24v-1.48h5v15.4h-1.81Z"/><path class="cls-1" d="M353.65,186.79l-3.22,4.47c-.24.35-.5.71-.76,1.08a4.09,4.09,0,0,1,2-.54,5.1,5.1,0,0,1,5.18,5.2,5.76,5.76,0,0,1-10,3.62,5.29,5.29,0,0,1-1.31-3.5,6.57,6.57,0,0,1,1.41-4l4.57-6.39Zm-6.25,10.45a3.65,3.65,0,0,0,3.81,3.7,3.81,3.81,0,1,0,.09-7.62,3.81,3.81,0,0,0-3.9,3.89Z"/><path class="cls-2" d="M184.23,118.58l2.65-2.48c.74-.67,1.52-1.31,1.57-2.26a1.58,1.58,0,0,0-1.65-1.64c-.94,0-1.61.7-1.64,1.87h-.86a2.67,2.67,0,0,1,.7-1.85,2.51,2.51,0,0,1,1.89-.78,2.31,2.31,0,0,1,2.46,2.36,3.2,3.2,0,0,1-1.23,2.21l-2.65,2.53h3.91v.74h-5.13Z"/><path class="cls-2" d="M195.07,111.58v.74h-3.19l-.46,2.29a2.49,2.49,0,0,1,1.52-.48,2.62,2.62,0,0,1,2.68,2.6,2.84,2.84,0,0,1-5.64.35h.9a1.91,1.91,0,0,0,1.89,1.57,1.9,1.9,0,1,0-1.59-3l-.74-.18.73-3.91Z"/><path class="cls-2" d="M199.64,119.28v-7.7h1.26l3,6.46,3-6.46h1.26v7.7h-.85l0-6.85-3.12,6.85h-.58l-3.13-6.85,0,6.85Z"/><path class="cls-2" d="M209.19,115.45a4.21,4.21,0,1,1,4.2,4,4,4,0,0,1-4.2-4Zm.9,0a3.3,3.3,0,1,0,3.3-3.23,3.22,3.22,0,0,0-3.3,3.23Z"/><path class="cls-2" d="M219.19,117.14a1.59,1.59,0,0,0,1.61,1.55,1.55,1.55,0,0,0,1.61-1.47c0-1.08-1-1.32-1.9-1.61-.65-.19-2.06-.58-2.06-2a2.19,2.19,0,0,1,2.39-2.12,2.14,2.14,0,0,1,2.29,2h-.89a1.46,1.46,0,0,0-2.89.06c0,.94.78,1.17,2,1.56.76.28,2,.69,2,2.1a2.3,2.3,0,0,1-2.49,2.26,2.34,2.34,0,0,1-2.52-2.28Z"/><path class="cls-2" d="M225.61,112.34h-2v-.76h4.87v.76h-2v6.94h-.9Z"/><path class="cls-2" d="M234.25,111.58a3.31,3.31,0,0,1,2.17.49,2.32,2.32,0,0,1,.86,1.83,2.36,2.36,0,0,1-.83,1.83,3.18,3.18,0,0,1-2.12.52H233v3h-.9v-7.7ZM233,115.49h1.28a2.6,2.6,0,0,0,1.49-.32,1.49,1.49,0,0,0,.6-1.25,1.47,1.47,0,0,0-.61-1.26,2.62,2.62,0,0,0-1.5-.32H233Z"/><path class="cls-2" d="M238,111.58h2.1a4.27,4.27,0,0,1,2.26.4,2.54,2.54,0,0,1,.62,3.58,2.26,2.26,0,0,1-1.79.84l2,2.88h-1l-2.27-3.36h.26a2.83,2.83,0,0,0,1.78-.4,1.84,1.84,0,0,0,.61-1.42,1.79,1.79,0,0,0-.79-1.49,3,3,0,0,0-1.63-.28h-1.26v6.94H238Z"/><path class="cls-2" d="M244,115.45a4.21,4.21,0,1,1,4.2,4,4,4,0,0,1-4.2-4Zm.9,0a3.3,3.3,0,1,0,3.3-3.23,3.22,3.22,0,0,0-3.3,3.23Z"/><path class="cls-2" d="M253.45,119.28v-7.7h1.26l3,6.46,3-6.46h1.26v7.7h-.85l0-6.85L258,119.28h-.58l-3.13-6.85,0,6.85Z"/><path class="cls-2" d="M263.38,111.58h.89v7.7h-.89Z"/><path class="cls-2" d="M266.26,117.14a1.59,1.59,0,0,0,1.61,1.55,1.55,1.55,0,0,0,1.61-1.47c0-1.08-1-1.32-1.9-1.61-.65-.19-2.06-.58-2.06-2a2.19,2.19,0,0,1,2.39-2.12,2.14,2.14,0,0,1,2.29,2h-.89a1.46,1.46,0,0,0-2.89.06c0,.94.78,1.17,2,1.56.76.28,2,.69,2,2.1a2.3,2.3,0,0,1-2.49,2.26,2.34,2.34,0,0,1-2.52-2.28Z"/><path class="cls-2" d="M271.42,111.58h.89v7.7h-.89Z"/><path class="cls-2" d="M279.42,118v-6.43h.87v7.7h-.87l-4.78-6.48,0,6.48h-.87v-7.7h.91Z"/><path class="cls-2" d="M288.33,113.58a3.39,3.39,0,0,0-.9-.83,3.36,3.36,0,0,0-1.87-.54,3.23,3.23,0,1,0,0,6.46,3.6,3.6,0,0,0,2.15-.7,2.83,2.83,0,0,0,1.09-1.61h-4v-.71h5a3.67,3.67,0,0,1-.36,1.49,4.34,4.34,0,0,1-3.93,2.29,4,4,0,1,1,0-8,4.24,4.24,0,0,1,3.78,2.13Z"/><path d="M96.15,119.45a6.28,6.28,0,0,1-4.92-1.83,8,8,0,0,1-1.65-5.5,9.61,9.61,0,0,1,.8-4.1,5.65,5.65,0,0,1,2.35-2.59,7.33,7.33,0,0,1,3.69-.89,6.45,6.45,0,0,1,5,1.83,7.81,7.81,0,0,1,1.67,5.44,10.7,10.7,0,0,1-.5,3.46,6.17,6.17,0,0,1-1.41,2.37A5.56,5.56,0,0,1,99,119,8.75,8.75,0,0,1,96.15,119.45Zm-3-7.62a10.93,10.93,0,0,0,.81,4.8,2.63,2.63,0,0,0,2.47,1.57,2.4,2.4,0,0,0,1.46-.44,3.17,3.17,0,0,0,1-1.24,6.77,6.77,0,0,0,.54-1.88,16.38,16.38,0,0,0,.16-2.39,15.24,15.24,0,0,0-.35-3.56,4.65,4.65,0,0,0-1.06-2.17,2.42,2.42,0,0,0-1.81-.73,2.56,2.56,0,0,0-2.4,1.48A10.12,10.12,0,0,0,93.13,111.83Z"/><path d="M104.68,108.69H109v5.92a14.76,14.76,0,0,0,.07,1.6,2.44,2.44,0,0,0,.26.91,1.24,1.24,0,0,0,.46.49,1.4,1.4,0,0,0,.7.15,1.84,1.84,0,0,0,.87-.25,2.26,2.26,0,0,0,.78-.69,1.59,1.59,0,0,0,.32-.94v-4.12c0-.52,0-.91,0-1.16a1.92,1.92,0,0,0-.13-.59.88.88,0,0,0-.3-.36,2.22,2.22,0,0,0-.66-.27v-.7h4.35v7.47q0,.81,0,1.18a1.81,1.81,0,0,0,.13.6.84.84,0,0,0,.32.37,2.3,2.3,0,0,0,.75.25v.71l-3,.1h-1.35l.1-1.54-.13,0a7.63,7.63,0,0,1-1.85,1.28,4,4,0,0,1-1.64.36,3.68,3.68,0,0,1-1.89-.42,2.38,2.38,0,0,1-1-1.24,6,6,0,0,1-.31-2.11v-3.91q0-.6,0-.92a3.92,3.92,0,0,0-.05-.5,1.52,1.52,0,0,0-.09-.32.92.92,0,0,0-.17-.26,1,1,0,0,0-.29-.21,2.25,2.25,0,0,0-.5-.17Z"/><path d="M125.88,118a7.26,7.26,0,0,1-1.78,1.13,4.48,4.48,0,0,1-1.7.33,3.28,3.28,0,0,1-2.48-.86,3.63,3.63,0,0,1-.82-2.6v-6H117.7v-.74a2.61,2.61,0,0,0,1-.32,1.44,1.44,0,0,0,.5-.57,3.56,3.56,0,0,0,.28-.93,12.91,12.91,0,0,0,.16-1.44h2.67v2.67h3.18V110h-3.18v4.81a9.79,9.79,0,0,0,.12,1.78,1.61,1.61,0,0,0,.4.85,1,1,0,0,0,.69.27,2.6,2.6,0,0,0,.56-.05,2.15,2.15,0,0,0,.52-.19,3,3,0,0,0,.57-.39Z"/><path d="M130.44,116.2a9.65,9.65,0,0,0,.07,1.4,1.21,1.21,0,0,0,.27.61,1.54,1.54,0,0,0,.77.37v.7h-5.47v-.7a2.13,2.13,0,0,0,.52-.18.92.92,0,0,0,.3-.24,1.25,1.25,0,0,0,.18-.34,2.07,2.07,0,0,0,.1-.58c0-.25,0-.6,0-1.05v-8.32c0-.61,0-1.06,0-1.35a5.8,5.8,0,0,0-.07-.73,1.22,1.22,0,0,0-.17-.47.83.83,0,0,0-.33-.28,2.72,2.72,0,0,0-.68-.19v-.7L129,104h1.39Z"/><path d="M138.4,119.45a6.67,6.67,0,0,1-2.83-.55,4,4,0,0,1-1.86-1.76,6.32,6.32,0,0,1-.67-3.08,6.73,6.73,0,0,1,.41-2.48,4.64,4.64,0,0,1,1.15-1.73,4.59,4.59,0,0,1,1.76-1,7.25,7.25,0,0,1,2.21-.33,5.55,5.55,0,0,1,4.07,1.36,5.37,5.37,0,0,1,1.37,4,6.46,6.46,0,0,1-.68,3.11,4.28,4.28,0,0,1-1.94,1.86A6.85,6.85,0,0,1,138.4,119.45Zm-2-5.62a8.31,8.31,0,0,0,.53,3.39,1.71,1.71,0,0,0,1.6,1.13,1.64,1.64,0,0,0,1-.29,2,2,0,0,0,.64-.83,4.8,4.8,0,0,0,.34-1.31,13.24,13.24,0,0,0,.1-1.71,8.49,8.49,0,0,0-.53-3.43,1.68,1.68,0,0,0-1.57-1.14,1.64,1.64,0,0,0-1.22.46,2.8,2.8,0,0,0-.67,1.38A10.8,10.8,0,0,0,136.44,113.83Z"/><path d="M151.08,119.45a6.67,6.67,0,0,1-2.83-.55,4,4,0,0,1-1.86-1.76,6.32,6.32,0,0,1-.67-3.08,6.73,6.73,0,0,1,.41-2.48,4.64,4.64,0,0,1,1.15-1.73,4.59,4.59,0,0,1,1.76-1,7.25,7.25,0,0,1,2.21-.33,5.55,5.55,0,0,1,4.07,1.36,5.37,5.37,0,0,1,1.37,4A6.46,6.46,0,0,1,156,117a4.28,4.28,0,0,1-1.94,1.86A6.85,6.85,0,0,1,151.08,119.45Zm-2-5.62a8.31,8.31,0,0,0,.53,3.39,1.71,1.71,0,0,0,1.6,1.13,1.64,1.64,0,0,0,1-.29,2,2,0,0,0,.64-.83,4.8,4.8,0,0,0,.34-1.31,13.24,13.24,0,0,0,.1-1.71,8.49,8.49,0,0,0-.53-3.43,1.68,1.68,0,0,0-1.57-1.14,1.64,1.64,0,0,0-1.22.46,2.8,2.8,0,0,0-.67,1.38A10.8,10.8,0,0,0,149.12,113.83Z"/><path d="M166.25,112.55l2.88,4.08q.64.91.94,1.25a2.73,2.73,0,0,0,.52.49,1.72,1.72,0,0,0,.56.22v.7h-5.45v-.7q.5-.1.5-.5a1.49,1.49,0,0,0-.2-.66,11.3,11.3,0,0,0-.76-1.18l-.86-1.24a5.39,5.39,0,0,0-.47-.6,1.55,1.55,0,0,0-.35-.28,1,1,0,0,0-.48-.1h-.54v2.18a9.65,9.65,0,0,0,.07,1.4,1.21,1.21,0,0,0,.27.61,1.54,1.54,0,0,0,.77.37v.7h-5.47v-.7a2.13,2.13,0,0,0,.52-.18.92.92,0,0,0,.3-.24,1.25,1.25,0,0,0,.18-.34,2.07,2.07,0,0,0,.1-.58c0-.25,0-.6,0-1.05v-8.32c0-.61,0-1.06,0-1.35a5,5,0,0,0-.07-.73,1.36,1.36,0,0,0-.17-.47.79.79,0,0,0-.32-.28,2.72,2.72,0,0,0-.68-.19v-.7l3.1-.15h1.38v9h.37a2,2,0,0,0,.61-.08,1.82,1.82,0,0,0,.46-.24q.24-.17.74-.6a5.41,5.41,0,0,0,.76-.77,2.3,2.3,0,0,0,.35-.59,1.44,1.44,0,0,0,.09-.49q0-.74-1-.86v-.68h5.58v.68a2.69,2.69,0,0,0-1,.38,13.24,13.24,0,0,0-1.68,1.34Z"/><path d="M14.52,119.4H12.21l-.47-2.33H8.81l-.47,2.33H6v0l3-12.26h2.46Zm-3.12-3.91L10.27,110l-1.15,5.54Z"/><path d="M25.84,113.81q0,1.15-1.43,1.14H20.62v4.45H18.29V107.13h6.12q1.43,0,1.43,1.13Zm-2.36-.43V108.7H20.62v4.67Z"/><path d="M37.87,119.4H35.55l-.47-2.33H32.15l-.47,2.33H29.38v0l3-12.26h2.46Zm-3.12-3.91L33.61,110l-1.15,5.54Z"/><path d="M49.32,118.28q0,1.12-1.43,1.12H43q-1.39,0-1.39-1.12v-10q0-1.13,1.39-1.13h4.87q1.43,0,1.43,1.13v2.87H47V108.7H44v9.12h3v-2.58h2.33Z"/><path class="cls-3" d="M66,117.61q0,1.67-1.75,1.67h-6a1.49,1.49,0,0,1-1.7-1.67V102.67a1.49,1.49,0,0,1,1.7-1.68h6Q66,101,66,102.67V107H63.16v-3.61h-3.7v13.59h3.7v-3.85H66Z"/><path class="cls-3" d="M72,119.28H69.15V101H72Z"/><path class="cls-3" d="M84.84,117.61q0,1.67-1.73,1.67H76.9a1.49,1.49,0,0,1-1.7-1.67V102.67A1.49,1.49,0,0,1,76.9,101h6.21a1.51,1.51,0,0,1,1.73,1.68ZM82,116.93V103.34H78.06v13.59Z"/><rect class="cls-4" x="305.91" y="114.6" width="30.87" height="30.87" rx="3.17" ry="3.17"/><rect class="cls-4" x="323.6" y="133.16" width="30.87" height="30.87" rx="3.17" ry="3.17"/></svg>