<svg id="Layer_1" data-name="Layer 1" xmlns="http://www.w3.org/2000/svg" viewBox="0 0 360 140"><defs><style>.cls-1{fill:#9e9fb4;}</style></defs><path class="cls-1" d="M179.61,43.58a26.4,26.4,0,0,0-26.39,26.34,26.45,26.45,0,0,0,52.9-.13A26.38,26.38,0,0,0,179.61,43.58Zm.15,43.27a17.24,17.24,0,0,1-17.08-17.1,17,17,0,0,1,34,.23A17.22,17.22,0,0,1,179.76,86.85Z"/><path class="cls-1" d="M140.47,72.07c-3.63,2.79-6.67,5-9.62,7.4-1.73,1.39-3,1.83-5,0-2.86-2.61-6.17-4.74-9.93-7.55,0,7.51-.1,14.16.06,20.8.06,2.69-.69,3.66-3.54,3.68s-3-1.51-3-3.71c.06-11.14,0-22.27,0-34.31,5.47,4.21,10.42,7.84,15.15,11.72,2.52,2.06,4.3,2.83,7.24.22,4.66-4.16,9.91-7.66,15.63-12V81.12c0,3.68-.08,7.36,0,11,.07,2.49-.05,4.27-3.44,4.26s-3.64-1.49-3.59-4.13C140.56,85.86,140.47,79.42,140.47,72.07Z"/><path class="cls-1" d="M243.51,72.17c-3.51,2.7-6.57,4.93-9.47,7.34-1.7,1.42-3.07,1.63-4.83.09-2-1.73-4.13-3.26-6.27-4.8-1-.72-1.82-2.44-3.24-1.64-1.27.73-.57,2.42-.58,3.66-.07,5.52-.15,11,0,16.55.07,2.63-1.18,3-3.37,3s-3.27-.58-3.24-3.09c.12-11.29.05-22.58.05-34.32,4.33,2,7.36,5.3,10.93,7.78,2.7,1.87,5.16,5.18,8,5.47s5.26-3.47,7.92-5.36c3.59-2.56,7-5.34,11.2-8.54,0,12.46,0,24,0,35.46,0,2.94-2.05,2.44-3.85,2.55-2.1.13-3.18-.58-3.14-2.89.09-6.3,0-12.61,0-18.91C243.65,74,243.59,73.49,243.51,72.17Z"/></svg>