<svg id="Layer_1" data-name="Layer 1" xmlns="http://www.w3.org/2000/svg" viewBox="0 0 360 140"><defs><style>.cls-1{fill:#231f20;}</style></defs><path class="cls-1" d="M168.54,54.51V84.14L172,84l3.45-.11.11-29.52.07-29.48h-7.11Z"/><path class="cls-1" d="M185.39,54.51V84.14l3.49-.11,3.44-.11.11-29.52.08-29.48h-7.12Z"/><path class="cls-1" d="M151.57,37.13c-.15.15-.26,10.79-.26,23.64V84.1h7.11l-.07-23.52-.11-23.49L155.05,37A13.81,13.81,0,0,0,151.57,37.13Z"/><path class="cls-1" d="M202.44,37.36c-.12.26-.15,10.86-.12,23.52l.12,23,3.48.11,3.45.11V36.91H206C203.63,36.91,202.55,37.06,202.44,37.36Z"/><path class="cls-1" d="M134.82,66.5V84.14l3.49-.11,3.44-.11V49.08L138.31,49l-3.49-.11Z"/><path class="cls-1" d="M219.1,66.5V84.14l3.49-.11,3.44-.11V49.08L222.59,49l-3.49-.11Z"/><path class="cls-1" d="M118,72.3V84.14l3.48-.11,3.45-.11L125,72.19l.07-11.69H118Z"/><path class="cls-1" d="M236,72.3V84.14l3.48-.11,3.45-.11L243,72.19l.08-11.69H236Z"/><path class="cls-1" d="M102.8,98.37a5.11,5.11,0,0,0-3.45,4c-.37,2.77,1,3.9,7,5.73,2.65.83,2.8.94,2.92,2.06a1.59,1.59,0,0,1-.86,1.84c-1.2.78-4.24.56-6.71-.56l-1.72-.75-.6.9c-.86,1.31-.49,1.87,1.61,2.58,5.54,1.91,10.9.52,11.57-3,.57-3-.71-4.49-5.13-6-3.78-1.24-4.83-1.84-4.83-2.81,0-1.84,3.11-2.4,6.44-1.13,1.09.42,2,.75,2,.75a7,7,0,0,0,.53-1.16c.6-1.38.41-1.53-2.4-2.4A12.57,12.57,0,0,0,102.8,98.37Z"/><path class="cls-1" d="M115.72,99.65V101H121v13.86h3V101h5.24V98.34H115.72Z"/><path class="cls-1" d="M134.75,102.53c-.94,2.33-2.51,6-3.45,8.28l-1.68,4h3.59L134,113l.79-1.88h7.49l.82,1.88.79,1.87h3.63L146,111.15c-.83-2-2.4-5.66-3.45-8.13l-1.95-4.5-2-.11-2.06-.11Zm5.39,2.92,1.39,3.38h-6l.6-1.43c.34-.75.94-2.28,1.35-3.37a7.7,7.7,0,0,1,1-2A18.76,18.76,0,0,1,140.14,105.45Z"/><path class="cls-1" d="M151.31,106.58v8.24h3V113.1c0-1.46.23-2,1.54-3.56a8.4,8.4,0,0,1,1.83-1.84,17.47,17.47,0,0,1,2.48,3.56l2.09,3.56h1.84a4,4,0,0,0,1.83-.23c0-.15-1.38-2.32-3-4.87l-3-4.64,3.07-3.37L166,98.34h-4.12l-3.49,3.82a51.72,51.72,0,0,1-3.78,4c-.15.07-.3-1.65-.3-3.82v-4h-3Z"/><path class="cls-1" d="M170.41,106.58v8.24h13.11V112.2H173.41v-4.5h9v-2.62h-9V101h9.73V98.34H170.41Z"/><path class="cls-1" d="M187.64,106.58v8.24h3v-6.37h8.61v-2.62h-8.61V101H200V98.34H187.64Z"/><path class="cls-1" d="M204.12,106.58v8.24h3V98.34h-3Z"/><path class="cls-1" d="M212.74,106.58v8.24h13.11V112.2H215.73v-4.5h9v-2.62h-9V101h9.74V98.34H212.74Z"/><path class="cls-1" d="M230,106.58v8.24h11.61V112.2H233V98.34h-3Z"/><path class="cls-1" d="M245.7,106.58v8.24h3.86c6.18,0,8.88-1.24,10.71-4.8,2.17-4.27-.45-10-5.24-11.31a27.59,27.59,0,0,0-5.28-.37H245.7Zm8.73-5.1a8.12,8.12,0,0,1,2.32,1.69c1,1,1.12,1.5,1.12,3.41s-.15,2.36-1.12,3.41c-1.54,1.61-3.11,2.21-5.81,2.21H248.7V101h2.24A10.89,10.89,0,0,1,254.43,101.48Z"/></svg>