<svg id="Layer_1" data-name="Layer 1" xmlns="http://www.w3.org/2000/svg" viewBox="0 0 360 140"><defs><style>.cls-1{fill:#9e9fb4;}</style></defs><path class="cls-1" d="M90.88,39.3a33.35,33.35,0,0,0-21.43,8c-6.6,5.61-10.27,12.82-10.09,21.58.14,7.5,3.34,13.54,10,17.4A17.87,17.87,0,0,0,96,73.25a18.33,18.33,0,0,0-.57-7.9,15.09,15.09,0,0,0-7-8.91,25.19,25.19,0,0,0-6.37-2.63l-.59-.17a7.6,7.6,0,0,1,.23-3.49,13.81,13.81,0,0,1,9.36-10,2.42,2.42,0,0,1,2.11.18c9.2,5,15.12,12.52,17.32,22.77A33.35,33.35,0,1,1,71.62,37.23,32.93,32.93,0,0,1,90,38.88C90.27,39,90.57,39.16,90.88,39.3Z"/><path class="cls-1" d="M191.12,59.4V50.18c2.06-.09,4,0,6,0,.26,1,.29,32.39,0,33.59H191.7l-.36-1.63a3.63,3.63,0,0,0-.52.3c-3,2.78-7.63,2.25-10.25.43a10.48,10.48,0,0,1-3.74-4.57,15.8,15.8,0,0,1-.44-12,10.49,10.49,0,0,1,8.3-7.15,12.45,12.45,0,0,1,5.36.21c.22.06.45.11.68.15A1.79,1.79,0,0,0,191.12,59.4Zm0,11.54V66.71c0-2.13,0-2.13-2.09-2.53A5.71,5.71,0,0,0,182.61,67a9.6,9.6,0,0,0,.15,9.65,4.88,4.88,0,0,0,7.58,1.21,2,2,0,0,0,.81-1.72C191.1,74.38,191.13,72.66,191.13,70.94Z"/><path class="cls-1" d="M299.73,73.18c.12,4.42,3.13,6,6.81,5.9,2.37-.08,3.5-.48,6.32-2,.53,1.6,1.05,3.17,1.6,4.86a12.57,12.57,0,0,1-1.19.72,17.29,17.29,0,0,1-11.43,1.25,10.12,10.12,0,0,1-7.53-7,15.78,15.78,0,0,1,.18-10.92c2.52-6.6,9.39-8.32,14.81-6.14a8.37,8.37,0,0,1,4.1,3.56,16.91,16.91,0,0,1,2.06,9.48c0,.07-.07.13-.19.34Zm9.33-4.47a4.47,4.47,0,0,0-4.57-4.86,4.7,4.7,0,0,0-4.5,4.86Z"/><path class="cls-1" d="M160.5,58.94a10.86,10.86,0,0,1,10.73,7.39,14.45,14.45,0,0,1-.6,11.83,10.53,10.53,0,0,1-9.52,6.17c-6.37.31-10.3-3.83-11.61-8.6a15.15,15.15,0,0,1,.25-9.11A10.86,10.86,0,0,1,160.5,58.94Zm5.6,12.36a9.69,9.69,0,0,0-.8-4,5.38,5.38,0,0,0-3.11-3,5,5,0,0,0-6.11,2.45A9.13,9.13,0,0,0,155,71.06a9.47,9.47,0,0,0,1.31,5.62A4.71,4.71,0,0,0,160,79a4.92,4.92,0,0,0,5-2.67A9.77,9.77,0,0,0,166.1,71.3Z"/><path class="cls-1" d="M252.23,58.94A10.94,10.94,0,0,1,263,66.61a14.57,14.57,0,0,1-.78,11.71,10.5,10.5,0,0,1-9.27,6c-6.63.39-10.61-3.92-11.86-8.88a15.19,15.19,0,0,1,.31-8.78A10.88,10.88,0,0,1,252.23,58.94Zm-5.55,12.6a9.23,9.23,0,0,0,1.06,4.79,5,5,0,0,0,8.7.35,8.54,8.54,0,0,0,1.31-4.33,9.91,9.91,0,0,0-.86-5.15,5.06,5.06,0,0,0-9.22-.27A9,9,0,0,0,246.68,71.54Z"/><path class="cls-1" d="M214.85,68a3.1,3.1,0,0,0-2.24-4,7.44,7.44,0,0,0-5.24.64c-.77.37-1.5.84-2.39,1.34L203,62a2.3,2.3,0,0,1,.32-.39,14.75,14.75,0,0,1,10.94-2.47c4.11.64,6.52,3.46,6.82,7.63,0,.54,0,1.09,0,1.64V83.79h-5.49l-.44-1.67-.78.56a8.88,8.88,0,0,1-10.31,0c-3.8-2.82-4.23-9.31.5-12.14a17.37,17.37,0,0,1,7.12-2.17C212.8,68.26,213.85,68.16,214.85,68Zm.22,4.32a18.94,18.94,0,0,0-5.79,1,3.61,3.61,0,0,0-.8.48,3.32,3.32,0,0,0-1.15,3.37,2.74,2.74,0,0,0,2.45,1.9,6.17,6.17,0,0,0,4.92-1.44,1,1,0,0,0,.35-.69C215.09,75.51,215.07,74,215.07,72.36Z"/><path class="cls-1" d="M289.57,83.77H283.5c0-.41-.06-.82-.06-1.23,0-4.11,0-8.22,0-12.33a10.79,10.79,0,0,0-.32-2.78c-.94-3.53-4-3.83-6.16-2.94a5.56,5.56,0,0,0-.73.37c-2.1,1.24-2.17,1.37-2.17,3.78V83.73h-5.92c-.25-.78-.34-22.43-.08-24.16h5.4c.13.54.27,1.1.44,1.76l1-.64a11,11,0,0,1,8.67-1.45,6.87,6.87,0,0,1,4.78,3.83,11.5,11.5,0,0,1,1.18,5c0,3.87,0,7.75,0,11.62C289.58,81,289.57,82.32,289.57,83.77Z"/><path class="cls-1" d="M234,83.75h-6.18V64.57l-3-.14a14.91,14.91,0,0,1-.06-4.94h3c.1-1.24.13-2.37.28-3.48a6.92,6.92,0,0,1,7-6.45,13.7,13.7,0,0,1,5.78.74c.14.05.27.13.5.24-.22,1.62-.44,3.23-.67,4.94a9.89,9.89,0,0,0-1-.24,20.18,20.18,0,0,0-2.9-.27A2.64,2.64,0,0,0,234,57.45c-.08.61-.07,1.23-.1,2,1.76.19,3.43,0,5.24.13,0,.82,0,1.63,0,2.43s0,1.56,0,2.5H234Z"/><path class="cls-1" d="M138.33,83.77h-5.41L122.77,59.56h6.55l6.26,15.85h.28l6.07-15.85h6.25C144.86,67.71,141.6,75.73,138.33,83.77Z"/></svg>